<?xml version="1.0" standalone="no"?>
<!DOCTYPE svg PUBLIC "-//W3C//DTD SVG 1.1//EN" "http://www.w3.org/Graphics/SVG/1.1/DTD/svg11.dtd">
<svg width="266mm" height="136mm" viewBox="37 32 266 136" xmlns="http://www.w3.org/2000/svg" version="1.1">
<title>OpenSCAD Model</title>
<path d="
M 302.5,32.5 L 37.5,32.5 L 37.5,167.5 L 302.5,167.5 z
M 94.5827,39.0912 L 94.4173,39.065 L 94.2556,39.0217 L 94.0992,38.9617 L 93.95,38.8856 L 93.8095,38.7944
 L 93.6794,38.689 L 93.561,38.5706 L 93.4556,38.4404 L 93.3643,38.3 L 93.2883,38.1508 L 93.2283,37.9944
 L 93.185,37.8327 L 93.1588,37.6672 L 93.15,37.5 L 93.1588,37.3327 L 93.185,37.1673 L 93.2283,37.0056
 L 93.2883,36.8492 L 93.3643,36.7 L 93.4556,36.5595 L 93.561,36.4294 L 93.6794,36.311 L 93.8095,36.2056
 L 93.95,36.1143 L 94.0992,36.0383 L 94.2556,35.9783 L 94.4173,35.935 L 94.5827,35.9088 L 94.75,35.9
 L 94.9172,35.9088 L 95.0827,35.935 L 95.2444,35.9783 L 95.4008,36.0383 L 95.55,36.1143 L 95.6905,36.2056
 L 95.8206,36.311 L 95.939,36.4294 L 96.0444,36.5595 L 96.1356,36.7 L 96.2117,36.8492 L 96.2717,37.0056
 L 96.315,37.1673 L 96.3412,37.3327 L 96.35,37.5 L 96.3412,37.6672 L 96.315,37.8327 L 96.2717,37.9944
 L 96.2117,38.1508 L 96.1356,38.3 L 96.0444,38.4404 L 95.939,38.5706 L 95.8206,38.689 L 95.6905,38.7944
 L 95.55,38.8856 L 95.4008,38.9617 L 95.2444,39.0217 L 95.0827,39.065 L 94.9172,39.0912 L 94.75,39.1
 z
M 245.083,39.0912 L 244.917,39.065 L 244.756,39.0217 L 244.599,38.9617 L 244.45,38.8856 L 244.31,38.7944
 L 244.179,38.689 L 244.061,38.5706 L 243.956,38.4404 L 243.864,38.3 L 243.788,38.1508 L 243.728,37.9944
 L 243.685,37.8327 L 243.659,37.6672 L 243.65,37.5 L 243.659,37.3327 L 243.685,37.1673 L 243.728,37.0056
 L 243.788,36.8492 L 243.864,36.7 L 243.956,36.5595 L 244.061,36.4294 L 244.179,36.311 L 244.31,36.2056
 L 244.45,36.1143 L 244.599,36.0383 L 244.756,35.9783 L 244.917,35.935 L 245.083,35.9088 L 245.25,35.9
 L 245.417,35.9088 L 245.583,35.935 L 245.744,35.9783 L 245.901,36.0383 L 246.05,36.1143 L 246.19,36.2056
 L 246.321,36.311 L 246.439,36.4294 L 246.544,36.5595 L 246.636,36.7 L 246.712,36.8492 L 246.772,37.0056
 L 246.815,37.1673 L 246.841,37.3327 L 246.85,37.5 L 246.841,37.6672 L 246.815,37.8327 L 246.772,37.9944
 L 246.712,38.1508 L 246.636,38.3 L 246.544,38.4404 L 246.439,38.5706 L 246.321,38.689 L 246.19,38.7944
 L 246.05,38.8856 L 245.901,38.9617 L 245.744,39.0217 L 245.583,39.065 L 245.417,39.0912 L 245.25,39.1
 z
M 169.833,39.0912 L 169.667,39.065 L 169.506,39.0217 L 169.349,38.9617 L 169.2,38.8856 L 169.06,38.7944
 L 168.929,38.689 L 168.811,38.5706 L 168.706,38.4404 L 168.614,38.3 L 168.538,38.1508 L 168.478,37.9944
 L 168.435,37.8327 L 168.409,37.6672 L 168.4,37.5 L 168.409,37.3327 L 168.435,37.1673 L 168.478,37.0056
 L 168.538,36.8492 L 168.614,36.7 L 168.706,36.5595 L 168.811,36.4294 L 168.929,36.311 L 169.06,36.2056
 L 169.2,36.1143 L 169.349,36.0383 L 169.506,35.9783 L 169.667,35.935 L 169.833,35.9088 L 170,35.9
 L 170.167,35.9088 L 170.333,35.935 L 170.494,35.9783 L 170.651,36.0383 L 170.8,36.1143 L 170.94,36.2056
 L 171.071,36.311 L 171.189,36.4294 L 171.294,36.5595 L 171.386,36.7 L 171.462,36.8492 L 171.522,37.0056
 L 171.565,37.1673 L 171.591,37.3327 L 171.6,37.5 L 171.591,37.6672 L 171.565,37.8327 L 171.522,37.9944
 L 171.462,38.1508 L 171.386,38.3 L 171.294,38.4404 L 171.189,38.5706 L 171.071,38.689 L 170.94,38.7944
 L 170.8,38.8856 L 170.651,38.9617 L 170.494,39.0217 L 170.333,39.065 L 170.167,39.0912 L 170,39.1
 z
M 120.728,52.0858 L 120.459,52.0432 L 120.197,51.9727 L 119.942,51.8752 L 119.7,51.7517 L 119.472,51.6034
 L 119.26,51.4322 L 119.068,51.2397 L 118.897,51.0282 L 118.748,50.8 L 118.625,50.5575 L 118.527,50.3034
 L 118.457,50.0406 L 118.414,49.7718 L 118.4,49.5 L 118.414,49.2282 L 118.457,48.9594 L 118.527,48.6965
 L 118.625,48.4425 L 118.748,48.2 L 118.897,47.9718 L 119.068,47.7603 L 119.26,47.5678 L 119.472,47.3965
 L 119.7,47.2483 L 119.942,47.1248 L 120.197,47.0273 L 120.459,46.9568 L 120.728,46.9142 L 121,46.9
 L 121.272,46.9142 L 121.541,46.9568 L 121.803,47.0273 L 122.058,47.1248 L 122.3,47.2483 L 122.528,47.3965
 L 122.74,47.5678 L 122.932,47.7603 L 123.103,47.9718 L 123.252,48.2 L 123.375,48.4425 L 123.473,48.6965
 L 123.543,48.9594 L 123.586,49.2282 L 123.6,49.5 L 123.586,49.7718 L 123.543,50.0406 L 123.473,50.3034
 L 123.375,50.5575 L 123.252,50.8 L 123.103,51.0282 L 122.932,51.2397 L 122.74,51.4322 L 122.528,51.6034
 L 122.3,51.7517 L 122.058,51.8752 L 121.803,51.9727 L 121.541,52.0432 L 121.272,52.0858 L 121,52.1
 z
M 201.133,57.0912 L 200.967,57.065 L 200.806,57.0217 L 200.649,56.9617 L 200.5,56.8856 L 200.36,56.7944
 L 200.229,56.689 L 200.111,56.5706 L 200.006,56.4404 L 199.914,56.3 L 199.838,56.1508 L 199.778,55.9944
 L 199.735,55.8327 L 199.709,55.6672 L 199.7,55.5 L 199.709,55.3327 L 199.735,55.1673 L 199.778,55.0056
 L 199.838,54.8492 L 199.914,54.7 L 200.006,54.5595 L 200.111,54.4294 L 200.229,54.311 L 200.36,54.2056
 L 200.5,54.1143 L 200.649,54.0383 L 200.806,53.9783 L 200.967,53.935 L 201.133,53.9088 L 201.3,53.9
 L 201.467,53.9088 L 201.633,53.935 L 201.794,53.9783 L 201.951,54.0383 L 202.1,54.1143 L 202.24,54.2056
 L 202.371,54.311 L 202.489,54.4294 L 202.594,54.5595 L 202.686,54.7 L 202.762,54.8492 L 202.822,55.0056
 L 202.865,55.1673 L 202.891,55.3327 L 202.9,55.5 L 202.891,55.6672 L 202.865,55.8327 L 202.822,55.9944
 L 202.762,56.1508 L 202.686,56.3 L 202.594,56.4404 L 202.489,56.5706 L 202.371,56.689 L 202.24,56.7944
 L 202.1,56.8856 L 201.951,56.9617 L 201.794,57.0217 L 201.633,57.065 L 201.467,57.0912 L 201.3,57.1
 z
M 122.568,54.7603 L 122.76,54.5678 L 122.972,54.3965 L 123.2,54.2483 L 123.442,54.1248 L 123.697,54.0273
 L 123.959,53.9568 L 124.228,53.9142 L 124.5,53.9 L 124.772,53.9142 L 125.041,53.9568 L 125.303,54.0273
 L 125.558,54.1248 L 125.8,54.2483 L 126.028,54.3965 L 126.24,54.5678 L 126.432,54.7603 L 126.603,54.9718
 L 126.752,55.2 L 126.875,55.4425 L 126.973,55.6965 L 127.043,55.9594 L 127.086,56.2282 L 127.1,56.5
 L 127.086,56.7718 L 127.043,57.0406 L 126.973,57.3034 L 126.875,57.5575 L 126.752,57.8 L 126.603,58.0282
 L 126.432,58.2397 L 126.24,58.4322 L 126.028,58.6034 L 125.8,58.7517 L 125.558,58.8752 L 125.303,58.9727
 L 125.041,59.0432 L 124.772,59.0858 L 124.5,59.1 L 124.228,59.0858 L 123.959,59.0432 L 123.697,58.9727
 L 123.442,58.8752 L 123.2,58.7517 L 122.972,58.6034 L 122.76,58.4322 L 122.568,58.2397 L 122.397,58.0282
 L 122.248,57.8 L 122.125,57.5575 L 122.027,57.3034 L 121.957,57.0406 L 121.914,56.7718 L 121.9,56.5
 L 121.914,56.2282 L 121.957,55.9594 L 122.027,55.6965 L 122.125,55.4425 L 122.248,55.2 L 122.397,54.9718
 z
M 294.533,57.2912 L 294.367,57.265 L 294.206,57.2217 L 294.049,57.1617 L 293.9,57.0856 L 293.76,56.9944
 L 293.629,56.889 L 293.511,56.7706 L 293.406,56.6405 L 293.314,56.5 L 293.238,56.3508 L 293.178,56.1944
 L 293.135,56.0327 L 293.109,55.8672 L 293.1,55.7 L 293.109,55.5327 L 293.135,55.3673 L 293.178,55.2056
 L 293.238,55.0492 L 293.314,54.9 L 293.406,54.7595 L 293.511,54.6294 L 293.629,54.511 L 293.76,54.4056
 L 293.9,54.3143 L 294.049,54.2383 L 294.206,54.1783 L 294.367,54.135 L 294.533,54.1088 L 294.7,54.1
 L 294.867,54.1088 L 295.033,54.135 L 295.194,54.1783 L 295.351,54.2383 L 295.5,54.3143 L 295.64,54.4056
 L 295.771,54.511 L 295.889,54.6294 L 295.994,54.7595 L 296.086,54.9 L 296.162,55.0492 L 296.222,55.2056
 L 296.265,55.3673 L 296.291,55.5327 L 296.3,55.7 L 296.291,55.8672 L 296.265,56.0327 L 296.222,56.1944
 L 296.162,56.3508 L 296.086,56.5 L 295.994,56.6405 L 295.889,56.7706 L 295.771,56.889 L 295.64,56.9944
 L 295.5,57.0856 L 295.351,57.1617 L 295.194,57.2217 L 295.033,57.265 L 294.867,57.2912 L 294.7,57.3
 z
M 130.333,60.0912 L 130.167,60.065 L 130.006,60.0217 L 129.849,59.9617 L 129.7,59.8856 L 129.56,59.7944
 L 129.429,59.689 L 129.311,59.5706 L 129.206,59.4404 L 129.114,59.3 L 129.038,59.1508 L 128.978,58.9944
 L 128.935,58.8327 L 128.909,58.6672 L 128.9,58.5 L 128.909,58.3327 L 128.935,58.1673 L 128.978,58.0056
 L 129.038,57.8492 L 129.114,57.7 L 129.206,57.5595 L 129.311,57.4294 L 129.429,57.311 L 129.56,57.2056
 L 129.7,57.1143 L 129.849,57.0383 L 130.006,56.9783 L 130.167,56.935 L 130.333,56.9088 L 130.5,56.9
 L 130.667,56.9088 L 130.833,56.935 L 130.994,56.9783 L 131.151,57.0383 L 131.3,57.1143 L 131.44,57.2056
 L 131.571,57.311 L 131.689,57.4294 L 131.794,57.5595 L 131.886,57.7 L 131.962,57.8492 L 132.022,58.0056
 L 132.065,58.1673 L 132.091,58.3327 L 132.1,58.5 L 132.091,58.6672 L 132.065,58.8327 L 132.022,58.9944
 L 131.962,59.1508 L 131.886,59.3 L 131.794,59.4404 L 131.689,59.5706 L 131.571,59.689 L 131.44,59.7944
 L 131.3,59.8856 L 131.151,59.9617 L 130.994,60.0217 L 130.833,60.065 L 130.667,60.0912 L 130.5,60.1
 z
M 109.333,60.0912 L 109.167,60.065 L 109.006,60.0217 L 108.849,59.9617 L 108.7,59.8856 L 108.56,59.7944
 L 108.429,59.689 L 108.311,59.5706 L 108.206,59.4404 L 108.114,59.3 L 108.038,59.1508 L 107.978,58.9944
 L 107.935,58.8327 L 107.909,58.6672 L 107.9,58.5 L 107.909,58.3327 L 107.935,58.1673 L 107.978,58.0056
 L 108.038,57.8492 L 108.114,57.7 L 108.206,57.5595 L 108.311,57.4294 L 108.429,57.311 L 108.56,57.2056
 L 108.7,57.1143 L 108.849,57.0383 L 109.006,56.9783 L 109.167,56.935 L 109.333,56.9088 L 109.5,56.9
 L 109.667,56.9088 L 109.833,56.935 L 109.994,56.9783 L 110.151,57.0383 L 110.3,57.1143 L 110.44,57.2056
 L 110.571,57.311 L 110.689,57.4294 L 110.794,57.5595 L 110.886,57.7 L 110.962,57.8492 L 111.022,58.0056
 L 111.065,58.1673 L 111.091,58.3327 L 111.1,58.5 L 111.091,58.6672 L 111.065,58.8327 L 111.022,58.9944
 L 110.962,59.1508 L 110.886,59.3 L 110.794,59.4404 L 110.689,59.5706 L 110.571,59.689 L 110.44,59.7944
 L 110.3,59.8856 L 110.151,59.9617 L 109.994,60.0217 L 109.833,60.065 L 109.667,60.0912 L 109.5,60.1
 z
M 189.333,60.0912 L 189.167,60.065 L 189.006,60.0217 L 188.849,59.9617 L 188.7,59.8856 L 188.56,59.7944
 L 188.429,59.689 L 188.311,59.5706 L 188.206,59.4404 L 188.114,59.3 L 188.038,59.1508 L 187.978,58.9944
 L 187.935,58.8327 L 187.909,58.6672 L 187.9,58.5 L 187.909,58.3327 L 187.935,58.1673 L 187.978,58.0056
 L 188.038,57.8492 L 188.114,57.7 L 188.206,57.5595 L 188.311,57.4294 L 188.429,57.311 L 188.56,57.2056
 L 188.7,57.1143 L 188.849,57.0383 L 189.006,56.9783 L 189.167,56.935 L 189.333,56.9088 L 189.5,56.9
 L 189.667,56.9088 L 189.833,56.935 L 189.994,56.9783 L 190.151,57.0383 L 190.3,57.1143 L 190.44,57.2056
 L 190.571,57.311 L 190.689,57.4294 L 190.794,57.5595 L 190.886,57.7 L 190.962,57.8492 L 191.022,58.0056
 L 191.065,58.1673 L 191.091,58.3327 L 191.1,58.5 L 191.091,58.6672 L 191.065,58.8327 L 191.022,58.9944
 L 190.962,59.1508 L 190.886,59.3 L 190.794,59.4404 L 190.689,59.5706 L 190.571,59.689 L 190.44,59.7944
 L 190.3,59.8856 L 190.151,59.9617 L 189.994,60.0217 L 189.833,60.065 L 189.667,60.0912 L 189.5,60.1
 z
M 50.3327,60.0912 L 50.1673,60.065 L 50.0056,60.0217 L 49.8492,59.9617 L 49.7,59.8856 L 49.5595,59.7944
 L 49.4294,59.689 L 49.311,59.5706 L 49.2056,59.4404 L 49.1143,59.3 L 49.0383,59.1508 L 48.9783,58.9944
 L 48.935,58.8327 L 48.9088,58.6672 L 48.9,58.5 L 48.9088,58.3327 L 48.935,58.1673 L 48.9783,58.0056
 L 49.0383,57.8492 L 49.1143,57.7 L 49.2056,57.5595 L 49.311,57.4294 L 49.4294,57.311 L 49.5595,57.2056
 L 49.7,57.1143 L 49.8492,57.0383 L 50.0056,56.9783 L 50.1673,56.935 L 50.3327,56.9088 L 50.5,56.9
 L 50.6672,56.9088 L 50.8327,56.935 L 50.9944,56.9783 L 51.1508,57.0383 L 51.3,57.1143 L 51.4404,57.2056
 L 51.5706,57.311 L 51.689,57.4294 L 51.7944,57.5595 L 51.8856,57.7 L 51.9617,57.8492 L 52.0217,58.0056
 L 52.065,58.1673 L 52.0912,58.3327 L 52.1,58.5 L 52.0912,58.6672 L 52.065,58.8327 L 52.0217,58.9944
 L 51.9617,59.1508 L 51.8856,59.3 L 51.7944,59.4404 L 51.689,59.5706 L 51.5706,59.689 L 51.4404,59.7944
 L 51.3,59.8856 L 51.1508,59.9617 L 50.9944,60.0217 L 50.8327,60.065 L 50.6672,60.0912 L 50.5,60.1
 z
M 120.728,66.0858 L 120.459,66.0432 L 120.197,65.9727 L 119.942,65.8752 L 119.7,65.7517 L 119.472,65.6034
 L 119.26,65.4322 L 119.068,65.2397 L 118.897,65.0282 L 118.748,64.8 L 118.625,64.5575 L 118.527,64.3034
 L 118.457,64.0406 L 118.414,63.7718 L 118.4,63.5 L 118.414,63.2282 L 118.457,62.9594 L 118.527,62.6965
 L 118.625,62.4425 L 118.748,62.2 L 118.897,61.9718 L 119.068,61.7603 L 119.26,61.5678 L 119.472,61.3965
 L 119.7,61.2483 L 119.942,61.1248 L 120.197,61.0273 L 120.459,60.9568 L 120.728,60.9142 L 121,60.9
 L 121.272,60.9142 L 121.541,60.9568 L 121.803,61.0273 L 122.058,61.1248 L 122.3,61.2483 L 122.528,61.3965
 L 122.74,61.5678 L 122.932,61.7603 L 123.103,61.9718 L 123.252,62.2 L 123.375,62.4425 L 123.473,62.6965
 L 123.543,62.9594 L 123.586,63.2282 L 123.6,63.5 L 123.586,63.7718 L 123.543,64.0406 L 123.473,64.3034
 L 123.375,64.5575 L 123.252,64.8 L 123.103,65.0282 L 122.932,65.2397 L 122.74,65.4322 L 122.528,65.6034
 L 122.3,65.7517 L 122.058,65.8752 L 121.803,65.9727 L 121.541,66.0432 L 121.272,66.0858 L 121,66.1
 z
M 122.568,68.7603 L 122.76,68.5678 L 122.972,68.3965 L 123.2,68.2483 L 123.442,68.1248 L 123.697,68.0273
 L 123.959,67.9568 L 124.228,67.9142 L 124.5,67.9 L 124.772,67.9142 L 125.041,67.9568 L 125.303,68.0273
 L 125.558,68.1248 L 125.8,68.2483 L 126.028,68.3965 L 126.24,68.5678 L 126.432,68.7603 L 126.603,68.9718
 L 126.752,69.2 L 126.875,69.4425 L 126.973,69.6965 L 127.043,69.9594 L 127.086,70.2282 L 127.1,70.5
 L 127.086,70.7718 L 127.043,71.0406 L 126.973,71.3034 L 126.875,71.5575 L 126.752,71.8 L 126.603,72.0282
 L 126.432,72.2397 L 126.24,72.4322 L 126.028,72.6034 L 125.8,72.7517 L 125.558,72.8752 L 125.303,72.9727
 L 125.041,73.0432 L 124.772,73.0858 L 124.5,73.1 L 124.228,73.0858 L 123.959,73.0432 L 123.697,72.9727
 L 123.442,72.8752 L 123.2,72.7517 L 122.972,72.6034 L 122.76,72.4322 L 122.568,72.2397 L 122.397,72.0282
 L 122.248,71.8 L 122.125,71.5575 L 122.027,71.3034 L 121.957,71.0406 L 121.914,70.7718 L 121.9,70.5
 L 121.914,70.2282 L 121.957,69.9594 L 122.027,69.6965 L 122.125,69.4425 L 122.248,69.2 L 122.397,68.9718
 z
M 120.728,80.0858 L 120.459,80.0432 L 120.197,79.9727 L 119.942,79.8752 L 119.7,79.7517 L 119.472,79.6034
 L 119.26,79.4322 L 119.068,79.2397 L 118.897,79.0282 L 118.748,78.8 L 118.625,78.5575 L 118.527,78.3034
 L 118.457,78.0406 L 118.414,77.7718 L 118.4,77.5 L 118.414,77.2282 L 118.457,76.9594 L 118.527,76.6965
 L 118.625,76.4425 L 118.748,76.2 L 118.897,75.9718 L 119.068,75.7603 L 119.26,75.5678 L 119.472,75.3965
 L 119.7,75.2483 L 119.942,75.1248 L 120.197,75.0273 L 120.459,74.9568 L 120.728,74.9142 L 121,74.9
 L 121.272,74.9142 L 121.541,74.9568 L 121.803,75.0273 L 122.058,75.1248 L 122.3,75.2483 L 122.528,75.3965
 L 122.74,75.5678 L 122.932,75.7603 L 123.103,75.9718 L 123.252,76.2 L 123.375,76.4425 L 123.473,76.6965
 L 123.543,76.9594 L 123.586,77.2282 L 123.6,77.5 L 123.586,77.7718 L 123.543,78.0406 L 123.473,78.3034
 L 123.375,78.5575 L 123.252,78.8 L 123.103,79.0282 L 122.932,79.2397 L 122.74,79.4322 L 122.528,79.6034
 L 122.3,79.7517 L 122.058,79.8752 L 121.803,79.9727 L 121.541,80.0432 L 121.272,80.0858 L 121,80.1
 z
M 122.397,82.9718 L 122.568,82.7603 L 122.76,82.5678 L 122.972,82.3965 L 123.2,82.2483 L 123.442,82.1248
 L 123.697,82.0273 L 123.959,81.9568 L 124.228,81.9142 L 124.5,81.9 L 124.772,81.9142 L 125.041,81.9568
 L 125.303,82.0273 L 125.558,82.1248 L 125.8,82.2483 L 126.028,82.3965 L 126.24,82.5678 L 126.432,82.7603
 L 126.603,82.9718 L 126.752,83.2 L 126.875,83.4425 L 126.973,83.6965 L 127.043,83.9594 L 127.086,84.2282
 L 127.1,84.5 L 127.086,84.7718 L 127.043,85.0406 L 126.973,85.3034 L 126.875,85.5575 L 126.752,85.8
 L 126.603,86.0282 L 126.432,86.2397 L 126.24,86.4322 L 126.028,86.6034 L 125.8,86.7517 L 125.558,86.8752
 L 125.303,86.9727 L 125.041,87.0432 L 124.772,87.0858 L 124.5,87.1 L 124.228,87.0858 L 123.959,87.0432
 L 123.697,86.9727 L 123.442,86.8752 L 123.2,86.7517 L 122.972,86.6034 L 122.76,86.4322 L 122.568,86.2397
 L 122.397,86.0282 L 122.248,85.8 L 122.125,85.5575 L 122.027,85.3034 L 121.957,85.0406 L 121.914,84.7718
 L 121.9,84.5 L 121.914,84.2282 L 121.957,83.9594 L 122.027,83.6965 L 122.125,83.4425 L 122.248,83.2
 z
M 109.333,87.0912 L 109.167,87.065 L 109.006,87.0217 L 108.849,86.9617 L 108.7,86.8856 L 108.56,86.7944
 L 108.429,86.689 L 108.311,86.5706 L 108.206,86.4405 L 108.114,86.3 L 108.038,86.1508 L 107.978,85.9944
 L 107.935,85.8327 L 107.909,85.6672 L 107.9,85.5 L 107.909,85.3327 L 107.935,85.1673 L 107.978,85.0056
 L 108.038,84.8492 L 108.114,84.7 L 108.206,84.5595 L 108.311,84.4294 L 108.429,84.311 L 108.56,84.2056
 L 108.7,84.1143 L 108.849,84.0383 L 109.006,83.9783 L 109.167,83.935 L 109.333,83.9088 L 109.5,83.9
 L 109.667,83.9088 L 109.833,83.935 L 109.994,83.9783 L 110.151,84.0383 L 110.3,84.1143 L 110.44,84.2056
 L 110.571,84.311 L 110.689,84.4294 L 110.794,84.5595 L 110.886,84.7 L 110.962,84.8492 L 111.022,85.0056
 L 111.065,85.1673 L 111.091,85.3327 L 111.1,85.5 L 111.091,85.6672 L 111.065,85.8327 L 111.022,85.9944
 L 110.962,86.1508 L 110.886,86.3 L 110.794,86.4405 L 110.689,86.5706 L 110.571,86.689 L 110.44,86.7944
 L 110.3,86.8856 L 110.151,86.9617 L 109.994,87.0217 L 109.833,87.065 L 109.667,87.0912 L 109.5,87.1
 z
M 189.333,87.0912 L 189.167,87.065 L 189.006,87.0217 L 188.849,86.9617 L 188.7,86.8856 L 188.56,86.7944
 L 188.429,86.689 L 188.311,86.5706 L 188.206,86.4405 L 188.114,86.3 L 188.038,86.1508 L 187.978,85.9944
 L 187.935,85.8327 L 187.909,85.6672 L 187.9,85.5 L 187.909,85.3327 L 187.935,85.1673 L 187.978,85.0056
 L 188.038,84.8492 L 188.114,84.7 L 188.206,84.5595 L 188.311,84.4294 L 188.429,84.311 L 188.56,84.2056
 L 188.7,84.1143 L 188.849,84.0383 L 189.006,83.9783 L 189.167,83.935 L 189.333,83.9088 L 189.5,83.9
 L 189.667,83.9088 L 189.833,83.935 L 189.994,83.9783 L 190.151,84.0383 L 190.3,84.1143 L 190.44,84.2056
 L 190.571,84.311 L 190.689,84.4294 L 190.794,84.5595 L 190.886,84.7 L 190.962,84.8492 L 191.022,85.0056
 L 191.065,85.1673 L 191.091,85.3327 L 191.1,85.5 L 191.091,85.6672 L 191.065,85.8327 L 191.022,85.9944
 L 190.962,86.1508 L 190.886,86.3 L 190.794,86.4405 L 190.689,86.5706 L 190.571,86.689 L 190.44,86.7944
 L 190.3,86.8856 L 190.151,86.9617 L 189.994,87.0217 L 189.833,87.065 L 189.667,87.0912 L 189.5,87.1
 z
M 130.333,87.0912 L 130.167,87.065 L 130.006,87.0217 L 129.849,86.9617 L 129.7,86.8856 L 129.56,86.7944
 L 129.429,86.689 L 129.311,86.5706 L 129.206,86.4405 L 129.114,86.3 L 129.038,86.1508 L 128.978,85.9944
 L 128.935,85.8327 L 128.909,85.6672 L 128.9,85.5 L 128.909,85.3327 L 128.935,85.1673 L 128.978,85.0056
 L 129.038,84.8492 L 129.114,84.7 L 129.206,84.5595 L 129.311,84.4294 L 129.429,84.311 L 129.56,84.2056
 L 129.7,84.1143 L 129.849,84.0383 L 130.006,83.9783 L 130.167,83.935 L 130.333,83.9088 L 130.5,83.9
 L 130.667,83.9088 L 130.833,83.935 L 130.994,83.9783 L 131.151,84.0383 L 131.3,84.1143 L 131.44,84.2056
 L 131.571,84.311 L 131.689,84.4294 L 131.794,84.5595 L 131.886,84.7 L 131.962,84.8492 L 132.022,85.0056
 L 132.065,85.1673 L 132.091,85.3327 L 132.1,85.5 L 132.091,85.6672 L 132.065,85.8327 L 132.022,85.9944
 L 131.962,86.1508 L 131.886,86.3 L 131.794,86.4405 L 131.689,86.5706 L 131.571,86.689 L 131.44,86.7944
 L 131.3,86.8856 L 131.151,86.9617 L 130.994,87.0217 L 130.833,87.065 L 130.667,87.0912 L 130.5,87.1
 z
M 50.3327,87.0912 L 50.1673,87.065 L 50.0056,87.0217 L 49.8492,86.9617 L 49.7,86.8856 L 49.5595,86.7944
 L 49.4294,86.689 L 49.311,86.5706 L 49.2056,86.4405 L 49.1143,86.3 L 49.0383,86.1508 L 48.9783,85.9944
 L 48.935,85.8327 L 48.9088,85.6672 L 48.9,85.5 L 48.9088,85.3327 L 48.935,85.1673 L 48.9783,85.0056
 L 49.0383,84.8492 L 49.1143,84.7 L 49.2056,84.5595 L 49.311,84.4294 L 49.4294,84.311 L 49.5595,84.2056
 L 49.7,84.1143 L 49.8492,84.0383 L 50.0056,83.9783 L 50.1673,83.935 L 50.3327,83.9088 L 50.5,83.9
 L 50.6672,83.9088 L 50.8327,83.935 L 50.9944,83.9783 L 51.1508,84.0383 L 51.3,84.1143 L 51.4404,84.2056
 L 51.5706,84.311 L 51.689,84.4294 L 51.7944,84.5595 L 51.8856,84.7 L 51.9617,84.8492 L 52.0217,85.0056
 L 52.065,85.1673 L 52.0912,85.3327 L 52.1,85.5 L 52.0912,85.6672 L 52.065,85.8327 L 52.0217,85.9944
 L 51.9617,86.1508 L 51.8856,86.3 L 51.7944,86.4405 L 51.689,86.5706 L 51.5706,86.689 L 51.4404,86.7944
 L 51.3,86.8856 L 51.1508,86.9617 L 50.9944,87.0217 L 50.8327,87.065 L 50.6672,87.0912 L 50.5,87.1
 z
M 120.728,94.0858 L 120.459,94.0432 L 120.197,93.9727 L 119.942,93.8752 L 119.7,93.7517 L 119.472,93.6034
 L 119.26,93.4322 L 119.068,93.2397 L 118.897,93.0282 L 118.748,92.8 L 118.625,92.5575 L 118.527,92.3034
 L 118.457,92.0406 L 118.414,91.7718 L 118.4,91.5 L 118.414,91.2282 L 118.457,90.9594 L 118.527,90.6965
 L 118.625,90.4425 L 118.748,90.2 L 118.897,89.9718 L 119.068,89.7603 L 119.26,89.5678 L 119.472,89.3965
 L 119.7,89.2483 L 119.942,89.1248 L 120.197,89.0273 L 120.459,88.9568 L 120.728,88.9142 L 121,88.9
 L 121.272,88.9142 L 121.541,88.9568 L 121.803,89.0273 L 122.058,89.1248 L 122.3,89.2483 L 122.528,89.3965
 L 122.74,89.5678 L 122.932,89.7603 L 123.103,89.9718 L 123.252,90.2 L 123.375,90.4425 L 123.473,90.6965
 L 123.543,90.9594 L 123.586,91.2282 L 123.6,91.5 L 123.586,91.7718 L 123.543,92.0406 L 123.473,92.3034
 L 123.375,92.5575 L 123.252,92.8 L 123.103,93.0282 L 122.932,93.2397 L 122.74,93.4322 L 122.528,93.6034
 L 122.3,93.7517 L 122.058,93.8752 L 121.803,93.9727 L 121.541,94.0432 L 121.272,94.0858 L 121,94.1
 z
M 152.228,101.086 L 151.959,101.043 L 151.697,100.973 L 151.442,100.875 L 151.2,100.752 L 150.972,100.603
 L 150.76,100.432 L 150.568,100.24 L 150.397,100.028 L 150.248,99.8 L 150.125,99.5575 L 150.027,99.3034
 L 149.957,99.0406 L 149.914,98.7718 L 149.9,98.5 L 149.914,98.2282 L 149.957,97.9594 L 150.027,97.6965
 L 150.125,97.4425 L 150.248,97.2 L 150.397,96.9718 L 150.568,96.7603 L 150.76,96.5678 L 150.972,96.3965
 L 151.2,96.2483 L 151.442,96.1248 L 151.697,96.0273 L 151.959,95.9568 L 152.228,95.9142 L 152.5,95.9
 L 152.772,95.9142 L 153.041,95.9568 L 153.303,96.0273 L 153.558,96.1248 L 153.8,96.2483 L 154.028,96.3965
 L 154.24,96.5678 L 154.432,96.7603 L 154.603,96.9718 L 154.752,97.2 L 154.875,97.4425 L 154.973,97.6965
 L 155.043,97.9594 L 155.086,98.2282 L 155.1,98.5 L 155.086,98.7718 L 155.043,99.0406 L 154.973,99.3034
 L 154.875,99.5575 L 154.752,99.8 L 154.603,100.028 L 154.432,100.24 L 154.24,100.432 L 154.028,100.603
 L 153.8,100.752 L 153.558,100.875 L 153.303,100.973 L 153.041,101.043 L 152.772,101.086 L 152.5,101.1
 z
M 68.2282,101.086 L 67.9594,101.043 L 67.6965,100.973 L 67.4425,100.875 L 67.2,100.752 L 66.9718,100.603
 L 66.7603,100.432 L 66.5678,100.24 L 66.3965,100.028 L 66.2483,99.8 L 66.1248,99.5575 L 66.0273,99.3034
 L 65.9568,99.0406 L 65.9142,98.7718 L 65.9,98.5 L 65.9142,98.2282 L 65.9568,97.9594 L 66.0273,97.6965
 L 66.1248,97.4425 L 66.2483,97.2 L 66.3965,96.9718 L 66.5678,96.7603 L 66.7603,96.5678 L 66.9718,96.3965
 L 67.2,96.2483 L 67.4425,96.1248 L 67.6965,96.0273 L 67.9594,95.9568 L 68.2282,95.9142 L 68.5,95.9
 L 68.7718,95.9142 L 69.0406,95.9568 L 69.3034,96.0273 L 69.5575,96.1248 L 69.8,96.2483 L 70.0282,96.3965
 L 70.2397,96.5678 L 70.4322,96.7603 L 70.6034,96.9718 L 70.7517,97.2 L 70.8752,97.4425 L 70.9727,97.6965
 L 71.0432,97.9594 L 71.0858,98.2282 L 71.1,98.5 L 71.0858,98.7718 L 71.0432,99.0406 L 70.9727,99.3034
 L 70.8752,99.5575 L 70.7517,99.8 L 70.6034,100.028 L 70.4322,100.24 L 70.2397,100.432 L 70.0282,100.603
 L 69.8,100.752 L 69.5575,100.875 L 69.3034,100.973 L 69.0406,101.043 L 68.7718,101.086 L 68.5,101.1
 z
M 82.2282,101.086 L 81.9594,101.043 L 81.6965,100.973 L 81.4425,100.875 L 81.2,100.752 L 80.9718,100.603
 L 80.7603,100.432 L 80.5678,100.24 L 80.3965,100.028 L 80.2483,99.8 L 80.1248,99.5575 L 80.0273,99.3034
 L 79.9568,99.0406 L 79.9142,98.7718 L 79.9,98.5 L 79.9142,98.2282 L 79.9568,97.9594 L 80.0273,97.6965
 L 80.1248,97.4425 L 80.2483,97.2 L 80.3965,96.9718 L 80.5678,96.7603 L 80.7603,96.5678 L 80.9718,96.3965
 L 81.2,96.2483 L 81.4425,96.1248 L 81.6965,96.0273 L 81.9594,95.9568 L 82.2282,95.9142 L 82.5,95.9
 L 82.7718,95.9142 L 83.0406,95.9568 L 83.3034,96.0273 L 83.5575,96.1248 L 83.8,96.2483 L 84.0282,96.3965
 L 84.2397,96.5678 L 84.4322,96.7603 L 84.6034,96.9718 L 84.7517,97.2 L 84.8752,97.4425 L 84.9727,97.6965
 L 85.0432,97.9594 L 85.0858,98.2282 L 85.1,98.5 L 85.0858,98.7718 L 85.0432,99.0406 L 84.9727,99.3034
 L 84.8752,99.5575 L 84.7517,99.8 L 84.6034,100.028 L 84.4322,100.24 L 84.2397,100.432 L 84.0282,100.603
 L 83.8,100.752 L 83.5575,100.875 L 83.3034,100.973 L 83.0406,101.043 L 82.7718,101.086 L 82.5,101.1
 z
M 166.228,101.086 L 165.959,101.043 L 165.697,100.973 L 165.442,100.875 L 165.2,100.752 L 164.972,100.603
 L 164.76,100.432 L 164.568,100.24 L 164.397,100.028 L 164.248,99.8 L 164.125,99.5575 L 164.027,99.3034
 L 163.957,99.0406 L 163.914,98.7718 L 163.9,98.5 L 163.914,98.2282 L 163.957,97.9594 L 164.027,97.6965
 L 164.125,97.4425 L 164.248,97.2 L 164.397,96.9718 L 164.568,96.7603 L 164.76,96.5678 L 164.972,96.3965
 L 165.2,96.2483 L 165.442,96.1248 L 165.697,96.0273 L 165.959,95.9568 L 166.228,95.9142 L 166.5,95.9
 L 166.772,95.9142 L 167.041,95.9568 L 167.303,96.0273 L 167.558,96.1248 L 167.8,96.2483 L 168.028,96.3965
 L 168.24,96.5678 L 168.432,96.7603 L 168.603,96.9718 L 168.752,97.2 L 168.875,97.4425 L 168.973,97.6965
 L 169.043,97.9594 L 169.086,98.2282 L 169.1,98.5 L 169.086,98.7718 L 169.043,99.0406 L 168.973,99.3034
 L 168.875,99.5575 L 168.752,99.8 L 168.603,100.028 L 168.432,100.24 L 168.24,100.432 L 168.028,100.603
 L 167.8,100.752 L 167.558,100.875 L 167.303,100.973 L 167.041,101.043 L 166.772,101.086 L 166.5,101.1
 z
M 187.228,101.086 L 186.959,101.043 L 186.697,100.973 L 186.442,100.875 L 186.2,100.752 L 185.972,100.603
 L 185.76,100.432 L 185.568,100.24 L 185.397,100.028 L 185.248,99.8 L 185.125,99.5575 L 185.027,99.3034
 L 184.957,99.0406 L 184.914,98.7718 L 184.9,98.5 L 184.914,98.2282 L 184.957,97.9594 L 185.027,97.6965
 L 185.125,97.4425 L 185.248,97.2 L 185.397,96.9718 L 185.568,96.7603 L 185.76,96.5678 L 185.972,96.3965
 L 186.2,96.2483 L 186.442,96.1248 L 186.697,96.0273 L 186.959,95.9568 L 187.228,95.9142 L 187.5,95.9
 L 187.772,95.9142 L 188.041,95.9568 L 188.303,96.0273 L 188.558,96.1248 L 188.8,96.2483 L 189.028,96.3965
 L 189.24,96.5678 L 189.432,96.7603 L 189.603,96.9718 L 189.752,97.2 L 189.875,97.4425 L 189.973,97.6965
 L 190.043,97.9594 L 190.086,98.2282 L 190.1,98.5 L 190.086,98.7718 L 190.043,99.0406 L 189.973,99.3034
 L 189.875,99.5575 L 189.752,99.8 L 189.603,100.028 L 189.432,100.24 L 189.24,100.432 L 189.028,100.603
 L 188.8,100.752 L 188.558,100.875 L 188.303,100.973 L 188.041,101.043 L 187.772,101.086 L 187.5,101.1
 z
M 159.228,101.086 L 158.959,101.043 L 158.697,100.973 L 158.442,100.875 L 158.2,100.752 L 157.972,100.603
 L 157.76,100.432 L 157.568,100.24 L 157.397,100.028 L 157.248,99.8 L 157.125,99.5575 L 157.027,99.3034
 L 156.957,99.0406 L 156.914,98.7718 L 156.9,98.5 L 156.914,98.2282 L 156.957,97.9594 L 157.027,97.6965
 L 157.125,97.4425 L 157.248,97.2 L 157.397,96.9718 L 157.568,96.7603 L 157.76,96.5678 L 157.972,96.3965
 L 158.2,96.2483 L 158.442,96.1248 L 158.697,96.0273 L 158.959,95.9568 L 159.228,95.9142 L 159.5,95.9
 L 159.772,95.9142 L 160.041,95.9568 L 160.303,96.0273 L 160.558,96.1248 L 160.8,96.2483 L 161.028,96.3965
 L 161.24,96.5678 L 161.432,96.7603 L 161.603,96.9718 L 161.752,97.2 L 161.875,97.4425 L 161.973,97.6965
 L 162.043,97.9594 L 162.086,98.2282 L 162.1,98.5 L 162.086,98.7718 L 162.043,99.0406 L 161.973,99.3034
 L 161.875,99.5575 L 161.752,99.8 L 161.603,100.028 L 161.432,100.24 L 161.24,100.432 L 161.028,100.603
 L 160.8,100.752 L 160.558,100.875 L 160.303,100.973 L 160.041,101.043 L 159.772,101.086 L 159.5,101.1
 z
M 138.228,101.086 L 137.959,101.043 L 137.697,100.973 L 137.442,100.875 L 137.2,100.752 L 136.972,100.603
 L 136.76,100.432 L 136.568,100.24 L 136.397,100.028 L 136.248,99.8 L 136.125,99.5575 L 136.027,99.3034
 L 135.957,99.0406 L 135.914,98.7718 L 135.9,98.5 L 135.914,98.2282 L 135.957,97.9594 L 136.027,97.6965
 L 136.125,97.4425 L 136.248,97.2 L 136.397,96.9718 L 136.568,96.7603 L 136.76,96.5678 L 136.972,96.3965
 L 137.2,96.2483 L 137.442,96.1248 L 137.697,96.0273 L 137.959,95.9568 L 138.228,95.9142 L 138.5,95.9
 L 138.772,95.9142 L 139.041,95.9568 L 139.303,96.0273 L 139.558,96.1248 L 139.8,96.2483 L 140.028,96.3965
 L 140.24,96.5678 L 140.432,96.7603 L 140.603,96.9718 L 140.752,97.2 L 140.875,97.4425 L 140.973,97.6965
 L 141.043,97.9594 L 141.086,98.2282 L 141.1,98.5 L 141.086,98.7718 L 141.043,99.0406 L 140.973,99.3034
 L 140.875,99.5575 L 140.752,99.8 L 140.603,100.028 L 140.432,100.24 L 140.24,100.432 L 140.028,100.603
 L 139.8,100.752 L 139.558,100.875 L 139.303,100.973 L 139.041,101.043 L 138.772,101.086 L 138.5,101.1
 z
M 145.228,101.086 L 144.959,101.043 L 144.697,100.973 L 144.442,100.875 L 144.2,100.752 L 143.972,100.603
 L 143.76,100.432 L 143.568,100.24 L 143.397,100.028 L 143.248,99.8 L 143.125,99.5575 L 143.027,99.3034
 L 142.957,99.0406 L 142.914,98.7718 L 142.9,98.5 L 142.914,98.2282 L 142.957,97.9594 L 143.027,97.6965
 L 143.125,97.4425 L 143.248,97.2 L 143.397,96.9718 L 143.568,96.7603 L 143.76,96.5678 L 143.972,96.3965
 L 144.2,96.2483 L 144.442,96.1248 L 144.697,96.0273 L 144.959,95.9568 L 145.228,95.9142 L 145.5,95.9
 L 145.772,95.9142 L 146.041,95.9568 L 146.303,96.0273 L 146.558,96.1248 L 146.8,96.2483 L 147.028,96.3965
 L 147.24,96.5678 L 147.432,96.7603 L 147.603,96.9718 L 147.752,97.2 L 147.875,97.4425 L 147.973,97.6965
 L 148.043,97.9594 L 148.086,98.2282 L 148.1,98.5 L 148.086,98.7718 L 148.043,99.0406 L 147.973,99.3034
 L 147.875,99.5575 L 147.752,99.8 L 147.603,100.028 L 147.432,100.24 L 147.24,100.432 L 147.028,100.603
 L 146.8,100.752 L 146.558,100.875 L 146.303,100.973 L 146.041,101.043 L 145.772,101.086 L 145.5,101.1
 z
M 110.228,101.086 L 109.959,101.043 L 109.697,100.973 L 109.442,100.875 L 109.2,100.752 L 108.972,100.603
 L 108.76,100.432 L 108.568,100.24 L 108.397,100.028 L 108.248,99.8 L 108.125,99.5575 L 108.027,99.3034
 L 107.957,99.0406 L 107.914,98.7718 L 107.9,98.5 L 107.914,98.2282 L 107.957,97.9594 L 108.027,97.6965
 L 108.125,97.4425 L 108.248,97.2 L 108.397,96.9718 L 108.568,96.7603 L 108.76,96.5678 L 108.972,96.3965
 L 109.2,96.2483 L 109.442,96.1248 L 109.697,96.0273 L 109.959,95.9568 L 110.228,95.9142 L 110.5,95.9
 L 110.772,95.9142 L 111.041,95.9568 L 111.303,96.0273 L 111.558,96.1248 L 111.8,96.2483 L 112.028,96.3965
 L 112.24,96.5678 L 112.432,96.7603 L 112.603,96.9718 L 112.752,97.2 L 112.875,97.4425 L 112.973,97.6965
 L 113.043,97.9594 L 113.086,98.2282 L 113.1,98.5 L 113.086,98.7718 L 113.043,99.0406 L 112.973,99.3034
 L 112.875,99.5575 L 112.752,99.8 L 112.603,100.028 L 112.432,100.24 L 112.24,100.432 L 112.028,100.603
 L 111.8,100.752 L 111.558,100.875 L 111.303,100.973 L 111.041,101.043 L 110.772,101.086 L 110.5,101.1
 z
M 131.228,101.086 L 130.959,101.043 L 130.697,100.973 L 130.442,100.875 L 130.2,100.752 L 129.972,100.603
 L 129.76,100.432 L 129.568,100.24 L 129.397,100.028 L 129.248,99.8 L 129.125,99.5575 L 129.027,99.3034
 L 128.957,99.0406 L 128.914,98.7718 L 128.9,98.5 L 128.914,98.2282 L 128.957,97.9594 L 129.027,97.6965
 L 129.125,97.4425 L 129.248,97.2 L 129.397,96.9718 L 129.568,96.7603 L 129.76,96.5678 L 129.972,96.3965
 L 130.2,96.2483 L 130.442,96.1248 L 130.697,96.0273 L 130.959,95.9568 L 131.228,95.9142 L 131.5,95.9
 L 131.772,95.9142 L 132.041,95.9568 L 132.303,96.0273 L 132.558,96.1248 L 132.8,96.2483 L 133.028,96.3965
 L 133.24,96.5678 L 133.432,96.7603 L 133.603,96.9718 L 133.752,97.2 L 133.875,97.4425 L 133.973,97.6965
 L 134.043,97.9594 L 134.086,98.2282 L 134.1,98.5 L 134.086,98.7718 L 134.043,99.0406 L 133.973,99.3034
 L 133.875,99.5575 L 133.752,99.8 L 133.603,100.028 L 133.432,100.24 L 133.24,100.432 L 133.028,100.603
 L 132.8,100.752 L 132.558,100.875 L 132.303,100.973 L 132.041,101.043 L 131.772,101.086 L 131.5,101.1
 z
M 54.2282,101.086 L 53.9594,101.043 L 53.6965,100.973 L 53.4425,100.875 L 53.2,100.752 L 52.9718,100.603
 L 52.7603,100.432 L 52.5678,100.24 L 52.3965,100.028 L 52.2483,99.8 L 52.1248,99.5575 L 52.0273,99.3034
 L 51.9568,99.0406 L 51.9142,98.7718 L 51.9,98.5 L 51.9142,98.2282 L 51.9568,97.9594 L 52.0273,97.6965
 L 52.1248,97.4425 L 52.2483,97.2 L 52.3965,96.9718 L 52.5678,96.7603 L 52.7603,96.5678 L 52.9718,96.3965
 L 53.2,96.2483 L 53.4425,96.1248 L 53.6965,96.0273 L 53.9594,95.9568 L 54.2282,95.9142 L 54.5,95.9
 L 54.7718,95.9142 L 55.0406,95.9568 L 55.3034,96.0273 L 55.5575,96.1248 L 55.8,96.2483 L 56.0282,96.3965
 L 56.2397,96.5678 L 56.4322,96.7603 L 56.6034,96.9718 L 56.7517,97.2 L 56.8752,97.4425 L 56.9727,97.6965
 L 57.0432,97.9594 L 57.0858,98.2282 L 57.1,98.5 L 57.0858,98.7718 L 57.0432,99.0406 L 56.9727,99.3034
 L 56.8752,99.5575 L 56.7517,99.8 L 56.6034,100.028 L 56.4322,100.24 L 56.2397,100.432 L 56.0282,100.603
 L 55.8,100.752 L 55.5575,100.875 L 55.3034,100.973 L 55.0406,101.043 L 54.7718,101.086 L 54.5,101.1
 z
M 96.2282,101.086 L 95.9594,101.043 L 95.6965,100.973 L 95.4425,100.875 L 95.2,100.752 L 94.9718,100.603
 L 94.7603,100.432 L 94.5678,100.24 L 94.3965,100.028 L 94.2483,99.8 L 94.1248,99.5575 L 94.0273,99.3034
 L 93.9568,99.0406 L 93.9142,98.7718 L 93.9,98.5 L 93.9142,98.2282 L 93.9568,97.9594 L 94.0273,97.6965
 L 94.1248,97.4425 L 94.2483,97.2 L 94.3965,96.9718 L 94.5678,96.7603 L 94.7603,96.5678 L 94.9718,96.3965
 L 95.2,96.2483 L 95.4425,96.1248 L 95.6965,96.0273 L 95.9594,95.9568 L 96.2282,95.9142 L 96.5,95.9
 L 96.7718,95.9142 L 97.0406,95.9568 L 97.3034,96.0273 L 97.5575,96.1248 L 97.8,96.2483 L 98.0282,96.3965
 L 98.2397,96.5678 L 98.4322,96.7603 L 98.6034,96.9718 L 98.7517,97.2 L 98.8752,97.4425 L 98.9727,97.6965
 L 99.0432,97.9594 L 99.0858,98.2282 L 99.1,98.5 L 99.0858,98.7718 L 99.0432,99.0406 L 98.9727,99.3034
 L 98.8752,99.5575 L 98.7517,99.8 L 98.6034,100.028 L 98.4322,100.24 L 98.2397,100.432 L 98.0282,100.603
 L 97.8,100.752 L 97.5575,100.875 L 97.3034,100.973 L 97.0406,101.043 L 96.7718,101.086 L 96.5,101.1
 z
M 173.228,101.086 L 172.959,101.043 L 172.697,100.973 L 172.442,100.875 L 172.2,100.752 L 171.972,100.603
 L 171.76,100.432 L 171.568,100.24 L 171.397,100.028 L 171.248,99.8 L 171.125,99.5575 L 171.027,99.3034
 L 170.957,99.0406 L 170.914,98.7718 L 170.9,98.5 L 170.914,98.2282 L 170.957,97.9594 L 171.027,97.6965
 L 171.125,97.4425 L 171.248,97.2 L 171.397,96.9718 L 171.568,96.7603 L 171.76,96.5678 L 171.972,96.3965
 L 172.2,96.2483 L 172.442,96.1248 L 172.697,96.0273 L 172.959,95.9568 L 173.228,95.9142 L 173.5,95.9
 L 173.772,95.9142 L 174.041,95.9568 L 174.303,96.0273 L 174.558,96.1248 L 174.8,96.2483 L 175.028,96.3965
 L 175.24,96.5678 L 175.432,96.7603 L 175.603,96.9718 L 175.752,97.2 L 175.875,97.4425 L 175.973,97.6965
 L 176.043,97.9594 L 176.086,98.2282 L 176.1,98.5 L 176.086,98.7718 L 176.043,99.0406 L 175.973,99.3034
 L 175.875,99.5575 L 175.752,99.8 L 175.603,100.028 L 175.432,100.24 L 175.24,100.432 L 175.028,100.603
 L 174.8,100.752 L 174.558,100.875 L 174.303,100.973 L 174.041,101.043 L 173.772,101.086 L 173.5,101.1
 z
M 180.228,101.086 L 179.959,101.043 L 179.697,100.973 L 179.442,100.875 L 179.2,100.752 L 178.972,100.603
 L 178.76,100.432 L 178.568,100.24 L 178.397,100.028 L 178.248,99.8 L 178.125,99.5575 L 178.027,99.3034
 L 177.957,99.0406 L 177.914,98.7718 L 177.9,98.5 L 177.914,98.2282 L 177.957,97.9594 L 178.027,97.6965
 L 178.125,97.4425 L 178.248,97.2 L 178.397,96.9718 L 178.568,96.7603 L 178.76,96.5678 L 178.972,96.3965
 L 179.2,96.2483 L 179.442,96.1248 L 179.697,96.0273 L 179.959,95.9568 L 180.228,95.9142 L 180.5,95.9
 L 180.772,95.9142 L 181.041,95.9568 L 181.303,96.0273 L 181.558,96.1248 L 181.8,96.2483 L 182.028,96.3965
 L 182.24,96.5678 L 182.432,96.7603 L 182.603,96.9718 L 182.752,97.2 L 182.875,97.4425 L 182.973,97.6965
 L 183.043,97.9594 L 183.086,98.2282 L 183.1,98.5 L 183.086,98.7718 L 183.043,99.0406 L 182.973,99.3034
 L 182.875,99.5575 L 182.752,99.8 L 182.603,100.028 L 182.432,100.24 L 182.24,100.432 L 182.028,100.603
 L 181.8,100.752 L 181.558,100.875 L 181.303,100.973 L 181.041,101.043 L 180.772,101.086 L 180.5,101.1
 z
M 103.228,101.086 L 102.959,101.043 L 102.697,100.973 L 102.442,100.875 L 102.2,100.752 L 101.972,100.603
 L 101.76,100.432 L 101.568,100.24 L 101.397,100.028 L 101.248,99.8 L 101.125,99.5575 L 101.027,99.3034
 L 100.957,99.0406 L 100.914,98.7718 L 100.9,98.5 L 100.914,98.2282 L 100.957,97.9594 L 101.027,97.6965
 L 101.125,97.4425 L 101.248,97.2 L 101.397,96.9718 L 101.568,96.7603 L 101.76,96.5678 L 101.972,96.3965
 L 102.2,96.2483 L 102.442,96.1248 L 102.697,96.0273 L 102.959,95.9568 L 103.228,95.9142 L 103.5,95.9
 L 103.772,95.9142 L 104.041,95.9568 L 104.303,96.0273 L 104.558,96.1248 L 104.8,96.2483 L 105.028,96.3965
 L 105.24,96.5678 L 105.432,96.7603 L 105.603,96.9718 L 105.752,97.2 L 105.875,97.4425 L 105.973,97.6965
 L 106.043,97.9594 L 106.086,98.2282 L 106.1,98.5 L 106.086,98.7718 L 106.043,99.0406 L 105.973,99.3034
 L 105.875,99.5575 L 105.752,99.8 L 105.603,100.028 L 105.432,100.24 L 105.24,100.432 L 105.028,100.603
 L 104.8,100.752 L 104.558,100.875 L 104.303,100.973 L 104.041,101.043 L 103.772,101.086 L 103.5,101.1
 z
M 89.2282,101.086 L 88.9594,101.043 L 88.6965,100.973 L 88.4425,100.875 L 88.2,100.752 L 87.9718,100.603
 L 87.7603,100.432 L 87.5678,100.24 L 87.3965,100.028 L 87.2483,99.8 L 87.1248,99.5575 L 87.0273,99.3034
 L 86.9568,99.0406 L 86.9142,98.7718 L 86.9,98.5 L 86.9142,98.2282 L 86.9568,97.9594 L 87.0273,97.6965
 L 87.1248,97.4425 L 87.2483,97.2 L 87.3965,96.9718 L 87.5678,96.7603 L 87.7603,96.5678 L 87.9718,96.3965
 L 88.2,96.2483 L 88.4425,96.1248 L 88.6965,96.0273 L 88.9594,95.9568 L 89.2282,95.9142 L 89.5,95.9
 L 89.7718,95.9142 L 90.0406,95.9568 L 90.3034,96.0273 L 90.5575,96.1248 L 90.8,96.2483 L 91.0282,96.3965
 L 91.2397,96.5678 L 91.4322,96.7603 L 91.6034,96.9718 L 91.7517,97.2 L 91.8752,97.4425 L 91.9727,97.6965
 L 92.0432,97.9594 L 92.0858,98.2282 L 92.1,98.5 L 92.0858,98.7718 L 92.0432,99.0406 L 91.9727,99.3034
 L 91.8752,99.5575 L 91.7517,99.8 L 91.6034,100.028 L 91.4322,100.24 L 91.2397,100.432 L 91.0282,100.603
 L 90.8,100.752 L 90.5575,100.875 L 90.3034,100.973 L 90.0406,101.043 L 89.7718,101.086 L 89.5,101.1
 z
M 75.2282,101.086 L 74.9594,101.043 L 74.6965,100.973 L 74.4425,100.875 L 74.2,100.752 L 73.9718,100.603
 L 73.7603,100.432 L 73.5678,100.24 L 73.3965,100.028 L 73.2483,99.8 L 73.1248,99.5575 L 73.0273,99.3034
 L 72.9568,99.0406 L 72.9142,98.7718 L 72.9,98.5 L 72.9142,98.2282 L 72.9568,97.9594 L 73.0273,97.6965
 L 73.1248,97.4425 L 73.2483,97.2 L 73.3965,96.9718 L 73.5678,96.7603 L 73.7603,96.5678 L 73.9718,96.3965
 L 74.2,96.2483 L 74.4425,96.1248 L 74.6965,96.0273 L 74.9594,95.9568 L 75.2282,95.9142 L 75.5,95.9
 L 75.7718,95.9142 L 76.0406,95.9568 L 76.3034,96.0273 L 76.5575,96.1248 L 76.8,96.2483 L 77.0282,96.3965
 L 77.2397,96.5678 L 77.4322,96.7603 L 77.6034,96.9718 L 77.7517,97.2 L 77.8752,97.4425 L 77.9727,97.6965
 L 78.0432,97.9594 L 78.0858,98.2282 L 78.1,98.5 L 78.0858,98.7718 L 78.0432,99.0406 L 77.9727,99.3034
 L 77.8752,99.5575 L 77.7517,99.8 L 77.6034,100.028 L 77.4322,100.24 L 77.2397,100.432 L 77.0282,100.603
 L 76.8,100.752 L 76.5575,100.875 L 76.3034,100.973 L 76.0406,101.043 L 75.7718,101.086 L 75.5,101.1
 z
M 61.2282,101.086 L 60.9594,101.043 L 60.6965,100.973 L 60.4425,100.875 L 60.2,100.752 L 59.9718,100.603
 L 59.7603,100.432 L 59.5678,100.24 L 59.3965,100.028 L 59.2483,99.8 L 59.1248,99.5575 L 59.0273,99.3034
 L 58.9568,99.0406 L 58.9142,98.7718 L 58.9,98.5 L 58.9142,98.2282 L 58.9568,97.9594 L 59.0273,97.6965
 L 59.1248,97.4425 L 59.2483,97.2 L 59.3965,96.9718 L 59.5678,96.7603 L 59.7603,96.5678 L 59.9718,96.3965
 L 60.2,96.2483 L 60.4425,96.1248 L 60.6965,96.0273 L 60.9594,95.9568 L 61.2282,95.9142 L 61.5,95.9
 L 61.7718,95.9142 L 62.0406,95.9568 L 62.3034,96.0273 L 62.5575,96.1248 L 62.8,96.2483 L 63.0282,96.3965
 L 63.2397,96.5678 L 63.4322,96.7603 L 63.6034,96.9718 L 63.7517,97.2 L 63.8752,97.4425 L 63.9727,97.6965
 L 64.0432,97.9594 L 64.0858,98.2282 L 64.1,98.5 L 64.0858,98.7718 L 64.0432,99.0406 L 63.9727,99.3034
 L 63.8752,99.5575 L 63.7517,99.8 L 63.6034,100.028 L 63.4322,100.24 L 63.2397,100.432 L 63.0282,100.603
 L 62.8,100.752 L 62.5575,100.875 L 62.3034,100.973 L 62.0406,101.043 L 61.7718,101.086 L 61.5,101.1
 z
M 117.228,101.086 L 116.959,101.043 L 116.697,100.973 L 116.442,100.875 L 116.2,100.752 L 115.972,100.603
 L 115.76,100.432 L 115.568,100.24 L 115.397,100.028 L 115.248,99.8 L 115.125,99.5575 L 115.027,99.3034
 L 114.957,99.0406 L 114.914,98.7718 L 114.9,98.5 L 114.914,98.2282 L 114.957,97.9594 L 115.027,97.6965
 L 115.125,97.4425 L 115.248,97.2 L 115.397,96.9718 L 115.568,96.7603 L 115.76,96.5678 L 115.972,96.3965
 L 116.2,96.2483 L 116.442,96.1248 L 116.697,96.0273 L 116.959,95.9568 L 117.228,95.9142 L 117.5,95.9
 L 117.772,95.9142 L 118.041,95.9568 L 118.303,96.0273 L 118.558,96.1248 L 118.8,96.2483 L 119.028,96.3965
 L 119.24,96.5678 L 119.432,96.7603 L 119.603,96.9718 L 119.752,97.2 L 119.875,97.4425 L 119.973,97.6965
 L 120.043,97.9594 L 120.086,98.2282 L 120.1,98.5 L 120.086,98.7718 L 120.043,99.0406 L 119.973,99.3034
 L 119.875,99.5575 L 119.752,99.8 L 119.603,100.028 L 119.432,100.24 L 119.24,100.432 L 119.028,100.603
 L 118.8,100.752 L 118.558,100.875 L 118.303,100.973 L 118.041,101.043 L 117.772,101.086 L 117.5,101.1
 z
M 124.228,101.086 L 123.959,101.043 L 123.697,100.973 L 123.442,100.875 L 123.2,100.752 L 122.972,100.603
 L 122.76,100.432 L 122.568,100.24 L 122.397,100.028 L 122.248,99.8 L 122.125,99.5575 L 122.027,99.3034
 L 121.957,99.0406 L 121.914,98.7718 L 121.9,98.5 L 121.914,98.2282 L 121.957,97.9594 L 122.027,97.6965
 L 122.125,97.4425 L 122.248,97.2 L 122.397,96.9718 L 122.568,96.7603 L 122.76,96.5678 L 122.972,96.3965
 L 123.2,96.2483 L 123.442,96.1248 L 123.697,96.0273 L 123.959,95.9568 L 124.228,95.9142 L 124.5,95.9
 L 124.772,95.9142 L 125.041,95.9568 L 125.303,96.0273 L 125.558,96.1248 L 125.8,96.2483 L 126.028,96.3965
 L 126.24,96.5678 L 126.432,96.7603 L 126.603,96.9718 L 126.752,97.2 L 126.875,97.4425 L 126.973,97.6965
 L 127.043,97.9594 L 127.086,98.2282 L 127.1,98.5 L 127.086,98.7718 L 127.043,99.0406 L 126.973,99.3034
 L 126.875,99.5575 L 126.752,99.8 L 126.603,100.028 L 126.432,100.24 L 126.24,100.432 L 126.028,100.603
 L 125.8,100.752 L 125.558,100.875 L 125.303,100.973 L 125.041,101.043 L 124.772,101.086 L 124.5,101.1
 z
M 119.068,103.76 L 119.26,103.568 L 119.472,103.397 L 119.7,103.248 L 119.942,103.125 L 120.197,103.027
 L 120.459,102.957 L 120.728,102.914 L 121,102.9 L 121.272,102.914 L 121.541,102.957 L 121.803,103.027
 L 122.058,103.125 L 122.3,103.248 L 122.528,103.397 L 122.74,103.568 L 122.932,103.76 L 123.103,103.972
 L 123.252,104.2 L 123.375,104.442 L 123.473,104.697 L 123.543,104.959 L 123.586,105.228 L 123.6,105.5
 L 123.586,105.772 L 123.543,106.041 L 123.473,106.303 L 123.375,106.558 L 123.252,106.8 L 123.103,107.028
 L 122.932,107.24 L 122.74,107.432 L 122.528,107.603 L 122.3,107.752 L 122.058,107.875 L 121.803,107.973
 L 121.541,108.043 L 121.272,108.086 L 121,108.1 L 120.728,108.086 L 120.459,108.043 L 120.197,107.973
 L 119.942,107.875 L 119.7,107.752 L 119.472,107.603 L 119.26,107.432 L 119.068,107.24 L 118.897,107.028
 L 118.748,106.8 L 118.625,106.558 L 118.527,106.303 L 118.457,106.041 L 118.414,105.772 L 118.4,105.5
 L 118.414,105.228 L 118.457,104.959 L 118.527,104.697 L 118.625,104.442 L 118.748,104.2 L 118.897,103.972
 z
M 162.728,108.086 L 162.459,108.043 L 162.197,107.973 L 161.942,107.875 L 161.7,107.752 L 161.472,107.603
 L 161.26,107.432 L 161.068,107.24 L 160.897,107.028 L 160.748,106.8 L 160.625,106.558 L 160.527,106.303
 L 160.457,106.041 L 160.414,105.772 L 160.4,105.5 L 160.414,105.228 L 160.457,104.959 L 160.527,104.697
 L 160.625,104.442 L 160.748,104.2 L 160.897,103.972 L 161.068,103.76 L 161.26,103.568 L 161.472,103.397
 L 161.7,103.248 L 161.942,103.125 L 162.197,103.027 L 162.459,102.957 L 162.728,102.914 L 163,102.9
 L 163.272,102.914 L 163.541,102.957 L 163.803,103.027 L 164.058,103.125 L 164.3,103.248 L 164.528,103.397
 L 164.74,103.568 L 164.932,103.76 L 165.103,103.972 L 165.252,104.2 L 165.375,104.442 L 165.473,104.697
 L 165.543,104.959 L 165.586,105.228 L 165.6,105.5 L 165.586,105.772 L 165.543,106.041 L 165.473,106.303
 L 165.375,106.558 L 165.252,106.8 L 165.103,107.028 L 164.932,107.24 L 164.74,107.432 L 164.528,107.603
 L 164.3,107.752 L 164.058,107.875 L 163.803,107.973 L 163.541,108.043 L 163.272,108.086 L 163,108.1
 z
M 106.728,108.086 L 106.459,108.043 L 106.197,107.973 L 105.942,107.875 L 105.7,107.752 L 105.472,107.603
 L 105.26,107.432 L 105.068,107.24 L 104.897,107.028 L 104.748,106.8 L 104.625,106.558 L 104.527,106.303
 L 104.457,106.041 L 104.414,105.772 L 104.4,105.5 L 104.414,105.228 L 104.457,104.959 L 104.527,104.697
 L 104.625,104.442 L 104.748,104.2 L 104.897,103.972 L 105.068,103.76 L 105.26,103.568 L 105.472,103.397
 L 105.7,103.248 L 105.942,103.125 L 106.197,103.027 L 106.459,102.957 L 106.728,102.914 L 107,102.9
 L 107.272,102.914 L 107.541,102.957 L 107.803,103.027 L 108.058,103.125 L 108.3,103.248 L 108.528,103.397
 L 108.74,103.568 L 108.932,103.76 L 109.103,103.972 L 109.252,104.2 L 109.375,104.442 L 109.473,104.697
 L 109.543,104.959 L 109.586,105.228 L 109.6,105.5 L 109.586,105.772 L 109.543,106.041 L 109.473,106.303
 L 109.375,106.558 L 109.252,106.8 L 109.103,107.028 L 108.932,107.24 L 108.74,107.432 L 108.528,107.603
 L 108.3,107.752 L 108.058,107.875 L 107.803,107.973 L 107.541,108.043 L 107.272,108.086 L 107,108.1
 z
M 132.457,104.959 L 132.527,104.697 L 132.625,104.442 L 132.748,104.2 L 132.897,103.972 L 133.068,103.76
 L 133.26,103.568 L 133.472,103.397 L 133.7,103.248 L 133.942,103.125 L 134.197,103.027 L 134.459,102.957
 L 134.728,102.914 L 135,102.9 L 135.272,102.914 L 135.541,102.957 L 135.803,103.027 L 136.058,103.125
 L 136.3,103.248 L 136.528,103.397 L 136.74,103.568 L 136.932,103.76 L 137.103,103.972 L 137.252,104.2
 L 137.375,104.442 L 137.473,104.697 L 137.543,104.959 L 137.586,105.228 L 137.6,105.5 L 137.586,105.772
 L 137.543,106.041 L 137.473,106.303 L 137.375,106.558 L 137.252,106.8 L 137.103,107.028 L 136.932,107.24
 L 136.74,107.432 L 136.528,107.603 L 136.3,107.752 L 136.058,107.875 L 135.803,107.973 L 135.541,108.043
 L 135.272,108.086 L 135,108.1 L 134.728,108.086 L 134.459,108.043 L 134.197,107.973 L 133.942,107.875
 L 133.7,107.752 L 133.472,107.603 L 133.26,107.432 L 133.068,107.24 L 132.897,107.028 L 132.748,106.8
 L 132.625,106.558 L 132.527,106.303 L 132.457,106.041 L 132.414,105.772 L 132.4,105.5 L 132.414,105.228
 z
M 99.7282,108.086 L 99.4594,108.043 L 99.1965,107.973 L 98.9425,107.875 L 98.7,107.752 L 98.4718,107.603
 L 98.2603,107.432 L 98.0678,107.24 L 97.8965,107.028 L 97.7483,106.8 L 97.6248,106.558 L 97.5273,106.303
 L 97.4568,106.041 L 97.4142,105.772 L 97.4,105.5 L 97.4142,105.228 L 97.4568,104.959 L 97.5273,104.697
 L 97.6248,104.442 L 97.7483,104.2 L 97.8965,103.972 L 98.0678,103.76 L 98.2603,103.568 L 98.4718,103.397
 L 98.7,103.248 L 98.9425,103.125 L 99.1965,103.027 L 99.4594,102.957 L 99.7282,102.914 L 100,102.9
 L 100.272,102.914 L 100.541,102.957 L 100.803,103.027 L 101.058,103.125 L 101.3,103.248 L 101.528,103.397
 L 101.74,103.568 L 101.932,103.76 L 102.103,103.972 L 102.252,104.2 L 102.375,104.442 L 102.473,104.697
 L 102.543,104.959 L 102.586,105.228 L 102.6,105.5 L 102.586,105.772 L 102.543,106.041 L 102.473,106.303
 L 102.375,106.558 L 102.252,106.8 L 102.103,107.028 L 101.932,107.24 L 101.74,107.432 L 101.528,107.603
 L 101.3,107.752 L 101.058,107.875 L 100.803,107.973 L 100.541,108.043 L 100.272,108.086 L 100,108.1
 z
M 50.7282,108.086 L 50.4594,108.043 L 50.1965,107.973 L 49.9425,107.875 L 49.7,107.752 L 49.4718,107.603
 L 49.2603,107.432 L 49.0678,107.24 L 48.8965,107.028 L 48.7483,106.8 L 48.6248,106.558 L 48.5273,106.303
 L 48.4568,106.041 L 48.4142,105.772 L 48.4,105.5 L 48.4142,105.228 L 48.4568,104.959 L 48.5273,104.697
 L 48.6248,104.442 L 48.7483,104.2 L 48.8965,103.972 L 49.0678,103.76 L 49.2603,103.568 L 49.4718,103.397
 L 49.7,103.248 L 49.9425,103.125 L 50.1965,103.027 L 50.4594,102.957 L 50.7282,102.914 L 51,102.9
 L 51.2718,102.914 L 51.5406,102.957 L 51.8034,103.027 L 52.0575,103.125 L 52.3,103.248 L 52.5282,103.397
 L 52.7397,103.568 L 52.9322,103.76 L 53.1034,103.972 L 53.2517,104.2 L 53.3752,104.442 L 53.4727,104.697
 L 53.5432,104.959 L 53.5858,105.228 L 53.6,105.5 L 53.5858,105.772 L 53.5432,106.041 L 53.4727,106.303
 L 53.3752,106.558 L 53.2517,106.8 L 53.1034,107.028 L 52.9322,107.24 L 52.7397,107.432 L 52.5282,107.603
 L 52.3,107.752 L 52.0575,107.875 L 51.8034,107.973 L 51.5406,108.043 L 51.2718,108.086 L 51,108.1
 z
M 183.728,108.086 L 183.459,108.043 L 183.197,107.973 L 182.942,107.875 L 182.7,107.752 L 182.472,107.603
 L 182.26,107.432 L 182.068,107.24 L 181.897,107.028 L 181.748,106.8 L 181.625,106.558 L 181.527,106.303
 L 181.457,106.041 L 181.414,105.772 L 181.4,105.5 L 181.414,105.228 L 181.457,104.959 L 181.527,104.697
 L 181.625,104.442 L 181.748,104.2 L 181.897,103.972 L 182.068,103.76 L 182.26,103.568 L 182.472,103.397
 L 182.7,103.248 L 182.942,103.125 L 183.197,103.027 L 183.459,102.957 L 183.728,102.914 L 184,102.9
 L 184.272,102.914 L 184.541,102.957 L 184.803,103.027 L 185.058,103.125 L 185.3,103.248 L 185.528,103.397
 L 185.74,103.568 L 185.932,103.76 L 186.103,103.972 L 186.252,104.2 L 186.375,104.442 L 186.473,104.697
 L 186.543,104.959 L 186.586,105.228 L 186.6,105.5 L 186.586,105.772 L 186.543,106.041 L 186.473,106.303
 L 186.375,106.558 L 186.252,106.8 L 186.103,107.028 L 185.932,107.24 L 185.74,107.432 L 185.528,107.603
 L 185.3,107.752 L 185.058,107.875 L 184.803,107.973 L 184.541,108.043 L 184.272,108.086 L 184,108.1
 z
M 148.728,108.086 L 148.459,108.043 L 148.197,107.973 L 147.942,107.875 L 147.7,107.752 L 147.472,107.603
 L 147.26,107.432 L 147.068,107.24 L 146.897,107.028 L 146.748,106.8 L 146.625,106.558 L 146.527,106.303
 L 146.457,106.041 L 146.414,105.772 L 146.4,105.5 L 146.414,105.228 L 146.457,104.959 L 146.527,104.697
 L 146.625,104.442 L 146.748,104.2 L 146.897,103.972 L 147.068,103.76 L 147.26,103.568 L 147.472,103.397
 L 147.7,103.248 L 147.942,103.125 L 148.197,103.027 L 148.459,102.957 L 148.728,102.914 L 149,102.9
 L 149.272,102.914 L 149.541,102.957 L 149.803,103.027 L 150.058,103.125 L 150.3,103.248 L 150.528,103.397
 L 150.74,103.568 L 150.932,103.76 L 151.103,103.972 L 151.252,104.2 L 151.375,104.442 L 151.473,104.697
 L 151.543,104.959 L 151.586,105.228 L 151.6,105.5 L 151.586,105.772 L 151.543,106.041 L 151.473,106.303
 L 151.375,106.558 L 151.252,106.8 L 151.103,107.028 L 150.932,107.24 L 150.74,107.432 L 150.528,107.603
 L 150.3,107.752 L 150.058,107.875 L 149.803,107.973 L 149.541,108.043 L 149.272,108.086 L 149,108.1
 z
M 78.7282,108.086 L 78.4594,108.043 L 78.1965,107.973 L 77.9425,107.875 L 77.7,107.752 L 77.4718,107.603
 L 77.2603,107.432 L 77.0678,107.24 L 76.8965,107.028 L 76.7483,106.8 L 76.6248,106.558 L 76.5273,106.303
 L 76.4568,106.041 L 76.4142,105.772 L 76.4,105.5 L 76.4142,105.228 L 76.4568,104.959 L 76.5273,104.697
 L 76.6248,104.442 L 76.7483,104.2 L 76.8965,103.972 L 77.0678,103.76 L 77.2603,103.568 L 77.4718,103.397
 L 77.7,103.248 L 77.9425,103.125 L 78.1965,103.027 L 78.4594,102.957 L 78.7282,102.914 L 79,102.9
 L 79.2718,102.914 L 79.5406,102.957 L 79.8034,103.027 L 80.0575,103.125 L 80.3,103.248 L 80.5282,103.397
 L 80.7397,103.568 L 80.9322,103.76 L 81.1034,103.972 L 81.2517,104.2 L 81.3752,104.442 L 81.4727,104.697
 L 81.5432,104.959 L 81.5858,105.228 L 81.6,105.5 L 81.5858,105.772 L 81.5432,106.041 L 81.4727,106.303
 L 81.3752,106.558 L 81.2517,106.8 L 81.1034,107.028 L 80.9322,107.24 L 80.7397,107.432 L 80.5282,107.603
 L 80.3,107.752 L 80.0575,107.875 L 79.8034,107.973 L 79.5406,108.043 L 79.2718,108.086 L 79,108.1
 z
M 85.7282,108.086 L 85.4594,108.043 L 85.1965,107.973 L 84.9425,107.875 L 84.7,107.752 L 84.4718,107.603
 L 84.2603,107.432 L 84.0678,107.24 L 83.8965,107.028 L 83.7483,106.8 L 83.6248,106.558 L 83.5273,106.303
 L 83.4568,106.041 L 83.4142,105.772 L 83.4,105.5 L 83.4142,105.228 L 83.4568,104.959 L 83.5273,104.697
 L 83.6248,104.442 L 83.7483,104.2 L 83.8965,103.972 L 84.0678,103.76 L 84.2603,103.568 L 84.4718,103.397
 L 84.7,103.248 L 84.9425,103.125 L 85.1965,103.027 L 85.4594,102.957 L 85.7282,102.914 L 86,102.9
 L 86.2718,102.914 L 86.5406,102.957 L 86.8034,103.027 L 87.0575,103.125 L 87.3,103.248 L 87.5282,103.397
 L 87.7397,103.568 L 87.9322,103.76 L 88.1034,103.972 L 88.2517,104.2 L 88.3752,104.442 L 88.4727,104.697
 L 88.5432,104.959 L 88.5858,105.228 L 88.6,105.5 L 88.5858,105.772 L 88.5432,106.041 L 88.4727,106.303
 L 88.3752,106.558 L 88.2517,106.8 L 88.1034,107.028 L 87.9322,107.24 L 87.7397,107.432 L 87.5282,107.603
 L 87.3,107.752 L 87.0575,107.875 L 86.8034,107.973 L 86.5406,108.043 L 86.2718,108.086 L 86,108.1
 z
M 71.7282,108.086 L 71.4594,108.043 L 71.1965,107.973 L 70.9425,107.875 L 70.7,107.752 L 70.4718,107.603
 L 70.2603,107.432 L 70.0678,107.24 L 69.8965,107.028 L 69.7483,106.8 L 69.6248,106.558 L 69.5273,106.303
 L 69.4568,106.041 L 69.4142,105.772 L 69.4,105.5 L 69.4142,105.228 L 69.4568,104.959 L 69.5273,104.697
 L 69.6248,104.442 L 69.7483,104.2 L 69.8965,103.972 L 70.0678,103.76 L 70.2603,103.568 L 70.4718,103.397
 L 70.7,103.248 L 70.9425,103.125 L 71.1965,103.027 L 71.4594,102.957 L 71.7282,102.914 L 72,102.9
 L 72.2718,102.914 L 72.5406,102.957 L 72.8034,103.027 L 73.0575,103.125 L 73.3,103.248 L 73.5282,103.397
 L 73.7397,103.568 L 73.9322,103.76 L 74.1034,103.972 L 74.2517,104.2 L 74.3752,104.442 L 74.4727,104.697
 L 74.5432,104.959 L 74.5858,105.228 L 74.6,105.5 L 74.5858,105.772 L 74.5432,106.041 L 74.4727,106.303
 L 74.3752,106.558 L 74.2517,106.8 L 74.1034,107.028 L 73.9322,107.24 L 73.7397,107.432 L 73.5282,107.603
 L 73.3,107.752 L 73.0575,107.875 L 72.8034,107.973 L 72.5406,108.043 L 72.2718,108.086 L 72,108.1
 z
M 155.728,108.086 L 155.459,108.043 L 155.197,107.973 L 154.942,107.875 L 154.7,107.752 L 154.472,107.603
 L 154.26,107.432 L 154.068,107.24 L 153.897,107.028 L 153.748,106.8 L 153.625,106.558 L 153.527,106.303
 L 153.457,106.041 L 153.414,105.772 L 153.4,105.5 L 153.414,105.228 L 153.457,104.959 L 153.527,104.697
 L 153.625,104.442 L 153.748,104.2 L 153.897,103.972 L 154.068,103.76 L 154.26,103.568 L 154.472,103.397
 L 154.7,103.248 L 154.942,103.125 L 155.197,103.027 L 155.459,102.957 L 155.728,102.914 L 156,102.9
 L 156.272,102.914 L 156.541,102.957 L 156.803,103.027 L 157.058,103.125 L 157.3,103.248 L 157.528,103.397
 L 157.74,103.568 L 157.932,103.76 L 158.103,103.972 L 158.252,104.2 L 158.375,104.442 L 158.473,104.697
 L 158.543,104.959 L 158.586,105.228 L 158.6,105.5 L 158.586,105.772 L 158.543,106.041 L 158.473,106.303
 L 158.375,106.558 L 158.252,106.8 L 158.103,107.028 L 157.932,107.24 L 157.74,107.432 L 157.528,107.603
 L 157.3,107.752 L 157.058,107.875 L 156.803,107.973 L 156.541,108.043 L 156.272,108.086 L 156,108.1
 z
M 141.728,108.086 L 141.459,108.043 L 141.197,107.973 L 140.942,107.875 L 140.7,107.752 L 140.472,107.603
 L 140.26,107.432 L 140.068,107.24 L 139.897,107.028 L 139.748,106.8 L 139.625,106.558 L 139.527,106.303
 L 139.457,106.041 L 139.414,105.772 L 139.4,105.5 L 139.414,105.228 L 139.457,104.959 L 139.527,104.697
 L 139.625,104.442 L 139.748,104.2 L 139.897,103.972 L 140.068,103.76 L 140.26,103.568 L 140.472,103.397
 L 140.7,103.248 L 140.942,103.125 L 141.197,103.027 L 141.459,102.957 L 141.728,102.914 L 142,102.9
 L 142.272,102.914 L 142.541,102.957 L 142.803,103.027 L 143.058,103.125 L 143.3,103.248 L 143.528,103.397
 L 143.74,103.568 L 143.932,103.76 L 144.103,103.972 L 144.252,104.2 L 144.375,104.442 L 144.473,104.697
 L 144.543,104.959 L 144.586,105.228 L 144.6,105.5 L 144.586,105.772 L 144.543,106.041 L 144.473,106.303
 L 144.375,106.558 L 144.252,106.8 L 144.103,107.028 L 143.932,107.24 L 143.74,107.432 L 143.528,107.603
 L 143.3,107.752 L 143.058,107.875 L 142.803,107.973 L 142.541,108.043 L 142.272,108.086 L 142,108.1
 z
M 176.728,108.086 L 176.459,108.043 L 176.197,107.973 L 175.942,107.875 L 175.7,107.752 L 175.472,107.603
 L 175.26,107.432 L 175.068,107.24 L 174.897,107.028 L 174.748,106.8 L 174.625,106.558 L 174.527,106.303
 L 174.457,106.041 L 174.414,105.772 L 174.4,105.5 L 174.414,105.228 L 174.457,104.959 L 174.527,104.697
 L 174.625,104.442 L 174.748,104.2 L 174.897,103.972 L 175.068,103.76 L 175.26,103.568 L 175.472,103.397
 L 175.7,103.248 L 175.942,103.125 L 176.197,103.027 L 176.459,102.957 L 176.728,102.914 L 177,102.9
 L 177.272,102.914 L 177.541,102.957 L 177.803,103.027 L 178.058,103.125 L 178.3,103.248 L 178.528,103.397
 L 178.74,103.568 L 178.932,103.76 L 179.103,103.972 L 179.252,104.2 L 179.375,104.442 L 179.473,104.697
 L 179.543,104.959 L 179.586,105.228 L 179.6,105.5 L 179.586,105.772 L 179.543,106.041 L 179.473,106.303
 L 179.375,106.558 L 179.252,106.8 L 179.103,107.028 L 178.932,107.24 L 178.74,107.432 L 178.528,107.603
 L 178.3,107.752 L 178.058,107.875 L 177.803,107.973 L 177.541,108.043 L 177.272,108.086 L 177,108.1
 z
M 169.728,108.086 L 169.459,108.043 L 169.197,107.973 L 168.942,107.875 L 168.7,107.752 L 168.472,107.603
 L 168.26,107.432 L 168.068,107.24 L 167.897,107.028 L 167.748,106.8 L 167.625,106.558 L 167.527,106.303
 L 167.457,106.041 L 167.414,105.772 L 167.4,105.5 L 167.414,105.228 L 167.457,104.959 L 167.527,104.697
 L 167.625,104.442 L 167.748,104.2 L 167.897,103.972 L 168.068,103.76 L 168.26,103.568 L 168.472,103.397
 L 168.7,103.248 L 168.942,103.125 L 169.197,103.027 L 169.459,102.957 L 169.728,102.914 L 170,102.9
 L 170.272,102.914 L 170.541,102.957 L 170.803,103.027 L 171.058,103.125 L 171.3,103.248 L 171.528,103.397
 L 171.74,103.568 L 171.932,103.76 L 172.103,103.972 L 172.252,104.2 L 172.375,104.442 L 172.473,104.697
 L 172.543,104.959 L 172.586,105.228 L 172.6,105.5 L 172.586,105.772 L 172.543,106.041 L 172.473,106.303
 L 172.375,106.558 L 172.252,106.8 L 172.103,107.028 L 171.932,107.24 L 171.74,107.432 L 171.528,107.603
 L 171.3,107.752 L 171.058,107.875 L 170.803,107.973 L 170.541,108.043 L 170.272,108.086 L 170,108.1
 z
M 92.7282,108.086 L 92.4594,108.043 L 92.1965,107.973 L 91.9425,107.875 L 91.7,107.752 L 91.4718,107.603
 L 91.2603,107.432 L 91.0678,107.24 L 90.8965,107.028 L 90.7483,106.8 L 90.6248,106.558 L 90.5273,106.303
 L 90.4568,106.041 L 90.4142,105.772 L 90.4,105.5 L 90.4142,105.228 L 90.4568,104.959 L 90.5273,104.697
 L 90.6248,104.442 L 90.7483,104.2 L 90.8965,103.972 L 91.0678,103.76 L 91.2603,103.568 L 91.4718,103.397
 L 91.7,103.248 L 91.9425,103.125 L 92.1965,103.027 L 92.4594,102.957 L 92.7282,102.914 L 93,102.9
 L 93.2718,102.914 L 93.5406,102.957 L 93.8034,103.027 L 94.0575,103.125 L 94.3,103.248 L 94.5282,103.397
 L 94.7397,103.568 L 94.9322,103.76 L 95.1034,103.972 L 95.2517,104.2 L 95.3752,104.442 L 95.4727,104.697
 L 95.5432,104.959 L 95.5858,105.228 L 95.6,105.5 L 95.5858,105.772 L 95.5432,106.041 L 95.4727,106.303
 L 95.3752,106.558 L 95.2517,106.8 L 95.1034,107.028 L 94.9322,107.24 L 94.7397,107.432 L 94.5282,107.603
 L 94.3,107.752 L 94.0575,107.875 L 93.8034,107.973 L 93.5406,108.043 L 93.2718,108.086 L 93,108.1
 z
M 190.728,108.086 L 190.459,108.043 L 190.197,107.973 L 189.942,107.875 L 189.7,107.752 L 189.472,107.603
 L 189.26,107.432 L 189.068,107.24 L 188.897,107.028 L 188.748,106.8 L 188.625,106.558 L 188.527,106.303
 L 188.457,106.041 L 188.414,105.772 L 188.4,105.5 L 188.414,105.228 L 188.457,104.959 L 188.527,104.697
 L 188.625,104.442 L 188.748,104.2 L 188.897,103.972 L 189.068,103.76 L 189.26,103.568 L 189.472,103.397
 L 189.7,103.248 L 189.942,103.125 L 190.197,103.027 L 190.459,102.957 L 190.728,102.914 L 191,102.9
 L 191.272,102.914 L 191.541,102.957 L 191.803,103.027 L 192.058,103.125 L 192.3,103.248 L 192.528,103.397
 L 192.74,103.568 L 192.932,103.76 L 193.103,103.972 L 193.252,104.2 L 193.375,104.442 L 193.473,104.697
 L 193.543,104.959 L 193.586,105.228 L 193.6,105.5 L 193.586,105.772 L 193.543,106.041 L 193.473,106.303
 L 193.375,106.558 L 193.252,106.8 L 193.103,107.028 L 192.932,107.24 L 192.74,107.432 L 192.528,107.603
 L 192.3,107.752 L 192.058,107.875 L 191.803,107.973 L 191.541,108.043 L 191.272,108.086 L 191,108.1
 z
M 62.5273,104.697 L 62.6248,104.442 L 62.7483,104.2 L 62.8965,103.972 L 63.0678,103.76 L 63.2603,103.568
 L 63.4718,103.397 L 63.7,103.248 L 63.9425,103.125 L 64.1965,103.027 L 64.4594,102.957 L 64.7282,102.914
 L 65,102.9 L 65.2718,102.914 L 65.5406,102.957 L 65.8034,103.027 L 66.0575,103.125 L 66.3,103.248
 L 66.5282,103.397 L 66.7397,103.568 L 66.9322,103.76 L 67.1034,103.972 L 67.2517,104.2 L 67.3752,104.442
 L 67.4727,104.697 L 67.5432,104.959 L 67.5858,105.228 L 67.6,105.5 L 67.5858,105.772 L 67.5432,106.041
 L 67.4727,106.303 L 67.3752,106.558 L 67.2517,106.8 L 67.1034,107.028 L 66.9322,107.24 L 66.7397,107.432
 L 66.5282,107.603 L 66.3,107.752 L 66.0575,107.875 L 65.8034,107.973 L 65.5406,108.043 L 65.2718,108.086
 L 65,108.1 L 64.7282,108.086 L 64.4594,108.043 L 64.1965,107.973 L 63.9425,107.875 L 63.7,107.752
 L 63.4718,107.603 L 63.2603,107.432 L 63.0678,107.24 L 62.8965,107.028 L 62.7483,106.8 L 62.6248,106.558
 L 62.5273,106.303 L 62.4568,106.041 L 62.4142,105.772 L 62.4,105.5 L 62.4142,105.228 L 62.4568,104.959
 z
M 122.248,111.2 L 122.397,110.972 L 122.568,110.76 L 122.76,110.568 L 122.972,110.397 L 123.2,110.248
 L 123.442,110.125 L 123.697,110.027 L 123.959,109.957 L 124.228,109.914 L 124.5,109.9 L 124.772,109.914
 L 125.041,109.957 L 125.303,110.027 L 125.558,110.125 L 125.8,110.248 L 126.028,110.397 L 126.24,110.568
 L 126.432,110.76 L 126.603,110.972 L 126.752,111.2 L 126.875,111.442 L 126.973,111.697 L 127.043,111.959
 L 127.086,112.228 L 127.1,112.5 L 127.086,112.772 L 127.043,113.041 L 126.973,113.303 L 126.875,113.558
 L 126.752,113.8 L 126.603,114.028 L 126.432,114.24 L 126.24,114.432 L 126.028,114.603 L 125.8,114.752
 L 125.558,114.875 L 125.303,114.973 L 125.041,115.043 L 124.772,115.086 L 124.5,115.1 L 124.228,115.086
 L 123.959,115.043 L 123.697,114.973 L 123.442,114.875 L 123.2,114.752 L 122.972,114.603 L 122.76,114.432
 L 122.568,114.24 L 122.397,114.028 L 122.248,113.8 L 122.125,113.558 L 122.027,113.303 L 121.957,113.041
 L 121.914,112.772 L 121.9,112.5 L 121.914,112.228 L 121.957,111.959 L 122.027,111.697 L 122.125,111.442
 z
M 50.3327,120.091 L 50.1673,120.065 L 50.0056,120.022 L 49.8492,119.962 L 49.7,119.886 L 49.5595,119.794
 L 49.4294,119.689 L 49.311,119.571 L 49.2056,119.44 L 49.1143,119.3 L 49.0383,119.151 L 48.9783,118.994
 L 48.935,118.833 L 48.9088,118.667 L 48.9,118.5 L 48.9088,118.333 L 48.935,118.167 L 48.9783,118.006
 L 49.0383,117.849 L 49.1143,117.7 L 49.2056,117.56 L 49.311,117.429 L 49.4294,117.311 L 49.5595,117.206
 L 49.7,117.114 L 49.8492,117.038 L 50.0056,116.978 L 50.1673,116.935 L 50.3327,116.909 L 50.5,116.9
 L 50.6672,116.909 L 50.8327,116.935 L 50.9944,116.978 L 51.1508,117.038 L 51.3,117.114 L 51.4404,117.206
 L 51.5706,117.311 L 51.689,117.429 L 51.7944,117.56 L 51.8856,117.7 L 51.9617,117.849 L 52.0217,118.006
 L 52.065,118.167 L 52.0912,118.333 L 52.1,118.5 L 52.0912,118.667 L 52.065,118.833 L 52.0217,118.994
 L 51.9617,119.151 L 51.8856,119.3 L 51.7944,119.44 L 51.689,119.571 L 51.5706,119.689 L 51.4404,119.794
 L 51.3,119.886 L 51.1508,119.962 L 50.9944,120.022 L 50.8327,120.065 L 50.6672,120.091 L 50.5,120.1
 z
M 130.333,120.091 L 130.167,120.065 L 130.006,120.022 L 129.849,119.962 L 129.7,119.886 L 129.56,119.794
 L 129.429,119.689 L 129.311,119.571 L 129.206,119.44 L 129.114,119.3 L 129.038,119.151 L 128.978,118.994
 L 128.935,118.833 L 128.909,118.667 L 128.9,118.5 L 128.909,118.333 L 128.935,118.167 L 128.978,118.006
 L 129.038,117.849 L 129.114,117.7 L 129.206,117.56 L 129.311,117.429 L 129.429,117.311 L 129.56,117.206
 L 129.7,117.114 L 129.849,117.038 L 130.006,116.978 L 130.167,116.935 L 130.333,116.909 L 130.5,116.9
 L 130.667,116.909 L 130.833,116.935 L 130.994,116.978 L 131.151,117.038 L 131.3,117.114 L 131.44,117.206
 L 131.571,117.311 L 131.689,117.429 L 131.794,117.56 L 131.886,117.7 L 131.962,117.849 L 132.022,118.006
 L 132.065,118.167 L 132.091,118.333 L 132.1,118.5 L 132.091,118.667 L 132.065,118.833 L 132.022,118.994
 L 131.962,119.151 L 131.886,119.3 L 131.794,119.44 L 131.689,119.571 L 131.571,119.689 L 131.44,119.794
 L 131.3,119.886 L 131.151,119.962 L 130.994,120.022 L 130.833,120.065 L 130.667,120.091 L 130.5,120.1
 z
M 109.333,120.091 L 109.167,120.065 L 109.006,120.022 L 108.849,119.962 L 108.7,119.886 L 108.56,119.794
 L 108.429,119.689 L 108.311,119.571 L 108.206,119.44 L 108.114,119.3 L 108.038,119.151 L 107.978,118.994
 L 107.935,118.833 L 107.909,118.667 L 107.9,118.5 L 107.909,118.333 L 107.935,118.167 L 107.978,118.006
 L 108.038,117.849 L 108.114,117.7 L 108.206,117.56 L 108.311,117.429 L 108.429,117.311 L 108.56,117.206
 L 108.7,117.114 L 108.849,117.038 L 109.006,116.978 L 109.167,116.935 L 109.333,116.909 L 109.5,116.9
 L 109.667,116.909 L 109.833,116.935 L 109.994,116.978 L 110.151,117.038 L 110.3,117.114 L 110.44,117.206
 L 110.571,117.311 L 110.689,117.429 L 110.794,117.56 L 110.886,117.7 L 110.962,117.849 L 111.022,118.006
 L 111.065,118.167 L 111.091,118.333 L 111.1,118.5 L 111.091,118.667 L 111.065,118.833 L 111.022,118.994
 L 110.962,119.151 L 110.886,119.3 L 110.794,119.44 L 110.689,119.571 L 110.571,119.689 L 110.44,119.794
 L 110.3,119.886 L 110.151,119.962 L 109.994,120.022 L 109.833,120.065 L 109.667,120.091 L 109.5,120.1
 z
M 189.333,120.091 L 189.167,120.065 L 189.006,120.022 L 188.849,119.962 L 188.7,119.886 L 188.56,119.794
 L 188.429,119.689 L 188.311,119.571 L 188.206,119.44 L 188.114,119.3 L 188.038,119.151 L 187.978,118.994
 L 187.935,118.833 L 187.909,118.667 L 187.9,118.5 L 187.909,118.333 L 187.935,118.167 L 187.978,118.006
 L 188.038,117.849 L 188.114,117.7 L 188.206,117.56 L 188.311,117.429 L 188.429,117.311 L 188.56,117.206
 L 188.7,117.114 L 188.849,117.038 L 189.006,116.978 L 189.167,116.935 L 189.333,116.909 L 189.5,116.9
 L 189.667,116.909 L 189.833,116.935 L 189.994,116.978 L 190.151,117.038 L 190.3,117.114 L 190.44,117.206
 L 190.571,117.311 L 190.689,117.429 L 190.794,117.56 L 190.886,117.7 L 190.962,117.849 L 191.022,118.006
 L 191.065,118.167 L 191.091,118.333 L 191.1,118.5 L 191.091,118.667 L 191.065,118.833 L 191.022,118.994
 L 190.962,119.151 L 190.886,119.3 L 190.794,119.44 L 190.689,119.571 L 190.571,119.689 L 190.44,119.794
 L 190.3,119.886 L 190.151,119.962 L 189.994,120.022 L 189.833,120.065 L 189.667,120.091 L 189.5,120.1
 z
M 120.728,122.086 L 120.459,122.043 L 120.197,121.973 L 119.942,121.875 L 119.7,121.752 L 119.472,121.603
 L 119.26,121.432 L 119.068,121.24 L 118.897,121.028 L 118.748,120.8 L 118.625,120.558 L 118.527,120.303
 L 118.457,120.041 L 118.414,119.772 L 118.4,119.5 L 118.414,119.228 L 118.457,118.959 L 118.527,118.697
 L 118.625,118.442 L 118.748,118.2 L 118.897,117.972 L 119.068,117.76 L 119.26,117.568 L 119.472,117.397
 L 119.7,117.248 L 119.942,117.125 L 120.197,117.027 L 120.459,116.957 L 120.728,116.914 L 121,116.9
 L 121.272,116.914 L 121.541,116.957 L 121.803,117.027 L 122.058,117.125 L 122.3,117.248 L 122.528,117.397
 L 122.74,117.568 L 122.932,117.76 L 123.103,117.972 L 123.252,118.2 L 123.375,118.442 L 123.473,118.697
 L 123.543,118.959 L 123.586,119.228 L 123.6,119.5 L 123.586,119.772 L 123.543,120.041 L 123.473,120.303
 L 123.375,120.558 L 123.252,120.8 L 123.103,121.028 L 122.932,121.24 L 122.74,121.432 L 122.528,121.603
 L 122.3,121.752 L 122.058,121.875 L 121.803,121.973 L 121.541,122.043 L 121.272,122.086 L 121,122.1
 z
M 122.397,124.972 L 122.568,124.76 L 122.76,124.568 L 122.972,124.397 L 123.2,124.248 L 123.442,124.125
 L 123.697,124.027 L 123.959,123.957 L 124.228,123.914 L 124.5,123.9 L 124.772,123.914 L 125.041,123.957
 L 125.303,124.027 L 125.558,124.125 L 125.8,124.248 L 126.028,124.397 L 126.24,124.568 L 126.432,124.76
 L 126.603,124.972 L 126.752,125.2 L 126.875,125.442 L 126.973,125.697 L 127.043,125.959 L 127.086,126.228
 L 127.1,126.5 L 127.086,126.772 L 127.043,127.041 L 126.973,127.303 L 126.875,127.558 L 126.752,127.8
 L 126.603,128.028 L 126.432,128.24 L 126.24,128.432 L 126.028,128.603 L 125.8,128.752 L 125.558,128.875
 L 125.303,128.973 L 125.041,129.043 L 124.772,129.086 L 124.5,129.1 L 124.228,129.086 L 123.959,129.043
 L 123.697,128.973 L 123.442,128.875 L 123.2,128.752 L 122.972,128.603 L 122.76,128.432 L 122.568,128.24
 L 122.397,128.028 L 122.248,127.8 L 122.125,127.558 L 122.027,127.303 L 121.957,127.041 L 121.914,126.772
 L 121.9,126.5 L 121.914,126.228 L 121.957,125.959 L 122.027,125.697 L 122.125,125.442 L 122.248,125.2
 z
M 120.728,136.086 L 120.459,136.043 L 120.197,135.973 L 119.942,135.875 L 119.7,135.752 L 119.472,135.603
 L 119.26,135.432 L 119.068,135.24 L 118.897,135.028 L 118.748,134.8 L 118.625,134.558 L 118.527,134.303
 L 118.457,134.041 L 118.414,133.772 L 118.4,133.5 L 118.414,133.228 L 118.457,132.959 L 118.527,132.697
 L 118.625,132.442 L 118.748,132.2 L 118.897,131.972 L 119.068,131.76 L 119.26,131.568 L 119.472,131.397
 L 119.7,131.248 L 119.942,131.125 L 120.197,131.027 L 120.459,130.957 L 120.728,130.914 L 121,130.9
 L 121.272,130.914 L 121.541,130.957 L 121.803,131.027 L 122.058,131.125 L 122.3,131.248 L 122.528,131.397
 L 122.74,131.568 L 122.932,131.76 L 123.103,131.972 L 123.252,132.2 L 123.375,132.442 L 123.473,132.697
 L 123.543,132.959 L 123.586,133.228 L 123.6,133.5 L 123.586,133.772 L 123.543,134.041 L 123.473,134.303
 L 123.375,134.558 L 123.252,134.8 L 123.103,135.028 L 122.932,135.24 L 122.74,135.432 L 122.528,135.603
 L 122.3,135.752 L 122.058,135.875 L 121.803,135.973 L 121.541,136.043 L 121.272,136.086 L 121,136.1
 z
M 124.228,143.086 L 123.959,143.043 L 123.697,142.973 L 123.442,142.875 L 123.2,142.752 L 122.972,142.603
 L 122.76,142.432 L 122.568,142.24 L 122.397,142.028 L 122.248,141.8 L 122.125,141.558 L 122.027,141.303
 L 121.957,141.041 L 121.914,140.772 L 121.9,140.5 L 121.914,140.228 L 121.957,139.959 L 122.027,139.697
 L 122.125,139.442 L 122.248,139.2 L 122.397,138.972 L 122.568,138.76 L 122.76,138.568 L 122.972,138.397
 L 123.2,138.248 L 123.442,138.125 L 123.697,138.027 L 123.959,137.957 L 124.228,137.914 L 124.5,137.9
 L 124.772,137.914 L 125.041,137.957 L 125.303,138.027 L 125.558,138.125 L 125.8,138.248 L 126.028,138.397
 L 126.24,138.568 L 126.432,138.76 L 126.603,138.972 L 126.752,139.2 L 126.875,139.442 L 126.973,139.697
 L 127.043,139.959 L 127.086,140.228 L 127.1,140.5 L 127.086,140.772 L 127.043,141.041 L 126.973,141.303
 L 126.875,141.558 L 126.752,141.8 L 126.603,142.028 L 126.432,142.24 L 126.24,142.432 L 126.028,142.603
 L 125.8,142.752 L 125.558,142.875 L 125.303,142.973 L 125.041,143.043 L 124.772,143.086 L 124.5,143.1
 z
M 117.228,143.086 L 116.959,143.043 L 116.697,142.973 L 116.442,142.875 L 116.2,142.752 L 115.972,142.603
 L 115.76,142.432 L 115.568,142.24 L 115.397,142.028 L 115.248,141.8 L 115.125,141.558 L 115.027,141.303
 L 114.957,141.041 L 114.914,140.772 L 114.9,140.5 L 114.914,140.228 L 114.957,139.959 L 115.027,139.697
 L 115.125,139.442 L 115.248,139.2 L 115.397,138.972 L 115.568,138.76 L 115.76,138.568 L 115.972,138.397
 L 116.2,138.248 L 116.442,138.125 L 116.697,138.027 L 116.959,137.957 L 117.228,137.914 L 117.5,137.9
 L 117.772,137.914 L 118.041,137.957 L 118.303,138.027 L 118.558,138.125 L 118.8,138.248 L 119.028,138.397
 L 119.24,138.568 L 119.432,138.76 L 119.603,138.972 L 119.752,139.2 L 119.875,139.442 L 119.973,139.697
 L 120.043,139.959 L 120.086,140.228 L 120.1,140.5 L 120.086,140.772 L 120.043,141.041 L 119.973,141.303
 L 119.875,141.558 L 119.752,141.8 L 119.603,142.028 L 119.432,142.24 L 119.24,142.432 L 119.028,142.603
 L 118.8,142.752 L 118.558,142.875 L 118.303,142.973 L 118.041,143.043 L 117.772,143.086 L 117.5,143.1
 z
M 189.333,147.091 L 189.167,147.065 L 189.006,147.022 L 188.849,146.962 L 188.7,146.886 L 188.56,146.794
 L 188.429,146.689 L 188.311,146.571 L 188.206,146.44 L 188.114,146.3 L 188.038,146.151 L 187.978,145.994
 L 187.935,145.833 L 187.909,145.667 L 187.9,145.5 L 187.909,145.333 L 187.935,145.167 L 187.978,145.006
 L 188.038,144.849 L 188.114,144.7 L 188.206,144.56 L 188.311,144.429 L 188.429,144.311 L 188.56,144.206
 L 188.7,144.114 L 188.849,144.038 L 189.006,143.978 L 189.167,143.935 L 189.333,143.909 L 189.5,143.9
 L 189.667,143.909 L 189.833,143.935 L 189.994,143.978 L 190.151,144.038 L 190.3,144.114 L 190.44,144.206
 L 190.571,144.311 L 190.689,144.429 L 190.794,144.56 L 190.886,144.7 L 190.962,144.849 L 191.022,145.006
 L 191.065,145.167 L 191.091,145.333 L 191.1,145.5 L 191.091,145.667 L 191.065,145.833 L 191.022,145.994
 L 190.962,146.151 L 190.886,146.3 L 190.794,146.44 L 190.689,146.571 L 190.571,146.689 L 190.44,146.794
 L 190.3,146.886 L 190.151,146.962 L 189.994,147.022 L 189.833,147.065 L 189.667,147.091 L 189.5,147.1
 z
M 109.333,147.091 L 109.167,147.065 L 109.006,147.022 L 108.849,146.962 L 108.7,146.886 L 108.56,146.794
 L 108.429,146.689 L 108.311,146.571 L 108.206,146.44 L 108.114,146.3 L 108.038,146.151 L 107.978,145.994
 L 107.935,145.833 L 107.909,145.667 L 107.9,145.5 L 107.909,145.333 L 107.935,145.167 L 107.978,145.006
 L 108.038,144.849 L 108.114,144.7 L 108.206,144.56 L 108.311,144.429 L 108.429,144.311 L 108.56,144.206
 L 108.7,144.114 L 108.849,144.038 L 109.006,143.978 L 109.167,143.935 L 109.333,143.909 L 109.5,143.9
 L 109.667,143.909 L 109.833,143.935 L 109.994,143.978 L 110.151,144.038 L 110.3,144.114 L 110.44,144.206
 L 110.571,144.311 L 110.689,144.429 L 110.794,144.56 L 110.886,144.7 L 110.962,144.849 L 111.022,145.006
 L 111.065,145.167 L 111.091,145.333 L 111.1,145.5 L 111.091,145.667 L 111.065,145.833 L 111.022,145.994
 L 110.962,146.151 L 110.886,146.3 L 110.794,146.44 L 110.689,146.571 L 110.571,146.689 L 110.44,146.794
 L 110.3,146.886 L 110.151,146.962 L 109.994,147.022 L 109.833,147.065 L 109.667,147.091 L 109.5,147.1
 z
M 50.3327,147.091 L 50.1673,147.065 L 50.0056,147.022 L 49.8492,146.962 L 49.7,146.886 L 49.5595,146.794
 L 49.4294,146.689 L 49.311,146.571 L 49.2056,146.44 L 49.1143,146.3 L 49.0383,146.151 L 48.9783,145.994
 L 48.935,145.833 L 48.9088,145.667 L 48.9,145.5 L 48.9088,145.333 L 48.935,145.167 L 48.9783,145.006
 L 49.0383,144.849 L 49.1143,144.7 L 49.2056,144.56 L 49.311,144.429 L 49.4294,144.311 L 49.5595,144.206
 L 49.7,144.114 L 49.8492,144.038 L 50.0056,143.978 L 50.1673,143.935 L 50.3327,143.909 L 50.5,143.9
 L 50.6672,143.909 L 50.8327,143.935 L 50.9944,143.978 L 51.1508,144.038 L 51.3,144.114 L 51.4404,144.206
 L 51.5706,144.311 L 51.689,144.429 L 51.7944,144.56 L 51.8856,144.7 L 51.9617,144.849 L 52.0217,145.006
 L 52.065,145.167 L 52.0912,145.333 L 52.1,145.5 L 52.0912,145.667 L 52.065,145.833 L 52.0217,145.994
 L 51.9617,146.151 L 51.8856,146.3 L 51.7944,146.44 L 51.689,146.571 L 51.5706,146.689 L 51.4404,146.794
 L 51.3,146.886 L 51.1508,146.962 L 50.9944,147.022 L 50.8327,147.065 L 50.6672,147.091 L 50.5,147.1
 z
M 130.333,147.091 L 130.167,147.065 L 130.006,147.022 L 129.849,146.962 L 129.7,146.886 L 129.56,146.794
 L 129.429,146.689 L 129.311,146.571 L 129.206,146.44 L 129.114,146.3 L 129.038,146.151 L 128.978,145.994
 L 128.935,145.833 L 128.909,145.667 L 128.9,145.5 L 128.909,145.333 L 128.935,145.167 L 128.978,145.006
 L 129.038,144.849 L 129.114,144.7 L 129.206,144.56 L 129.311,144.429 L 129.429,144.311 L 129.56,144.206
 L 129.7,144.114 L 129.849,144.038 L 130.006,143.978 L 130.167,143.935 L 130.333,143.909 L 130.5,143.9
 L 130.667,143.909 L 130.833,143.935 L 130.994,143.978 L 131.151,144.038 L 131.3,144.114 L 131.44,144.206
 L 131.571,144.311 L 131.689,144.429 L 131.794,144.56 L 131.886,144.7 L 131.962,144.849 L 132.022,145.006
 L 132.065,145.167 L 132.091,145.333 L 132.1,145.5 L 132.091,145.667 L 132.065,145.833 L 132.022,145.994
 L 131.962,146.151 L 131.886,146.3 L 131.794,146.44 L 131.689,146.571 L 131.571,146.689 L 131.44,146.794
 L 131.3,146.886 L 131.151,146.962 L 130.994,147.022 L 130.833,147.065 L 130.667,147.091 L 130.5,147.1
 z
M 120.728,150.086 L 120.459,150.043 L 120.197,149.973 L 119.942,149.875 L 119.7,149.752 L 119.472,149.603
 L 119.26,149.432 L 119.068,149.24 L 118.897,149.028 L 118.748,148.8 L 118.625,148.558 L 118.527,148.303
 L 118.457,148.041 L 118.414,147.772 L 118.4,147.5 L 118.414,147.228 L 118.457,146.959 L 118.527,146.697
 L 118.625,146.442 L 118.748,146.2 L 118.897,145.972 L 119.068,145.76 L 119.26,145.568 L 119.472,145.397
 L 119.7,145.248 L 119.942,145.125 L 120.197,145.027 L 120.459,144.957 L 120.728,144.914 L 121,144.9
 L 121.272,144.914 L 121.541,144.957 L 121.803,145.027 L 122.058,145.125 L 122.3,145.248 L 122.528,145.397
 L 122.74,145.568 L 122.932,145.76 L 123.103,145.972 L 123.252,146.2 L 123.375,146.442 L 123.473,146.697
 L 123.543,146.959 L 123.586,147.228 L 123.6,147.5 L 123.586,147.772 L 123.543,148.041 L 123.473,148.303
 L 123.375,148.558 L 123.252,148.8 L 123.103,149.028 L 122.932,149.24 L 122.74,149.432 L 122.528,149.603
 L 122.3,149.752 L 122.058,149.875 L 121.803,149.973 L 121.541,150.043 L 121.272,150.086 L 121,150.1
 z
M 294.833,150.091 L 294.667,150.065 L 294.506,150.022 L 294.349,149.962 L 294.2,149.886 L 294.06,149.794
 L 293.929,149.689 L 293.811,149.571 L 293.706,149.44 L 293.614,149.3 L 293.538,149.151 L 293.478,148.994
 L 293.435,148.833 L 293.409,148.667 L 293.4,148.5 L 293.409,148.333 L 293.435,148.167 L 293.478,148.006
 L 293.538,147.849 L 293.614,147.7 L 293.706,147.56 L 293.811,147.429 L 293.929,147.311 L 294.06,147.206
 L 294.2,147.114 L 294.349,147.038 L 294.506,146.978 L 294.667,146.935 L 294.833,146.909 L 295,146.9
 L 295.167,146.909 L 295.333,146.935 L 295.494,146.978 L 295.651,147.038 L 295.8,147.114 L 295.94,147.206
 L 296.071,147.311 L 296.189,147.429 L 296.294,147.56 L 296.386,147.7 L 296.462,147.849 L 296.522,148.006
 L 296.565,148.167 L 296.591,148.333 L 296.6,148.5 L 296.591,148.667 L 296.565,148.833 L 296.522,148.994
 L 296.462,149.151 L 296.386,149.3 L 296.294,149.44 L 296.189,149.571 L 296.071,149.689 L 295.94,149.794
 L 295.8,149.886 L 295.651,149.962 L 295.494,150.022 L 295.333,150.065 L 295.167,150.091 L 295,150.1
 z
M 201.133,150.091 L 200.967,150.065 L 200.806,150.022 L 200.649,149.962 L 200.5,149.886 L 200.36,149.794
 L 200.229,149.689 L 200.111,149.571 L 200.006,149.44 L 199.914,149.3 L 199.838,149.151 L 199.778,148.994
 L 199.735,148.833 L 199.709,148.667 L 199.7,148.5 L 199.709,148.333 L 199.735,148.167 L 199.778,148.006
 L 199.838,147.849 L 199.914,147.7 L 200.006,147.56 L 200.111,147.429 L 200.229,147.311 L 200.36,147.206
 L 200.5,147.114 L 200.649,147.038 L 200.806,146.978 L 200.967,146.935 L 201.133,146.909 L 201.3,146.9
 L 201.467,146.909 L 201.633,146.935 L 201.794,146.978 L 201.951,147.038 L 202.1,147.114 L 202.24,147.206
 L 202.371,147.311 L 202.489,147.429 L 202.594,147.56 L 202.686,147.7 L 202.762,147.849 L 202.822,148.006
 L 202.865,148.167 L 202.891,148.333 L 202.9,148.5 L 202.891,148.667 L 202.865,148.833 L 202.822,148.994
 L 202.762,149.151 L 202.686,149.3 L 202.594,149.44 L 202.489,149.571 L 202.371,149.689 L 202.24,149.794
 L 202.1,149.886 L 201.951,149.962 L 201.794,150.022 L 201.633,150.065 L 201.467,150.091 L 201.3,150.1
 z
M 117.228,157.086 L 116.959,157.043 L 116.697,156.973 L 116.442,156.875 L 116.2,156.752 L 115.972,156.603
 L 115.76,156.432 L 115.568,156.24 L 115.397,156.028 L 115.248,155.8 L 115.125,155.558 L 115.027,155.303
 L 114.957,155.041 L 114.914,154.772 L 114.9,154.5 L 114.914,154.228 L 114.957,153.959 L 115.027,153.697
 L 115.125,153.442 L 115.248,153.2 L 115.397,152.972 L 115.568,152.76 L 115.76,152.568 L 115.972,152.397
 L 116.2,152.248 L 116.442,152.125 L 116.697,152.027 L 116.959,151.957 L 117.228,151.914 L 117.5,151.9
 L 117.772,151.914 L 118.041,151.957 L 118.303,152.027 L 118.558,152.125 L 118.8,152.248 L 119.028,152.397
 L 119.24,152.568 L 119.432,152.76 L 119.603,152.972 L 119.752,153.2 L 119.875,153.442 L 119.973,153.697
 L 120.043,153.959 L 120.086,154.228 L 120.1,154.5 L 120.086,154.772 L 120.043,155.041 L 119.973,155.303
 L 119.875,155.558 L 119.752,155.8 L 119.603,156.028 L 119.432,156.24 L 119.24,156.432 L 119.028,156.603
 L 118.8,156.752 L 118.558,156.875 L 118.303,156.973 L 118.041,157.043 L 117.772,157.086 L 117.5,157.1
 z
M 124.228,157.086 L 123.959,157.043 L 123.697,156.973 L 123.442,156.875 L 123.2,156.752 L 122.972,156.603
 L 122.76,156.432 L 122.568,156.24 L 122.397,156.028 L 122.248,155.8 L 122.125,155.558 L 122.027,155.303
 L 121.957,155.041 L 121.914,154.772 L 121.9,154.5 L 121.914,154.228 L 121.957,153.959 L 122.027,153.697
 L 122.125,153.442 L 122.248,153.2 L 122.397,152.972 L 122.568,152.76 L 122.76,152.568 L 122.972,152.397
 L 123.2,152.248 L 123.442,152.125 L 123.697,152.027 L 123.959,151.957 L 124.228,151.914 L 124.5,151.9
 L 124.772,151.914 L 125.041,151.957 L 125.303,152.027 L 125.558,152.125 L 125.8,152.248 L 126.028,152.397
 L 126.24,152.568 L 126.432,152.76 L 126.603,152.972 L 126.752,153.2 L 126.875,153.442 L 126.973,153.697
 L 127.043,153.959 L 127.086,154.228 L 127.1,154.5 L 127.086,154.772 L 127.043,155.041 L 126.973,155.303
 L 126.875,155.558 L 126.752,155.8 L 126.603,156.028 L 126.432,156.24 L 126.24,156.432 L 126.028,156.603
 L 125.8,156.752 L 125.558,156.875 L 125.303,156.973 L 125.041,157.043 L 124.772,157.086 L 124.5,157.1
 z
M 245.083,164.091 L 244.917,164.065 L 244.756,164.022 L 244.599,163.962 L 244.45,163.886 L 244.31,163.794
 L 244.179,163.689 L 244.061,163.571 L 243.956,163.44 L 243.864,163.3 L 243.788,163.151 L 243.728,162.994
 L 243.685,162.833 L 243.659,162.667 L 243.65,162.5 L 243.659,162.333 L 243.685,162.167 L 243.728,162.006
 L 243.788,161.849 L 243.864,161.7 L 243.956,161.56 L 244.061,161.429 L 244.179,161.311 L 244.31,161.206
 L 244.45,161.114 L 244.599,161.038 L 244.756,160.978 L 244.917,160.935 L 245.083,160.909 L 245.25,160.9
 L 245.417,160.909 L 245.583,160.935 L 245.744,160.978 L 245.901,161.038 L 246.05,161.114 L 246.19,161.206
 L 246.321,161.311 L 246.439,161.429 L 246.544,161.56 L 246.636,161.7 L 246.712,161.849 L 246.772,162.006
 L 246.815,162.167 L 246.841,162.333 L 246.85,162.5 L 246.841,162.667 L 246.815,162.833 L 246.772,162.994
 L 246.712,163.151 L 246.636,163.3 L 246.544,163.44 L 246.439,163.571 L 246.321,163.689 L 246.19,163.794
 L 246.05,163.886 L 245.901,163.962 L 245.744,164.022 L 245.583,164.065 L 245.417,164.091 L 245.25,164.1
 z
M 94.5827,164.091 L 94.4173,164.065 L 94.2556,164.022 L 94.0992,163.962 L 93.95,163.886 L 93.8095,163.794
 L 93.6794,163.689 L 93.561,163.571 L 93.4556,163.44 L 93.3643,163.3 L 93.2883,163.151 L 93.2283,162.994
 L 93.185,162.833 L 93.1588,162.667 L 93.15,162.5 L 93.1588,162.333 L 93.185,162.167 L 93.2283,162.006
 L 93.2883,161.849 L 93.3643,161.7 L 93.4556,161.56 L 93.561,161.429 L 93.6794,161.311 L 93.8095,161.206
 L 93.95,161.114 L 94.0992,161.038 L 94.2556,160.978 L 94.4173,160.935 L 94.5827,160.909 L 94.75,160.9
 L 94.9172,160.909 L 95.0827,160.935 L 95.2444,160.978 L 95.4008,161.038 L 95.55,161.114 L 95.6905,161.206
 L 95.8206,161.311 L 95.939,161.429 L 96.0444,161.56 L 96.1356,161.7 L 96.2117,161.849 L 96.2717,162.006
 L 96.315,162.167 L 96.3412,162.333 L 96.35,162.5 L 96.3412,162.667 L 96.315,162.833 L 96.2717,162.994
 L 96.2117,163.151 L 96.1356,163.3 L 96.0444,163.44 L 95.939,163.571 L 95.8206,163.689 L 95.6905,163.794
 L 95.55,163.886 L 95.4008,163.962 L 95.2444,164.022 L 95.0827,164.065 L 94.9172,164.091 L 94.75,164.1
 z
M 169.833,164.091 L 169.667,164.065 L 169.506,164.022 L 169.349,163.962 L 169.2,163.886 L 169.06,163.794
 L 168.929,163.689 L 168.811,163.571 L 168.706,163.44 L 168.614,163.3 L 168.538,163.151 L 168.478,162.994
 L 168.435,162.833 L 168.409,162.667 L 168.4,162.5 L 168.409,162.333 L 168.435,162.167 L 168.478,162.006
 L 168.538,161.849 L 168.614,161.7 L 168.706,161.56 L 168.811,161.429 L 168.929,161.311 L 169.06,161.206
 L 169.2,161.114 L 169.349,161.038 L 169.506,160.978 L 169.667,160.935 L 169.833,160.909 L 170,160.9
 L 170.167,160.909 L 170.333,160.935 L 170.494,160.978 L 170.651,161.038 L 170.8,161.114 L 170.94,161.206
 L 171.071,161.311 L 171.189,161.429 L 171.294,161.56 L 171.386,161.7 L 171.462,161.849 L 171.522,162.006
 L 171.565,162.167 L 171.591,162.333 L 171.6,162.5 L 171.591,162.667 L 171.565,162.833 L 171.522,162.994
 L 171.462,163.151 L 171.386,163.3 L 171.294,163.44 L 171.189,163.571 L 171.071,163.689 L 170.94,163.794
 L 170.8,163.886 L 170.651,163.962 L 170.494,164.022 L 170.333,164.065 L 170.167,164.091 L 170,164.1
 z
M 119.875,55.4425 L 119.973,55.6965 L 120.043,55.9594 L 120.086,56.2282 L 120.1,56.5 L 120.086,56.7718
 L 120.043,57.0406 L 119.973,57.3034 L 119.875,57.5575 L 119.752,57.8 L 119.603,58.0282 L 119.432,58.2397
 L 119.24,58.4322 L 119.028,58.6034 L 118.8,58.7517 L 118.558,58.8752 L 118.303,58.9727 L 118.041,59.0432
 L 117.772,59.0858 L 117.5,59.1 L 117.228,59.0858 L 116.959,59.0432 L 116.697,58.9727 L 116.442,58.8752
 L 116.2,58.7517 L 115.972,58.6034 L 115.76,58.4322 L 115.568,58.2397 L 115.397,58.0282 L 115.248,57.8
 L 115.125,57.5575 L 115.027,57.3034 L 114.957,57.0406 L 114.914,56.7718 L 114.9,56.5 L 114.914,56.2282
 L 114.957,55.9594 L 115.027,55.6965 L 115.125,55.4425 L 115.248,55.2 L 115.397,54.9718 L 115.568,54.7603
 L 115.76,54.5678 L 115.972,54.3965 L 116.2,54.2483 L 116.442,54.1248 L 116.697,54.0273 L 116.959,53.9568
 L 117.228,53.9142 L 117.5,53.9 L 117.772,53.9142 L 118.041,53.9568 L 118.303,54.0273 L 118.558,54.1248
 L 118.8,54.2483 L 119.028,54.3965 L 119.24,54.5678 L 119.432,54.7603 L 119.603,54.9718 L 119.752,55.2
 z
M 119.973,69.6965 L 120.043,69.9594 L 120.086,70.2282 L 120.1,70.5 L 120.086,70.7718 L 120.043,71.0406
 L 119.973,71.3034 L 119.875,71.5575 L 119.752,71.8 L 119.603,72.0282 L 119.432,72.2397 L 119.24,72.4322
 L 119.028,72.6034 L 118.8,72.7517 L 118.558,72.8752 L 118.303,72.9727 L 118.041,73.0432 L 117.772,73.0858
 L 117.5,73.1 L 117.228,73.0858 L 116.959,73.0432 L 116.697,72.9727 L 116.442,72.8752 L 116.2,72.7517
 L 115.972,72.6034 L 115.76,72.4322 L 115.568,72.2397 L 115.397,72.0282 L 115.248,71.8 L 115.125,71.5575
 L 115.027,71.3034 L 114.957,71.0406 L 114.914,70.7718 L 114.9,70.5 L 114.914,70.2282 L 114.957,69.9594
 L 115.027,69.6965 L 115.125,69.4425 L 115.248,69.2 L 115.397,68.9718 L 115.568,68.7603 L 115.76,68.5678
 L 115.972,68.3965 L 116.2,68.2483 L 116.442,68.1248 L 116.697,68.0273 L 116.959,67.9568 L 117.228,67.9142
 L 117.5,67.9 L 117.772,67.9142 L 118.041,67.9568 L 118.303,68.0273 L 118.558,68.1248 L 118.8,68.2483
 L 119.028,68.3965 L 119.24,68.5678 L 119.432,68.7603 L 119.603,68.9718 L 119.752,69.2 L 119.875,69.4425
 z
M 120.043,83.9594 L 120.086,84.2282 L 120.1,84.5 L 120.086,84.7718 L 120.043,85.0406 L 119.973,85.3034
 L 119.875,85.5575 L 119.752,85.8 L 119.603,86.0282 L 119.432,86.2397 L 119.24,86.4322 L 119.028,86.6034
 L 118.8,86.7517 L 118.558,86.8752 L 118.303,86.9727 L 118.041,87.0432 L 117.772,87.0858 L 117.5,87.1
 L 117.228,87.0858 L 116.959,87.0432 L 116.697,86.9727 L 116.442,86.8752 L 116.2,86.7517 L 115.972,86.6034
 L 115.76,86.4322 L 115.568,86.2397 L 115.397,86.0282 L 115.248,85.8 L 115.125,85.5575 L 115.027,85.3034
 L 114.957,85.0406 L 114.914,84.7718 L 114.9,84.5 L 114.914,84.2282 L 114.957,83.9594 L 115.027,83.6965
 L 115.125,83.4425 L 115.248,83.2 L 115.397,82.9718 L 115.568,82.7603 L 115.76,82.5678 L 115.972,82.3965
 L 116.2,82.2483 L 116.442,82.1248 L 116.697,82.0273 L 116.959,81.9568 L 117.228,81.9142 L 117.5,81.9
 L 117.772,81.9142 L 118.041,81.9568 L 118.303,82.0273 L 118.558,82.1248 L 118.8,82.2483 L 119.028,82.3965
 L 119.24,82.5678 L 119.432,82.7603 L 119.603,82.9718 L 119.752,83.2 L 119.875,83.4425 L 119.973,83.6965
 z
M 116.375,104.442 L 116.473,104.697 L 116.543,104.959 L 116.586,105.228 L 116.6,105.5 L 116.586,105.772
 L 116.543,106.041 L 116.473,106.303 L 116.375,106.558 L 116.252,106.8 L 116.103,107.028 L 115.932,107.24
 L 115.74,107.432 L 115.528,107.603 L 115.3,107.752 L 115.058,107.875 L 114.803,107.973 L 114.541,108.043
 L 114.272,108.086 L 114,108.1 L 113.728,108.086 L 113.459,108.043 L 113.197,107.973 L 112.942,107.875
 L 112.7,107.752 L 112.472,107.603 L 112.26,107.432 L 112.068,107.24 L 111.897,107.028 L 111.748,106.8
 L 111.625,106.558 L 111.527,106.303 L 111.457,106.041 L 111.414,105.772 L 111.4,105.5 L 111.414,105.228
 L 111.457,104.959 L 111.527,104.697 L 111.625,104.442 L 111.748,104.2 L 111.897,103.972 L 112.068,103.76
 L 112.26,103.568 L 112.472,103.397 L 112.7,103.248 L 112.942,103.125 L 113.197,103.027 L 113.459,102.957
 L 113.728,102.914 L 114,102.9 L 114.272,102.914 L 114.541,102.957 L 114.803,103.027 L 115.058,103.125
 L 115.3,103.248 L 115.528,103.397 L 115.74,103.568 L 115.932,103.76 L 116.103,103.972 L 116.252,104.2
 z
M 60.5858,105.772 L 60.5432,106.041 L 60.4727,106.303 L 60.3752,106.558 L 60.2517,106.8 L 60.1034,107.028
 L 59.9322,107.24 L 59.7397,107.432 L 59.5282,107.603 L 59.3,107.752 L 59.0575,107.875 L 58.8034,107.973
 L 58.5406,108.043 L 58.2718,108.086 L 58,108.1 L 57.7282,108.086 L 57.4594,108.043 L 57.1965,107.973
 L 56.9425,107.875 L 56.7,107.752 L 56.4718,107.603 L 56.2603,107.432 L 56.0678,107.24 L 55.8965,107.028
 L 55.7483,106.8 L 55.6248,106.558 L 55.5273,106.303 L 55.4568,106.041 L 55.4142,105.772 L 55.4,105.5
 L 55.4142,105.228 L 55.4568,104.959 L 55.5273,104.697 L 55.6248,104.442 L 55.7483,104.2 L 55.8965,103.972
 L 56.0678,103.76 L 56.2603,103.568 L 56.4718,103.397 L 56.7,103.248 L 56.9425,103.125 L 57.1965,103.027
 L 57.4594,102.957 L 57.7282,102.914 L 58,102.9 L 58.2718,102.914 L 58.5406,102.957 L 58.8034,103.027
 L 59.0575,103.125 L 59.3,103.248 L 59.5282,103.397 L 59.7397,103.568 L 59.9322,103.76 L 60.1034,103.972
 L 60.2517,104.2 L 60.3752,104.442 L 60.4727,104.697 L 60.5432,104.959 L 60.5858,105.228 L 60.6,105.5
 z
M 130.543,106.041 L 130.473,106.303 L 130.375,106.558 L 130.252,106.8 L 130.103,107.028 L 129.932,107.24
 L 129.74,107.432 L 129.528,107.603 L 129.3,107.752 L 129.058,107.875 L 128.803,107.973 L 128.541,108.043
 L 128.272,108.086 L 128,108.1 L 127.728,108.086 L 127.459,108.043 L 127.197,107.973 L 126.942,107.875
 L 126.7,107.752 L 126.472,107.603 L 126.26,107.432 L 126.068,107.24 L 125.897,107.028 L 125.748,106.8
 L 125.625,106.558 L 125.527,106.303 L 125.457,106.041 L 125.414,105.772 L 125.4,105.5 L 125.414,105.228
 L 125.457,104.959 L 125.527,104.697 L 125.625,104.442 L 125.748,104.2 L 125.897,103.972 L 126.068,103.76
 L 126.26,103.568 L 126.472,103.397 L 126.7,103.248 L 126.942,103.125 L 127.197,103.027 L 127.459,102.957
 L 127.728,102.914 L 128,102.9 L 128.272,102.914 L 128.541,102.957 L 128.803,103.027 L 129.058,103.125
 L 129.3,103.248 L 129.528,103.397 L 129.74,103.568 L 129.932,103.76 L 130.103,103.972 L 130.252,104.2
 L 130.375,104.442 L 130.473,104.697 L 130.543,104.959 L 130.586,105.228 L 130.6,105.5 L 130.586,105.772
 z
M 120.086,112.228 L 120.1,112.5 L 120.086,112.772 L 120.043,113.041 L 119.973,113.303 L 119.875,113.558
 L 119.752,113.8 L 119.603,114.028 L 119.432,114.24 L 119.24,114.432 L 119.028,114.603 L 118.8,114.752
 L 118.558,114.875 L 118.303,114.973 L 118.041,115.043 L 117.772,115.086 L 117.5,115.1 L 117.228,115.086
 L 116.959,115.043 L 116.697,114.973 L 116.442,114.875 L 116.2,114.752 L 115.972,114.603 L 115.76,114.432
 L 115.568,114.24 L 115.397,114.028 L 115.248,113.8 L 115.125,113.558 L 115.027,113.303 L 114.957,113.041
 L 114.914,112.772 L 114.9,112.5 L 114.914,112.228 L 114.957,111.959 L 115.027,111.697 L 115.125,111.442
 L 115.248,111.2 L 115.397,110.972 L 115.568,110.76 L 115.76,110.568 L 115.972,110.397 L 116.2,110.248
 L 116.442,110.125 L 116.697,110.027 L 116.959,109.957 L 117.228,109.914 L 117.5,109.9 L 117.772,109.914
 L 118.041,109.957 L 118.303,110.027 L 118.558,110.125 L 118.8,110.248 L 119.028,110.397 L 119.24,110.568
 L 119.432,110.76 L 119.603,110.972 L 119.752,111.2 L 119.875,111.442 L 119.973,111.697 L 120.043,111.959
 z
M 120.043,125.959 L 120.086,126.228 L 120.1,126.5 L 120.086,126.772 L 120.043,127.041 L 119.973,127.303
 L 119.875,127.558 L 119.752,127.8 L 119.603,128.028 L 119.432,128.24 L 119.24,128.432 L 119.028,128.603
 L 118.8,128.752 L 118.558,128.875 L 118.303,128.973 L 118.041,129.043 L 117.772,129.086 L 117.5,129.1
 L 117.228,129.086 L 116.959,129.043 L 116.697,128.973 L 116.442,128.875 L 116.2,128.752 L 115.972,128.603
 L 115.76,128.432 L 115.568,128.24 L 115.397,128.028 L 115.248,127.8 L 115.125,127.558 L 115.027,127.303
 L 114.957,127.041 L 114.914,126.772 L 114.9,126.5 L 114.914,126.228 L 114.957,125.959 L 115.027,125.697
 L 115.125,125.442 L 115.248,125.2 L 115.397,124.972 L 115.568,124.76 L 115.76,124.568 L 115.972,124.397
 L 116.2,124.248 L 116.442,124.125 L 116.697,124.027 L 116.959,123.957 L 117.228,123.914 L 117.5,123.9
 L 117.772,123.914 L 118.041,123.957 L 118.303,124.027 L 118.558,124.125 L 118.8,124.248 L 119.028,124.397
 L 119.24,124.568 L 119.432,124.76 L 119.603,124.972 L 119.752,125.2 L 119.875,125.442 L 119.973,125.697
 z
" stroke="black" fill="lightgray" stroke-width="0.5"/>
</svg>
