<?xml version="1.0" standalone="no"?>
<!DOCTYPE svg PUBLIC "-//W3C//DTD SVG 1.1//EN" "http://www.w3.org/Graphics/SVG/1.1/DTD/svg11.dtd">
<svg width="340mm" height="200mm" viewBox="0 -200 340 200" xmlns="http://www.w3.org/2000/svg" version="1.1">
<title>OpenSCAD Model</title>
<path d="
M 25,-5.00005 L 35,-5.00005 L 35,-0 L 45,-0 L 45,-5.00005 L 55,-5.00005
 L 55,-0 L 65,-0 L 65,-5.00005 L 75,-5.00005 L 75,-0 L 85,-0
 L 85,-5.00005 L 95,-5.00005 L 95,-0 L 105,-0 L 105,-5.00005 L 115,-5.00005
 L 115,-0 L 125,-0 L 125,-5.00005 L 135,-5.00005 L 135,-0 L 145,-0
 L 145,-5.00005 L 155,-5.00005 L 155,-0 L 165,-0 L 165,-5.00005 L 175,-5.00005
 L 175,-0 L 185,-0 L 185,-5.00005 L 195,-5.00005 L 195,-0 L 205,-0
 L 205,-5.00005 L 215,-5.00005 L 215,-0 L 225,-0 L 225,-5.00005 L 235,-5.00005
 L 235,-0 L 245,-0 L 245,-5.00005 L 255,-5.00005 L 255,-0 L 265,-0
 L 265,-5.00005 L 275,-5.00005 L 275,-0 L 285,-0 L 285,-5.00005 L 295,-5.00005
 L 295,-0 L 305,-0 L 305,-5.00005 L 315,-5.00005 L 315,-0 L 325,-0
 L 325,-5.00005 L 340,-5.00005 L 340,-15 L 335,-15 L 335,-25 L 340,-25
 L 340,-35 L 335,-35 L 335,-45 L 340,-45 L 340,-55 L 335,-55
 L 335,-65 L 340,-65 L 340,-75 L 335,-75 L 335,-85 L 340,-85
 L 340,-95 L 335,-95 L 335,-105 L 340,-105 L 340,-115 L 335,-115
 L 335,-125 L 340,-125 L 340,-135 L 335,-135 L 335,-145 L 340,-145
 L 340,-155 L 335,-155 L 335,-165 L 340,-165 L 340,-175 L 335,-175
 L 335,-185 L 340,-185 L 340,-195 L 325,-195 L 325,-200 L 315,-200
 L 315,-195 L 305,-195 L 305,-200 L 295,-200 L 295,-195 L 285,-195
 L 285,-200 L 275,-200 L 275,-195 L 265,-195 L 265,-200 L 255,-200
 L 255,-195 L 245,-195 L 245,-200 L 235,-200 L 235,-195 L 225,-195
 L 225,-200 L 215,-200 L 215,-195 L 205,-195 L 205,-200 L 195,-200
 L 195,-195 L 185,-195 L 185,-200 L 175,-200 L 175,-195 L 165,-195
 L 165,-200 L 155,-200 L 155,-195 L 145,-195 L 145,-200 L 135,-200
 L 135,-195 L 125,-195 L 125,-200 L 115,-200 L 115,-195 L 105,-195
 L 105,-200 L 95,-200 L 95,-195 L 85,-195 L 85,-200 L 75,-200
 L 75,-195 L 65,-195 L 65,-200 L 55,-200 L 55,-195 L 45,-195
 L 45,-200 L 35,-200 L 35,-195 L 25,-195 L 25,-200 L 15,-200
 L 15,-195 L 0,-195 L 0,-185 L 5.00005,-185 L 5.00005,-175 L 0,-175
 L 0,-165 L 5.00005,-165 L 5.00005,-155 L 0,-155 L 0,-145 L 5.00005,-145
 L 5.00005,-135 L 0,-135 L 0,-125 L 5.00005,-125 L 5.00005,-115 L 0,-115
 L 0,-105 L 5.00005,-105 L 5.00005,-95 L 0,-95 L 0,-85 L 5.00005,-85
 L 5.00005,-75 L 0,-75 L 0,-65 L 5.00005,-65 L 5.00005,-55 L 0,-55
 L 0,-45 L 5.00005,-45 L 5.00005,-35 L 0,-35 L 0,-25 L 5.00005,-25
 L 5.00005,-15 L 0,-15 L 0,-5 L 15,-5 L 15,-0 L 25,-0
 z
M 12.8327,-185.409 L 12.6673,-185.435 L 12.5056,-185.478 L 12.3492,-185.538 L 12.2,-185.614 L 12.0595,-185.706
 L 11.9294,-185.811 L 11.811,-185.929 L 11.7056,-186.06 L 11.6143,-186.2 L 11.5383,-186.349 L 11.4783,-186.506
 L 11.435,-186.667 L 11.4088,-186.833 L 11.4,-187 L 11.4088,-187.167 L 11.435,-187.333 L 11.4783,-187.494
 L 11.5383,-187.651 L 11.6143,-187.8 L 11.7056,-187.94 L 11.811,-188.071 L 11.9294,-188.189 L 12.0595,-188.294
 L 12.2,-188.386 L 12.3492,-188.462 L 12.5056,-188.522 L 12.6673,-188.565 L 12.8327,-188.591 L 13,-188.6
 L 13.1672,-188.591 L 13.3327,-188.565 L 13.4944,-188.522 L 13.6508,-188.462 L 13.8,-188.386 L 13.9404,-188.294
 L 14.0706,-188.189 L 14.189,-188.071 L 14.2944,-187.94 L 14.3856,-187.8 L 14.4617,-187.651 L 14.5217,-187.494
 L 14.565,-187.333 L 14.5912,-187.167 L 14.6,-187 L 14.5912,-186.833 L 14.565,-186.667 L 14.5217,-186.506
 L 14.4617,-186.349 L 14.3856,-186.2 L 14.2944,-186.06 L 14.189,-185.929 L 14.0706,-185.811 L 13.9404,-185.706
 L 13.8,-185.614 L 13.6508,-185.538 L 13.4944,-185.478 L 13.3327,-185.435 L 13.1672,-185.409 L 13,-185.4
 z
M 326.833,-185.409 L 326.667,-185.435 L 326.506,-185.478 L 326.349,-185.538 L 326.2,-185.614 L 326.06,-185.706
 L 325.929,-185.811 L 325.811,-185.929 L 325.706,-186.06 L 325.614,-186.2 L 325.538,-186.349 L 325.478,-186.506
 L 325.435,-186.667 L 325.409,-186.833 L 325.4,-187 L 325.409,-187.167 L 325.435,-187.333 L 325.478,-187.494
 L 325.538,-187.651 L 325.614,-187.8 L 325.706,-187.94 L 325.811,-188.071 L 325.929,-188.189 L 326.06,-188.294
 L 326.2,-188.386 L 326.349,-188.462 L 326.506,-188.522 L 326.667,-188.565 L 326.833,-188.591 L 327,-188.6
 L 327.167,-188.591 L 327.333,-188.565 L 327.494,-188.522 L 327.651,-188.462 L 327.8,-188.386 L 327.94,-188.294
 L 328.071,-188.189 L 328.189,-188.071 L 328.294,-187.94 L 328.386,-187.8 L 328.462,-187.651 L 328.522,-187.494
 L 328.565,-187.333 L 328.591,-187.167 L 328.6,-187 L 328.591,-186.833 L 328.565,-186.667 L 328.522,-186.506
 L 328.462,-186.349 L 328.386,-186.2 L 328.294,-186.06 L 328.189,-185.929 L 328.071,-185.811 L 327.94,-185.706
 L 327.8,-185.614 L 327.651,-185.538 L 327.494,-185.478 L 327.333,-185.435 L 327.167,-185.409 L 327,-185.4
 z
M 258.499,-183.409 L 258.334,-183.435 L 258.172,-183.478 L 258.016,-183.538 L 257.867,-183.614 L 257.726,-183.706
 L 257.596,-183.811 L 257.478,-183.929 L 257.372,-184.06 L 257.281,-184.2 L 257.205,-184.349 L 257.145,-184.506
 L 257.102,-184.667 L 257.075,-184.833 L 257.067,-185 L 257.075,-185.167 L 257.102,-185.333 L 257.145,-185.494
 L 257.205,-185.651 L 257.281,-185.8 L 257.372,-185.94 L 257.478,-186.071 L 257.596,-186.189 L 257.726,-186.294
 L 257.867,-186.386 L 258.016,-186.462 L 258.172,-186.522 L 258.334,-186.565 L 258.499,-186.591 L 258.667,-186.6
 L 258.834,-186.591 L 258.999,-186.565 L 259.161,-186.522 L 259.317,-186.462 L 259.467,-186.386 L 259.607,-186.294
 L 259.737,-186.189 L 259.856,-186.071 L 259.961,-185.94 L 260.052,-185.8 L 260.128,-185.651 L 260.188,-185.494
 L 260.232,-185.333 L 260.258,-185.167 L 260.267,-185 L 260.258,-184.833 L 260.232,-184.667 L 260.188,-184.506
 L 260.128,-184.349 L 260.052,-184.2 L 259.961,-184.06 L 259.856,-183.929 L 259.737,-183.811 L 259.607,-183.706
 L 259.467,-183.614 L 259.317,-183.538 L 259.161,-183.478 L 258.999,-183.435 L 258.834,-183.409 L 258.667,-183.4
 z
M 96.1661,-183.409 L 96.0007,-183.435 L 95.8389,-183.478 L 95.6826,-183.538 L 95.5333,-183.614 L 95.3929,-183.706
 L 95.2627,-183.811 L 95.1443,-183.929 L 95.0389,-184.06 L 94.9477,-184.2 L 94.8717,-184.349 L 94.8116,-184.506
 L 94.7683,-184.667 L 94.7421,-184.833 L 94.7333,-185 L 94.7421,-185.167 L 94.7683,-185.333 L 94.8116,-185.494
 L 94.8717,-185.651 L 94.9477,-185.8 L 95.0389,-185.94 L 95.1443,-186.071 L 95.2627,-186.189 L 95.3929,-186.294
 L 95.5333,-186.386 L 95.6826,-186.462 L 95.8389,-186.522 L 96.0007,-186.565 L 96.1661,-186.591 L 96.3333,-186.6
 L 96.5006,-186.591 L 96.666,-186.565 L 96.8278,-186.522 L 96.9841,-186.462 L 97.1333,-186.386 L 97.2738,-186.294
 L 97.4039,-186.189 L 97.5224,-186.071 L 97.6278,-185.94 L 97.719,-185.8 L 97.795,-185.651 L 97.855,-185.494
 L 97.8984,-185.333 L 97.9246,-185.167 L 97.9333,-185 L 97.9246,-184.833 L 97.8984,-184.667 L 97.855,-184.506
 L 97.795,-184.349 L 97.719,-184.2 L 97.6278,-184.06 L 97.5224,-183.929 L 97.4039,-183.811 L 97.2738,-183.706
 L 97.1333,-183.614 L 96.9841,-183.538 L 96.8278,-183.478 L 96.666,-183.435 L 96.5006,-183.409 L 96.3333,-183.4
 z
M 245.083,-160.909 L 244.917,-160.935 L 244.756,-160.978 L 244.599,-161.038 L 244.45,-161.114 L 244.31,-161.206
 L 244.179,-161.311 L 244.061,-161.429 L 243.956,-161.56 L 243.864,-161.7 L 243.788,-161.849 L 243.728,-162.006
 L 243.685,-162.167 L 243.659,-162.333 L 243.65,-162.5 L 243.659,-162.667 L 243.685,-162.833 L 243.728,-162.994
 L 243.788,-163.151 L 243.864,-163.3 L 243.956,-163.44 L 244.061,-163.571 L 244.179,-163.689 L 244.31,-163.794
 L 244.45,-163.886 L 244.599,-163.962 L 244.756,-164.022 L 244.917,-164.065 L 245.083,-164.091 L 245.25,-164.1
 L 245.417,-164.091 L 245.583,-164.065 L 245.744,-164.022 L 245.901,-163.962 L 246.05,-163.886 L 246.19,-163.794
 L 246.321,-163.689 L 246.439,-163.571 L 246.544,-163.44 L 246.636,-163.3 L 246.712,-163.151 L 246.772,-162.994
 L 246.815,-162.833 L 246.841,-162.667 L 246.85,-162.5 L 246.841,-162.333 L 246.815,-162.167 L 246.772,-162.006
 L 246.712,-161.849 L 246.636,-161.7 L 246.544,-161.56 L 246.439,-161.429 L 246.321,-161.311 L 246.19,-161.206
 L 246.05,-161.114 L 245.901,-161.038 L 245.744,-160.978 L 245.583,-160.935 L 245.417,-160.909 L 245.25,-160.9
 z
M 169.833,-160.909 L 169.667,-160.935 L 169.506,-160.978 L 169.349,-161.038 L 169.2,-161.114 L 169.06,-161.206
 L 168.929,-161.311 L 168.811,-161.429 L 168.706,-161.56 L 168.614,-161.7 L 168.538,-161.849 L 168.478,-162.006
 L 168.435,-162.167 L 168.409,-162.333 L 168.4,-162.5 L 168.409,-162.667 L 168.435,-162.833 L 168.478,-162.994
 L 168.538,-163.151 L 168.614,-163.3 L 168.706,-163.44 L 168.811,-163.571 L 168.929,-163.689 L 169.06,-163.794
 L 169.2,-163.886 L 169.349,-163.962 L 169.506,-164.022 L 169.667,-164.065 L 169.833,-164.091 L 170,-164.1
 L 170.167,-164.091 L 170.333,-164.065 L 170.494,-164.022 L 170.651,-163.962 L 170.8,-163.886 L 170.94,-163.794
 L 171.071,-163.689 L 171.189,-163.571 L 171.294,-163.44 L 171.386,-163.3 L 171.462,-163.151 L 171.522,-162.994
 L 171.565,-162.833 L 171.591,-162.667 L 171.6,-162.5 L 171.591,-162.333 L 171.565,-162.167 L 171.522,-162.006
 L 171.462,-161.849 L 171.386,-161.7 L 171.294,-161.56 L 171.189,-161.429 L 171.071,-161.311 L 170.94,-161.206
 L 170.8,-161.114 L 170.651,-161.038 L 170.494,-160.978 L 170.333,-160.935 L 170.167,-160.909 L 170,-160.9
 z
M 94.5827,-160.909 L 94.4173,-160.935 L 94.2556,-160.978 L 94.0992,-161.038 L 93.95,-161.114 L 93.8095,-161.206
 L 93.6794,-161.311 L 93.561,-161.429 L 93.4556,-161.56 L 93.3643,-161.7 L 93.2883,-161.849 L 93.2283,-162.006
 L 93.185,-162.167 L 93.1588,-162.333 L 93.15,-162.5 L 93.1588,-162.667 L 93.185,-162.833 L 93.2283,-162.994
 L 93.2883,-163.151 L 93.3643,-163.3 L 93.4556,-163.44 L 93.561,-163.571 L 93.6794,-163.689 L 93.8095,-163.794
 L 93.95,-163.886 L 94.0992,-163.962 L 94.2556,-164.022 L 94.4173,-164.065 L 94.5827,-164.091 L 94.75,-164.1
 L 94.9172,-164.091 L 95.0827,-164.065 L 95.2444,-164.022 L 95.4008,-163.962 L 95.55,-163.886 L 95.6905,-163.794
 L 95.8206,-163.689 L 95.939,-163.571 L 96.0444,-163.44 L 96.1356,-163.3 L 96.2117,-163.151 L 96.2717,-162.994
 L 96.315,-162.833 L 96.3412,-162.667 L 96.35,-162.5 L 96.3412,-162.333 L 96.315,-162.167 L 96.2717,-162.006
 L 96.2117,-161.849 L 96.1356,-161.7 L 96.0444,-161.56 L 95.939,-161.429 L 95.8206,-161.311 L 95.6905,-161.206
 L 95.55,-161.114 L 95.4008,-161.038 L 95.2444,-160.978 L 95.0827,-160.935 L 94.9172,-160.909 L 94.75,-160.9
 z
M 39.5819,-156.022 L 39.1684,-156.087 L 38.7639,-156.196 L 38.373,-156.346 L 38,-156.536 L 37.6488,-156.764
 L 37.3235,-157.027 L 37.0274,-157.323 L 36.7639,-157.649 L 36.5359,-158 L 36.3458,-158.373 L 36.1958,-158.764
 L 36.0874,-159.168 L 36.0219,-159.582 L 36,-160 L 36.0219,-160.418 L 36.0874,-160.832 L 36.1958,-161.236
 L 36.3458,-161.627 L 36.5359,-162 L 36.7639,-162.351 L 37.0274,-162.677 L 37.3235,-162.973 L 37.6488,-163.236
 L 38,-163.464 L 38.373,-163.654 L 38.7639,-163.804 L 39.1684,-163.913 L 39.5819,-163.978 L 40,-164
 L 40.4181,-163.978 L 40.8316,-163.913 L 41.2361,-163.804 L 41.6269,-163.654 L 42,-163.464 L 42.3511,-163.236
 L 42.6765,-162.973 L 42.9726,-162.677 L 43.2361,-162.351 L 43.4641,-162 L 43.6542,-161.627 L 43.8042,-161.236
 L 43.9126,-160.832 L 43.9781,-160.418 L 44,-160 L 43.9781,-159.582 L 43.9126,-159.168 L 43.8042,-158.764
 L 43.6542,-158.373 L 43.4641,-158 L 43.2361,-157.649 L 42.9726,-157.323 L 42.6765,-157.027 L 42.3511,-156.764
 L 42,-156.536 L 41.6269,-156.346 L 41.2361,-156.196 L 40.8316,-156.087 L 40.4181,-156.022 L 40,-156
 z
M 299.582,-156.022 L 299.168,-156.087 L 298.764,-156.196 L 298.373,-156.346 L 298,-156.536 L 297.649,-156.764
 L 297.323,-157.027 L 297.027,-157.323 L 296.764,-157.649 L 296.536,-158 L 296.346,-158.373 L 296.196,-158.764
 L 296.087,-159.168 L 296.022,-159.582 L 296,-160 L 296.022,-160.418 L 296.087,-160.832 L 296.196,-161.236
 L 296.346,-161.627 L 296.536,-162 L 296.764,-162.351 L 297.027,-162.677 L 297.323,-162.973 L 297.649,-163.236
 L 298,-163.464 L 298.373,-163.654 L 298.764,-163.804 L 299.168,-163.913 L 299.582,-163.978 L 300,-164
 L 300.418,-163.978 L 300.832,-163.913 L 301.236,-163.804 L 301.627,-163.654 L 302,-163.464 L 302.351,-163.236
 L 302.677,-162.973 L 302.973,-162.677 L 303.236,-162.351 L 303.464,-162 L 303.654,-161.627 L 303.804,-161.236
 L 303.913,-160.832 L 303.978,-160.418 L 304,-160 L 303.978,-159.582 L 303.913,-159.168 L 303.804,-158.764
 L 303.654,-158.373 L 303.464,-158 L 303.236,-157.649 L 302.973,-157.323 L 302.677,-157.027 L 302.351,-156.764
 L 302,-156.536 L 301.627,-156.346 L 301.236,-156.196 L 300.832,-156.087 L 300.418,-156.022 L 300,-156
 z
M 244.77,-122.812 L 244.543,-122.848 L 244.32,-122.908 L 244.105,-122.99 L 243.9,-123.095 L 243.707,-123.22
 L 243.528,-123.365 L 243.365,-123.528 L 243.22,-123.707 L 243.095,-123.9 L 242.99,-124.105 L 242.908,-124.32
 L 242.848,-124.543 L 242.812,-124.77 L 242.8,-125 L 242.812,-125.23 L 242.848,-125.457 L 242.908,-125.68
 L 242.99,-125.895 L 243.095,-126.1 L 243.22,-126.293 L 243.365,-126.472 L 243.528,-126.635 L 243.707,-126.78
 L 243.9,-126.905 L 244.105,-127.01 L 244.32,-127.092 L 244.543,-127.152 L 244.77,-127.188 L 245,-127.2
 L 245.23,-127.188 L 245.457,-127.152 L 245.68,-127.092 L 245.895,-127.01 L 246.1,-126.905 L 246.293,-126.78
 L 246.472,-126.635 L 246.635,-126.472 L 246.78,-126.293 L 246.905,-126.1 L 247.01,-125.895 L 247.092,-125.68
 L 247.152,-125.457 L 247.188,-125.23 L 247.2,-125 L 247.188,-124.77 L 247.152,-124.543 L 247.092,-124.32
 L 247.01,-124.105 L 246.905,-123.9 L 246.78,-123.707 L 246.635,-123.528 L 246.472,-123.365 L 246.293,-123.22
 L 246.1,-123.095 L 245.895,-122.99 L 245.68,-122.908 L 245.457,-122.848 L 245.23,-122.812 L 245,-122.8
 z
M 94.77,-122.812 L 94.5426,-122.848 L 94.3202,-122.908 L 94.1052,-122.99 L 93.9,-123.095 L 93.7069,-123.22
 L 93.5279,-123.365 L 93.3651,-123.528 L 93.2202,-123.707 L 93.0947,-123.9 L 92.9902,-124.105 L 92.9077,-124.32
 L 92.8481,-124.543 L 92.812,-124.77 L 92.8,-125 L 92.812,-125.23 L 92.8481,-125.457 L 92.9077,-125.68
 L 92.9902,-125.895 L 93.0947,-126.1 L 93.2202,-126.293 L 93.3651,-126.472 L 93.5279,-126.635 L 93.7069,-126.78
 L 93.9,-126.905 L 94.1052,-127.01 L 94.3202,-127.092 L 94.5426,-127.152 L 94.77,-127.188 L 95,-127.2
 L 95.23,-127.188 L 95.4574,-127.152 L 95.6798,-127.092 L 95.8948,-127.01 L 96.1,-126.905 L 96.2931,-126.78
 L 96.4721,-126.635 L 96.6349,-126.472 L 96.7798,-126.293 L 96.9053,-126.1 L 97.0098,-125.895 L 97.0923,-125.68
 L 97.1519,-125.457 L 97.1879,-125.23 L 97.2,-125 L 97.1879,-124.77 L 97.1519,-124.543 L 97.0923,-124.32
 L 97.0098,-124.105 L 96.9053,-123.9 L 96.7798,-123.707 L 96.6349,-123.528 L 96.4721,-123.365 L 96.2931,-123.22
 L 96.1,-123.095 L 95.8948,-122.99 L 95.6798,-122.908 L 95.4574,-122.848 L 95.23,-122.812 L 95,-122.8
 z
M 324.833,-118.409 L 324.667,-118.435 L 324.506,-118.478 L 324.349,-118.538 L 324.2,-118.614 L 324.06,-118.706
 L 323.929,-118.811 L 323.811,-118.929 L 323.706,-119.06 L 323.614,-119.2 L 323.538,-119.349 L 323.478,-119.506
 L 323.435,-119.667 L 323.409,-119.833 L 323.4,-120 L 323.409,-120.167 L 323.435,-120.333 L 323.478,-120.494
 L 323.538,-120.651 L 323.614,-120.8 L 323.706,-120.94 L 323.811,-121.071 L 323.929,-121.189 L 324.06,-121.294
 L 324.2,-121.386 L 324.349,-121.462 L 324.506,-121.522 L 324.667,-121.565 L 324.833,-121.591 L 325,-121.6
 L 325.167,-121.591 L 325.333,-121.565 L 325.494,-121.522 L 325.651,-121.462 L 325.8,-121.386 L 325.94,-121.294
 L 326.071,-121.189 L 326.189,-121.071 L 326.294,-120.94 L 326.386,-120.8 L 326.462,-120.651 L 326.522,-120.494
 L 326.565,-120.333 L 326.591,-120.167 L 326.6,-120 L 326.591,-119.833 L 326.565,-119.667 L 326.522,-119.506
 L 326.462,-119.349 L 326.386,-119.2 L 326.294,-119.06 L 326.189,-118.929 L 326.071,-118.811 L 325.94,-118.706
 L 325.8,-118.614 L 325.651,-118.538 L 325.494,-118.478 L 325.333,-118.435 L 325.167,-118.409 L 325,-118.4
 z
M 14.8327,-78.4088 L 14.6673,-78.435 L 14.5056,-78.4783 L 14.3492,-78.5383 L 14.2,-78.6143 L 14.0595,-78.7056
 L 13.9294,-78.811 L 13.811,-78.9294 L 13.7056,-79.0595 L 13.6143,-79.2 L 13.5383,-79.3492 L 13.4783,-79.5056
 L 13.435,-79.6673 L 13.4088,-79.8327 L 13.4,-80 L 13.4088,-80.1672 L 13.435,-80.3327 L 13.4783,-80.4944
 L 13.5383,-80.6508 L 13.6143,-80.8 L 13.7056,-80.9405 L 13.811,-81.0706 L 13.9294,-81.189 L 14.0595,-81.2944
 L 14.2,-81.3856 L 14.3492,-81.4617 L 14.5056,-81.5217 L 14.6673,-81.565 L 14.8327,-81.5912 L 15,-81.6
 L 15.1672,-81.5912 L 15.3327,-81.565 L 15.4944,-81.5217 L 15.6508,-81.4617 L 15.8,-81.3856 L 15.9404,-81.2944
 L 16.0706,-81.189 L 16.189,-81.0706 L 16.2944,-80.9405 L 16.3856,-80.8 L 16.4617,-80.6508 L 16.5217,-80.4944
 L 16.565,-80.3327 L 16.5912,-80.1672 L 16.6,-80 L 16.5912,-79.8327 L 16.565,-79.6673 L 16.5217,-79.5056
 L 16.4617,-79.3492 L 16.3856,-79.2 L 16.2944,-79.0595 L 16.189,-78.9294 L 16.0706,-78.811 L 15.9404,-78.7056
 L 15.8,-78.6143 L 15.6508,-78.5383 L 15.4944,-78.4783 L 15.3327,-78.435 L 15.1672,-78.4088 L 15,-78.4
 z
M 244.77,-72.812 L 244.543,-72.8481 L 244.32,-72.9077 L 244.105,-72.9902 L 243.9,-73.0947 L 243.707,-73.2202
 L 243.528,-73.3651 L 243.365,-73.5279 L 243.22,-73.7069 L 243.095,-73.9 L 242.99,-74.1052 L 242.908,-74.3202
 L 242.848,-74.5426 L 242.812,-74.77 L 242.8,-75 L 242.812,-75.23 L 242.848,-75.4574 L 242.908,-75.6798
 L 242.99,-75.8948 L 243.095,-76.1 L 243.22,-76.2931 L 243.365,-76.4721 L 243.528,-76.6349 L 243.707,-76.7798
 L 243.9,-76.9053 L 244.105,-77.0098 L 244.32,-77.0923 L 244.543,-77.1519 L 244.77,-77.1879 L 245,-77.2
 L 245.23,-77.1879 L 245.457,-77.1519 L 245.68,-77.0923 L 245.895,-77.0098 L 246.1,-76.9053 L 246.293,-76.7798
 L 246.472,-76.6349 L 246.635,-76.4721 L 246.78,-76.2931 L 246.905,-76.1 L 247.01,-75.8948 L 247.092,-75.6798
 L 247.152,-75.4574 L 247.188,-75.23 L 247.2,-75 L 247.188,-74.77 L 247.152,-74.5426 L 247.092,-74.3202
 L 247.01,-74.1052 L 246.905,-73.9 L 246.78,-73.7069 L 246.635,-73.5279 L 246.472,-73.3651 L 246.293,-73.2202
 L 246.1,-73.0947 L 245.895,-72.9902 L 245.68,-72.9077 L 245.457,-72.8481 L 245.23,-72.812 L 245,-72.8
 z
M 94.77,-72.812 L 94.5426,-72.8481 L 94.3202,-72.9077 L 94.1052,-72.9902 L 93.9,-73.0947 L 93.7069,-73.2202
 L 93.5279,-73.3651 L 93.3651,-73.5279 L 93.2202,-73.7069 L 93.0947,-73.9 L 92.9902,-74.1052 L 92.9077,-74.3202
 L 92.8481,-74.5426 L 92.812,-74.77 L 92.8,-75 L 92.812,-75.23 L 92.8481,-75.4574 L 92.9077,-75.6798
 L 92.9902,-75.8948 L 93.0947,-76.1 L 93.2202,-76.2931 L 93.3651,-76.4721 L 93.5279,-76.6349 L 93.7069,-76.7798
 L 93.9,-76.9053 L 94.1052,-77.0098 L 94.3202,-77.0923 L 94.5426,-77.1519 L 94.77,-77.1879 L 95,-77.2
 L 95.23,-77.1879 L 95.4574,-77.1519 L 95.6798,-77.0923 L 95.8948,-77.0098 L 96.1,-76.9053 L 96.2931,-76.7798
 L 96.4721,-76.6349 L 96.6349,-76.4721 L 96.7798,-76.2931 L 96.9053,-76.1 L 97.0098,-75.8948 L 97.0923,-75.6798
 L 97.1519,-75.4574 L 97.1879,-75.23 L 97.2,-75 L 97.1879,-74.77 L 97.1519,-74.5426 L 97.0923,-74.3202
 L 97.0098,-74.1052 L 96.9053,-73.9 L 96.7798,-73.7069 L 96.6349,-73.5279 L 96.4721,-73.3651 L 96.2931,-73.2202
 L 96.1,-73.0947 L 95.8948,-72.9902 L 95.6798,-72.9077 L 95.4574,-72.8481 L 95.23,-72.812 L 95,-72.8
 z
M 299.582,-36.0219 L 299.168,-36.0874 L 298.764,-36.1958 L 298.373,-36.3458 L 298,-36.5359 L 297.649,-36.7639
 L 297.323,-37.0274 L 297.027,-37.3235 L 296.764,-37.6488 L 296.536,-38 L 296.346,-38.373 L 296.196,-38.7639
 L 296.087,-39.1684 L 296.022,-39.5819 L 296,-40 L 296.022,-40.4181 L 296.087,-40.8316 L 296.196,-41.2361
 L 296.346,-41.6269 L 296.536,-42 L 296.764,-42.3511 L 297.027,-42.6765 L 297.323,-42.9726 L 297.649,-43.2361
 L 298,-43.4641 L 298.373,-43.6542 L 298.764,-43.8042 L 299.168,-43.9126 L 299.582,-43.9781 L 300,-44
 L 300.418,-43.9781 L 300.832,-43.9126 L 301.236,-43.8042 L 301.627,-43.6542 L 302,-43.4641 L 302.351,-43.2361
 L 302.677,-42.9726 L 302.973,-42.6765 L 303.236,-42.3511 L 303.464,-42 L 303.654,-41.6269 L 303.804,-41.2361
 L 303.913,-40.8316 L 303.978,-40.4181 L 304,-40 L 303.978,-39.5819 L 303.913,-39.1684 L 303.804,-38.7639
 L 303.654,-38.373 L 303.464,-38 L 303.236,-37.6488 L 302.973,-37.3235 L 302.677,-37.0274 L 302.351,-36.7639
 L 302,-36.5359 L 301.627,-36.3458 L 301.236,-36.1958 L 300.832,-36.0874 L 300.418,-36.0219 L 300,-36
 z
M 39.5819,-36.0219 L 39.1684,-36.0874 L 38.7639,-36.1958 L 38.373,-36.3458 L 38,-36.5359 L 37.6488,-36.7639
 L 37.3235,-37.0274 L 37.0274,-37.3235 L 36.7639,-37.6488 L 36.5359,-38 L 36.3458,-38.373 L 36.1958,-38.7639
 L 36.0874,-39.1684 L 36.0219,-39.5819 L 36,-40 L 36.0219,-40.4181 L 36.0874,-40.8316 L 36.1958,-41.2361
 L 36.3458,-41.6269 L 36.5359,-42 L 36.7639,-42.3511 L 37.0274,-42.6765 L 37.3235,-42.9726 L 37.6488,-43.2361
 L 38,-43.4641 L 38.373,-43.6542 L 38.7639,-43.8042 L 39.1684,-43.9126 L 39.5819,-43.9781 L 40,-44
 L 40.4181,-43.9781 L 40.8316,-43.9126 L 41.2361,-43.8042 L 41.6269,-43.6542 L 42,-43.4641 L 42.3511,-43.2361
 L 42.6765,-42.9726 L 42.9726,-42.6765 L 43.2361,-42.3511 L 43.4641,-42 L 43.6542,-41.6269 L 43.8042,-41.2361
 L 43.9126,-40.8316 L 43.9781,-40.4181 L 44,-40 L 43.9781,-39.5819 L 43.9126,-39.1684 L 43.8042,-38.7639
 L 43.6542,-38.373 L 43.4641,-38 L 43.2361,-37.6488 L 42.9726,-37.3235 L 42.6765,-37.0274 L 42.3511,-36.7639
 L 42,-36.5359 L 41.6269,-36.3458 L 41.2361,-36.1958 L 40.8316,-36.0874 L 40.4181,-36.0219 L 40,-36
 z
M 94.5827,-35.9088 L 94.4173,-35.935 L 94.2556,-35.9783 L 94.0992,-36.0383 L 93.95,-36.1143 L 93.8095,-36.2056
 L 93.6794,-36.311 L 93.561,-36.4294 L 93.4556,-36.5595 L 93.3643,-36.7 L 93.2883,-36.8492 L 93.2283,-37.0056
 L 93.185,-37.1673 L 93.1588,-37.3327 L 93.15,-37.5 L 93.1588,-37.6672 L 93.185,-37.8327 L 93.2283,-37.9944
 L 93.2883,-38.1508 L 93.3643,-38.3 L 93.4556,-38.4404 L 93.561,-38.5706 L 93.6794,-38.689 L 93.8095,-38.7944
 L 93.95,-38.8856 L 94.0992,-38.9617 L 94.2556,-39.0217 L 94.4173,-39.065 L 94.5827,-39.0912 L 94.75,-39.1
 L 94.9172,-39.0912 L 95.0827,-39.065 L 95.2444,-39.0217 L 95.4008,-38.9617 L 95.55,-38.8856 L 95.6905,-38.7944
 L 95.8206,-38.689 L 95.939,-38.5706 L 96.0444,-38.4404 L 96.1356,-38.3 L 96.2117,-38.1508 L 96.2717,-37.9944
 L 96.315,-37.8327 L 96.3412,-37.6672 L 96.35,-37.5 L 96.3412,-37.3327 L 96.315,-37.1673 L 96.2717,-37.0056
 L 96.2117,-36.8492 L 96.1356,-36.7 L 96.0444,-36.5595 L 95.939,-36.4294 L 95.8206,-36.311 L 95.6905,-36.2056
 L 95.55,-36.1143 L 95.4008,-36.0383 L 95.2444,-35.9783 L 95.0827,-35.935 L 94.9172,-35.9088 L 94.75,-35.9
 z
M 245.083,-35.9088 L 244.917,-35.935 L 244.756,-35.9783 L 244.599,-36.0383 L 244.45,-36.1143 L 244.31,-36.2056
 L 244.179,-36.311 L 244.061,-36.4294 L 243.956,-36.5595 L 243.864,-36.7 L 243.788,-36.8492 L 243.728,-37.0056
 L 243.685,-37.1673 L 243.659,-37.3327 L 243.65,-37.5 L 243.659,-37.6672 L 243.685,-37.8327 L 243.728,-37.9944
 L 243.788,-38.1508 L 243.864,-38.3 L 243.956,-38.4404 L 244.061,-38.5706 L 244.179,-38.689 L 244.31,-38.7944
 L 244.45,-38.8856 L 244.599,-38.9617 L 244.756,-39.0217 L 244.917,-39.065 L 245.083,-39.0912 L 245.25,-39.1
 L 245.417,-39.0912 L 245.583,-39.065 L 245.744,-39.0217 L 245.901,-38.9617 L 246.05,-38.8856 L 246.19,-38.7944
 L 246.321,-38.689 L 246.439,-38.5706 L 246.544,-38.4404 L 246.636,-38.3 L 246.712,-38.1508 L 246.772,-37.9944
 L 246.815,-37.8327 L 246.841,-37.6672 L 246.85,-37.5 L 246.841,-37.3327 L 246.815,-37.1673 L 246.772,-37.0056
 L 246.712,-36.8492 L 246.636,-36.7 L 246.544,-36.5595 L 246.439,-36.4294 L 246.321,-36.311 L 246.19,-36.2056
 L 246.05,-36.1143 L 245.901,-36.0383 L 245.744,-35.9783 L 245.583,-35.935 L 245.417,-35.9088 L 245.25,-35.9
 z
M 169.833,-35.9088 L 169.667,-35.935 L 169.506,-35.9783 L 169.349,-36.0383 L 169.2,-36.1143 L 169.06,-36.2056
 L 168.929,-36.311 L 168.811,-36.4294 L 168.706,-36.5595 L 168.614,-36.7 L 168.538,-36.8492 L 168.478,-37.0056
 L 168.435,-37.1673 L 168.409,-37.3327 L 168.4,-37.5 L 168.409,-37.6672 L 168.435,-37.8327 L 168.478,-37.9944
 L 168.538,-38.1508 L 168.614,-38.3 L 168.706,-38.4404 L 168.811,-38.5706 L 168.929,-38.689 L 169.06,-38.7944
 L 169.2,-38.8856 L 169.349,-38.9617 L 169.506,-39.0217 L 169.667,-39.065 L 169.833,-39.0912 L 170,-39.1
 L 170.167,-39.0912 L 170.333,-39.065 L 170.494,-39.0217 L 170.651,-38.9617 L 170.8,-38.8856 L 170.94,-38.7944
 L 171.071,-38.689 L 171.189,-38.5706 L 171.294,-38.4404 L 171.386,-38.3 L 171.462,-38.1508 L 171.522,-37.9944
 L 171.565,-37.8327 L 171.591,-37.6672 L 171.6,-37.5 L 171.591,-37.3327 L 171.565,-37.1673 L 171.522,-37.0056
 L 171.462,-36.8492 L 171.386,-36.7 L 171.294,-36.5595 L 171.189,-36.4294 L 171.071,-36.311 L 170.94,-36.2056
 L 170.8,-36.1143 L 170.651,-36.0383 L 170.494,-35.9783 L 170.333,-35.935 L 170.167,-35.9088 L 170,-35.9
 z
M 103.166,-13.4088 L 103.001,-13.435 L 102.839,-13.4783 L 102.683,-13.5383 L 102.533,-13.6143 L 102.393,-13.7056
 L 102.263,-13.811 L 102.144,-13.9294 L 102.039,-14.0595 L 101.948,-14.2 L 101.872,-14.3492 L 101.812,-14.5056
 L 101.768,-14.6673 L 101.742,-14.8327 L 101.733,-15 L 101.742,-15.1672 L 101.768,-15.3327 L 101.812,-15.4944
 L 101.872,-15.6508 L 101.948,-15.8 L 102.039,-15.9404 L 102.144,-16.0706 L 102.263,-16.189 L 102.393,-16.2944
 L 102.533,-16.3856 L 102.683,-16.4617 L 102.839,-16.5217 L 103.001,-16.565 L 103.166,-16.5912 L 103.333,-16.6
 L 103.501,-16.5912 L 103.666,-16.565 L 103.828,-16.5217 L 103.984,-16.4617 L 104.133,-16.3856 L 104.274,-16.2944
 L 104.404,-16.189 L 104.522,-16.0706 L 104.628,-15.9404 L 104.719,-15.8 L 104.795,-15.6508 L 104.855,-15.4944
 L 104.898,-15.3327 L 104.925,-15.1672 L 104.933,-15 L 104.925,-14.8327 L 104.898,-14.6673 L 104.855,-14.5056
 L 104.795,-14.3492 L 104.719,-14.2 L 104.628,-14.0595 L 104.522,-13.9294 L 104.404,-13.811 L 104.274,-13.7056
 L 104.133,-13.6143 L 103.984,-13.5383 L 103.828,-13.4783 L 103.666,-13.435 L 103.501,-13.4088 L 103.333,-13.4
 z
M 226.499,-13.4088 L 226.334,-13.435 L 226.172,-13.4783 L 226.016,-13.5383 L 225.867,-13.6143 L 225.726,-13.7056
 L 225.596,-13.811 L 225.478,-13.9294 L 225.372,-14.0595 L 225.281,-14.2 L 225.205,-14.3492 L 225.145,-14.5056
 L 225.102,-14.6673 L 225.075,-14.8327 L 225.067,-15 L 225.075,-15.1672 L 225.102,-15.3327 L 225.145,-15.4944
 L 225.205,-15.6508 L 225.281,-15.8 L 225.372,-15.9404 L 225.478,-16.0706 L 225.596,-16.189 L 225.726,-16.2944
 L 225.867,-16.3856 L 226.016,-16.4617 L 226.172,-16.5217 L 226.334,-16.565 L 226.499,-16.5912 L 226.667,-16.6
 L 226.834,-16.5912 L 226.999,-16.565 L 227.161,-16.5217 L 227.317,-16.4617 L 227.467,-16.3856 L 227.607,-16.2944
 L 227.737,-16.189 L 227.856,-16.0706 L 227.961,-15.9404 L 228.052,-15.8 L 228.128,-15.6508 L 228.188,-15.4944
 L 228.232,-15.3327 L 228.258,-15.1672 L 228.267,-15 L 228.258,-14.8327 L 228.232,-14.6673 L 228.188,-14.5056
 L 228.128,-14.3492 L 228.052,-14.2 L 227.961,-14.0595 L 227.856,-13.9294 L 227.737,-13.811 L 227.607,-13.7056
 L 227.467,-13.6143 L 227.317,-13.5383 L 227.161,-13.4783 L 226.999,-13.435 L 226.834,-13.4088 L 226.667,-13.4
 z
M 326.833,-11.4088 L 326.667,-11.435 L 326.506,-11.4783 L 326.349,-11.5383 L 326.2,-11.6143 L 326.06,-11.7056
 L 325.929,-11.811 L 325.811,-11.9294 L 325.706,-12.0595 L 325.614,-12.2 L 325.538,-12.3492 L 325.478,-12.5056
 L 325.435,-12.6673 L 325.409,-12.8327 L 325.4,-13 L 325.409,-13.1672 L 325.435,-13.3327 L 325.478,-13.4944
 L 325.538,-13.6508 L 325.614,-13.8 L 325.706,-13.9404 L 325.811,-14.0706 L 325.929,-14.189 L 326.06,-14.2944
 L 326.2,-14.3856 L 326.349,-14.4617 L 326.506,-14.5217 L 326.667,-14.565 L 326.833,-14.5912 L 327,-14.6
 L 327.167,-14.5912 L 327.333,-14.565 L 327.494,-14.5217 L 327.651,-14.4617 L 327.8,-14.3856 L 327.94,-14.2944
 L 328.071,-14.189 L 328.189,-14.0706 L 328.294,-13.9404 L 328.386,-13.8 L 328.462,-13.6508 L 328.522,-13.4944
 L 328.565,-13.3327 L 328.591,-13.1672 L 328.6,-13 L 328.591,-12.8327 L 328.565,-12.6673 L 328.522,-12.5056
 L 328.462,-12.3492 L 328.386,-12.2 L 328.294,-12.0595 L 328.189,-11.9294 L 328.071,-11.811 L 327.94,-11.7056
 L 327.8,-11.6143 L 327.651,-11.5383 L 327.494,-11.4783 L 327.333,-11.435 L 327.167,-11.4088 L 327,-11.4
 z
M 12.8327,-11.4088 L 12.6673,-11.435 L 12.5056,-11.4783 L 12.3492,-11.5383 L 12.2,-11.6143 L 12.0595,-11.7056
 L 11.9294,-11.811 L 11.811,-11.9294 L 11.7056,-12.0595 L 11.6143,-12.2 L 11.5383,-12.3492 L 11.4783,-12.5056
 L 11.435,-12.6673 L 11.4088,-12.8327 L 11.4,-13 L 11.4088,-13.1672 L 11.435,-13.3327 L 11.4783,-13.4944
 L 11.5383,-13.6508 L 11.6143,-13.8 L 11.7056,-13.9404 L 11.811,-14.0706 L 11.9294,-14.189 L 12.0595,-14.2944
 L 12.2,-14.3856 L 12.3492,-14.4617 L 12.5056,-14.5217 L 12.6673,-14.565 L 12.8327,-14.5912 L 13,-14.6
 L 13.1672,-14.5912 L 13.3327,-14.565 L 13.4944,-14.5217 L 13.6508,-14.4617 L 13.8,-14.3856 L 13.9404,-14.2944
 L 14.0706,-14.189 L 14.189,-14.0706 L 14.2944,-13.9404 L 14.3856,-13.8 L 14.4617,-13.6508 L 14.5217,-13.4944
 L 14.565,-13.3327 L 14.5912,-13.1672 L 14.6,-13 L 14.5912,-12.8327 L 14.565,-12.6673 L 14.5217,-12.5056
 L 14.4617,-12.3492 L 14.3856,-12.2 L 14.2944,-12.0595 L 14.189,-11.9294 L 14.0706,-11.811 L 13.9404,-11.7056
 L 13.8,-11.6143 L 13.6508,-11.5383 L 13.4944,-11.4783 L 13.3327,-11.435 L 13.1672,-11.4088 L 13,-11.4
 z
" stroke="black" fill="lightgray" stroke-width="0.5"/>
</svg>
