<?xml version="1.0" standalone="no"?>
<!DOCTYPE svg PUBLIC "-//W3C//DTD SVG 1.1//EN" "http://www.w3.org/Graphics/SVG/1.1/DTD/svg11.dtd">
<svg width="340mm" height="100mm" viewBox="0 0 340 100" xmlns="http://www.w3.org/2000/svg" version="1.1">
<title>OpenSCAD Model</title>
<path d="
M 15,95 L 25,95 L 25,100 L 35,100 L 35,95 L 45,95
 L 45,100 L 55,100 L 55,95 L 65,95 L 65,100 L 75,100
 L 75,95 L 85,95 L 85,100 L 95,100 L 95,95 L 105,95
 L 105,100 L 115,100 L 115,95 L 125,95 L 125,100 L 135,100
 L 135,95 L 145,95 L 145,100 L 155,100 L 155,95 L 165,95
 L 165,100 L 175,100 L 175,95 L 185,95 L 185,100 L 195,100
 L 195,95 L 205,95 L 205,100 L 215,100 L 215,95 L 225,95
 L 225,100 L 235,100 L 235,95 L 245,95 L 245,100 L 255,100
 L 255,95 L 265,95 L 265,100 L 275,100 L 275,95 L 285,95
 L 285,100 L 295,100 L 295,95 L 305,95 L 305,100 L 315,100
 L 315,95 L 325,95 L 325,100 L 340,100 L 340,85 L 335,85
 L 335,75 L 340,75 L 340,65 L 335,65 L 335,55 L 340,55
 L 340,45 L 335,45 L 335,35 L 340,35 L 340,25 L 335,25
 L 335,15 L 340,15 L 340,-0 L 325,-0 L 325,5.00005 L 315,5.00005
 L 315,-0 L 305,-0 L 305,5.00005 L 295,5.00005 L 295,-0 L 285,-0
 L 285,5.00005 L 275,5.00005 L 275,-0 L 265,-0 L 265,5.00005 L 255,5.00005
 L 255,-0 L 245,-0 L 245,5.00005 L 235,5.00005 L 235,-0 L 225,-0
 L 225,5.00005 L 215,5.00005 L 215,-0 L 205,-0 L 205,5.00005 L 195,5.00005
 L 195,-0 L 185,-0 L 185,5.00005 L 175,5.00005 L 175,-0 L 165,-0
 L 165,5.00005 L 155,5.00005 L 155,-0 L 145,-0 L 145,5.00005 L 135,5.00005
 L 135,-0 L 125,-0 L 125,5.00005 L 115,5.00005 L 115,-0 L 105,-0
 L 105,5.00005 L 95,5.00005 L 95,-0 L 85,-0 L 85,5.00005 L 75,5.00005
 L 75,-0 L 65,-0 L 65,5.00005 L 55,5.00005 L 55,-0 L 45,-0
 L 45,5.00005 L 35,5.00005 L 35,-0 L 25,-0 L 25,5.00005 L 15,5.00005
 L 15,-0 L 0,-0 L 0,15 L 5.00005,15 L 5.00005,25 L 0,25
 L 0,35 L 5.00005,35 L 5.00005,45 L 0,45 L 0,55 L 5.00005,55
 L 5.00005,65 L 0,65 L 0,75 L 5.00005,75 L 5.00005,85 L 0,85
 L 0,100 L 15,100 z
M 12.8327,14.5912 L 12.6673,14.565 L 12.5056,14.5217 L 12.3492,14.4617 L 12.2,14.3856 L 12.0595,14.2944
 L 11.9294,14.189 L 11.811,14.0706 L 11.7056,13.9404 L 11.6143,13.8 L 11.5383,13.6508 L 11.4783,13.4944
 L 11.435,13.3327 L 11.4088,13.1672 L 11.4,13 L 11.4088,12.8327 L 11.435,12.6673 L 11.4783,12.5056
 L 11.5383,12.3492 L 11.6143,12.2 L 11.7056,12.0595 L 11.811,11.9294 L 11.9294,11.811 L 12.0595,11.7056
 L 12.2,11.6143 L 12.3492,11.5383 L 12.5056,11.4783 L 12.6673,11.435 L 12.8327,11.4088 L 13,11.4
 L 13.1672,11.4088 L 13.3327,11.435 L 13.4944,11.4783 L 13.6508,11.5383 L 13.8,11.6143 L 13.9404,11.7056
 L 14.0706,11.811 L 14.189,11.9294 L 14.2944,12.0595 L 14.3856,12.2 L 14.4617,12.3492 L 14.5217,12.5056
 L 14.565,12.6673 L 14.5912,12.8327 L 14.6,13 L 14.5912,13.1672 L 14.565,13.3327 L 14.5217,13.4944
 L 14.4617,13.6508 L 14.3856,13.8 L 14.2944,13.9404 L 14.189,14.0706 L 14.0706,14.189 L 13.9404,14.2944
 L 13.8,14.3856 L 13.6508,14.4617 L 13.4944,14.5217 L 13.3327,14.565 L 13.1672,14.5912 L 13,14.6
 z
M 326.833,14.5912 L 326.667,14.565 L 326.506,14.5217 L 326.349,14.4617 L 326.2,14.3856 L 326.06,14.2944
 L 325.929,14.189 L 325.811,14.0706 L 325.706,13.9404 L 325.614,13.8 L 325.538,13.6508 L 325.478,13.4944
 L 325.435,13.3327 L 325.409,13.1672 L 325.4,13 L 325.409,12.8327 L 325.435,12.6673 L 325.478,12.5056
 L 325.538,12.3492 L 325.614,12.2 L 325.706,12.0595 L 325.811,11.9294 L 325.929,11.811 L 326.06,11.7056
 L 326.2,11.6143 L 326.349,11.5383 L 326.506,11.4783 L 326.667,11.435 L 326.833,11.4088 L 327,11.4
 L 327.167,11.4088 L 327.333,11.435 L 327.494,11.4783 L 327.651,11.5383 L 327.8,11.6143 L 327.94,11.7056
 L 328.071,11.811 L 328.189,11.9294 L 328.294,12.0595 L 328.386,12.2 L 328.462,12.3492 L 328.522,12.5056
 L 328.565,12.6673 L 328.591,12.8327 L 328.6,13 L 328.591,13.1672 L 328.565,13.3327 L 328.522,13.4944
 L 328.462,13.6508 L 328.386,13.8 L 328.294,13.9404 L 328.189,14.0706 L 328.071,14.189 L 327.94,14.2944
 L 327.8,14.3856 L 327.651,14.4617 L 327.494,14.5217 L 327.333,14.565 L 327.167,14.5912 L 327,14.6
 z
M 314.435,13.8327 L 314.409,13.6672 L 314.4,13.5 L 314.409,13.3327 L 314.435,13.1673 L 314.478,13.0056
 L 314.538,12.8492 L 314.614,12.7 L 314.706,12.5595 L 314.811,12.4294 L 314.929,12.311 L 315.06,12.2056
 L 315.2,12.1143 L 315.349,12.0383 L 315.506,11.9783 L 315.667,11.935 L 315.833,11.9088 L 316,11.9
 L 316.167,11.9088 L 316.333,11.935 L 316.494,11.9783 L 316.651,12.0383 L 316.8,12.1143 L 316.94,12.2056
 L 317.071,12.311 L 317.189,12.4294 L 317.294,12.5595 L 317.386,12.7 L 317.462,12.8492 L 317.522,13.0056
 L 317.565,13.1673 L 317.591,13.3327 L 317.6,13.5 L 317.591,13.6672 L 317.565,13.8327 L 317.522,13.9944
 L 317.462,14.1508 L 317.386,14.3 L 317.294,14.4404 L 317.189,14.5706 L 317.071,14.689 L 316.94,14.7944
 L 316.8,14.8856 L 316.651,14.9617 L 316.494,15.0217 L 316.333,15.065 L 316.167,15.0912 L 316,15.1
 L 315.833,15.0912 L 315.667,15.065 L 315.506,15.0217 L 315.349,14.9617 L 315.2,14.8856 L 315.06,14.7944
 L 314.929,14.689 L 314.811,14.5706 L 314.706,14.4404 L 314.614,14.3 L 314.538,14.1508 L 314.478,13.9944
 z
M 189.833,15.0912 L 189.667,15.065 L 189.506,15.0217 L 189.349,14.9617 L 189.2,14.8856 L 189.06,14.7944
 L 188.929,14.689 L 188.811,14.5706 L 188.706,14.4404 L 188.614,14.3 L 188.538,14.1508 L 188.478,13.9944
 L 188.435,13.8327 L 188.409,13.6672 L 188.4,13.5 L 188.409,13.3327 L 188.435,13.1673 L 188.478,13.0056
 L 188.538,12.8492 L 188.614,12.7 L 188.706,12.5595 L 188.811,12.4294 L 188.929,12.311 L 189.06,12.2056
 L 189.2,12.1143 L 189.349,12.0383 L 189.506,11.9783 L 189.667,11.935 L 189.833,11.9088 L 190,11.9
 L 190.167,11.9088 L 190.333,11.935 L 190.494,11.9783 L 190.651,12.0383 L 190.8,12.1143 L 190.94,12.2056
 L 191.071,12.311 L 191.189,12.4294 L 191.294,12.5595 L 191.386,12.7 L 191.462,12.8492 L 191.522,13.0056
 L 191.565,13.1673 L 191.591,13.3327 L 191.6,13.5 L 191.591,13.6672 L 191.565,13.8327 L 191.522,13.9944
 L 191.462,14.1508 L 191.386,14.3 L 191.294,14.4404 L 191.189,14.5706 L 191.071,14.689 L 190.94,14.7944
 L 190.8,14.8856 L 190.651,14.9617 L 190.494,15.0217 L 190.333,15.065 L 190.167,15.0912 L 190,15.1
 z
M 179.833,15.0912 L 179.667,15.065 L 179.506,15.0217 L 179.349,14.9617 L 179.2,14.8856 L 179.06,14.7944
 L 178.929,14.689 L 178.811,14.5706 L 178.706,14.4404 L 178.614,14.3 L 178.538,14.1508 L 178.478,13.9944
 L 178.435,13.8327 L 178.409,13.6672 L 178.4,13.5 L 178.409,13.3327 L 178.435,13.1673 L 178.478,13.0056
 L 178.538,12.8492 L 178.614,12.7 L 178.706,12.5595 L 178.811,12.4294 L 178.929,12.311 L 179.06,12.2056
 L 179.2,12.1143 L 179.349,12.0383 L 179.506,11.9783 L 179.667,11.935 L 179.833,11.9088 L 180,11.9
 L 180.167,11.9088 L 180.333,11.935 L 180.494,11.9783 L 180.651,12.0383 L 180.8,12.1143 L 180.94,12.2056
 L 181.071,12.311 L 181.189,12.4294 L 181.294,12.5595 L 181.386,12.7 L 181.462,12.8492 L 181.522,13.0056
 L 181.565,13.1673 L 181.591,13.3327 L 181.6,13.5 L 181.591,13.6672 L 181.565,13.8327 L 181.522,13.9944
 L 181.462,14.1508 L 181.386,14.3 L 181.294,14.4404 L 181.189,14.5706 L 181.071,14.689 L 180.94,14.7944
 L 180.8,14.8856 L 180.651,14.9617 L 180.494,15.0217 L 180.333,15.065 L 180.167,15.0912 L 180,15.1
 z
M 111.833,15.0912 L 111.667,15.065 L 111.506,15.0217 L 111.349,14.9617 L 111.2,14.8856 L 111.06,14.7944
 L 110.929,14.689 L 110.811,14.5706 L 110.706,14.4404 L 110.614,14.3 L 110.538,14.1508 L 110.478,13.9944
 L 110.435,13.8327 L 110.409,13.6672 L 110.4,13.5 L 110.409,13.3327 L 110.435,13.1673 L 110.478,13.0056
 L 110.538,12.8492 L 110.614,12.7 L 110.706,12.5595 L 110.811,12.4294 L 110.929,12.311 L 111.06,12.2056
 L 111.2,12.1143 L 111.349,12.0383 L 111.506,11.9783 L 111.667,11.935 L 111.833,11.9088 L 112,11.9
 L 112.167,11.9088 L 112.333,11.935 L 112.494,11.9783 L 112.651,12.0383 L 112.8,12.1143 L 112.94,12.2056
 L 113.071,12.311 L 113.189,12.4294 L 113.294,12.5595 L 113.386,12.7 L 113.462,12.8492 L 113.522,13.0056
 L 113.565,13.1673 L 113.591,13.3327 L 113.6,13.5 L 113.591,13.6672 L 113.565,13.8327 L 113.522,13.9944
 L 113.462,14.1508 L 113.386,14.3 L 113.294,14.4404 L 113.189,14.5706 L 113.071,14.689 L 112.94,14.7944
 L 112.8,14.8856 L 112.651,14.9617 L 112.494,15.0217 L 112.333,15.065 L 112.167,15.0912 L 112,15.1
 z
M 121.833,15.0912 L 121.667,15.065 L 121.506,15.0217 L 121.349,14.9617 L 121.2,14.8856 L 121.06,14.7944
 L 120.929,14.689 L 120.811,14.5706 L 120.706,14.4404 L 120.614,14.3 L 120.538,14.1508 L 120.478,13.9944
 L 120.435,13.8327 L 120.409,13.6672 L 120.4,13.5 L 120.409,13.3327 L 120.435,13.1673 L 120.478,13.0056
 L 120.538,12.8492 L 120.614,12.7 L 120.706,12.5595 L 120.811,12.4294 L 120.929,12.311 L 121.06,12.2056
 L 121.2,12.1143 L 121.349,12.0383 L 121.506,11.9783 L 121.667,11.935 L 121.833,11.9088 L 122,11.9
 L 122.167,11.9088 L 122.333,11.935 L 122.494,11.9783 L 122.651,12.0383 L 122.8,12.1143 L 122.94,12.2056
 L 123.071,12.311 L 123.189,12.4294 L 123.294,12.5595 L 123.386,12.7 L 123.462,12.8492 L 123.522,13.0056
 L 123.565,13.1673 L 123.591,13.3327 L 123.6,13.5 L 123.591,13.6672 L 123.565,13.8327 L 123.522,13.9944
 L 123.462,14.1508 L 123.386,14.3 L 123.294,14.4404 L 123.189,14.5706 L 123.071,14.689 L 122.94,14.7944
 L 122.8,14.8856 L 122.651,14.9617 L 122.494,15.0217 L 122.333,15.065 L 122.167,15.0912 L 122,15.1
 z
M 53.8327,15.0912 L 53.6673,15.065 L 53.5056,15.0217 L 53.3492,14.9617 L 53.2,14.8856 L 53.0595,14.7944
 L 52.9294,14.689 L 52.811,14.5706 L 52.7056,14.4404 L 52.6143,14.3 L 52.5383,14.1508 L 52.4783,13.9944
 L 52.435,13.8327 L 52.4088,13.6672 L 52.4,13.5 L 52.4088,13.3327 L 52.435,13.1673 L 52.4783,13.0056
 L 52.5383,12.8492 L 52.6143,12.7 L 52.7056,12.5595 L 52.811,12.4294 L 52.9294,12.311 L 53.0595,12.2056
 L 53.2,12.1143 L 53.3492,12.0383 L 53.5056,11.9783 L 53.6673,11.935 L 53.8327,11.9088 L 54,11.9
 L 54.1672,11.9088 L 54.3327,11.935 L 54.4944,11.9783 L 54.6508,12.0383 L 54.8,12.1143 L 54.9404,12.2056
 L 55.0706,12.311 L 55.189,12.4294 L 55.2944,12.5595 L 55.3856,12.7 L 55.4617,12.8492 L 55.5217,13.0056
 L 55.565,13.1673 L 55.5912,13.3327 L 55.6,13.5 L 55.5912,13.6672 L 55.565,13.8327 L 55.5217,13.9944
 L 55.4617,14.1508 L 55.3856,14.3 L 55.2944,14.4404 L 55.189,14.5706 L 55.0706,14.689 L 54.9404,14.7944
 L 54.8,14.8856 L 54.6508,14.9617 L 54.4944,15.0217 L 54.3327,15.065 L 54.1672,15.0912 L 54,15.1
 z
M 103.166,16.5912 L 103.001,16.565 L 102.839,16.5217 L 102.683,16.4617 L 102.533,16.3856 L 102.393,16.2944
 L 102.263,16.189 L 102.144,16.0706 L 102.039,15.9404 L 101.948,15.8 L 101.872,15.6508 L 101.812,15.4944
 L 101.768,15.3327 L 101.742,15.1672 L 101.733,15 L 101.742,14.8327 L 101.768,14.6673 L 101.812,14.5056
 L 101.872,14.3492 L 101.948,14.2 L 102.039,14.0595 L 102.144,13.9294 L 102.263,13.811 L 102.393,13.7056
 L 102.533,13.6143 L 102.683,13.5383 L 102.839,13.4783 L 103.001,13.435 L 103.166,13.4088 L 103.333,13.4
 L 103.501,13.4088 L 103.666,13.435 L 103.828,13.4783 L 103.984,13.5383 L 104.133,13.6143 L 104.274,13.7056
 L 104.404,13.811 L 104.522,13.9294 L 104.628,14.0595 L 104.719,14.2 L 104.795,14.3492 L 104.855,14.5056
 L 104.898,14.6673 L 104.925,14.8327 L 104.933,15 L 104.925,15.1672 L 104.898,15.3327 L 104.855,15.4944
 L 104.795,15.6508 L 104.719,15.8 L 104.628,15.9404 L 104.522,16.0706 L 104.404,16.189 L 104.274,16.2944
 L 104.133,16.3856 L 103.984,16.4617 L 103.828,16.5217 L 103.666,16.565 L 103.501,16.5912 L 103.333,16.6
 z
M 226.499,16.5912 L 226.334,16.565 L 226.172,16.5217 L 226.016,16.4617 L 225.867,16.3856 L 225.726,16.2944
 L 225.596,16.189 L 225.478,16.0706 L 225.372,15.9404 L 225.281,15.8 L 225.205,15.6508 L 225.145,15.4944
 L 225.102,15.3327 L 225.075,15.1672 L 225.067,15 L 225.075,14.8327 L 225.102,14.6673 L 225.145,14.5056
 L 225.205,14.3492 L 225.281,14.2 L 225.372,14.0595 L 225.478,13.9294 L 225.596,13.811 L 225.726,13.7056
 L 225.867,13.6143 L 226.016,13.5383 L 226.172,13.4783 L 226.334,13.435 L 226.499,13.4088 L 226.667,13.4
 L 226.834,13.4088 L 226.999,13.435 L 227.161,13.4783 L 227.317,13.5383 L 227.467,13.6143 L 227.607,13.7056
 L 227.737,13.811 L 227.856,13.9294 L 227.961,14.0595 L 228.052,14.2 L 228.128,14.3492 L 228.188,14.5056
 L 228.232,14.6673 L 228.258,14.8327 L 228.267,15 L 228.258,15.1672 L 228.232,15.3327 L 228.188,15.4944
 L 228.128,15.6508 L 228.052,15.8 L 227.961,15.9404 L 227.856,16.0706 L 227.737,16.189 L 227.607,16.2944
 L 227.467,16.3856 L 227.317,16.4617 L 227.161,16.5217 L 226.999,16.565 L 226.834,16.5912 L 226.667,16.6
 z
M 16.5,65.5 L 16.5,34.5 L 43.5,34.5 L 43.5,65.5 z
M 47.8171,51.7404 L 47.6362,51.7117 L 47.4592,51.6643 L 47.2882,51.5987 L 47.125,51.5155 L 46.9714,51.4158
 L 46.829,51.3005 L 46.6995,51.171 L 46.5842,51.0286 L 46.4845,50.875 L 46.4013,50.7118 L 46.3356,50.5408
 L 46.2882,50.3638 L 46.2596,50.1829 L 46.25,50 L 46.2596,49.8171 L 46.2882,49.6362 L 46.3356,49.4592
 L 46.4013,49.2882 L 46.4845,49.125 L 46.5842,48.9714 L 46.6995,48.829 L 46.829,48.6995 L 46.9714,48.5842
 L 47.125,48.4845 L 47.2882,48.4013 L 47.4592,48.3356 L 47.6362,48.2882 L 47.8171,48.2596 L 48,48.25
 L 48.1829,48.2596 L 48.3638,48.2882 L 48.5408,48.3356 L 48.7118,48.4013 L 48.875,48.4845 L 49.0286,48.5842
 L 49.171,48.6995 L 49.3005,48.829 L 49.4158,48.9714 L 49.5155,49.125 L 49.5987,49.2882 L 49.6643,49.4592
 L 49.7117,49.6362 L 49.7404,49.8171 L 49.75,50 L 49.7404,50.1829 L 49.7117,50.3638 L 49.6643,50.5408
 L 49.5987,50.7118 L 49.5155,50.875 L 49.4158,51.0286 L 49.3005,51.171 L 49.171,51.3005 L 49.0286,51.4158
 L 48.875,51.5155 L 48.7118,51.5987 L 48.5408,51.6643 L 48.3638,51.7117 L 48.1829,51.7404 L 48,51.75
 z
M 11.8171,51.7404 L 11.6362,51.7117 L 11.4592,51.6643 L 11.2882,51.5987 L 11.125,51.5155 L 10.9714,51.4158
 L 10.829,51.3005 L 10.6995,51.171 L 10.5842,51.0286 L 10.4845,50.875 L 10.4013,50.7118 L 10.3356,50.5408
 L 10.2882,50.3638 L 10.2596,50.1829 L 10.25,50 L 10.2596,49.8171 L 10.2882,49.6362 L 10.3356,49.4592
 L 10.4013,49.2882 L 10.4845,49.125 L 10.5842,48.9714 L 10.6995,48.829 L 10.829,48.6995 L 10.9714,48.5842
 L 11.125,48.4845 L 11.2882,48.4013 L 11.4592,48.3356 L 11.6362,48.2882 L 11.8171,48.2596 L 12,48.25
 L 12.1829,48.2596 L 12.3638,48.2882 L 12.5408,48.3356 L 12.7118,48.4013 L 12.875,48.4845 L 13.0286,48.5842
 L 13.171,48.6995 L 13.3005,48.829 L 13.4158,48.9714 L 13.5155,49.125 L 13.5987,49.2882 L 13.6643,49.4592
 L 13.7117,49.6362 L 13.7404,49.8171 L 13.75,50 L 13.7404,50.1829 L 13.7117,50.3638 L 13.6643,50.5408
 L 13.5987,50.7118 L 13.5155,50.875 L 13.4158,51.0286 L 13.3005,51.171 L 13.171,51.3005 L 13.0286,51.4158
 L 12.875,51.5155 L 12.7118,51.5987 L 12.5408,51.6643 L 12.3638,51.7117 L 12.1829,51.7404 L 12,51.75
 z
M 53.8327,87.5912 L 53.6673,87.565 L 53.5056,87.5217 L 53.3492,87.4617 L 53.2,87.3856 L 53.0595,87.2944
 L 52.9294,87.189 L 52.811,87.0706 L 52.7056,86.9405 L 52.6143,86.8 L 52.5383,86.6508 L 52.4783,86.4944
 L 52.435,86.3327 L 52.4088,86.1672 L 52.4,86 L 52.4088,85.8327 L 52.435,85.6673 L 52.4783,85.5056
 L 52.5383,85.3492 L 52.6143,85.2 L 52.7056,85.0595 L 52.811,84.9294 L 52.9294,84.811 L 53.0595,84.7056
 L 53.2,84.6143 L 53.3492,84.5383 L 53.5056,84.4783 L 53.6673,84.435 L 53.8327,84.4088 L 54,84.4
 L 54.1672,84.4088 L 54.3327,84.435 L 54.4944,84.4783 L 54.6508,84.5383 L 54.8,84.6143 L 54.9404,84.7056
 L 55.0706,84.811 L 55.189,84.9294 L 55.2944,85.0595 L 55.3856,85.2 L 55.4617,85.3492 L 55.5217,85.5056
 L 55.565,85.6673 L 55.5912,85.8327 L 55.6,86 L 55.5912,86.1672 L 55.565,86.3327 L 55.5217,86.4944
 L 55.4617,86.6508 L 55.3856,86.8 L 55.2944,86.9405 L 55.189,87.0706 L 55.0706,87.189 L 54.9404,87.2944
 L 54.8,87.3856 L 54.6508,87.4617 L 54.4944,87.5217 L 54.3327,87.565 L 54.1672,87.5912 L 54,87.6
 z
M 121.833,87.5912 L 121.667,87.565 L 121.506,87.5217 L 121.349,87.4617 L 121.2,87.3856 L 121.06,87.2944
 L 120.929,87.189 L 120.811,87.0706 L 120.706,86.9405 L 120.614,86.8 L 120.538,86.6508 L 120.478,86.4944
 L 120.435,86.3327 L 120.409,86.1672 L 120.4,86 L 120.409,85.8327 L 120.435,85.6673 L 120.478,85.5056
 L 120.538,85.3492 L 120.614,85.2 L 120.706,85.0595 L 120.811,84.9294 L 120.929,84.811 L 121.06,84.7056
 L 121.2,84.6143 L 121.349,84.5383 L 121.506,84.4783 L 121.667,84.435 L 121.833,84.4088 L 122,84.4
 L 122.167,84.4088 L 122.333,84.435 L 122.494,84.4783 L 122.651,84.5383 L 122.8,84.6143 L 122.94,84.7056
 L 123.071,84.811 L 123.189,84.9294 L 123.294,85.0595 L 123.386,85.2 L 123.462,85.3492 L 123.522,85.5056
 L 123.565,85.6673 L 123.591,85.8327 L 123.6,86 L 123.591,86.1672 L 123.565,86.3327 L 123.522,86.4944
 L 123.462,86.6508 L 123.386,86.8 L 123.294,86.9405 L 123.189,87.0706 L 123.071,87.189 L 122.94,87.2944
 L 122.8,87.3856 L 122.651,87.4617 L 122.494,87.5217 L 122.333,87.565 L 122.167,87.5912 L 122,87.6
 z
M 111.833,87.5912 L 111.667,87.565 L 111.506,87.5217 L 111.349,87.4617 L 111.2,87.3856 L 111.06,87.2944
 L 110.929,87.189 L 110.811,87.0706 L 110.706,86.9405 L 110.614,86.8 L 110.538,86.6508 L 110.478,86.4944
 L 110.435,86.3327 L 110.409,86.1672 L 110.4,86 L 110.409,85.8327 L 110.435,85.6673 L 110.478,85.5056
 L 110.538,85.3492 L 110.614,85.2 L 110.706,85.0595 L 110.811,84.9294 L 110.929,84.811 L 111.06,84.7056
 L 111.2,84.6143 L 111.349,84.5383 L 111.506,84.4783 L 111.667,84.435 L 111.833,84.4088 L 112,84.4
 L 112.167,84.4088 L 112.333,84.435 L 112.494,84.4783 L 112.651,84.5383 L 112.8,84.6143 L 112.94,84.7056
 L 113.071,84.811 L 113.189,84.9294 L 113.294,85.0595 L 113.386,85.2 L 113.462,85.3492 L 113.522,85.5056
 L 113.565,85.6673 L 113.591,85.8327 L 113.6,86 L 113.591,86.1672 L 113.565,86.3327 L 113.522,86.4944
 L 113.462,86.6508 L 113.386,86.8 L 113.294,86.9405 L 113.189,87.0706 L 113.071,87.189 L 112.94,87.2944
 L 112.8,87.3856 L 112.651,87.4617 L 112.494,87.5217 L 112.333,87.565 L 112.167,87.5912 L 112,87.6
 z
M 315.833,87.5912 L 315.667,87.565 L 315.506,87.5217 L 315.349,87.4617 L 315.2,87.3856 L 315.06,87.2944
 L 314.929,87.189 L 314.811,87.0706 L 314.706,86.9405 L 314.614,86.8 L 314.538,86.6508 L 314.478,86.4944
 L 314.435,86.3327 L 314.409,86.1672 L 314.4,86 L 314.409,85.8327 L 314.435,85.6673 L 314.478,85.5056
 L 314.538,85.3492 L 314.614,85.2 L 314.706,85.0595 L 314.811,84.9294 L 314.929,84.811 L 315.06,84.7056
 L 315.2,84.6143 L 315.349,84.5383 L 315.506,84.4783 L 315.667,84.435 L 315.833,84.4088 L 316,84.4
 L 316.167,84.4088 L 316.333,84.435 L 316.494,84.4783 L 316.651,84.5383 L 316.8,84.6143 L 316.94,84.7056
 L 317.071,84.811 L 317.189,84.9294 L 317.294,85.0595 L 317.386,85.2 L 317.462,85.3492 L 317.522,85.5056
 L 317.565,85.6673 L 317.591,85.8327 L 317.6,86 L 317.591,86.1672 L 317.565,86.3327 L 317.522,86.4944
 L 317.462,86.6508 L 317.386,86.8 L 317.294,86.9405 L 317.189,87.0706 L 317.071,87.189 L 316.94,87.2944
 L 316.8,87.3856 L 316.651,87.4617 L 316.494,87.5217 L 316.333,87.565 L 316.167,87.5912 L 316,87.6
 z
M 257.06,84.7056 L 257.2,84.6143 L 257.349,84.5383 L 257.506,84.4783 L 257.667,84.435 L 257.833,84.4088
 L 258,84.4 L 258.167,84.4088 L 258.333,84.435 L 258.494,84.4783 L 258.651,84.5383 L 258.8,84.6143
 L 258.94,84.7056 L 259.071,84.811 L 259.189,84.9294 L 259.294,85.0595 L 259.386,85.2 L 259.462,85.3492
 L 259.522,85.5056 L 259.565,85.6673 L 259.591,85.8327 L 259.6,86 L 259.591,86.1672 L 259.565,86.3327
 L 259.522,86.4944 L 259.462,86.6508 L 259.386,86.8 L 259.294,86.9405 L 259.189,87.0706 L 259.071,87.189
 L 258.94,87.2944 L 258.8,87.3856 L 258.651,87.4617 L 258.494,87.5217 L 258.333,87.565 L 258.167,87.5912
 L 258,87.6 L 257.833,87.5912 L 257.667,87.565 L 257.506,87.5217 L 257.349,87.4617 L 257.2,87.3856
 L 257.06,87.2944 L 256.929,87.189 L 256.811,87.0706 L 256.706,86.9405 L 256.614,86.8 L 256.538,86.6508
 L 256.478,86.4944 L 256.435,86.3327 L 256.409,86.1672 L 256.4,86 L 256.409,85.8327 L 256.435,85.6673
 L 256.478,85.5056 L 256.538,85.3492 L 256.614,85.2 L 256.706,85.0595 L 256.811,84.9294 L 256.929,84.811
 z
M 189.833,84.4088 L 190,84.4 L 190.167,84.4088 L 190.333,84.435 L 190.494,84.4783 L 190.651,84.5383
 L 190.8,84.6143 L 190.94,84.7056 L 191.071,84.811 L 191.189,84.9294 L 191.294,85.0595 L 191.386,85.2
 L 191.462,85.3492 L 191.522,85.5056 L 191.565,85.6673 L 191.591,85.8327 L 191.6,86 L 191.591,86.1672
 L 191.565,86.3327 L 191.522,86.4944 L 191.462,86.6508 L 191.386,86.8 L 191.294,86.9405 L 191.189,87.0706
 L 191.071,87.189 L 190.94,87.2944 L 190.8,87.3856 L 190.651,87.4617 L 190.494,87.5217 L 190.333,87.565
 L 190.167,87.5912 L 190,87.6 L 189.833,87.5912 L 189.667,87.565 L 189.506,87.5217 L 189.349,87.4617
 L 189.2,87.3856 L 189.06,87.2944 L 188.929,87.189 L 188.811,87.0706 L 188.706,86.9405 L 188.614,86.8
 L 188.538,86.6508 L 188.478,86.4944 L 188.435,86.3327 L 188.409,86.1672 L 188.4,86 L 188.409,85.8327
 L 188.435,85.6673 L 188.478,85.5056 L 188.538,85.3492 L 188.614,85.2 L 188.706,85.0595 L 188.811,84.9294
 L 188.929,84.811 L 189.06,84.7056 L 189.2,84.6143 L 189.349,84.5383 L 189.506,84.4783 L 189.667,84.435
 z
M 326.833,88.5912 L 326.667,88.565 L 326.506,88.5217 L 326.349,88.4617 L 326.2,88.3856 L 326.06,88.2944
 L 325.929,88.189 L 325.811,88.0706 L 325.706,87.9405 L 325.614,87.8 L 325.538,87.6508 L 325.478,87.4944
 L 325.435,87.3327 L 325.409,87.1672 L 325.4,87 L 325.409,86.8327 L 325.435,86.6673 L 325.478,86.5056
 L 325.538,86.3492 L 325.614,86.2 L 325.706,86.0595 L 325.811,85.9294 L 325.929,85.811 L 326.06,85.7056
 L 326.2,85.6143 L 326.349,85.5383 L 326.506,85.4783 L 326.667,85.435 L 326.833,85.4088 L 327,85.4
 L 327.167,85.4088 L 327.333,85.435 L 327.494,85.4783 L 327.651,85.5383 L 327.8,85.6143 L 327.94,85.7056
 L 328.071,85.811 L 328.189,85.9294 L 328.294,86.0595 L 328.386,86.2 L 328.462,86.3492 L 328.522,86.5056
 L 328.565,86.6673 L 328.591,86.8327 L 328.6,87 L 328.591,87.1672 L 328.565,87.3327 L 328.522,87.4944
 L 328.462,87.6508 L 328.386,87.8 L 328.294,87.9405 L 328.189,88.0706 L 328.071,88.189 L 327.94,88.2944
 L 327.8,88.3856 L 327.651,88.4617 L 327.494,88.5217 L 327.333,88.565 L 327.167,88.5912 L 327,88.6
 z
M 12.8327,88.5912 L 12.6673,88.565 L 12.5056,88.5217 L 12.3492,88.4617 L 12.2,88.3856 L 12.0595,88.2944
 L 11.9294,88.189 L 11.811,88.0706 L 11.7056,87.9405 L 11.6143,87.8 L 11.5383,87.6508 L 11.4783,87.4944
 L 11.435,87.3327 L 11.4088,87.1672 L 11.4,87 L 11.4088,86.8327 L 11.435,86.6673 L 11.4783,86.5056
 L 11.5383,86.3492 L 11.6143,86.2 L 11.7056,86.0595 L 11.811,85.9294 L 11.9294,85.811 L 12.0595,85.7056
 L 12.2,85.6143 L 12.3492,85.5383 L 12.5056,85.4783 L 12.6673,85.435 L 12.8327,85.4088 L 13,85.4
 L 13.1672,85.4088 L 13.3327,85.435 L 13.4944,85.4783 L 13.6508,85.5383 L 13.8,85.6143 L 13.9404,85.7056
 L 14.0706,85.811 L 14.189,85.9294 L 14.2944,86.0595 L 14.3856,86.2 L 14.4617,86.3492 L 14.5217,86.5056
 L 14.565,86.6673 L 14.5912,86.8327 L 14.6,87 L 14.5912,87.1672 L 14.565,87.3327 L 14.5217,87.4944
 L 14.4617,87.6508 L 14.3856,87.8 L 14.2944,87.9405 L 14.189,88.0706 L 14.0706,88.189 L 13.9404,88.2944
 L 13.8,88.3856 L 13.6508,88.4617 L 13.4944,88.5217 L 13.3327,88.565 L 13.1672,88.5912 L 13,88.6
 z
M 256.614,14.3 L 256.538,14.1508 L 256.478,13.9944 L 256.435,13.8327 L 256.409,13.6672 L 256.4,13.5
 L 256.409,13.3327 L 256.435,13.1673 L 256.478,13.0056 L 256.538,12.8492 L 256.614,12.7 L 256.706,12.5595
 L 256.811,12.4294 L 256.929,12.311 L 257.06,12.2056 L 257.2,12.1143 L 257.349,12.0383 L 257.506,11.9783
 L 257.667,11.935 L 257.833,11.9088 L 258,11.9 L 258.167,11.9088 L 258.333,11.935 L 258.494,11.9783
 L 258.651,12.0383 L 258.8,12.1143 L 258.94,12.2056 L 259.071,12.311 L 259.189,12.4294 L 259.294,12.5595
 L 259.386,12.7 L 259.462,12.8492 L 259.522,13.0056 L 259.565,13.1673 L 259.591,13.3327 L 259.6,13.5
 L 259.591,13.6672 L 259.565,13.8327 L 259.522,13.9944 L 259.462,14.1508 L 259.386,14.3 L 259.294,14.4404
 L 259.189,14.5706 L 259.071,14.689 L 258.94,14.7944 L 258.8,14.8856 L 258.651,14.9617 L 258.494,15.0217
 L 258.333,15.065 L 258.167,15.0912 L 258,15.1 L 257.833,15.0912 L 257.667,15.065 L 257.506,15.0217
 L 257.349,14.9617 L 257.2,14.8856 L 257.06,14.7944 L 256.929,14.689 L 256.811,14.5706 L 256.706,14.4404
 z
M 249.462,12.8492 L 249.522,13.0056 L 249.565,13.1673 L 249.591,13.3327 L 249.6,13.5 L 249.591,13.6672
 L 249.565,13.8327 L 249.522,13.9944 L 249.462,14.1508 L 249.386,14.3 L 249.294,14.4404 L 249.189,14.5706
 L 249.071,14.689 L 248.94,14.7944 L 248.8,14.8856 L 248.651,14.9617 L 248.494,15.0217 L 248.333,15.065
 L 248.167,15.0912 L 248,15.1 L 247.833,15.0912 L 247.667,15.065 L 247.506,15.0217 L 247.349,14.9617
 L 247.2,14.8856 L 247.06,14.7944 L 246.929,14.689 L 246.811,14.5706 L 246.706,14.4404 L 246.614,14.3
 L 246.538,14.1508 L 246.478,13.9944 L 246.435,13.8327 L 246.409,13.6672 L 246.4,13.5 L 246.409,13.3327
 L 246.435,13.1673 L 246.478,13.0056 L 246.538,12.8492 L 246.614,12.7 L 246.706,12.5595 L 246.811,12.4294
 L 246.929,12.311 L 247.06,12.2056 L 247.2,12.1143 L 247.349,12.0383 L 247.506,11.9783 L 247.667,11.935
 L 247.833,11.9088 L 248,11.9 L 248.167,11.9088 L 248.333,11.935 L 248.494,11.9783 L 248.651,12.0383
 L 248.8,12.1143 L 248.94,12.2056 L 249.071,12.311 L 249.189,12.4294 L 249.294,12.5595 L 249.386,12.7
 z
M 180.8,84.6143 L 180.94,84.7056 L 181.071,84.811 L 181.189,84.9294 L 181.294,85.0595 L 181.386,85.2
 L 181.462,85.3492 L 181.522,85.5056 L 181.565,85.6673 L 181.591,85.8327 L 181.6,86 L 181.591,86.1672
 L 181.565,86.3327 L 181.522,86.4944 L 181.462,86.6508 L 181.386,86.8 L 181.294,86.9405 L 181.189,87.0706
 L 181.071,87.189 L 180.94,87.2944 L 180.8,87.3856 L 180.651,87.4617 L 180.494,87.5217 L 180.333,87.565
 L 180.167,87.5912 L 180,87.6 L 179.833,87.5912 L 179.667,87.565 L 179.506,87.5217 L 179.349,87.4617
 L 179.2,87.3856 L 179.06,87.2944 L 178.929,87.189 L 178.811,87.0706 L 178.706,86.9405 L 178.614,86.8
 L 178.538,86.6508 L 178.478,86.4944 L 178.435,86.3327 L 178.409,86.1672 L 178.4,86 L 178.409,85.8327
 L 178.435,85.6673 L 178.478,85.5056 L 178.538,85.3492 L 178.614,85.2 L 178.706,85.0595 L 178.811,84.9294
 L 178.929,84.811 L 179.06,84.7056 L 179.2,84.6143 L 179.349,84.5383 L 179.506,84.4783 L 179.667,84.435
 L 179.833,84.4088 L 180,84.4 L 180.167,84.4088 L 180.333,84.435 L 180.494,84.4783 L 180.651,84.5383
 z
M 249.386,85.2 L 249.462,85.3492 L 249.522,85.5056 L 249.565,85.6673 L 249.591,85.8327 L 249.6,86
 L 249.591,86.1672 L 249.565,86.3327 L 249.522,86.4944 L 249.462,86.6508 L 249.386,86.8 L 249.294,86.9405
 L 249.189,87.0706 L 249.071,87.189 L 248.94,87.2944 L 248.8,87.3856 L 248.651,87.4617 L 248.494,87.5217
 L 248.333,87.565 L 248.167,87.5912 L 248,87.6 L 247.833,87.5912 L 247.667,87.565 L 247.506,87.5217
 L 247.349,87.4617 L 247.2,87.3856 L 247.06,87.2944 L 246.929,87.189 L 246.811,87.0706 L 246.706,86.9405
 L 246.614,86.8 L 246.538,86.6508 L 246.478,86.4944 L 246.435,86.3327 L 246.409,86.1672 L 246.4,86
 L 246.409,85.8327 L 246.435,85.6673 L 246.478,85.5056 L 246.538,85.3492 L 246.614,85.2 L 246.706,85.0595
 L 246.811,84.9294 L 246.929,84.811 L 247.06,84.7056 L 247.2,84.6143 L 247.349,84.5383 L 247.506,84.4783
 L 247.667,84.435 L 247.833,84.4088 L 248,84.4 L 248.167,84.4088 L 248.333,84.435 L 248.494,84.4783
 L 248.651,84.5383 L 248.8,84.6143 L 248.94,84.7056 L 249.071,84.811 L 249.189,84.9294 L 249.294,85.0595
 z
" stroke="black" fill="lightgray" stroke-width="0.5"/>
</svg>
