<?xml version="1.0" standalone="no"?>
<!DOCTYPE svg PUBLIC "-//W3C//DTD SVG 1.1//EN" "http://www.w3.org/Graphics/SVG/1.1/DTD/svg11.dtd">
<svg width="340mm" height="200mm" viewBox="0 0 340 200" xmlns="http://www.w3.org/2000/svg" version="1.1">
<title>OpenSCAD Model</title>
<path d="
M 25,195 L 35,195 L 35,200 L 45,200 L 45,195 L 55,195
 L 55,200 L 65,200 L 65,195 L 75,195 L 75,200 L 85,200
 L 85,195 L 95,195 L 95,200 L 105,200 L 105,195 L 115,195
 L 115,200 L 125,200 L 125,195 L 135,195 L 135,200 L 145,200
 L 145,195 L 155,195 L 155,200 L 165,200 L 165,195 L 175,195
 L 175,200 L 185,200 L 185,195 L 195,195 L 195,200 L 205,200
 L 205,195 L 215,195 L 215,200 L 225,200 L 225,195 L 235,195
 L 235,200 L 245,200 L 245,195 L 255,195 L 255,200 L 265,200
 L 265,195 L 275,195 L 275,200 L 285,200 L 285,195 L 295,195
 L 295,200 L 305,200 L 305,195 L 315,195 L 315,200 L 325,200
 L 325,195 L 340,195 L 340,185 L 335,185 L 335,175 L 340,175
 L 340,165 L 335,165 L 335,155 L 340,155 L 340,145 L 335,145
 L 335,135 L 340,135 L 340,125 L 335,125 L 335,115 L 340,115
 L 340,105 L 335,105 L 335,95 L 340,95 L 340,85 L 335,85
 L 335,75 L 340,75 L 340,65 L 335,65 L 335,55 L 340,55
 L 340,45 L 335,45 L 335,35 L 340,35 L 340,25 L 335,25
 L 335,15 L 340,15 L 340,5.00005 L 325,5.00005 L 325,-0 L 315,-0
 L 315,5.00005 L 305,5.00005 L 305,-0 L 295,-0 L 295,5.00005 L 285,5.00005
 L 285,-0 L 275,-0 L 275,5.00005 L 265,5.00005 L 265,-0 L 255,-0
 L 255,5.00005 L 245,5.00005 L 245,-0 L 235,-0 L 235,5.00005 L 225,5.00005
 L 225,-0 L 215,-0 L 215,5.00005 L 205,5.00005 L 205,-0 L 195,-0
 L 195,5.00005 L 185,5.00005 L 185,-0 L 175,-0 L 175,5.00005 L 165,5.00005
 L 165,-0 L 155,-0 L 155,5.00005 L 145,5.00005 L 145,-0 L 135,-0
 L 135,5.00005 L 125,5.00005 L 125,-0 L 115,-0 L 115,5.00005 L 105,5.00005
 L 105,-0 L 95,-0 L 95,5.00005 L 85,5.00005 L 85,-0 L 75,-0
 L 75,5.00005 L 65,5.00005 L 65,-0 L 55,-0 L 55,5.00005 L 45,5.00005
 L 45,-0 L 35,-0 L 35,5.00005 L 25,5.00005 L 25,-0 L 15,-0
 L 15,5 L 0,5 L 0,15 L 5.00005,15 L 5.00005,25 L 0,25
 L 0,35 L 5.00005,35 L 5.00005,45 L 0,45 L 0,55 L 5.00005,55
 L 5.00005,65 L 0,65 L 0,75 L 5.00005,75 L 5.00005,85 L 0,85
 L 0,95 L 5.00005,95 L 5.00005,105 L 0,105 L 0,115 L 5.00005,115
 L 5.00005,125 L 0,125 L 0,135 L 5.00005,135 L 5.00005,145 L 0,145
 L 0,155 L 5.00005,155 L 5.00005,165 L 0,165 L 0,175 L 5.00005,175
 L 5.00005,185 L 0,185 L 0,195 L 15,195 L 15,200 L 25,200
 z
M 12.8327,14.5912 L 12.6673,14.565 L 12.5056,14.5217 L 12.3492,14.4617 L 12.2,14.3856 L 12.0595,14.2944
 L 11.9294,14.189 L 11.811,14.0706 L 11.7056,13.9404 L 11.6143,13.8 L 11.5383,13.6508 L 11.4783,13.4944
 L 11.435,13.3327 L 11.4088,13.1672 L 11.4,13 L 11.4088,12.8327 L 11.435,12.6673 L 11.4783,12.5056
 L 11.5383,12.3492 L 11.6143,12.2 L 11.7056,12.0595 L 11.811,11.9294 L 11.9294,11.811 L 12.0595,11.7056
 L 12.2,11.6143 L 12.3492,11.5383 L 12.5056,11.4783 L 12.6673,11.435 L 12.8327,11.4088 L 13,11.4
 L 13.1672,11.4088 L 13.3327,11.435 L 13.4944,11.4783 L 13.6508,11.5383 L 13.8,11.6143 L 13.9404,11.7056
 L 14.0706,11.811 L 14.189,11.9294 L 14.2944,12.0595 L 14.3856,12.2 L 14.4617,12.3492 L 14.5217,12.5056
 L 14.565,12.6673 L 14.5912,12.8327 L 14.6,13 L 14.5912,13.1672 L 14.565,13.3327 L 14.5217,13.4944
 L 14.4617,13.6508 L 14.3856,13.8 L 14.2944,13.9404 L 14.189,14.0706 L 14.0706,14.189 L 13.9404,14.2944
 L 13.8,14.3856 L 13.6508,14.4617 L 13.4944,14.5217 L 13.3327,14.565 L 13.1672,14.5912 L 13,14.6
 z
M 326.833,14.5912 L 326.667,14.565 L 326.506,14.5217 L 326.349,14.4617 L 326.2,14.3856 L 326.06,14.2944
 L 325.929,14.189 L 325.811,14.0706 L 325.706,13.9404 L 325.614,13.8 L 325.538,13.6508 L 325.478,13.4944
 L 325.435,13.3327 L 325.409,13.1672 L 325.4,13 L 325.409,12.8327 L 325.435,12.6673 L 325.478,12.5056
 L 325.538,12.3492 L 325.614,12.2 L 325.706,12.0595 L 325.811,11.9294 L 325.929,11.811 L 326.06,11.7056
 L 326.2,11.6143 L 326.349,11.5383 L 326.506,11.4783 L 326.667,11.435 L 326.833,11.4088 L 327,11.4
 L 327.167,11.4088 L 327.333,11.435 L 327.494,11.4783 L 327.651,11.5383 L 327.8,11.6143 L 327.94,11.7056
 L 328.071,11.811 L 328.189,11.9294 L 328.294,12.0595 L 328.386,12.2 L 328.462,12.3492 L 328.522,12.5056
 L 328.565,12.6673 L 328.591,12.8327 L 328.6,13 L 328.591,13.1672 L 328.565,13.3327 L 328.522,13.4944
 L 328.462,13.6508 L 328.386,13.8 L 328.294,13.9404 L 328.189,14.0706 L 328.071,14.189 L 327.94,14.2944
 L 327.8,14.3856 L 327.651,14.4617 L 327.494,14.5217 L 327.333,14.565 L 327.167,14.5912 L 327,14.6
 z
M 326.833,188.591 L 326.667,188.565 L 326.506,188.522 L 326.349,188.462 L 326.2,188.386 L 326.06,188.294
 L 325.929,188.189 L 325.811,188.071 L 325.706,187.94 L 325.614,187.8 L 325.538,187.651 L 325.478,187.494
 L 325.435,187.333 L 325.409,187.167 L 325.4,187 L 325.409,186.833 L 325.435,186.667 L 325.478,186.506
 L 325.538,186.349 L 325.614,186.2 L 325.706,186.06 L 325.811,185.929 L 325.929,185.811 L 326.06,185.706
 L 326.2,185.614 L 326.349,185.538 L 326.506,185.478 L 326.667,185.435 L 326.833,185.409 L 327,185.4
 L 327.167,185.409 L 327.333,185.435 L 327.494,185.478 L 327.651,185.538 L 327.8,185.614 L 327.94,185.706
 L 328.071,185.811 L 328.189,185.929 L 328.294,186.06 L 328.386,186.2 L 328.462,186.349 L 328.522,186.506
 L 328.565,186.667 L 328.591,186.833 L 328.6,187 L 328.591,187.167 L 328.565,187.333 L 328.522,187.494
 L 328.462,187.651 L 328.386,187.8 L 328.294,187.94 L 328.189,188.071 L 328.071,188.189 L 327.94,188.294
 L 327.8,188.386 L 327.651,188.462 L 327.494,188.522 L 327.333,188.565 L 327.167,188.591 L 327,188.6
 z
M 12.8327,188.591 L 12.6673,188.565 L 12.5056,188.522 L 12.3492,188.462 L 12.2,188.386 L 12.0595,188.294
 L 11.9294,188.189 L 11.811,188.071 L 11.7056,187.94 L 11.6143,187.8 L 11.5383,187.651 L 11.4783,187.494
 L 11.435,187.333 L 11.4088,187.167 L 11.4,187 L 11.4088,186.833 L 11.435,186.667 L 11.4783,186.506
 L 11.5383,186.349 L 11.6143,186.2 L 11.7056,186.06 L 11.811,185.929 L 11.9294,185.811 L 12.0595,185.706
 L 12.2,185.614 L 12.3492,185.538 L 12.5056,185.478 L 12.6673,185.435 L 12.8327,185.409 L 13,185.4
 L 13.1672,185.409 L 13.3327,185.435 L 13.4944,185.478 L 13.6508,185.538 L 13.8,185.614 L 13.9404,185.706
 L 14.0706,185.811 L 14.189,185.929 L 14.2944,186.06 L 14.3856,186.2 L 14.4617,186.349 L 14.5217,186.506
 L 14.565,186.667 L 14.5912,186.833 L 14.6,187 L 14.5912,187.167 L 14.565,187.333 L 14.5217,187.494
 L 14.4617,187.651 L 14.3856,187.8 L 14.2944,187.94 L 14.189,188.071 L 14.0706,188.189 L 13.9404,188.294
 L 13.8,188.386 L 13.6508,188.462 L 13.4944,188.522 L 13.3327,188.565 L 13.1672,188.591 L 13,188.6
 z
" stroke="black" fill="lightgray" stroke-width="0.5"/>
</svg>
