M48
; DRILL file {KiCad 9.0.4} date 2025-09-07T14:44:29+0300
; FORMAT={-:-/ absolute / metric / decimal}
; #@! TF.CreationDate,2025-09-07T14:44:29+03:00
; #@! TF.GenerationSoftware,Kicad,Pcbnew,9.0.4
; #@! TF.FileFunction,MixedPlating,1,2
FMAT,2
METRIC
; #@! TA.AperFunction,Plated,PTH,ViaDrill
T1C0.300
; #@! TA.AperFunction,Plated,PTH,ViaDrill
T2C0.400
; #@! TA.AperFunction,Plated,PTH,ComponentDrill
T3C0.750
; #@! TA.AperFunction,Plated,PTH,ComponentDrill
T4C0.800
; #@! TA.AperFunction,Plated,PTH,ComponentDrill
T5C0.830
; #@! TA.AperFunction,Plated,PTH,ComponentDrill
T6C0.950
; #@! TA.AperFunction,Plated,PTH,ComponentDrill
T7C1.000
; #@! TA.AperFunction,Plated,PTH,ComponentDrill
T8C1.100
; #@! TA.AperFunction,Plated,PTH,ComponentDrill
T9C1.300
; #@! TA.AperFunction,NonPlated,NPTH,ComponentDrill
T10C3.200
%
G90
G05
T1
X122.555Y-101.981
X134.747Y-109.728
T2
X78.55Y-77.77
X78.644Y-81.096
X78.682Y-90.52
X78.745Y-134.026
X78.749Y-83.161
X78.787Y-93.214
X78.827Y-102.047
X78.879Y-87.949
X78.941Y-96.821
X78.956Y-105.707
X79.32Y-75.242
X79.408Y-131.453
X79.59Y-136.86
X79.617Y-125.004
X79.859Y-128.55
X80.2Y-107.313
X81.255Y-138.272
X81.456Y-126.009
X81.53Y-76.587
X81.749Y-115.514
X81.894Y-123.533
X82.192Y-74.429
X82.26Y-111.665
X82.409Y-108.687
X82.533Y-117.914
X82.606Y-121.529
X83.163Y-92.913
X83.348Y-85.458
X83.381Y-137.5
X83.673Y-96.39
X83.812Y-102.193
X83.812Y-77.142
X83.984Y-79.167
X84.18Y-90.808
X84.387Y-81.189
X84.48Y-98.62
X84.708Y-140.792
X84.763Y-88.469
X84.85Y-67.76
X84.889Y-94.762
X85.084Y-70.849
X85.426Y-137.722
X85.741Y-132.157
X85.742Y-84.889
X85.976Y-75.756
X86.009Y-142.523
X86.16Y-73.566
X86.181Y-101.011
X86.191Y-82.925
X86.299Y-79.35
X86.968Y-69.141
X87.349Y-144.659
X87.373Y-140.535
X87.529Y-87.314
X87.89Y-80.99
X87.992Y-77.327
X88.125Y-138.016
X88.572Y-70.687
X88.746Y-75.198
X88.849Y-85.553
X88.881Y-68.137
X88.881Y-72.826
X88.883Y-132.484
X89.565Y-141.249
X90.411Y-138.831
X90.506Y-144.459
X90.54Y-84.46
X90.889Y-131.585
X91.308Y-110.761
X91.348Y-142.447
X91.409Y-127.296
X91.543Y-105.343
X91.551Y-107.543
X91.595Y-120.843
X92.052Y-67.57
X92.299Y-137.882
X92.519Y-118.58
X92.716Y-129.395
X92.862Y-131.988
X92.911Y-124.39
X93.274Y-116.428
X93.294Y-108.895
X93.393Y-104.355
X93.493Y-142.265
X93.53Y-76.67
X93.65Y-78.32
X93.745Y-106.722
X93.778Y-74.819
X93.993Y-120.81
X94.103Y-67.644
X94.804Y-139.091
X94.848Y-118.913
X95.123Y-95.771
X95.282Y-109.646
X95.391Y-114.843
X95.583Y-86.605
X95.618Y-90.12
X95.687Y-142.264
X95.785Y-144.343
X96.24Y-117.161
X96.311Y-67.682
X96.438Y-77.389
X96.703Y-74.267
X96.866Y-106.93
X96.926Y-119.852
X97.088Y-132.27
X97.093Y-129.651
X97.151Y-88.555
X97.788Y-81.285
X97.91Y-126.093
X97.936Y-143.753
X97.956Y-90.961
X98.145Y-110.297
X98.252Y-114.853
X98.354Y-72.31
X98.358Y-78.985
X98.677Y-95.18
X98.717Y-76.944
X98.875Y-67.536
X99.013Y-134.731
X99.096Y-132.274
X99.112Y-107.316
X99.361Y-128.624
X99.524Y-120.658
X100.071Y-143.287
X100.265Y-109.246
X100.376Y-105.652
X100.822Y-73.145
X101.076Y-115.918
X101.266Y-131.141
X101.298Y-77.591
X101.416Y-117.997
X101.727Y-90.911
X101.856Y-120.986
X101.951Y-135.499
X101.986Y-67.406
X102.123Y-143.733
X102.676Y-133.365
X102.728Y-72.133
X103.109Y-114.842
X103.148Y-75.179
X103.367Y-119.534
X103.832Y-116.775
X104.007Y-77.164
X104.291Y-142.884
X104.688Y-67.426
X104.88Y-82.857
X105.362Y-141.107
X105.38Y-74.963
X106.19Y-116.681
X106.293Y-77.84
X106.338Y-112.887
X106.539Y-139.172
X106.544Y-144.478
X106.554Y-73.334
X107.1Y-102.67
X107.139Y-87.567
X107.347Y-67.387
X108.154Y-76.281
X108.306Y-141.026
X108.712Y-88.773
X108.765Y-143.126
X109.399Y-82.685
X109.946Y-78.513
X110.303Y-80.603
X110.507Y-76.549
X110.619Y-120.019
X110.67Y-144.713
X111.029Y-67.608
X111.294Y-74.616
X111.67Y-133.639
X111.873Y-81.844
X112.046Y-72.323
X112.446Y-88.664
X112.565Y-77.642
X112.903Y-95.631
X112.912Y-120.082
X113.185Y-105.825
X113.573Y-67.306
X113.582Y-79.815
X113.86Y-92.89
X114.619Y-138.614
X114.649Y-81.79
X115.132Y-113.389
X115.368Y-119.909
X115.67Y-79.629
X115.68Y-75.823
X115.827Y-67.79
X115.874Y-131.154
X116.794Y-69.955
X116.877Y-129.21
X117.134Y-132.89
X117.245Y-126.419
X117.602Y-100.33
X117.625Y-78.419
X117.982Y-72.409
X118.101Y-68.207
X118.472Y-75.811
X118.72Y-89.26
X118.793Y-130.14
X119.021Y-127.855
X119.49Y-70.586
X119.574Y-117.215
X120.14Y-68.532
X120.357Y-73.262
X120.458Y-77.521
X120.742Y-132.281
X121.376Y-127.625
X121.7Y-111.38
X121.764Y-129.637
X122.153Y-69.513
X122.476Y-71.634
X123.445Y-144.549
X124.188Y-67.877
X124.405Y-123.212
X125.556Y-82.719
X125.847Y-143.463
X126.182Y-136.6
X126.492Y-99.06
X126.838Y-123.242
X127.082Y-68.097
X127.177Y-117.708
X127.546Y-140.265
X127.559Y-144.869
X127.738Y-74.141
X127.762Y-109.22
X128.14Y-89.644
X128.467Y-130.304
X128.508Y-132.326
X128.837Y-143.136
X129.149Y-72.611
X129.199Y-119.341
X129.286Y-94.615
X129.444Y-124.203
X129.55Y-136.888
X129.597Y-68.461
X129.954Y-144.987
X130.157Y-89.003
X130.175Y-104.267
X130.842Y-139.992
X131.059Y-142.814
X131.133Y-75.432
X131.628Y-68.86
X131.82Y-120.78
X131.826Y-97.917
X131.908Y-124.251
X131.929Y-137.651
X132.498Y-73.738
X132.602Y-135.48
X132.637Y-71.279
X133.366Y-133.357
X133.736Y-76.539
X134.109Y-139.762
X134.227Y-69.446
X134.266Y-127.588
X134.691Y-67.442
X134.694Y-142.076
X134.897Y-144.879
X135.436Y-73.155
X135.553Y-132.201
X135.89Y-100.965
X136.081Y-90.848
X136.121Y-139.825
X136.16Y-93.858
X136.337Y-116.781
X136.569Y-126.204
X136.822Y-136.579
X137.088Y-129.049
X138.002Y-132.536
X138.039Y-138.703
X138.358Y-127.334
X138.66Y-135.006
X138.827Y-93.976
X139.28Y-74.605
X139.391Y-130.023
X139.663Y-125.602
X139.827Y-99.568
X140.1Y-133.053
X140.421Y-85.508
X140.454Y-128.171
X140.509Y-135.83
X140.532Y-119.398
X140.562Y-123.101
X140.758Y-83.198
X140.759Y-110.714
X141.173Y-80.396
X141.227Y-113.658
X141.368Y-77.88
X141.487Y-130.251
X141.512Y-87.989
X141.523Y-116.056
X141.605Y-105.156
T3
X121.412Y-99.695
X122.682Y-99.695
X123.952Y-99.695
T4
X79.8Y-110.575
X79.8Y-113.655
X79.8Y-116.725
X79.8Y-119.825
X79.8Y-122.975
X81.05Y-92.225
X81.05Y-103.375
X84.8Y-110.575
X84.8Y-113.655
X84.8Y-116.725
X84.8Y-119.825
X84.8Y-122.975
X86.05Y-92.225
X86.05Y-103.375
X90.95Y-91.56
X90.95Y-101.72
X91.4Y-112.81
X91.4Y-122.97
X92.57Y-88.79
X94.18Y-91.58
X94.18Y-101.74
X94.99Y-80.51
X95.02Y-125.97
X95.02Y-129.16
X97.53Y-84.11
X97.71Y-92.99
X97.71Y-100.61
X98.17Y-112.8
X98.17Y-117.8
X100.07Y-84.11
X100.25Y-92.99
X100.25Y-100.61
X101.38Y-112.8
X101.38Y-122.96
X102.61Y-84.11
X102.73Y-88.79
X102.79Y-92.99
X102.79Y-100.61
X105.005Y-88.79
X105.15Y-80.51
X105.18Y-125.97
X105.18Y-129.16
X105.25Y-114.575
X105.25Y-122.195
X105.33Y-92.99
X105.33Y-100.61
X105.33Y-103.81
X105.33Y-106.935
X107.58Y-80.51
X107.58Y-83.81
X107.79Y-114.575
X107.79Y-122.195
X108.458Y-91.962
X108.458Y-95.123
X108.88Y-100.565
X110.33Y-114.575
X110.33Y-122.195
X112.87Y-114.575
X112.87Y-122.195
X113.61Y-125.74
X113.61Y-128.93
X113.88Y-100.565
X115.165Y-88.79
X115.49Y-103.81
X115.49Y-106.935
X116.47Y-117.19
X116.47Y-122.19
X117.74Y-80.51
X117.74Y-83.81
X118.237Y-97.79
X118.237Y-107.95
X118.618Y-91.962
X118.618Y-95.123
X120.984Y-103.505
X121.39Y-119.685
X121.39Y-122.185
X121.412Y-107.061
X123.12Y-77.44
X123.12Y-87.6
X123.77Y-125.74
X123.77Y-128.93
X124.35Y-89.81
X124.35Y-92.35
X124.35Y-94.89
X124.96Y-117.36
X125.984Y-103.505
X127.58Y-82.56
X127.58Y-85.1
X127.58Y-87.64
X128.651Y-91.89
X128.651Y-102.05
X129.032Y-112.268
X129.96Y-117.36
X131.572Y-107.061
X131.572Y-112.268
X131.75Y-91.89
X131.75Y-102.05
X131.81Y-77.44
X131.81Y-87.6
X133.604Y-115.57
X133.604Y-125.73
X134.112Y-112.268
X136.17Y-96.47
X136.17Y-106.63
X139.59Y-96.47
X139.59Y-106.63
T5
X117.35Y-114.06
X119.89Y-114.06
X122.43Y-114.06
X124.97Y-114.06
T6
X138.24Y-76.9
X138.24Y-79.4
X138.24Y-81.9
X138.24Y-84.4
X138.24Y-86.9
X138.24Y-89.4
X138.24Y-91.9
T7
X99.45Y-70.057
X99.45Y-75.057
X125.36Y-70.735
X127.86Y-70.735
X138.39Y-111.41
X138.39Y-113.91
X138.39Y-120.61
X138.39Y-123.11
T8
X94.86Y-112.8
X94.86Y-122.96
X95.01Y-132.44
X97.608Y-140.745
X100.147Y-140.745
X102.688Y-140.745
X105.17Y-132.44
X110.11Y-126.39
X110.11Y-128.93
X110.11Y-131.47
X113.61Y-132.13
X117.287Y-140.745
X119.828Y-140.745
X122.367Y-140.745
X123.77Y-132.13
X128.81Y-121.94
X128.81Y-127.02
T9
X84.862Y-130.12
X84.862Y-135.12
X109.3Y-73.85
X114.3Y-73.85
X135.218Y-130.12
X135.218Y-135.12
T10
X80.975Y-69.825
X80.975Y-142.57
X139.0Y-69.825
X139.0Y-142.57
M30
