%TF.GenerationSoftware,KiCad,Pcbnew,9.0.4*%
%TF.CreationDate,2025-09-07T14:44:28+03:00*%
%TF.ProjectId,Protection,50726f74-6563-4746-996f-6e2e6b696361,1.0*%
%TF.SameCoordinates,Original*%
%TF.FileFunction,Legend,Top*%
%TF.FilePolarity,Positive*%
%FSLAX46Y46*%
G04 Gerber Fmt 4.6, Leading zero omitted, Abs format (unit mm)*
G04 Created by KiCad (PCBNEW 9.0.4) date 2025-09-07 14:44:28*
%MOMM*%
%LPD*%
G01*
G04 APERTURE LIST*
%ADD10C,0.100000*%
%ADD11C,0.120000*%
%ADD12C,0.127000*%
%ADD13C,0.200000*%
G04 APERTURE END LIST*
D10*
X93503809Y-106320985D02*
X93503809Y-105520985D01*
X93503809Y-105520985D02*
X93808571Y-105520985D01*
X93808571Y-105520985D02*
X93884761Y-105559080D01*
X93884761Y-105559080D02*
X93922856Y-105597175D01*
X93922856Y-105597175D02*
X93960952Y-105673366D01*
X93960952Y-105673366D02*
X93960952Y-105787651D01*
X93960952Y-105787651D02*
X93922856Y-105863842D01*
X93922856Y-105863842D02*
X93884761Y-105901937D01*
X93884761Y-105901937D02*
X93808571Y-105940032D01*
X93808571Y-105940032D02*
X93503809Y-105940032D01*
X94303809Y-106320985D02*
X94303809Y-105787651D01*
X94303809Y-105940032D02*
X94341904Y-105863842D01*
X94341904Y-105863842D02*
X94379999Y-105825747D01*
X94379999Y-105825747D02*
X94456190Y-105787651D01*
X94456190Y-105787651D02*
X94532380Y-105787651D01*
X94913332Y-106320985D02*
X94837142Y-106282890D01*
X94837142Y-106282890D02*
X94799047Y-106244794D01*
X94799047Y-106244794D02*
X94760951Y-106168604D01*
X94760951Y-106168604D02*
X94760951Y-105940032D01*
X94760951Y-105940032D02*
X94799047Y-105863842D01*
X94799047Y-105863842D02*
X94837142Y-105825747D01*
X94837142Y-105825747D02*
X94913332Y-105787651D01*
X94913332Y-105787651D02*
X95027618Y-105787651D01*
X95027618Y-105787651D02*
X95103809Y-105825747D01*
X95103809Y-105825747D02*
X95141904Y-105863842D01*
X95141904Y-105863842D02*
X95179999Y-105940032D01*
X95179999Y-105940032D02*
X95179999Y-106168604D01*
X95179999Y-106168604D02*
X95141904Y-106244794D01*
X95141904Y-106244794D02*
X95103809Y-106282890D01*
X95103809Y-106282890D02*
X95027618Y-106320985D01*
X95027618Y-106320985D02*
X94913332Y-106320985D01*
X95408571Y-105787651D02*
X95713333Y-105787651D01*
X95522857Y-105520985D02*
X95522857Y-106206699D01*
X95522857Y-106206699D02*
X95560952Y-106282890D01*
X95560952Y-106282890D02*
X95637142Y-106320985D01*
X95637142Y-106320985D02*
X95713333Y-106320985D01*
X96284762Y-106282890D02*
X96208571Y-106320985D01*
X96208571Y-106320985D02*
X96056190Y-106320985D01*
X96056190Y-106320985D02*
X95980000Y-106282890D01*
X95980000Y-106282890D02*
X95941904Y-106206699D01*
X95941904Y-106206699D02*
X95941904Y-105901937D01*
X95941904Y-105901937D02*
X95980000Y-105825747D01*
X95980000Y-105825747D02*
X96056190Y-105787651D01*
X96056190Y-105787651D02*
X96208571Y-105787651D01*
X96208571Y-105787651D02*
X96284762Y-105825747D01*
X96284762Y-105825747D02*
X96322857Y-105901937D01*
X96322857Y-105901937D02*
X96322857Y-105978128D01*
X96322857Y-105978128D02*
X95941904Y-106054318D01*
X97008571Y-106282890D02*
X96932380Y-106320985D01*
X96932380Y-106320985D02*
X96779999Y-106320985D01*
X96779999Y-106320985D02*
X96703809Y-106282890D01*
X96703809Y-106282890D02*
X96665714Y-106244794D01*
X96665714Y-106244794D02*
X96627618Y-106168604D01*
X96627618Y-106168604D02*
X96627618Y-105940032D01*
X96627618Y-105940032D02*
X96665714Y-105863842D01*
X96665714Y-105863842D02*
X96703809Y-105825747D01*
X96703809Y-105825747D02*
X96779999Y-105787651D01*
X96779999Y-105787651D02*
X96932380Y-105787651D01*
X96932380Y-105787651D02*
X97008571Y-105825747D01*
X97237142Y-105787651D02*
X97541904Y-105787651D01*
X97351428Y-105520985D02*
X97351428Y-106206699D01*
X97351428Y-106206699D02*
X97389523Y-106282890D01*
X97389523Y-106282890D02*
X97465713Y-106320985D01*
X97465713Y-106320985D02*
X97541904Y-106320985D01*
X97808571Y-106320985D02*
X97808571Y-105787651D01*
X97808571Y-105520985D02*
X97770475Y-105559080D01*
X97770475Y-105559080D02*
X97808571Y-105597175D01*
X97808571Y-105597175D02*
X97846666Y-105559080D01*
X97846666Y-105559080D02*
X97808571Y-105520985D01*
X97808571Y-105520985D02*
X97808571Y-105597175D01*
X98303808Y-106320985D02*
X98227618Y-106282890D01*
X98227618Y-106282890D02*
X98189523Y-106244794D01*
X98189523Y-106244794D02*
X98151427Y-106168604D01*
X98151427Y-106168604D02*
X98151427Y-105940032D01*
X98151427Y-105940032D02*
X98189523Y-105863842D01*
X98189523Y-105863842D02*
X98227618Y-105825747D01*
X98227618Y-105825747D02*
X98303808Y-105787651D01*
X98303808Y-105787651D02*
X98418094Y-105787651D01*
X98418094Y-105787651D02*
X98494285Y-105825747D01*
X98494285Y-105825747D02*
X98532380Y-105863842D01*
X98532380Y-105863842D02*
X98570475Y-105940032D01*
X98570475Y-105940032D02*
X98570475Y-106168604D01*
X98570475Y-106168604D02*
X98532380Y-106244794D01*
X98532380Y-106244794D02*
X98494285Y-106282890D01*
X98494285Y-106282890D02*
X98418094Y-106320985D01*
X98418094Y-106320985D02*
X98303808Y-106320985D01*
X98913333Y-105787651D02*
X98913333Y-106320985D01*
X98913333Y-105863842D02*
X98951428Y-105825747D01*
X98951428Y-105825747D02*
X99027618Y-105787651D01*
X99027618Y-105787651D02*
X99141904Y-105787651D01*
X99141904Y-105787651D02*
X99218095Y-105825747D01*
X99218095Y-105825747D02*
X99256190Y-105901937D01*
X99256190Y-105901937D02*
X99256190Y-106320985D01*
X92056189Y-107380368D02*
X92437142Y-107380368D01*
X91979999Y-107608940D02*
X92246666Y-106808940D01*
X92246666Y-106808940D02*
X92513332Y-107608940D01*
X92703808Y-107075606D02*
X92894284Y-107608940D01*
X93084761Y-107075606D02*
X92894284Y-107608940D01*
X92894284Y-107608940D02*
X92818094Y-107799416D01*
X92818094Y-107799416D02*
X92779999Y-107837511D01*
X92779999Y-107837511D02*
X92703808Y-107875606D01*
X93389523Y-107608940D02*
X93389523Y-106808940D01*
X93465713Y-107304178D02*
X93694285Y-107608940D01*
X93694285Y-107075606D02*
X93389523Y-107380368D01*
X94379999Y-107075606D02*
X94379999Y-107608940D01*
X94037142Y-107075606D02*
X94037142Y-107494654D01*
X94037142Y-107494654D02*
X94075237Y-107570845D01*
X94075237Y-107570845D02*
X94151427Y-107608940D01*
X94151427Y-107608940D02*
X94265713Y-107608940D01*
X94265713Y-107608940D02*
X94341904Y-107570845D01*
X94341904Y-107570845D02*
X94379999Y-107532749D01*
X94646666Y-107075606D02*
X94951428Y-107075606D01*
X94760952Y-106808940D02*
X94760952Y-107494654D01*
X94760952Y-107494654D02*
X94799047Y-107570845D01*
X94799047Y-107570845D02*
X94875237Y-107608940D01*
X94875237Y-107608940D02*
X94951428Y-107608940D01*
X95980000Y-106808940D02*
X96132381Y-106808940D01*
X96132381Y-106808940D02*
X96208571Y-106847035D01*
X96208571Y-106847035D02*
X96284762Y-106923225D01*
X96284762Y-106923225D02*
X96322857Y-107075606D01*
X96322857Y-107075606D02*
X96322857Y-107342273D01*
X96322857Y-107342273D02*
X96284762Y-107494654D01*
X96284762Y-107494654D02*
X96208571Y-107570845D01*
X96208571Y-107570845D02*
X96132381Y-107608940D01*
X96132381Y-107608940D02*
X95980000Y-107608940D01*
X95980000Y-107608940D02*
X95903809Y-107570845D01*
X95903809Y-107570845D02*
X95827619Y-107494654D01*
X95827619Y-107494654D02*
X95789523Y-107342273D01*
X95789523Y-107342273D02*
X95789523Y-107075606D01*
X95789523Y-107075606D02*
X95827619Y-106923225D01*
X95827619Y-106923225D02*
X95903809Y-106847035D01*
X95903809Y-106847035D02*
X95980000Y-106808940D01*
X95903809Y-106542273D02*
X95941904Y-106580368D01*
X95941904Y-106580368D02*
X95903809Y-106618464D01*
X95903809Y-106618464D02*
X95865714Y-106580368D01*
X95865714Y-106580368D02*
X95903809Y-106542273D01*
X95903809Y-106542273D02*
X95903809Y-106618464D01*
X96208571Y-106542273D02*
X96246666Y-106580368D01*
X96246666Y-106580368D02*
X96208571Y-106618464D01*
X96208571Y-106618464D02*
X96170476Y-106580368D01*
X96170476Y-106580368D02*
X96208571Y-106542273D01*
X96208571Y-106542273D02*
X96208571Y-106618464D01*
X96589523Y-106808940D02*
X97122857Y-106808940D01*
X97122857Y-106808940D02*
X96589523Y-107608940D01*
X96589523Y-107608940D02*
X97122857Y-107608940D01*
X97427619Y-107608940D02*
X97427619Y-106808940D01*
X97427619Y-106808940D02*
X97618095Y-106808940D01*
X97618095Y-106808940D02*
X97732381Y-106847035D01*
X97732381Y-106847035D02*
X97808571Y-106923225D01*
X97808571Y-106923225D02*
X97846666Y-106999416D01*
X97846666Y-106999416D02*
X97884762Y-107151797D01*
X97884762Y-107151797D02*
X97884762Y-107266083D01*
X97884762Y-107266083D02*
X97846666Y-107418464D01*
X97846666Y-107418464D02*
X97808571Y-107494654D01*
X97808571Y-107494654D02*
X97732381Y-107570845D01*
X97732381Y-107570845D02*
X97618095Y-107608940D01*
X97618095Y-107608940D02*
X97427619Y-107608940D01*
X98227619Y-107189892D02*
X98494285Y-107189892D01*
X98608571Y-107608940D02*
X98227619Y-107608940D01*
X98227619Y-107608940D02*
X98227619Y-106808940D01*
X98227619Y-106808940D02*
X98608571Y-106808940D01*
X98951429Y-107608940D02*
X98951429Y-106808940D01*
X98951429Y-106808940D02*
X99218095Y-107380368D01*
X99218095Y-107380368D02*
X99484762Y-106808940D01*
X99484762Y-106808940D02*
X99484762Y-107608940D01*
X99865715Y-107608940D02*
X99865715Y-106808940D01*
X99865715Y-106542273D02*
X99827619Y-106580368D01*
X99827619Y-106580368D02*
X99865715Y-106618464D01*
X99865715Y-106618464D02*
X99903810Y-106580368D01*
X99903810Y-106580368D02*
X99865715Y-106542273D01*
X99865715Y-106542273D02*
X99865715Y-106618464D01*
X100703810Y-107608940D02*
X100437143Y-107227987D01*
X100246667Y-107608940D02*
X100246667Y-106808940D01*
X100246667Y-106808940D02*
X100551429Y-106808940D01*
X100551429Y-106808940D02*
X100627619Y-106847035D01*
X100627619Y-106847035D02*
X100665714Y-106885130D01*
X100665714Y-106885130D02*
X100703810Y-106961321D01*
X100703810Y-106961321D02*
X100703810Y-107075606D01*
X100703810Y-107075606D02*
X100665714Y-107151797D01*
X100665714Y-107151797D02*
X100627619Y-107189892D01*
X100627619Y-107189892D02*
X100551429Y-107227987D01*
X100551429Y-107227987D02*
X100246667Y-107227987D01*
X91427617Y-108134990D02*
X91351427Y-108096895D01*
X91351427Y-108096895D02*
X91237141Y-108096895D01*
X91237141Y-108096895D02*
X91122855Y-108134990D01*
X91122855Y-108134990D02*
X91046665Y-108211180D01*
X91046665Y-108211180D02*
X91008570Y-108287371D01*
X91008570Y-108287371D02*
X90970474Y-108439752D01*
X90970474Y-108439752D02*
X90970474Y-108554038D01*
X90970474Y-108554038D02*
X91008570Y-108706419D01*
X91008570Y-108706419D02*
X91046665Y-108782609D01*
X91046665Y-108782609D02*
X91122855Y-108858800D01*
X91122855Y-108858800D02*
X91237141Y-108896895D01*
X91237141Y-108896895D02*
X91313332Y-108896895D01*
X91313332Y-108896895D02*
X91427617Y-108858800D01*
X91427617Y-108858800D02*
X91465713Y-108820704D01*
X91465713Y-108820704D02*
X91465713Y-108554038D01*
X91465713Y-108554038D02*
X91313332Y-108554038D01*
X91922855Y-108896895D02*
X91846665Y-108858800D01*
X91846665Y-108858800D02*
X91808570Y-108820704D01*
X91808570Y-108820704D02*
X91770474Y-108744514D01*
X91770474Y-108744514D02*
X91770474Y-108515942D01*
X91770474Y-108515942D02*
X91808570Y-108439752D01*
X91808570Y-108439752D02*
X91846665Y-108401657D01*
X91846665Y-108401657D02*
X91922855Y-108363561D01*
X91922855Y-108363561D02*
X92037141Y-108363561D01*
X92037141Y-108363561D02*
X92113332Y-108401657D01*
X92113332Y-108401657D02*
X92151427Y-108439752D01*
X92151427Y-108439752D02*
X92189522Y-108515942D01*
X92189522Y-108515942D02*
X92189522Y-108744514D01*
X92189522Y-108744514D02*
X92151427Y-108820704D01*
X92151427Y-108820704D02*
X92113332Y-108858800D01*
X92113332Y-108858800D02*
X92037141Y-108896895D01*
X92037141Y-108896895D02*
X91922855Y-108896895D01*
X92646665Y-108896895D02*
X92570475Y-108858800D01*
X92570475Y-108858800D02*
X92532380Y-108782609D01*
X92532380Y-108782609D02*
X92532380Y-108096895D01*
X93294285Y-108896895D02*
X93294285Y-108096895D01*
X93294285Y-108858800D02*
X93218094Y-108896895D01*
X93218094Y-108896895D02*
X93065713Y-108896895D01*
X93065713Y-108896895D02*
X92989523Y-108858800D01*
X92989523Y-108858800D02*
X92951428Y-108820704D01*
X92951428Y-108820704D02*
X92913332Y-108744514D01*
X92913332Y-108744514D02*
X92913332Y-108515942D01*
X92913332Y-108515942D02*
X92951428Y-108439752D01*
X92951428Y-108439752D02*
X92989523Y-108401657D01*
X92989523Y-108401657D02*
X93065713Y-108363561D01*
X93065713Y-108363561D02*
X93218094Y-108363561D01*
X93218094Y-108363561D02*
X93294285Y-108401657D01*
X93980000Y-108858800D02*
X93903809Y-108896895D01*
X93903809Y-108896895D02*
X93751428Y-108896895D01*
X93751428Y-108896895D02*
X93675238Y-108858800D01*
X93675238Y-108858800D02*
X93637142Y-108782609D01*
X93637142Y-108782609D02*
X93637142Y-108477847D01*
X93637142Y-108477847D02*
X93675238Y-108401657D01*
X93675238Y-108401657D02*
X93751428Y-108363561D01*
X93751428Y-108363561D02*
X93903809Y-108363561D01*
X93903809Y-108363561D02*
X93980000Y-108401657D01*
X93980000Y-108401657D02*
X94018095Y-108477847D01*
X94018095Y-108477847D02*
X94018095Y-108554038D01*
X94018095Y-108554038D02*
X93637142Y-108630228D01*
X94360952Y-108363561D02*
X94360952Y-108896895D01*
X94360952Y-108439752D02*
X94399047Y-108401657D01*
X94399047Y-108401657D02*
X94475237Y-108363561D01*
X94475237Y-108363561D02*
X94589523Y-108363561D01*
X94589523Y-108363561D02*
X94665714Y-108401657D01*
X94665714Y-108401657D02*
X94703809Y-108477847D01*
X94703809Y-108477847D02*
X94703809Y-108896895D01*
X95694286Y-108896895D02*
X95694286Y-108096895D01*
X95694286Y-108477847D02*
X96151429Y-108477847D01*
X96151429Y-108896895D02*
X96151429Y-108096895D01*
X96646666Y-108896895D02*
X96570476Y-108858800D01*
X96570476Y-108858800D02*
X96532381Y-108820704D01*
X96532381Y-108820704D02*
X96494285Y-108744514D01*
X96494285Y-108744514D02*
X96494285Y-108515942D01*
X96494285Y-108515942D02*
X96532381Y-108439752D01*
X96532381Y-108439752D02*
X96570476Y-108401657D01*
X96570476Y-108401657D02*
X96646666Y-108363561D01*
X96646666Y-108363561D02*
X96760952Y-108363561D01*
X96760952Y-108363561D02*
X96837143Y-108401657D01*
X96837143Y-108401657D02*
X96875238Y-108439752D01*
X96875238Y-108439752D02*
X96913333Y-108515942D01*
X96913333Y-108515942D02*
X96913333Y-108744514D01*
X96913333Y-108744514D02*
X96875238Y-108820704D01*
X96875238Y-108820704D02*
X96837143Y-108858800D01*
X96837143Y-108858800D02*
X96760952Y-108896895D01*
X96760952Y-108896895D02*
X96646666Y-108896895D01*
X97256191Y-108896895D02*
X97256191Y-108363561D01*
X97256191Y-108515942D02*
X97294286Y-108439752D01*
X97294286Y-108439752D02*
X97332381Y-108401657D01*
X97332381Y-108401657D02*
X97408572Y-108363561D01*
X97408572Y-108363561D02*
X97484762Y-108363561D01*
X97751429Y-108363561D02*
X97751429Y-108896895D01*
X97751429Y-108439752D02*
X97789524Y-108401657D01*
X97789524Y-108401657D02*
X97865714Y-108363561D01*
X97865714Y-108363561D02*
X97980000Y-108363561D01*
X97980000Y-108363561D02*
X98056191Y-108401657D01*
X98056191Y-108401657D02*
X98094286Y-108477847D01*
X98094286Y-108477847D02*
X98094286Y-108896895D01*
X99046667Y-108173085D02*
X99084763Y-108134990D01*
X99084763Y-108134990D02*
X99160953Y-108096895D01*
X99160953Y-108096895D02*
X99351429Y-108096895D01*
X99351429Y-108096895D02*
X99427620Y-108134990D01*
X99427620Y-108134990D02*
X99465715Y-108173085D01*
X99465715Y-108173085D02*
X99503810Y-108249276D01*
X99503810Y-108249276D02*
X99503810Y-108325466D01*
X99503810Y-108325466D02*
X99465715Y-108439752D01*
X99465715Y-108439752D02*
X99008572Y-108896895D01*
X99008572Y-108896895D02*
X99503810Y-108896895D01*
X99999049Y-108096895D02*
X100075239Y-108096895D01*
X100075239Y-108096895D02*
X100151430Y-108134990D01*
X100151430Y-108134990D02*
X100189525Y-108173085D01*
X100189525Y-108173085D02*
X100227620Y-108249276D01*
X100227620Y-108249276D02*
X100265715Y-108401657D01*
X100265715Y-108401657D02*
X100265715Y-108592133D01*
X100265715Y-108592133D02*
X100227620Y-108744514D01*
X100227620Y-108744514D02*
X100189525Y-108820704D01*
X100189525Y-108820704D02*
X100151430Y-108858800D01*
X100151430Y-108858800D02*
X100075239Y-108896895D01*
X100075239Y-108896895D02*
X99999049Y-108896895D01*
X99999049Y-108896895D02*
X99922858Y-108858800D01*
X99922858Y-108858800D02*
X99884763Y-108820704D01*
X99884763Y-108820704D02*
X99846668Y-108744514D01*
X99846668Y-108744514D02*
X99808572Y-108592133D01*
X99808572Y-108592133D02*
X99808572Y-108401657D01*
X99808572Y-108401657D02*
X99846668Y-108249276D01*
X99846668Y-108249276D02*
X99884763Y-108173085D01*
X99884763Y-108173085D02*
X99922858Y-108134990D01*
X99922858Y-108134990D02*
X99999049Y-108096895D01*
X100570477Y-108173085D02*
X100608573Y-108134990D01*
X100608573Y-108134990D02*
X100684763Y-108096895D01*
X100684763Y-108096895D02*
X100875239Y-108096895D01*
X100875239Y-108096895D02*
X100951430Y-108134990D01*
X100951430Y-108134990D02*
X100989525Y-108173085D01*
X100989525Y-108173085D02*
X101027620Y-108249276D01*
X101027620Y-108249276D02*
X101027620Y-108325466D01*
X101027620Y-108325466D02*
X100989525Y-108439752D01*
X100989525Y-108439752D02*
X100532382Y-108896895D01*
X100532382Y-108896895D02*
X101027620Y-108896895D01*
X101751430Y-108096895D02*
X101370478Y-108096895D01*
X101370478Y-108096895D02*
X101332382Y-108477847D01*
X101332382Y-108477847D02*
X101370478Y-108439752D01*
X101370478Y-108439752D02*
X101446668Y-108401657D01*
X101446668Y-108401657D02*
X101637144Y-108401657D01*
X101637144Y-108401657D02*
X101713335Y-108439752D01*
X101713335Y-108439752D02*
X101751430Y-108477847D01*
X101751430Y-108477847D02*
X101789525Y-108554038D01*
X101789525Y-108554038D02*
X101789525Y-108744514D01*
X101789525Y-108744514D02*
X101751430Y-108820704D01*
X101751430Y-108820704D02*
X101713335Y-108858800D01*
X101713335Y-108858800D02*
X101637144Y-108896895D01*
X101637144Y-108896895D02*
X101446668Y-108896895D01*
X101446668Y-108896895D02*
X101370478Y-108858800D01*
X101370478Y-108858800D02*
X101332382Y-108820704D01*
X94269524Y-111014895D02*
X94269524Y-110214895D01*
X94269524Y-110214895D02*
X94460000Y-110214895D01*
X94460000Y-110214895D02*
X94574286Y-110252990D01*
X94574286Y-110252990D02*
X94650476Y-110329180D01*
X94650476Y-110329180D02*
X94688571Y-110405371D01*
X94688571Y-110405371D02*
X94726667Y-110557752D01*
X94726667Y-110557752D02*
X94726667Y-110672038D01*
X94726667Y-110672038D02*
X94688571Y-110824419D01*
X94688571Y-110824419D02*
X94650476Y-110900609D01*
X94650476Y-110900609D02*
X94574286Y-110976800D01*
X94574286Y-110976800D02*
X94460000Y-111014895D01*
X94460000Y-111014895D02*
X94269524Y-111014895D01*
X95412381Y-110481561D02*
X95412381Y-111014895D01*
X95221905Y-110176800D02*
X95031428Y-110748228D01*
X95031428Y-110748228D02*
X95526667Y-110748228D01*
X95974895Y-114739523D02*
X95174895Y-114739523D01*
X95974895Y-114282380D02*
X95517752Y-114625238D01*
X95174895Y-114282380D02*
X95632038Y-114739523D01*
X121345085Y-89865190D02*
X121306990Y-89941380D01*
X121306990Y-89941380D02*
X121230800Y-90017571D01*
X121230800Y-90017571D02*
X121116514Y-90131857D01*
X121116514Y-90131857D02*
X121078419Y-90208047D01*
X121078419Y-90208047D02*
X121078419Y-90284238D01*
X121268895Y-90246142D02*
X121230800Y-90322333D01*
X121230800Y-90322333D02*
X121154609Y-90398523D01*
X121154609Y-90398523D02*
X121002228Y-90436619D01*
X121002228Y-90436619D02*
X120735561Y-90436619D01*
X120735561Y-90436619D02*
X120583180Y-90398523D01*
X120583180Y-90398523D02*
X120506990Y-90322333D01*
X120506990Y-90322333D02*
X120468895Y-90246142D01*
X120468895Y-90246142D02*
X120468895Y-90093761D01*
X120468895Y-90093761D02*
X120506990Y-90017571D01*
X120506990Y-90017571D02*
X120583180Y-89941380D01*
X120583180Y-89941380D02*
X120735561Y-89903285D01*
X120735561Y-89903285D02*
X121002228Y-89903285D01*
X121002228Y-89903285D02*
X121154609Y-89941380D01*
X121154609Y-89941380D02*
X121230800Y-90017571D01*
X121230800Y-90017571D02*
X121268895Y-90093761D01*
X121268895Y-90093761D02*
X121268895Y-90246142D01*
X120735561Y-89217571D02*
X121268895Y-89217571D01*
X120430800Y-89408047D02*
X121002228Y-89598524D01*
X121002228Y-89598524D02*
X121002228Y-89103285D01*
X122537295Y-89676619D02*
X122499200Y-89638523D01*
X122499200Y-89638523D02*
X122461104Y-89524238D01*
X122461104Y-89524238D02*
X122461104Y-89448047D01*
X122461104Y-89448047D02*
X122499200Y-89333761D01*
X122499200Y-89333761D02*
X122575390Y-89257571D01*
X122575390Y-89257571D02*
X122651580Y-89219476D01*
X122651580Y-89219476D02*
X122803961Y-89181380D01*
X122803961Y-89181380D02*
X122918247Y-89181380D01*
X122918247Y-89181380D02*
X123070628Y-89219476D01*
X123070628Y-89219476D02*
X123146819Y-89257571D01*
X123146819Y-89257571D02*
X123223009Y-89333761D01*
X123223009Y-89333761D02*
X123261104Y-89448047D01*
X123261104Y-89448047D02*
X123261104Y-89524238D01*
X123261104Y-89524238D02*
X123223009Y-89638523D01*
X123223009Y-89638523D02*
X123184914Y-89676619D01*
X122880152Y-95099571D02*
X122880152Y-95366237D01*
X122461104Y-95480523D02*
X122461104Y-95099571D01*
X122461104Y-95099571D02*
X123261104Y-95099571D01*
X123261104Y-95099571D02*
X123261104Y-95480523D01*
X122880152Y-92407142D02*
X122842057Y-92521428D01*
X122842057Y-92521428D02*
X122803961Y-92559523D01*
X122803961Y-92559523D02*
X122727771Y-92597619D01*
X122727771Y-92597619D02*
X122613485Y-92597619D01*
X122613485Y-92597619D02*
X122537295Y-92559523D01*
X122537295Y-92559523D02*
X122499200Y-92521428D01*
X122499200Y-92521428D02*
X122461104Y-92445238D01*
X122461104Y-92445238D02*
X122461104Y-92140476D01*
X122461104Y-92140476D02*
X123261104Y-92140476D01*
X123261104Y-92140476D02*
X123261104Y-92407142D01*
X123261104Y-92407142D02*
X123223009Y-92483333D01*
X123223009Y-92483333D02*
X123184914Y-92521428D01*
X123184914Y-92521428D02*
X123108723Y-92559523D01*
X123108723Y-92559523D02*
X123032533Y-92559523D01*
X123032533Y-92559523D02*
X122956342Y-92521428D01*
X122956342Y-92521428D02*
X122918247Y-92483333D01*
X122918247Y-92483333D02*
X122880152Y-92407142D01*
X122880152Y-92407142D02*
X122880152Y-92140476D01*
X93813704Y-73058332D02*
X93851800Y-73096428D01*
X93851800Y-73096428D02*
X93889895Y-73210713D01*
X93889895Y-73210713D02*
X93889895Y-73286904D01*
X93889895Y-73286904D02*
X93851800Y-73401190D01*
X93851800Y-73401190D02*
X93775609Y-73477380D01*
X93775609Y-73477380D02*
X93699419Y-73515475D01*
X93699419Y-73515475D02*
X93547038Y-73553571D01*
X93547038Y-73553571D02*
X93432752Y-73553571D01*
X93432752Y-73553571D02*
X93280371Y-73515475D01*
X93280371Y-73515475D02*
X93204180Y-73477380D01*
X93204180Y-73477380D02*
X93127990Y-73401190D01*
X93127990Y-73401190D02*
X93089895Y-73286904D01*
X93089895Y-73286904D02*
X93089895Y-73210713D01*
X93089895Y-73210713D02*
X93127990Y-73096428D01*
X93127990Y-73096428D02*
X93166085Y-73058332D01*
X93089895Y-72791666D02*
X93089895Y-72296428D01*
X93089895Y-72296428D02*
X93394657Y-72563094D01*
X93394657Y-72563094D02*
X93394657Y-72448809D01*
X93394657Y-72448809D02*
X93432752Y-72372618D01*
X93432752Y-72372618D02*
X93470847Y-72334523D01*
X93470847Y-72334523D02*
X93547038Y-72296428D01*
X93547038Y-72296428D02*
X93737514Y-72296428D01*
X93737514Y-72296428D02*
X93813704Y-72334523D01*
X93813704Y-72334523D02*
X93851800Y-72372618D01*
X93851800Y-72372618D02*
X93889895Y-72448809D01*
X93889895Y-72448809D02*
X93889895Y-72677380D01*
X93889895Y-72677380D02*
X93851800Y-72753571D01*
X93851800Y-72753571D02*
X93813704Y-72791666D01*
X92005714Y-126484895D02*
X91739047Y-126103942D01*
X91548571Y-126484895D02*
X91548571Y-125684895D01*
X91548571Y-125684895D02*
X91853333Y-125684895D01*
X91853333Y-125684895D02*
X91929523Y-125722990D01*
X91929523Y-125722990D02*
X91967618Y-125761085D01*
X91967618Y-125761085D02*
X92005714Y-125837276D01*
X92005714Y-125837276D02*
X92005714Y-125951561D01*
X92005714Y-125951561D02*
X91967618Y-126027752D01*
X91967618Y-126027752D02*
X91929523Y-126065847D01*
X91929523Y-126065847D02*
X91853333Y-126103942D01*
X91853333Y-126103942D02*
X91548571Y-126103942D01*
X92767618Y-126484895D02*
X92310475Y-126484895D01*
X92539047Y-126484895D02*
X92539047Y-125684895D01*
X92539047Y-125684895D02*
X92462856Y-125799180D01*
X92462856Y-125799180D02*
X92386666Y-125875371D01*
X92386666Y-125875371D02*
X92310475Y-125913466D01*
X93148571Y-126484895D02*
X93300952Y-126484895D01*
X93300952Y-126484895D02*
X93377142Y-126446800D01*
X93377142Y-126446800D02*
X93415238Y-126408704D01*
X93415238Y-126408704D02*
X93491428Y-126294419D01*
X93491428Y-126294419D02*
X93529523Y-126142038D01*
X93529523Y-126142038D02*
X93529523Y-125837276D01*
X93529523Y-125837276D02*
X93491428Y-125761085D01*
X93491428Y-125761085D02*
X93453333Y-125722990D01*
X93453333Y-125722990D02*
X93377142Y-125684895D01*
X93377142Y-125684895D02*
X93224761Y-125684895D01*
X93224761Y-125684895D02*
X93148571Y-125722990D01*
X93148571Y-125722990D02*
X93110476Y-125761085D01*
X93110476Y-125761085D02*
X93072380Y-125837276D01*
X93072380Y-125837276D02*
X93072380Y-126027752D01*
X93072380Y-126027752D02*
X93110476Y-126103942D01*
X93110476Y-126103942D02*
X93148571Y-126142038D01*
X93148571Y-126142038D02*
X93224761Y-126180133D01*
X93224761Y-126180133D02*
X93377142Y-126180133D01*
X93377142Y-126180133D02*
X93453333Y-126142038D01*
X93453333Y-126142038D02*
X93491428Y-126103942D01*
X93491428Y-126103942D02*
X93529523Y-126027752D01*
X97655714Y-111438704D02*
X97617618Y-111476800D01*
X97617618Y-111476800D02*
X97503333Y-111514895D01*
X97503333Y-111514895D02*
X97427142Y-111514895D01*
X97427142Y-111514895D02*
X97312856Y-111476800D01*
X97312856Y-111476800D02*
X97236666Y-111400609D01*
X97236666Y-111400609D02*
X97198571Y-111324419D01*
X97198571Y-111324419D02*
X97160475Y-111172038D01*
X97160475Y-111172038D02*
X97160475Y-111057752D01*
X97160475Y-111057752D02*
X97198571Y-110905371D01*
X97198571Y-110905371D02*
X97236666Y-110829180D01*
X97236666Y-110829180D02*
X97312856Y-110752990D01*
X97312856Y-110752990D02*
X97427142Y-110714895D01*
X97427142Y-110714895D02*
X97503333Y-110714895D01*
X97503333Y-110714895D02*
X97617618Y-110752990D01*
X97617618Y-110752990D02*
X97655714Y-110791085D01*
X98417618Y-111514895D02*
X97960475Y-111514895D01*
X98189047Y-111514895D02*
X98189047Y-110714895D01*
X98189047Y-110714895D02*
X98112856Y-110829180D01*
X98112856Y-110829180D02*
X98036666Y-110905371D01*
X98036666Y-110905371D02*
X97960475Y-110943466D01*
X99179523Y-111514895D02*
X98722380Y-111514895D01*
X98950952Y-111514895D02*
X98950952Y-110714895D01*
X98950952Y-110714895D02*
X98874761Y-110829180D01*
X98874761Y-110829180D02*
X98798571Y-110905371D01*
X98798571Y-110905371D02*
X98722380Y-110943466D01*
X87038704Y-111154285D02*
X87076800Y-111192381D01*
X87076800Y-111192381D02*
X87114895Y-111306666D01*
X87114895Y-111306666D02*
X87114895Y-111382857D01*
X87114895Y-111382857D02*
X87076800Y-111497143D01*
X87076800Y-111497143D02*
X87000609Y-111573333D01*
X87000609Y-111573333D02*
X86924419Y-111611428D01*
X86924419Y-111611428D02*
X86772038Y-111649524D01*
X86772038Y-111649524D02*
X86657752Y-111649524D01*
X86657752Y-111649524D02*
X86505371Y-111611428D01*
X86505371Y-111611428D02*
X86429180Y-111573333D01*
X86429180Y-111573333D02*
X86352990Y-111497143D01*
X86352990Y-111497143D02*
X86314895Y-111382857D01*
X86314895Y-111382857D02*
X86314895Y-111306666D01*
X86314895Y-111306666D02*
X86352990Y-111192381D01*
X86352990Y-111192381D02*
X86391085Y-111154285D01*
X87114895Y-110392381D02*
X87114895Y-110849524D01*
X87114895Y-110620952D02*
X86314895Y-110620952D01*
X86314895Y-110620952D02*
X86429180Y-110697143D01*
X86429180Y-110697143D02*
X86505371Y-110773333D01*
X86505371Y-110773333D02*
X86543466Y-110849524D01*
X86314895Y-109897142D02*
X86314895Y-109820952D01*
X86314895Y-109820952D02*
X86352990Y-109744761D01*
X86352990Y-109744761D02*
X86391085Y-109706666D01*
X86391085Y-109706666D02*
X86467276Y-109668571D01*
X86467276Y-109668571D02*
X86619657Y-109630476D01*
X86619657Y-109630476D02*
X86810133Y-109630476D01*
X86810133Y-109630476D02*
X86962514Y-109668571D01*
X86962514Y-109668571D02*
X87038704Y-109706666D01*
X87038704Y-109706666D02*
X87076800Y-109744761D01*
X87076800Y-109744761D02*
X87114895Y-109820952D01*
X87114895Y-109820952D02*
X87114895Y-109897142D01*
X87114895Y-109897142D02*
X87076800Y-109973333D01*
X87076800Y-109973333D02*
X87038704Y-110011428D01*
X87038704Y-110011428D02*
X86962514Y-110049523D01*
X86962514Y-110049523D02*
X86810133Y-110087619D01*
X86810133Y-110087619D02*
X86619657Y-110087619D01*
X86619657Y-110087619D02*
X86467276Y-110049523D01*
X86467276Y-110049523D02*
X86391085Y-110011428D01*
X86391085Y-110011428D02*
X86352990Y-109973333D01*
X86352990Y-109973333D02*
X86314895Y-109897142D01*
X132114895Y-90114285D02*
X131733942Y-90380952D01*
X132114895Y-90571428D02*
X131314895Y-90571428D01*
X131314895Y-90571428D02*
X131314895Y-90266666D01*
X131314895Y-90266666D02*
X131352990Y-90190476D01*
X131352990Y-90190476D02*
X131391085Y-90152381D01*
X131391085Y-90152381D02*
X131467276Y-90114285D01*
X131467276Y-90114285D02*
X131581561Y-90114285D01*
X131581561Y-90114285D02*
X131657752Y-90152381D01*
X131657752Y-90152381D02*
X131695847Y-90190476D01*
X131695847Y-90190476D02*
X131733942Y-90266666D01*
X131733942Y-90266666D02*
X131733942Y-90571428D01*
X132114895Y-89352381D02*
X132114895Y-89809524D01*
X132114895Y-89580952D02*
X131314895Y-89580952D01*
X131314895Y-89580952D02*
X131429180Y-89657143D01*
X131429180Y-89657143D02*
X131505371Y-89733333D01*
X131505371Y-89733333D02*
X131543466Y-89809524D01*
X131581561Y-88666666D02*
X132114895Y-88666666D01*
X131276800Y-88857142D02*
X131848228Y-89047619D01*
X131848228Y-89047619D02*
X131848228Y-88552380D01*
X134260476Y-70044895D02*
X134260476Y-69244895D01*
X134260476Y-69625847D02*
X134717619Y-69625847D01*
X134717619Y-70044895D02*
X134717619Y-69244895D01*
X135060475Y-69321085D02*
X135098571Y-69282990D01*
X135098571Y-69282990D02*
X135174761Y-69244895D01*
X135174761Y-69244895D02*
X135365237Y-69244895D01*
X135365237Y-69244895D02*
X135441428Y-69282990D01*
X135441428Y-69282990D02*
X135479523Y-69321085D01*
X135479523Y-69321085D02*
X135517618Y-69397276D01*
X135517618Y-69397276D02*
X135517618Y-69473466D01*
X135517618Y-69473466D02*
X135479523Y-69587752D01*
X135479523Y-69587752D02*
X135022380Y-70044895D01*
X135022380Y-70044895D02*
X135517618Y-70044895D01*
X112820571Y-111616895D02*
X112820571Y-110816895D01*
X112820571Y-110816895D02*
X113125333Y-110816895D01*
X113125333Y-110816895D02*
X113201523Y-110854990D01*
X113201523Y-110854990D02*
X113239618Y-110893085D01*
X113239618Y-110893085D02*
X113277714Y-110969276D01*
X113277714Y-110969276D02*
X113277714Y-111083561D01*
X113277714Y-111083561D02*
X113239618Y-111159752D01*
X113239618Y-111159752D02*
X113201523Y-111197847D01*
X113201523Y-111197847D02*
X113125333Y-111235942D01*
X113125333Y-111235942D02*
X112820571Y-111235942D01*
X113582475Y-111578800D02*
X113696761Y-111616895D01*
X113696761Y-111616895D02*
X113887237Y-111616895D01*
X113887237Y-111616895D02*
X113963428Y-111578800D01*
X113963428Y-111578800D02*
X114001523Y-111540704D01*
X114001523Y-111540704D02*
X114039618Y-111464514D01*
X114039618Y-111464514D02*
X114039618Y-111388323D01*
X114039618Y-111388323D02*
X114001523Y-111312133D01*
X114001523Y-111312133D02*
X113963428Y-111274038D01*
X113963428Y-111274038D02*
X113887237Y-111235942D01*
X113887237Y-111235942D02*
X113734856Y-111197847D01*
X113734856Y-111197847D02*
X113658666Y-111159752D01*
X113658666Y-111159752D02*
X113620571Y-111121657D01*
X113620571Y-111121657D02*
X113582475Y-111045466D01*
X113582475Y-111045466D02*
X113582475Y-110969276D01*
X113582475Y-110969276D02*
X113620571Y-110893085D01*
X113620571Y-110893085D02*
X113658666Y-110854990D01*
X113658666Y-110854990D02*
X113734856Y-110816895D01*
X113734856Y-110816895D02*
X113925333Y-110816895D01*
X113925333Y-110816895D02*
X114039618Y-110854990D01*
X114801523Y-111616895D02*
X114344380Y-111616895D01*
X114572952Y-111616895D02*
X114572952Y-110816895D01*
X114572952Y-110816895D02*
X114496761Y-110931180D01*
X114496761Y-110931180D02*
X114420571Y-111007371D01*
X114420571Y-111007371D02*
X114344380Y-111045466D01*
X105581667Y-109894895D02*
X105315000Y-109513942D01*
X105124524Y-109894895D02*
X105124524Y-109094895D01*
X105124524Y-109094895D02*
X105429286Y-109094895D01*
X105429286Y-109094895D02*
X105505476Y-109132990D01*
X105505476Y-109132990D02*
X105543571Y-109171085D01*
X105543571Y-109171085D02*
X105581667Y-109247276D01*
X105581667Y-109247276D02*
X105581667Y-109361561D01*
X105581667Y-109361561D02*
X105543571Y-109437752D01*
X105543571Y-109437752D02*
X105505476Y-109475847D01*
X105505476Y-109475847D02*
X105429286Y-109513942D01*
X105429286Y-109513942D02*
X105124524Y-109513942D01*
X105848333Y-109094895D02*
X106381667Y-109094895D01*
X106381667Y-109094895D02*
X106038809Y-109894895D01*
X94544895Y-103983332D02*
X94163942Y-104249999D01*
X94544895Y-104440475D02*
X93744895Y-104440475D01*
X93744895Y-104440475D02*
X93744895Y-104135713D01*
X93744895Y-104135713D02*
X93782990Y-104059523D01*
X93782990Y-104059523D02*
X93821085Y-104021428D01*
X93821085Y-104021428D02*
X93897276Y-103983332D01*
X93897276Y-103983332D02*
X94011561Y-103983332D01*
X94011561Y-103983332D02*
X94087752Y-104021428D01*
X94087752Y-104021428D02*
X94125847Y-104059523D01*
X94125847Y-104059523D02*
X94163942Y-104135713D01*
X94163942Y-104135713D02*
X94163942Y-104440475D01*
X93744895Y-103259523D02*
X93744895Y-103640475D01*
X93744895Y-103640475D02*
X94125847Y-103678571D01*
X94125847Y-103678571D02*
X94087752Y-103640475D01*
X94087752Y-103640475D02*
X94049657Y-103564285D01*
X94049657Y-103564285D02*
X94049657Y-103373809D01*
X94049657Y-103373809D02*
X94087752Y-103297618D01*
X94087752Y-103297618D02*
X94125847Y-103259523D01*
X94125847Y-103259523D02*
X94202038Y-103221428D01*
X94202038Y-103221428D02*
X94392514Y-103221428D01*
X94392514Y-103221428D02*
X94468704Y-103259523D01*
X94468704Y-103259523D02*
X94506800Y-103297618D01*
X94506800Y-103297618D02*
X94544895Y-103373809D01*
X94544895Y-103373809D02*
X94544895Y-103564285D01*
X94544895Y-103564285D02*
X94506800Y-103640475D01*
X94506800Y-103640475D02*
X94468704Y-103678571D01*
X121374895Y-80834285D02*
X120993942Y-81100952D01*
X121374895Y-81291428D02*
X120574895Y-81291428D01*
X120574895Y-81291428D02*
X120574895Y-80986666D01*
X120574895Y-80986666D02*
X120612990Y-80910476D01*
X120612990Y-80910476D02*
X120651085Y-80872381D01*
X120651085Y-80872381D02*
X120727276Y-80834285D01*
X120727276Y-80834285D02*
X120841561Y-80834285D01*
X120841561Y-80834285D02*
X120917752Y-80872381D01*
X120917752Y-80872381D02*
X120955847Y-80910476D01*
X120955847Y-80910476D02*
X120993942Y-80986666D01*
X120993942Y-80986666D02*
X120993942Y-81291428D01*
X121374895Y-80072381D02*
X121374895Y-80529524D01*
X121374895Y-80300952D02*
X120574895Y-80300952D01*
X120574895Y-80300952D02*
X120689180Y-80377143D01*
X120689180Y-80377143D02*
X120765371Y-80453333D01*
X120765371Y-80453333D02*
X120803466Y-80529524D01*
X120651085Y-79767619D02*
X120612990Y-79729523D01*
X120612990Y-79729523D02*
X120574895Y-79653333D01*
X120574895Y-79653333D02*
X120574895Y-79462857D01*
X120574895Y-79462857D02*
X120612990Y-79386666D01*
X120612990Y-79386666D02*
X120651085Y-79348571D01*
X120651085Y-79348571D02*
X120727276Y-79310476D01*
X120727276Y-79310476D02*
X120803466Y-79310476D01*
X120803466Y-79310476D02*
X120917752Y-79348571D01*
X120917752Y-79348571D02*
X121374895Y-79805714D01*
X121374895Y-79805714D02*
X121374895Y-79310476D01*
X77790476Y-74314895D02*
X77790476Y-73514895D01*
X77790476Y-73895847D02*
X78247619Y-73895847D01*
X78247619Y-74314895D02*
X78247619Y-73514895D01*
X79047618Y-74314895D02*
X78590475Y-74314895D01*
X78819047Y-74314895D02*
X78819047Y-73514895D01*
X78819047Y-73514895D02*
X78742856Y-73629180D01*
X78742856Y-73629180D02*
X78666666Y-73705371D01*
X78666666Y-73705371D02*
X78590475Y-73743466D01*
X114196667Y-134894895D02*
X113930000Y-134513942D01*
X113739524Y-134894895D02*
X113739524Y-134094895D01*
X113739524Y-134094895D02*
X114044286Y-134094895D01*
X114044286Y-134094895D02*
X114120476Y-134132990D01*
X114120476Y-134132990D02*
X114158571Y-134171085D01*
X114158571Y-134171085D02*
X114196667Y-134247276D01*
X114196667Y-134247276D02*
X114196667Y-134361561D01*
X114196667Y-134361561D02*
X114158571Y-134437752D01*
X114158571Y-134437752D02*
X114120476Y-134475847D01*
X114120476Y-134475847D02*
X114044286Y-134513942D01*
X114044286Y-134513942D02*
X113739524Y-134513942D01*
X114577619Y-134894895D02*
X114730000Y-134894895D01*
X114730000Y-134894895D02*
X114806190Y-134856800D01*
X114806190Y-134856800D02*
X114844286Y-134818704D01*
X114844286Y-134818704D02*
X114920476Y-134704419D01*
X114920476Y-134704419D02*
X114958571Y-134552038D01*
X114958571Y-134552038D02*
X114958571Y-134247276D01*
X114958571Y-134247276D02*
X114920476Y-134171085D01*
X114920476Y-134171085D02*
X114882381Y-134132990D01*
X114882381Y-134132990D02*
X114806190Y-134094895D01*
X114806190Y-134094895D02*
X114653809Y-134094895D01*
X114653809Y-134094895D02*
X114577619Y-134132990D01*
X114577619Y-134132990D02*
X114539524Y-134171085D01*
X114539524Y-134171085D02*
X114501428Y-134247276D01*
X114501428Y-134247276D02*
X114501428Y-134437752D01*
X114501428Y-134437752D02*
X114539524Y-134513942D01*
X114539524Y-134513942D02*
X114577619Y-134552038D01*
X114577619Y-134552038D02*
X114653809Y-134590133D01*
X114653809Y-134590133D02*
X114806190Y-134590133D01*
X114806190Y-134590133D02*
X114882381Y-134552038D01*
X114882381Y-134552038D02*
X114920476Y-134513942D01*
X114920476Y-134513942D02*
X114958571Y-134437752D01*
X103643332Y-102095104D02*
X103909999Y-102476057D01*
X104100475Y-102095104D02*
X104100475Y-102895104D01*
X104100475Y-102895104D02*
X103795713Y-102895104D01*
X103795713Y-102895104D02*
X103719523Y-102857009D01*
X103719523Y-102857009D02*
X103681428Y-102818914D01*
X103681428Y-102818914D02*
X103643332Y-102742723D01*
X103643332Y-102742723D02*
X103643332Y-102628438D01*
X103643332Y-102628438D02*
X103681428Y-102552247D01*
X103681428Y-102552247D02*
X103719523Y-102514152D01*
X103719523Y-102514152D02*
X103795713Y-102476057D01*
X103795713Y-102476057D02*
X104100475Y-102476057D01*
X103186190Y-102552247D02*
X103262380Y-102590342D01*
X103262380Y-102590342D02*
X103300475Y-102628438D01*
X103300475Y-102628438D02*
X103338571Y-102704628D01*
X103338571Y-102704628D02*
X103338571Y-102742723D01*
X103338571Y-102742723D02*
X103300475Y-102818914D01*
X103300475Y-102818914D02*
X103262380Y-102857009D01*
X103262380Y-102857009D02*
X103186190Y-102895104D01*
X103186190Y-102895104D02*
X103033809Y-102895104D01*
X103033809Y-102895104D02*
X102957618Y-102857009D01*
X102957618Y-102857009D02*
X102919523Y-102818914D01*
X102919523Y-102818914D02*
X102881428Y-102742723D01*
X102881428Y-102742723D02*
X102881428Y-102704628D01*
X102881428Y-102704628D02*
X102919523Y-102628438D01*
X102919523Y-102628438D02*
X102957618Y-102590342D01*
X102957618Y-102590342D02*
X103033809Y-102552247D01*
X103033809Y-102552247D02*
X103186190Y-102552247D01*
X103186190Y-102552247D02*
X103262380Y-102514152D01*
X103262380Y-102514152D02*
X103300475Y-102476057D01*
X103300475Y-102476057D02*
X103338571Y-102399866D01*
X103338571Y-102399866D02*
X103338571Y-102247485D01*
X103338571Y-102247485D02*
X103300475Y-102171295D01*
X103300475Y-102171295D02*
X103262380Y-102133200D01*
X103262380Y-102133200D02*
X103186190Y-102095104D01*
X103186190Y-102095104D02*
X103033809Y-102095104D01*
X103033809Y-102095104D02*
X102957618Y-102133200D01*
X102957618Y-102133200D02*
X102919523Y-102171295D01*
X102919523Y-102171295D02*
X102881428Y-102247485D01*
X102881428Y-102247485D02*
X102881428Y-102399866D01*
X102881428Y-102399866D02*
X102919523Y-102476057D01*
X102919523Y-102476057D02*
X102957618Y-102514152D01*
X102957618Y-102514152D02*
X103033809Y-102552247D01*
X87038704Y-116783332D02*
X87076800Y-116821428D01*
X87076800Y-116821428D02*
X87114895Y-116935713D01*
X87114895Y-116935713D02*
X87114895Y-117011904D01*
X87114895Y-117011904D02*
X87076800Y-117126190D01*
X87076800Y-117126190D02*
X87000609Y-117202380D01*
X87000609Y-117202380D02*
X86924419Y-117240475D01*
X86924419Y-117240475D02*
X86772038Y-117278571D01*
X86772038Y-117278571D02*
X86657752Y-117278571D01*
X86657752Y-117278571D02*
X86505371Y-117240475D01*
X86505371Y-117240475D02*
X86429180Y-117202380D01*
X86429180Y-117202380D02*
X86352990Y-117126190D01*
X86352990Y-117126190D02*
X86314895Y-117011904D01*
X86314895Y-117011904D02*
X86314895Y-116935713D01*
X86314895Y-116935713D02*
X86352990Y-116821428D01*
X86352990Y-116821428D02*
X86391085Y-116783332D01*
X86657752Y-116326190D02*
X86619657Y-116402380D01*
X86619657Y-116402380D02*
X86581561Y-116440475D01*
X86581561Y-116440475D02*
X86505371Y-116478571D01*
X86505371Y-116478571D02*
X86467276Y-116478571D01*
X86467276Y-116478571D02*
X86391085Y-116440475D01*
X86391085Y-116440475D02*
X86352990Y-116402380D01*
X86352990Y-116402380D02*
X86314895Y-116326190D01*
X86314895Y-116326190D02*
X86314895Y-116173809D01*
X86314895Y-116173809D02*
X86352990Y-116097618D01*
X86352990Y-116097618D02*
X86391085Y-116059523D01*
X86391085Y-116059523D02*
X86467276Y-116021428D01*
X86467276Y-116021428D02*
X86505371Y-116021428D01*
X86505371Y-116021428D02*
X86581561Y-116059523D01*
X86581561Y-116059523D02*
X86619657Y-116097618D01*
X86619657Y-116097618D02*
X86657752Y-116173809D01*
X86657752Y-116173809D02*
X86657752Y-116326190D01*
X86657752Y-116326190D02*
X86695847Y-116402380D01*
X86695847Y-116402380D02*
X86733942Y-116440475D01*
X86733942Y-116440475D02*
X86810133Y-116478571D01*
X86810133Y-116478571D02*
X86962514Y-116478571D01*
X86962514Y-116478571D02*
X87038704Y-116440475D01*
X87038704Y-116440475D02*
X87076800Y-116402380D01*
X87076800Y-116402380D02*
X87114895Y-116326190D01*
X87114895Y-116326190D02*
X87114895Y-116173809D01*
X87114895Y-116173809D02*
X87076800Y-116097618D01*
X87076800Y-116097618D02*
X87038704Y-116059523D01*
X87038704Y-116059523D02*
X86962514Y-116021428D01*
X86962514Y-116021428D02*
X86810133Y-116021428D01*
X86810133Y-116021428D02*
X86733942Y-116059523D01*
X86733942Y-116059523D02*
X86695847Y-116097618D01*
X86695847Y-116097618D02*
X86657752Y-116173809D01*
X136713333Y-126234895D02*
X136713333Y-126806323D01*
X136713333Y-126806323D02*
X136675238Y-126920609D01*
X136675238Y-126920609D02*
X136599047Y-126996800D01*
X136599047Y-126996800D02*
X136484762Y-127034895D01*
X136484762Y-127034895D02*
X136408571Y-127034895D01*
X137056190Y-126311085D02*
X137094286Y-126272990D01*
X137094286Y-126272990D02*
X137170476Y-126234895D01*
X137170476Y-126234895D02*
X137360952Y-126234895D01*
X137360952Y-126234895D02*
X137437143Y-126272990D01*
X137437143Y-126272990D02*
X137475238Y-126311085D01*
X137475238Y-126311085D02*
X137513333Y-126387276D01*
X137513333Y-126387276D02*
X137513333Y-126463466D01*
X137513333Y-126463466D02*
X137475238Y-126577752D01*
X137475238Y-126577752D02*
X137018095Y-127034895D01*
X137018095Y-127034895D02*
X137513333Y-127034895D01*
X141434895Y-122338571D02*
X141434895Y-121881428D01*
X142234895Y-122110000D02*
X141434895Y-122110000D01*
X142234895Y-121614761D02*
X141434895Y-121614761D01*
X141815847Y-121614761D02*
X141815847Y-121157618D01*
X142234895Y-121157618D02*
X141434895Y-121157618D01*
X142234895Y-120357619D02*
X142234895Y-120814762D01*
X142234895Y-120586190D02*
X141434895Y-120586190D01*
X141434895Y-120586190D02*
X141549180Y-120662381D01*
X141549180Y-120662381D02*
X141625371Y-120738571D01*
X141625371Y-120738571D02*
X141663466Y-120814762D01*
X126546104Y-98323476D02*
X125898485Y-98323476D01*
X125898485Y-98323476D02*
X125822295Y-98361571D01*
X125822295Y-98361571D02*
X125784200Y-98399666D01*
X125784200Y-98399666D02*
X125746104Y-98475857D01*
X125746104Y-98475857D02*
X125746104Y-98628238D01*
X125746104Y-98628238D02*
X125784200Y-98704428D01*
X125784200Y-98704428D02*
X125822295Y-98742523D01*
X125822295Y-98742523D02*
X125898485Y-98780619D01*
X125898485Y-98780619D02*
X126546104Y-98780619D01*
X125746104Y-99580618D02*
X125746104Y-99123475D01*
X125746104Y-99352047D02*
X126546104Y-99352047D01*
X126546104Y-99352047D02*
X126431819Y-99275856D01*
X126431819Y-99275856D02*
X126355628Y-99199666D01*
X126355628Y-99199666D02*
X126317533Y-99123475D01*
X87038704Y-119923332D02*
X87076800Y-119961428D01*
X87076800Y-119961428D02*
X87114895Y-120075713D01*
X87114895Y-120075713D02*
X87114895Y-120151904D01*
X87114895Y-120151904D02*
X87076800Y-120266190D01*
X87076800Y-120266190D02*
X87000609Y-120342380D01*
X87000609Y-120342380D02*
X86924419Y-120380475D01*
X86924419Y-120380475D02*
X86772038Y-120418571D01*
X86772038Y-120418571D02*
X86657752Y-120418571D01*
X86657752Y-120418571D02*
X86505371Y-120380475D01*
X86505371Y-120380475D02*
X86429180Y-120342380D01*
X86429180Y-120342380D02*
X86352990Y-120266190D01*
X86352990Y-120266190D02*
X86314895Y-120151904D01*
X86314895Y-120151904D02*
X86314895Y-120075713D01*
X86314895Y-120075713D02*
X86352990Y-119961428D01*
X86352990Y-119961428D02*
X86391085Y-119923332D01*
X86314895Y-119656666D02*
X86314895Y-119123332D01*
X86314895Y-119123332D02*
X87114895Y-119466190D01*
X128296104Y-103825714D02*
X128677057Y-103559047D01*
X128296104Y-103368571D02*
X129096104Y-103368571D01*
X129096104Y-103368571D02*
X129096104Y-103673333D01*
X129096104Y-103673333D02*
X129058009Y-103749523D01*
X129058009Y-103749523D02*
X129019914Y-103787618D01*
X129019914Y-103787618D02*
X128943723Y-103825714D01*
X128943723Y-103825714D02*
X128829438Y-103825714D01*
X128829438Y-103825714D02*
X128753247Y-103787618D01*
X128753247Y-103787618D02*
X128715152Y-103749523D01*
X128715152Y-103749523D02*
X128677057Y-103673333D01*
X128677057Y-103673333D02*
X128677057Y-103368571D01*
X128296104Y-104587618D02*
X128296104Y-104130475D01*
X128296104Y-104359047D02*
X129096104Y-104359047D01*
X129096104Y-104359047D02*
X128981819Y-104282856D01*
X128981819Y-104282856D02*
X128905628Y-104206666D01*
X128905628Y-104206666D02*
X128867533Y-104130475D01*
X129096104Y-105082857D02*
X129096104Y-105159047D01*
X129096104Y-105159047D02*
X129058009Y-105235238D01*
X129058009Y-105235238D02*
X129019914Y-105273333D01*
X129019914Y-105273333D02*
X128943723Y-105311428D01*
X128943723Y-105311428D02*
X128791342Y-105349523D01*
X128791342Y-105349523D02*
X128600866Y-105349523D01*
X128600866Y-105349523D02*
X128448485Y-105311428D01*
X128448485Y-105311428D02*
X128372295Y-105273333D01*
X128372295Y-105273333D02*
X128334200Y-105235238D01*
X128334200Y-105235238D02*
X128296104Y-105159047D01*
X128296104Y-105159047D02*
X128296104Y-105082857D01*
X128296104Y-105082857D02*
X128334200Y-105006666D01*
X128334200Y-105006666D02*
X128372295Y-104968571D01*
X128372295Y-104968571D02*
X128448485Y-104930476D01*
X128448485Y-104930476D02*
X128600866Y-104892380D01*
X128600866Y-104892380D02*
X128791342Y-104892380D01*
X128791342Y-104892380D02*
X128943723Y-104930476D01*
X128943723Y-104930476D02*
X129019914Y-104968571D01*
X129019914Y-104968571D02*
X129058009Y-105006666D01*
X129058009Y-105006666D02*
X129096104Y-105082857D01*
X133610332Y-106696104D02*
X133876999Y-107077057D01*
X134067475Y-106696104D02*
X134067475Y-107496104D01*
X134067475Y-107496104D02*
X133762713Y-107496104D01*
X133762713Y-107496104D02*
X133686523Y-107458009D01*
X133686523Y-107458009D02*
X133648428Y-107419914D01*
X133648428Y-107419914D02*
X133610332Y-107343723D01*
X133610332Y-107343723D02*
X133610332Y-107229438D01*
X133610332Y-107229438D02*
X133648428Y-107153247D01*
X133648428Y-107153247D02*
X133686523Y-107115152D01*
X133686523Y-107115152D02*
X133762713Y-107077057D01*
X133762713Y-107077057D02*
X134067475Y-107077057D01*
X132848428Y-106696104D02*
X133305571Y-106696104D01*
X133076999Y-106696104D02*
X133076999Y-107496104D01*
X133076999Y-107496104D02*
X133153190Y-107381819D01*
X133153190Y-107381819D02*
X133229380Y-107305628D01*
X133229380Y-107305628D02*
X133305571Y-107267533D01*
X131405104Y-74485714D02*
X131786057Y-74219047D01*
X131405104Y-74028571D02*
X132205104Y-74028571D01*
X132205104Y-74028571D02*
X132205104Y-74333333D01*
X132205104Y-74333333D02*
X132167009Y-74409523D01*
X132167009Y-74409523D02*
X132128914Y-74447618D01*
X132128914Y-74447618D02*
X132052723Y-74485714D01*
X132052723Y-74485714D02*
X131938438Y-74485714D01*
X131938438Y-74485714D02*
X131862247Y-74447618D01*
X131862247Y-74447618D02*
X131824152Y-74409523D01*
X131824152Y-74409523D02*
X131786057Y-74333333D01*
X131786057Y-74333333D02*
X131786057Y-74028571D01*
X131405104Y-75247618D02*
X131405104Y-74790475D01*
X131405104Y-75019047D02*
X132205104Y-75019047D01*
X132205104Y-75019047D02*
X132090819Y-74942856D01*
X132090819Y-74942856D02*
X132014628Y-74866666D01*
X132014628Y-74866666D02*
X131976533Y-74790475D01*
X132205104Y-75514285D02*
X132205104Y-76009523D01*
X132205104Y-76009523D02*
X131900342Y-75742857D01*
X131900342Y-75742857D02*
X131900342Y-75857142D01*
X131900342Y-75857142D02*
X131862247Y-75933333D01*
X131862247Y-75933333D02*
X131824152Y-75971428D01*
X131824152Y-75971428D02*
X131747961Y-76009523D01*
X131747961Y-76009523D02*
X131557485Y-76009523D01*
X131557485Y-76009523D02*
X131481295Y-75971428D01*
X131481295Y-75971428D02*
X131443200Y-75933333D01*
X131443200Y-75933333D02*
X131405104Y-75857142D01*
X131405104Y-75857142D02*
X131405104Y-75628571D01*
X131405104Y-75628571D02*
X131443200Y-75552380D01*
X131443200Y-75552380D02*
X131481295Y-75514285D01*
X135414895Y-112036666D02*
X135986323Y-112036666D01*
X135986323Y-112036666D02*
X136100609Y-112074761D01*
X136100609Y-112074761D02*
X136176800Y-112150952D01*
X136176800Y-112150952D02*
X136214895Y-112265237D01*
X136214895Y-112265237D02*
X136214895Y-112341428D01*
X135414895Y-111312856D02*
X135414895Y-111465237D01*
X135414895Y-111465237D02*
X135452990Y-111541428D01*
X135452990Y-111541428D02*
X135491085Y-111579523D01*
X135491085Y-111579523D02*
X135605371Y-111655713D01*
X135605371Y-111655713D02*
X135757752Y-111693809D01*
X135757752Y-111693809D02*
X136062514Y-111693809D01*
X136062514Y-111693809D02*
X136138704Y-111655713D01*
X136138704Y-111655713D02*
X136176800Y-111617618D01*
X136176800Y-111617618D02*
X136214895Y-111541428D01*
X136214895Y-111541428D02*
X136214895Y-111389047D01*
X136214895Y-111389047D02*
X136176800Y-111312856D01*
X136176800Y-111312856D02*
X136138704Y-111274761D01*
X136138704Y-111274761D02*
X136062514Y-111236666D01*
X136062514Y-111236666D02*
X135872038Y-111236666D01*
X135872038Y-111236666D02*
X135795847Y-111274761D01*
X135795847Y-111274761D02*
X135757752Y-111312856D01*
X135757752Y-111312856D02*
X135719657Y-111389047D01*
X135719657Y-111389047D02*
X135719657Y-111541428D01*
X135719657Y-111541428D02*
X135757752Y-111617618D01*
X135757752Y-111617618D02*
X135795847Y-111655713D01*
X135795847Y-111655713D02*
X135872038Y-111693809D01*
X141434895Y-113528571D02*
X141434895Y-113071428D01*
X142234895Y-113300000D02*
X141434895Y-113300000D01*
X142234895Y-112804761D02*
X141434895Y-112804761D01*
X141815847Y-112804761D02*
X141815847Y-112347618D01*
X142234895Y-112347618D02*
X141434895Y-112347618D01*
X141511085Y-112004762D02*
X141472990Y-111966666D01*
X141472990Y-111966666D02*
X141434895Y-111890476D01*
X141434895Y-111890476D02*
X141434895Y-111700000D01*
X141434895Y-111700000D02*
X141472990Y-111623809D01*
X141472990Y-111623809D02*
X141511085Y-111585714D01*
X141511085Y-111585714D02*
X141587276Y-111547619D01*
X141587276Y-111547619D02*
X141663466Y-111547619D01*
X141663466Y-111547619D02*
X141777752Y-111585714D01*
X141777752Y-111585714D02*
X142234895Y-112042857D01*
X142234895Y-112042857D02*
X142234895Y-111547619D01*
X119864895Y-81064285D02*
X119483942Y-81330952D01*
X119864895Y-81521428D02*
X119064895Y-81521428D01*
X119064895Y-81521428D02*
X119064895Y-81216666D01*
X119064895Y-81216666D02*
X119102990Y-81140476D01*
X119102990Y-81140476D02*
X119141085Y-81102381D01*
X119141085Y-81102381D02*
X119217276Y-81064285D01*
X119217276Y-81064285D02*
X119331561Y-81064285D01*
X119331561Y-81064285D02*
X119407752Y-81102381D01*
X119407752Y-81102381D02*
X119445847Y-81140476D01*
X119445847Y-81140476D02*
X119483942Y-81216666D01*
X119483942Y-81216666D02*
X119483942Y-81521428D01*
X119864895Y-80302381D02*
X119864895Y-80759524D01*
X119864895Y-80530952D02*
X119064895Y-80530952D01*
X119064895Y-80530952D02*
X119179180Y-80607143D01*
X119179180Y-80607143D02*
X119255371Y-80683333D01*
X119255371Y-80683333D02*
X119293466Y-80759524D01*
X119064895Y-79616666D02*
X119064895Y-79769047D01*
X119064895Y-79769047D02*
X119102990Y-79845238D01*
X119102990Y-79845238D02*
X119141085Y-79883333D01*
X119141085Y-79883333D02*
X119255371Y-79959523D01*
X119255371Y-79959523D02*
X119407752Y-79997619D01*
X119407752Y-79997619D02*
X119712514Y-79997619D01*
X119712514Y-79997619D02*
X119788704Y-79959523D01*
X119788704Y-79959523D02*
X119826800Y-79921428D01*
X119826800Y-79921428D02*
X119864895Y-79845238D01*
X119864895Y-79845238D02*
X119864895Y-79692857D01*
X119864895Y-79692857D02*
X119826800Y-79616666D01*
X119826800Y-79616666D02*
X119788704Y-79578571D01*
X119788704Y-79578571D02*
X119712514Y-79540476D01*
X119712514Y-79540476D02*
X119522038Y-79540476D01*
X119522038Y-79540476D02*
X119445847Y-79578571D01*
X119445847Y-79578571D02*
X119407752Y-79616666D01*
X119407752Y-79616666D02*
X119369657Y-79692857D01*
X119369657Y-79692857D02*
X119369657Y-79845238D01*
X119369657Y-79845238D02*
X119407752Y-79921428D01*
X119407752Y-79921428D02*
X119445847Y-79959523D01*
X119445847Y-79959523D02*
X119522038Y-79997619D01*
X78891667Y-88363704D02*
X78853571Y-88401800D01*
X78853571Y-88401800D02*
X78739286Y-88439895D01*
X78739286Y-88439895D02*
X78663095Y-88439895D01*
X78663095Y-88439895D02*
X78548809Y-88401800D01*
X78548809Y-88401800D02*
X78472619Y-88325609D01*
X78472619Y-88325609D02*
X78434524Y-88249419D01*
X78434524Y-88249419D02*
X78396428Y-88097038D01*
X78396428Y-88097038D02*
X78396428Y-87982752D01*
X78396428Y-87982752D02*
X78434524Y-87830371D01*
X78434524Y-87830371D02*
X78472619Y-87754180D01*
X78472619Y-87754180D02*
X78548809Y-87677990D01*
X78548809Y-87677990D02*
X78663095Y-87639895D01*
X78663095Y-87639895D02*
X78739286Y-87639895D01*
X78739286Y-87639895D02*
X78853571Y-87677990D01*
X78853571Y-87677990D02*
X78891667Y-87716085D01*
X79615476Y-87639895D02*
X79234524Y-87639895D01*
X79234524Y-87639895D02*
X79196428Y-88020847D01*
X79196428Y-88020847D02*
X79234524Y-87982752D01*
X79234524Y-87982752D02*
X79310714Y-87944657D01*
X79310714Y-87944657D02*
X79501190Y-87944657D01*
X79501190Y-87944657D02*
X79577381Y-87982752D01*
X79577381Y-87982752D02*
X79615476Y-88020847D01*
X79615476Y-88020847D02*
X79653571Y-88097038D01*
X79653571Y-88097038D02*
X79653571Y-88287514D01*
X79653571Y-88287514D02*
X79615476Y-88363704D01*
X79615476Y-88363704D02*
X79577381Y-88401800D01*
X79577381Y-88401800D02*
X79501190Y-88439895D01*
X79501190Y-88439895D02*
X79310714Y-88439895D01*
X79310714Y-88439895D02*
X79234524Y-88401800D01*
X79234524Y-88401800D02*
X79196428Y-88363704D01*
X96709285Y-78020104D02*
X96975952Y-78401057D01*
X97166428Y-78020104D02*
X97166428Y-78820104D01*
X97166428Y-78820104D02*
X96861666Y-78820104D01*
X96861666Y-78820104D02*
X96785476Y-78782009D01*
X96785476Y-78782009D02*
X96747381Y-78743914D01*
X96747381Y-78743914D02*
X96709285Y-78667723D01*
X96709285Y-78667723D02*
X96709285Y-78553438D01*
X96709285Y-78553438D02*
X96747381Y-78477247D01*
X96747381Y-78477247D02*
X96785476Y-78439152D01*
X96785476Y-78439152D02*
X96861666Y-78401057D01*
X96861666Y-78401057D02*
X97166428Y-78401057D01*
X95947381Y-78020104D02*
X96404524Y-78020104D01*
X96175952Y-78020104D02*
X96175952Y-78820104D01*
X96175952Y-78820104D02*
X96252143Y-78705819D01*
X96252143Y-78705819D02*
X96328333Y-78629628D01*
X96328333Y-78629628D02*
X96404524Y-78591533D01*
X95223571Y-78820104D02*
X95604523Y-78820104D01*
X95604523Y-78820104D02*
X95642619Y-78439152D01*
X95642619Y-78439152D02*
X95604523Y-78477247D01*
X95604523Y-78477247D02*
X95528333Y-78515342D01*
X95528333Y-78515342D02*
X95337857Y-78515342D01*
X95337857Y-78515342D02*
X95261666Y-78477247D01*
X95261666Y-78477247D02*
X95223571Y-78439152D01*
X95223571Y-78439152D02*
X95185476Y-78362961D01*
X95185476Y-78362961D02*
X95185476Y-78172485D01*
X95185476Y-78172485D02*
X95223571Y-78096295D01*
X95223571Y-78096295D02*
X95261666Y-78058200D01*
X95261666Y-78058200D02*
X95337857Y-78020104D01*
X95337857Y-78020104D02*
X95528333Y-78020104D01*
X95528333Y-78020104D02*
X95604523Y-78058200D01*
X95604523Y-78058200D02*
X95642619Y-78096295D01*
X142194895Y-102064285D02*
X141813942Y-102330952D01*
X142194895Y-102521428D02*
X141394895Y-102521428D01*
X141394895Y-102521428D02*
X141394895Y-102216666D01*
X141394895Y-102216666D02*
X141432990Y-102140476D01*
X141432990Y-102140476D02*
X141471085Y-102102381D01*
X141471085Y-102102381D02*
X141547276Y-102064285D01*
X141547276Y-102064285D02*
X141661561Y-102064285D01*
X141661561Y-102064285D02*
X141737752Y-102102381D01*
X141737752Y-102102381D02*
X141775847Y-102140476D01*
X141775847Y-102140476D02*
X141813942Y-102216666D01*
X141813942Y-102216666D02*
X141813942Y-102521428D01*
X141471085Y-101759524D02*
X141432990Y-101721428D01*
X141432990Y-101721428D02*
X141394895Y-101645238D01*
X141394895Y-101645238D02*
X141394895Y-101454762D01*
X141394895Y-101454762D02*
X141432990Y-101378571D01*
X141432990Y-101378571D02*
X141471085Y-101340476D01*
X141471085Y-101340476D02*
X141547276Y-101302381D01*
X141547276Y-101302381D02*
X141623466Y-101302381D01*
X141623466Y-101302381D02*
X141737752Y-101340476D01*
X141737752Y-101340476D02*
X142194895Y-101797619D01*
X142194895Y-101797619D02*
X142194895Y-101302381D01*
X141471085Y-100997619D02*
X141432990Y-100959523D01*
X141432990Y-100959523D02*
X141394895Y-100883333D01*
X141394895Y-100883333D02*
X141394895Y-100692857D01*
X141394895Y-100692857D02*
X141432990Y-100616666D01*
X141432990Y-100616666D02*
X141471085Y-100578571D01*
X141471085Y-100578571D02*
X141547276Y-100540476D01*
X141547276Y-100540476D02*
X141623466Y-100540476D01*
X141623466Y-100540476D02*
X141737752Y-100578571D01*
X141737752Y-100578571D02*
X142194895Y-101035714D01*
X142194895Y-101035714D02*
X142194895Y-100540476D01*
X111984895Y-118829523D02*
X112632514Y-118829523D01*
X112632514Y-118829523D02*
X112708704Y-118791428D01*
X112708704Y-118791428D02*
X112746800Y-118753333D01*
X112746800Y-118753333D02*
X112784895Y-118677142D01*
X112784895Y-118677142D02*
X112784895Y-118524761D01*
X112784895Y-118524761D02*
X112746800Y-118448571D01*
X112746800Y-118448571D02*
X112708704Y-118410476D01*
X112708704Y-118410476D02*
X112632514Y-118372380D01*
X112632514Y-118372380D02*
X111984895Y-118372380D01*
X111984895Y-118067619D02*
X111984895Y-117572381D01*
X111984895Y-117572381D02*
X112289657Y-117839047D01*
X112289657Y-117839047D02*
X112289657Y-117724762D01*
X112289657Y-117724762D02*
X112327752Y-117648571D01*
X112327752Y-117648571D02*
X112365847Y-117610476D01*
X112365847Y-117610476D02*
X112442038Y-117572381D01*
X112442038Y-117572381D02*
X112632514Y-117572381D01*
X112632514Y-117572381D02*
X112708704Y-117610476D01*
X112708704Y-117610476D02*
X112746800Y-117648571D01*
X112746800Y-117648571D02*
X112784895Y-117724762D01*
X112784895Y-117724762D02*
X112784895Y-117953333D01*
X112784895Y-117953333D02*
X112746800Y-118029524D01*
X112746800Y-118029524D02*
X112708704Y-118067619D01*
X131353333Y-125594895D02*
X131353333Y-126166323D01*
X131353333Y-126166323D02*
X131315238Y-126280609D01*
X131315238Y-126280609D02*
X131239047Y-126356800D01*
X131239047Y-126356800D02*
X131124762Y-126394895D01*
X131124762Y-126394895D02*
X131048571Y-126394895D01*
X132077143Y-125861561D02*
X132077143Y-126394895D01*
X131886667Y-125556800D02*
X131696190Y-126128228D01*
X131696190Y-126128228D02*
X132191429Y-126128228D01*
X141434895Y-134334285D02*
X142234895Y-134067618D01*
X142234895Y-134067618D02*
X141434895Y-133800952D01*
X142311085Y-133724762D02*
X142311085Y-133115238D01*
X141434895Y-132772380D02*
X141434895Y-132619999D01*
X141434895Y-132619999D02*
X141472990Y-132543809D01*
X141472990Y-132543809D02*
X141549180Y-132467618D01*
X141549180Y-132467618D02*
X141701561Y-132429523D01*
X141701561Y-132429523D02*
X141968228Y-132429523D01*
X141968228Y-132429523D02*
X142120609Y-132467618D01*
X142120609Y-132467618D02*
X142196800Y-132543809D01*
X142196800Y-132543809D02*
X142234895Y-132619999D01*
X142234895Y-132619999D02*
X142234895Y-132772380D01*
X142234895Y-132772380D02*
X142196800Y-132848571D01*
X142196800Y-132848571D02*
X142120609Y-132924761D01*
X142120609Y-132924761D02*
X141968228Y-132962857D01*
X141968228Y-132962857D02*
X141701561Y-132962857D01*
X141701561Y-132962857D02*
X141549180Y-132924761D01*
X141549180Y-132924761D02*
X141472990Y-132848571D01*
X141472990Y-132848571D02*
X141434895Y-132772380D01*
X141434895Y-132086666D02*
X142082514Y-132086666D01*
X142082514Y-132086666D02*
X142158704Y-132048571D01*
X142158704Y-132048571D02*
X142196800Y-132010476D01*
X142196800Y-132010476D02*
X142234895Y-131934285D01*
X142234895Y-131934285D02*
X142234895Y-131781904D01*
X142234895Y-131781904D02*
X142196800Y-131705714D01*
X142196800Y-131705714D02*
X142158704Y-131667619D01*
X142158704Y-131667619D02*
X142082514Y-131629523D01*
X142082514Y-131629523D02*
X141434895Y-131629523D01*
X141434895Y-131362857D02*
X141434895Y-130905714D01*
X142234895Y-131134286D02*
X141434895Y-131134286D01*
X131638895Y-121164285D02*
X131257942Y-121430952D01*
X131638895Y-121621428D02*
X130838895Y-121621428D01*
X130838895Y-121621428D02*
X130838895Y-121316666D01*
X130838895Y-121316666D02*
X130876990Y-121240476D01*
X130876990Y-121240476D02*
X130915085Y-121202381D01*
X130915085Y-121202381D02*
X130991276Y-121164285D01*
X130991276Y-121164285D02*
X131105561Y-121164285D01*
X131105561Y-121164285D02*
X131181752Y-121202381D01*
X131181752Y-121202381D02*
X131219847Y-121240476D01*
X131219847Y-121240476D02*
X131257942Y-121316666D01*
X131257942Y-121316666D02*
X131257942Y-121621428D01*
X130915085Y-120859524D02*
X130876990Y-120821428D01*
X130876990Y-120821428D02*
X130838895Y-120745238D01*
X130838895Y-120745238D02*
X130838895Y-120554762D01*
X130838895Y-120554762D02*
X130876990Y-120478571D01*
X130876990Y-120478571D02*
X130915085Y-120440476D01*
X130915085Y-120440476D02*
X130991276Y-120402381D01*
X130991276Y-120402381D02*
X131067466Y-120402381D01*
X131067466Y-120402381D02*
X131181752Y-120440476D01*
X131181752Y-120440476D02*
X131638895Y-120897619D01*
X131638895Y-120897619D02*
X131638895Y-120402381D01*
X131105561Y-119716666D02*
X131638895Y-119716666D01*
X130800800Y-119907142D02*
X131372228Y-120097619D01*
X131372228Y-120097619D02*
X131372228Y-119602380D01*
X96261085Y-84936190D02*
X96222990Y-85012380D01*
X96222990Y-85012380D02*
X96146800Y-85088571D01*
X96146800Y-85088571D02*
X96032514Y-85202857D01*
X96032514Y-85202857D02*
X95994419Y-85279047D01*
X95994419Y-85279047D02*
X95994419Y-85355238D01*
X96184895Y-85317142D02*
X96146800Y-85393333D01*
X96146800Y-85393333D02*
X96070609Y-85469523D01*
X96070609Y-85469523D02*
X95918228Y-85507619D01*
X95918228Y-85507619D02*
X95651561Y-85507619D01*
X95651561Y-85507619D02*
X95499180Y-85469523D01*
X95499180Y-85469523D02*
X95422990Y-85393333D01*
X95422990Y-85393333D02*
X95384895Y-85317142D01*
X95384895Y-85317142D02*
X95384895Y-85164761D01*
X95384895Y-85164761D02*
X95422990Y-85088571D01*
X95422990Y-85088571D02*
X95499180Y-85012380D01*
X95499180Y-85012380D02*
X95651561Y-84974285D01*
X95651561Y-84974285D02*
X95918228Y-84974285D01*
X95918228Y-84974285D02*
X96070609Y-85012380D01*
X96070609Y-85012380D02*
X96146800Y-85088571D01*
X96146800Y-85088571D02*
X96184895Y-85164761D01*
X96184895Y-85164761D02*
X96184895Y-85317142D01*
X95384895Y-84250476D02*
X95384895Y-84631428D01*
X95384895Y-84631428D02*
X95765847Y-84669524D01*
X95765847Y-84669524D02*
X95727752Y-84631428D01*
X95727752Y-84631428D02*
X95689657Y-84555238D01*
X95689657Y-84555238D02*
X95689657Y-84364762D01*
X95689657Y-84364762D02*
X95727752Y-84288571D01*
X95727752Y-84288571D02*
X95765847Y-84250476D01*
X95765847Y-84250476D02*
X95842038Y-84212381D01*
X95842038Y-84212381D02*
X96032514Y-84212381D01*
X96032514Y-84212381D02*
X96108704Y-84250476D01*
X96108704Y-84250476D02*
X96146800Y-84288571D01*
X96146800Y-84288571D02*
X96184895Y-84364762D01*
X96184895Y-84364762D02*
X96184895Y-84555238D01*
X96184895Y-84555238D02*
X96146800Y-84631428D01*
X96146800Y-84631428D02*
X96108704Y-84669524D01*
X102819571Y-85579847D02*
X103086237Y-85579847D01*
X103200523Y-85998895D02*
X102819571Y-85998895D01*
X102819571Y-85998895D02*
X102819571Y-85198895D01*
X102819571Y-85198895D02*
X103200523Y-85198895D01*
X97396619Y-85922704D02*
X97358523Y-85960800D01*
X97358523Y-85960800D02*
X97244238Y-85998895D01*
X97244238Y-85998895D02*
X97168047Y-85998895D01*
X97168047Y-85998895D02*
X97053761Y-85960800D01*
X97053761Y-85960800D02*
X96977571Y-85884609D01*
X96977571Y-85884609D02*
X96939476Y-85808419D01*
X96939476Y-85808419D02*
X96901380Y-85656038D01*
X96901380Y-85656038D02*
X96901380Y-85541752D01*
X96901380Y-85541752D02*
X96939476Y-85389371D01*
X96939476Y-85389371D02*
X96977571Y-85313180D01*
X96977571Y-85313180D02*
X97053761Y-85236990D01*
X97053761Y-85236990D02*
X97168047Y-85198895D01*
X97168047Y-85198895D02*
X97244238Y-85198895D01*
X97244238Y-85198895D02*
X97358523Y-85236990D01*
X97358523Y-85236990D02*
X97396619Y-85275085D01*
X100127142Y-85579847D02*
X100241428Y-85617942D01*
X100241428Y-85617942D02*
X100279523Y-85656038D01*
X100279523Y-85656038D02*
X100317619Y-85732228D01*
X100317619Y-85732228D02*
X100317619Y-85846514D01*
X100317619Y-85846514D02*
X100279523Y-85922704D01*
X100279523Y-85922704D02*
X100241428Y-85960800D01*
X100241428Y-85960800D02*
X100165238Y-85998895D01*
X100165238Y-85998895D02*
X99860476Y-85998895D01*
X99860476Y-85998895D02*
X99860476Y-85198895D01*
X99860476Y-85198895D02*
X100127142Y-85198895D01*
X100127142Y-85198895D02*
X100203333Y-85236990D01*
X100203333Y-85236990D02*
X100241428Y-85275085D01*
X100241428Y-85275085D02*
X100279523Y-85351276D01*
X100279523Y-85351276D02*
X100279523Y-85427466D01*
X100279523Y-85427466D02*
X100241428Y-85503657D01*
X100241428Y-85503657D02*
X100203333Y-85541752D01*
X100203333Y-85541752D02*
X100127142Y-85579847D01*
X100127142Y-85579847D02*
X99860476Y-85579847D01*
X87038704Y-123103332D02*
X87076800Y-123141428D01*
X87076800Y-123141428D02*
X87114895Y-123255713D01*
X87114895Y-123255713D02*
X87114895Y-123331904D01*
X87114895Y-123331904D02*
X87076800Y-123446190D01*
X87076800Y-123446190D02*
X87000609Y-123522380D01*
X87000609Y-123522380D02*
X86924419Y-123560475D01*
X86924419Y-123560475D02*
X86772038Y-123598571D01*
X86772038Y-123598571D02*
X86657752Y-123598571D01*
X86657752Y-123598571D02*
X86505371Y-123560475D01*
X86505371Y-123560475D02*
X86429180Y-123522380D01*
X86429180Y-123522380D02*
X86352990Y-123446190D01*
X86352990Y-123446190D02*
X86314895Y-123331904D01*
X86314895Y-123331904D02*
X86314895Y-123255713D01*
X86314895Y-123255713D02*
X86352990Y-123141428D01*
X86352990Y-123141428D02*
X86391085Y-123103332D01*
X86314895Y-122417618D02*
X86314895Y-122569999D01*
X86314895Y-122569999D02*
X86352990Y-122646190D01*
X86352990Y-122646190D02*
X86391085Y-122684285D01*
X86391085Y-122684285D02*
X86505371Y-122760475D01*
X86505371Y-122760475D02*
X86657752Y-122798571D01*
X86657752Y-122798571D02*
X86962514Y-122798571D01*
X86962514Y-122798571D02*
X87038704Y-122760475D01*
X87038704Y-122760475D02*
X87076800Y-122722380D01*
X87076800Y-122722380D02*
X87114895Y-122646190D01*
X87114895Y-122646190D02*
X87114895Y-122493809D01*
X87114895Y-122493809D02*
X87076800Y-122417618D01*
X87076800Y-122417618D02*
X87038704Y-122379523D01*
X87038704Y-122379523D02*
X86962514Y-122341428D01*
X86962514Y-122341428D02*
X86772038Y-122341428D01*
X86772038Y-122341428D02*
X86695847Y-122379523D01*
X86695847Y-122379523D02*
X86657752Y-122417618D01*
X86657752Y-122417618D02*
X86619657Y-122493809D01*
X86619657Y-122493809D02*
X86619657Y-122646190D01*
X86619657Y-122646190D02*
X86657752Y-122722380D01*
X86657752Y-122722380D02*
X86695847Y-122760475D01*
X86695847Y-122760475D02*
X86772038Y-122798571D01*
X107943704Y-101708332D02*
X107981800Y-101746428D01*
X107981800Y-101746428D02*
X108019895Y-101860713D01*
X108019895Y-101860713D02*
X108019895Y-101936904D01*
X108019895Y-101936904D02*
X107981800Y-102051190D01*
X107981800Y-102051190D02*
X107905609Y-102127380D01*
X107905609Y-102127380D02*
X107829419Y-102165475D01*
X107829419Y-102165475D02*
X107677038Y-102203571D01*
X107677038Y-102203571D02*
X107562752Y-102203571D01*
X107562752Y-102203571D02*
X107410371Y-102165475D01*
X107410371Y-102165475D02*
X107334180Y-102127380D01*
X107334180Y-102127380D02*
X107257990Y-102051190D01*
X107257990Y-102051190D02*
X107219895Y-101936904D01*
X107219895Y-101936904D02*
X107219895Y-101860713D01*
X107219895Y-101860713D02*
X107257990Y-101746428D01*
X107257990Y-101746428D02*
X107296085Y-101708332D01*
X107296085Y-101403571D02*
X107257990Y-101365475D01*
X107257990Y-101365475D02*
X107219895Y-101289285D01*
X107219895Y-101289285D02*
X107219895Y-101098809D01*
X107219895Y-101098809D02*
X107257990Y-101022618D01*
X107257990Y-101022618D02*
X107296085Y-100984523D01*
X107296085Y-100984523D02*
X107372276Y-100946428D01*
X107372276Y-100946428D02*
X107448466Y-100946428D01*
X107448466Y-100946428D02*
X107562752Y-100984523D01*
X107562752Y-100984523D02*
X108019895Y-101441666D01*
X108019895Y-101441666D02*
X108019895Y-100946428D01*
X90216667Y-89234895D02*
X89950000Y-88853942D01*
X89759524Y-89234895D02*
X89759524Y-88434895D01*
X89759524Y-88434895D02*
X90064286Y-88434895D01*
X90064286Y-88434895D02*
X90140476Y-88472990D01*
X90140476Y-88472990D02*
X90178571Y-88511085D01*
X90178571Y-88511085D02*
X90216667Y-88587276D01*
X90216667Y-88587276D02*
X90216667Y-88701561D01*
X90216667Y-88701561D02*
X90178571Y-88777752D01*
X90178571Y-88777752D02*
X90140476Y-88815847D01*
X90140476Y-88815847D02*
X90064286Y-88853942D01*
X90064286Y-88853942D02*
X89759524Y-88853942D01*
X90483333Y-88434895D02*
X90978571Y-88434895D01*
X90978571Y-88434895D02*
X90711905Y-88739657D01*
X90711905Y-88739657D02*
X90826190Y-88739657D01*
X90826190Y-88739657D02*
X90902381Y-88777752D01*
X90902381Y-88777752D02*
X90940476Y-88815847D01*
X90940476Y-88815847D02*
X90978571Y-88892038D01*
X90978571Y-88892038D02*
X90978571Y-89082514D01*
X90978571Y-89082514D02*
X90940476Y-89158704D01*
X90940476Y-89158704D02*
X90902381Y-89196800D01*
X90902381Y-89196800D02*
X90826190Y-89234895D01*
X90826190Y-89234895D02*
X90597619Y-89234895D01*
X90597619Y-89234895D02*
X90521428Y-89196800D01*
X90521428Y-89196800D02*
X90483333Y-89158704D01*
X113005714Y-124104895D02*
X112739047Y-123723942D01*
X112548571Y-124104895D02*
X112548571Y-123304895D01*
X112548571Y-123304895D02*
X112853333Y-123304895D01*
X112853333Y-123304895D02*
X112929523Y-123342990D01*
X112929523Y-123342990D02*
X112967618Y-123381085D01*
X112967618Y-123381085D02*
X113005714Y-123457276D01*
X113005714Y-123457276D02*
X113005714Y-123571561D01*
X113005714Y-123571561D02*
X112967618Y-123647752D01*
X112967618Y-123647752D02*
X112929523Y-123685847D01*
X112929523Y-123685847D02*
X112853333Y-123723942D01*
X112853333Y-123723942D02*
X112548571Y-123723942D01*
X113310475Y-123381085D02*
X113348571Y-123342990D01*
X113348571Y-123342990D02*
X113424761Y-123304895D01*
X113424761Y-123304895D02*
X113615237Y-123304895D01*
X113615237Y-123304895D02*
X113691428Y-123342990D01*
X113691428Y-123342990D02*
X113729523Y-123381085D01*
X113729523Y-123381085D02*
X113767618Y-123457276D01*
X113767618Y-123457276D02*
X113767618Y-123533466D01*
X113767618Y-123533466D02*
X113729523Y-123647752D01*
X113729523Y-123647752D02*
X113272380Y-124104895D01*
X113272380Y-124104895D02*
X113767618Y-124104895D01*
X114529523Y-124104895D02*
X114072380Y-124104895D01*
X114300952Y-124104895D02*
X114300952Y-123304895D01*
X114300952Y-123304895D02*
X114224761Y-123419180D01*
X114224761Y-123419180D02*
X114148571Y-123495371D01*
X114148571Y-123495371D02*
X114072380Y-123533466D01*
X142225104Y-84133333D02*
X141653676Y-84133333D01*
X141653676Y-84133333D02*
X141539390Y-84095238D01*
X141539390Y-84095238D02*
X141463200Y-84019047D01*
X141463200Y-84019047D02*
X141425104Y-83904762D01*
X141425104Y-83904762D02*
X141425104Y-83828571D01*
X142225104Y-84895238D02*
X142225104Y-84514286D01*
X142225104Y-84514286D02*
X141844152Y-84476190D01*
X141844152Y-84476190D02*
X141882247Y-84514286D01*
X141882247Y-84514286D02*
X141920342Y-84590476D01*
X141920342Y-84590476D02*
X141920342Y-84780952D01*
X141920342Y-84780952D02*
X141882247Y-84857143D01*
X141882247Y-84857143D02*
X141844152Y-84895238D01*
X141844152Y-84895238D02*
X141767961Y-84933333D01*
X141767961Y-84933333D02*
X141577485Y-84933333D01*
X141577485Y-84933333D02*
X141501295Y-84895238D01*
X141501295Y-84895238D02*
X141463200Y-84857143D01*
X141463200Y-84857143D02*
X141425104Y-84780952D01*
X141425104Y-84780952D02*
X141425104Y-84590476D01*
X141425104Y-84590476D02*
X141463200Y-84514286D01*
X141463200Y-84514286D02*
X141501295Y-84476190D01*
X120885714Y-117428704D02*
X120847618Y-117466800D01*
X120847618Y-117466800D02*
X120733333Y-117504895D01*
X120733333Y-117504895D02*
X120657142Y-117504895D01*
X120657142Y-117504895D02*
X120542856Y-117466800D01*
X120542856Y-117466800D02*
X120466666Y-117390609D01*
X120466666Y-117390609D02*
X120428571Y-117314419D01*
X120428571Y-117314419D02*
X120390475Y-117162038D01*
X120390475Y-117162038D02*
X120390475Y-117047752D01*
X120390475Y-117047752D02*
X120428571Y-116895371D01*
X120428571Y-116895371D02*
X120466666Y-116819180D01*
X120466666Y-116819180D02*
X120542856Y-116742990D01*
X120542856Y-116742990D02*
X120657142Y-116704895D01*
X120657142Y-116704895D02*
X120733333Y-116704895D01*
X120733333Y-116704895D02*
X120847618Y-116742990D01*
X120847618Y-116742990D02*
X120885714Y-116781085D01*
X121647618Y-117504895D02*
X121190475Y-117504895D01*
X121419047Y-117504895D02*
X121419047Y-116704895D01*
X121419047Y-116704895D02*
X121342856Y-116819180D01*
X121342856Y-116819180D02*
X121266666Y-116895371D01*
X121266666Y-116895371D02*
X121190475Y-116933466D01*
X122333333Y-116971561D02*
X122333333Y-117504895D01*
X122142857Y-116666800D02*
X121952380Y-117238228D01*
X121952380Y-117238228D02*
X122447619Y-117238228D01*
X108832667Y-86978895D02*
X108566000Y-86597942D01*
X108375524Y-86978895D02*
X108375524Y-86178895D01*
X108375524Y-86178895D02*
X108680286Y-86178895D01*
X108680286Y-86178895D02*
X108756476Y-86216990D01*
X108756476Y-86216990D02*
X108794571Y-86255085D01*
X108794571Y-86255085D02*
X108832667Y-86331276D01*
X108832667Y-86331276D02*
X108832667Y-86445561D01*
X108832667Y-86445561D02*
X108794571Y-86521752D01*
X108794571Y-86521752D02*
X108756476Y-86559847D01*
X108756476Y-86559847D02*
X108680286Y-86597942D01*
X108680286Y-86597942D02*
X108375524Y-86597942D01*
X109137428Y-86255085D02*
X109175524Y-86216990D01*
X109175524Y-86216990D02*
X109251714Y-86178895D01*
X109251714Y-86178895D02*
X109442190Y-86178895D01*
X109442190Y-86178895D02*
X109518381Y-86216990D01*
X109518381Y-86216990D02*
X109556476Y-86255085D01*
X109556476Y-86255085D02*
X109594571Y-86331276D01*
X109594571Y-86331276D02*
X109594571Y-86407466D01*
X109594571Y-86407466D02*
X109556476Y-86521752D01*
X109556476Y-86521752D02*
X109099333Y-86978895D01*
X109099333Y-86978895D02*
X109594571Y-86978895D01*
X92129524Y-132804895D02*
X92129524Y-132004895D01*
X92129524Y-132004895D02*
X92320000Y-132004895D01*
X92320000Y-132004895D02*
X92434286Y-132042990D01*
X92434286Y-132042990D02*
X92510476Y-132119180D01*
X92510476Y-132119180D02*
X92548571Y-132195371D01*
X92548571Y-132195371D02*
X92586667Y-132347752D01*
X92586667Y-132347752D02*
X92586667Y-132462038D01*
X92586667Y-132462038D02*
X92548571Y-132614419D01*
X92548571Y-132614419D02*
X92510476Y-132690609D01*
X92510476Y-132690609D02*
X92434286Y-132766800D01*
X92434286Y-132766800D02*
X92320000Y-132804895D01*
X92320000Y-132804895D02*
X92129524Y-132804895D01*
X92853333Y-132004895D02*
X93348571Y-132004895D01*
X93348571Y-132004895D02*
X93081905Y-132309657D01*
X93081905Y-132309657D02*
X93196190Y-132309657D01*
X93196190Y-132309657D02*
X93272381Y-132347752D01*
X93272381Y-132347752D02*
X93310476Y-132385847D01*
X93310476Y-132385847D02*
X93348571Y-132462038D01*
X93348571Y-132462038D02*
X93348571Y-132652514D01*
X93348571Y-132652514D02*
X93310476Y-132728704D01*
X93310476Y-132728704D02*
X93272381Y-132766800D01*
X93272381Y-132766800D02*
X93196190Y-132804895D01*
X93196190Y-132804895D02*
X92967619Y-132804895D01*
X92967619Y-132804895D02*
X92891428Y-132766800D01*
X92891428Y-132766800D02*
X92853333Y-132728704D01*
X103205476Y-133579895D02*
X103205476Y-132779895D01*
X103662619Y-133579895D02*
X103319761Y-133122752D01*
X103662619Y-132779895D02*
X103205476Y-133237038D01*
X89491666Y-73039895D02*
X89110714Y-73039895D01*
X89110714Y-73039895D02*
X89110714Y-72239895D01*
X90177380Y-73039895D02*
X89720237Y-73039895D01*
X89948809Y-73039895D02*
X89948809Y-72239895D01*
X89948809Y-72239895D02*
X89872618Y-72354180D01*
X89872618Y-72354180D02*
X89796428Y-72430371D01*
X89796428Y-72430371D02*
X89720237Y-72468466D01*
X105335104Y-83295714D02*
X105716057Y-83029047D01*
X105335104Y-82838571D02*
X106135104Y-82838571D01*
X106135104Y-82838571D02*
X106135104Y-83143333D01*
X106135104Y-83143333D02*
X106097009Y-83219523D01*
X106097009Y-83219523D02*
X106058914Y-83257618D01*
X106058914Y-83257618D02*
X105982723Y-83295714D01*
X105982723Y-83295714D02*
X105868438Y-83295714D01*
X105868438Y-83295714D02*
X105792247Y-83257618D01*
X105792247Y-83257618D02*
X105754152Y-83219523D01*
X105754152Y-83219523D02*
X105716057Y-83143333D01*
X105716057Y-83143333D02*
X105716057Y-82838571D01*
X105335104Y-84057618D02*
X105335104Y-83600475D01*
X105335104Y-83829047D02*
X106135104Y-83829047D01*
X106135104Y-83829047D02*
X106020819Y-83752856D01*
X106020819Y-83752856D02*
X105944628Y-83676666D01*
X105944628Y-83676666D02*
X105906533Y-83600475D01*
X106135104Y-84324285D02*
X106135104Y-84857619D01*
X106135104Y-84857619D02*
X105335104Y-84514761D01*
X100071309Y-136916085D02*
X99995119Y-136877990D01*
X99995119Y-136877990D02*
X99918928Y-136801800D01*
X99918928Y-136801800D02*
X99804642Y-136687514D01*
X99804642Y-136687514D02*
X99728452Y-136649419D01*
X99728452Y-136649419D02*
X99652261Y-136649419D01*
X99690357Y-136839895D02*
X99614166Y-136801800D01*
X99614166Y-136801800D02*
X99537976Y-136725609D01*
X99537976Y-136725609D02*
X99499880Y-136573228D01*
X99499880Y-136573228D02*
X99499880Y-136306561D01*
X99499880Y-136306561D02*
X99537976Y-136154180D01*
X99537976Y-136154180D02*
X99614166Y-136077990D01*
X99614166Y-136077990D02*
X99690357Y-136039895D01*
X99690357Y-136039895D02*
X99842738Y-136039895D01*
X99842738Y-136039895D02*
X99918928Y-136077990D01*
X99918928Y-136077990D02*
X99995119Y-136154180D01*
X99995119Y-136154180D02*
X100033214Y-136306561D01*
X100033214Y-136306561D02*
X100033214Y-136573228D01*
X100033214Y-136573228D02*
X99995119Y-136725609D01*
X99995119Y-136725609D02*
X99918928Y-136801800D01*
X99918928Y-136801800D02*
X99842738Y-136839895D01*
X99842738Y-136839895D02*
X99690357Y-136839895D01*
X100490356Y-136382752D02*
X100414166Y-136344657D01*
X100414166Y-136344657D02*
X100376071Y-136306561D01*
X100376071Y-136306561D02*
X100337975Y-136230371D01*
X100337975Y-136230371D02*
X100337975Y-136192276D01*
X100337975Y-136192276D02*
X100376071Y-136116085D01*
X100376071Y-136116085D02*
X100414166Y-136077990D01*
X100414166Y-136077990D02*
X100490356Y-136039895D01*
X100490356Y-136039895D02*
X100642737Y-136039895D01*
X100642737Y-136039895D02*
X100718928Y-136077990D01*
X100718928Y-136077990D02*
X100757023Y-136116085D01*
X100757023Y-136116085D02*
X100795118Y-136192276D01*
X100795118Y-136192276D02*
X100795118Y-136230371D01*
X100795118Y-136230371D02*
X100757023Y-136306561D01*
X100757023Y-136306561D02*
X100718928Y-136344657D01*
X100718928Y-136344657D02*
X100642737Y-136382752D01*
X100642737Y-136382752D02*
X100490356Y-136382752D01*
X100490356Y-136382752D02*
X100414166Y-136420847D01*
X100414166Y-136420847D02*
X100376071Y-136458942D01*
X100376071Y-136458942D02*
X100337975Y-136535133D01*
X100337975Y-136535133D02*
X100337975Y-136687514D01*
X100337975Y-136687514D02*
X100376071Y-136763704D01*
X100376071Y-136763704D02*
X100414166Y-136801800D01*
X100414166Y-136801800D02*
X100490356Y-136839895D01*
X100490356Y-136839895D02*
X100642737Y-136839895D01*
X100642737Y-136839895D02*
X100718928Y-136801800D01*
X100718928Y-136801800D02*
X100757023Y-136763704D01*
X100757023Y-136763704D02*
X100795118Y-136687514D01*
X100795118Y-136687514D02*
X100795118Y-136535133D01*
X100795118Y-136535133D02*
X100757023Y-136458942D01*
X100757023Y-136458942D02*
X100718928Y-136420847D01*
X100718928Y-136420847D02*
X100642737Y-136382752D01*
X97817023Y-142570490D02*
X97740833Y-142532395D01*
X97740833Y-142532395D02*
X97626547Y-142532395D01*
X97626547Y-142532395D02*
X97512261Y-142570490D01*
X97512261Y-142570490D02*
X97436071Y-142646680D01*
X97436071Y-142646680D02*
X97397976Y-142722871D01*
X97397976Y-142722871D02*
X97359880Y-142875252D01*
X97359880Y-142875252D02*
X97359880Y-142989538D01*
X97359880Y-142989538D02*
X97397976Y-143141919D01*
X97397976Y-143141919D02*
X97436071Y-143218109D01*
X97436071Y-143218109D02*
X97512261Y-143294300D01*
X97512261Y-143294300D02*
X97626547Y-143332395D01*
X97626547Y-143332395D02*
X97702738Y-143332395D01*
X97702738Y-143332395D02*
X97817023Y-143294300D01*
X97817023Y-143294300D02*
X97855119Y-143256204D01*
X97855119Y-143256204D02*
X97855119Y-142989538D01*
X97855119Y-142989538D02*
X97702738Y-142989538D01*
X99937976Y-143332395D02*
X99937976Y-142532395D01*
X99937976Y-142532395D02*
X100128452Y-142532395D01*
X100128452Y-142532395D02*
X100242738Y-142570490D01*
X100242738Y-142570490D02*
X100318928Y-142646680D01*
X100318928Y-142646680D02*
X100357023Y-142722871D01*
X100357023Y-142722871D02*
X100395119Y-142875252D01*
X100395119Y-142875252D02*
X100395119Y-142989538D01*
X100395119Y-142989538D02*
X100357023Y-143141919D01*
X100357023Y-143141919D02*
X100318928Y-143218109D01*
X100318928Y-143218109D02*
X100242738Y-143294300D01*
X100242738Y-143294300D02*
X100128452Y-143332395D01*
X100128452Y-143332395D02*
X99937976Y-143332395D01*
X102458928Y-143294300D02*
X102573214Y-143332395D01*
X102573214Y-143332395D02*
X102763690Y-143332395D01*
X102763690Y-143332395D02*
X102839881Y-143294300D01*
X102839881Y-143294300D02*
X102877976Y-143256204D01*
X102877976Y-143256204D02*
X102916071Y-143180014D01*
X102916071Y-143180014D02*
X102916071Y-143103823D01*
X102916071Y-143103823D02*
X102877976Y-143027633D01*
X102877976Y-143027633D02*
X102839881Y-142989538D01*
X102839881Y-142989538D02*
X102763690Y-142951442D01*
X102763690Y-142951442D02*
X102611309Y-142913347D01*
X102611309Y-142913347D02*
X102535119Y-142875252D01*
X102535119Y-142875252D02*
X102497024Y-142837157D01*
X102497024Y-142837157D02*
X102458928Y-142760966D01*
X102458928Y-142760966D02*
X102458928Y-142684776D01*
X102458928Y-142684776D02*
X102497024Y-142608585D01*
X102497024Y-142608585D02*
X102535119Y-142570490D01*
X102535119Y-142570490D02*
X102611309Y-142532395D01*
X102611309Y-142532395D02*
X102801786Y-142532395D01*
X102801786Y-142532395D02*
X102916071Y-142570490D01*
X105964523Y-91350104D02*
X105964523Y-90702485D01*
X105964523Y-90702485D02*
X105926428Y-90626295D01*
X105926428Y-90626295D02*
X105888333Y-90588200D01*
X105888333Y-90588200D02*
X105812142Y-90550104D01*
X105812142Y-90550104D02*
X105659761Y-90550104D01*
X105659761Y-90550104D02*
X105583571Y-90588200D01*
X105583571Y-90588200D02*
X105545476Y-90626295D01*
X105545476Y-90626295D02*
X105507380Y-90702485D01*
X105507380Y-90702485D02*
X105507380Y-91350104D01*
X105164524Y-91273914D02*
X105126428Y-91312009D01*
X105126428Y-91312009D02*
X105050238Y-91350104D01*
X105050238Y-91350104D02*
X104859762Y-91350104D01*
X104859762Y-91350104D02*
X104783571Y-91312009D01*
X104783571Y-91312009D02*
X104745476Y-91273914D01*
X104745476Y-91273914D02*
X104707381Y-91197723D01*
X104707381Y-91197723D02*
X104707381Y-91121533D01*
X104707381Y-91121533D02*
X104745476Y-91007247D01*
X104745476Y-91007247D02*
X105202619Y-90550104D01*
X105202619Y-90550104D02*
X104707381Y-90550104D01*
X78866667Y-99308704D02*
X78828571Y-99346800D01*
X78828571Y-99346800D02*
X78714286Y-99384895D01*
X78714286Y-99384895D02*
X78638095Y-99384895D01*
X78638095Y-99384895D02*
X78523809Y-99346800D01*
X78523809Y-99346800D02*
X78447619Y-99270609D01*
X78447619Y-99270609D02*
X78409524Y-99194419D01*
X78409524Y-99194419D02*
X78371428Y-99042038D01*
X78371428Y-99042038D02*
X78371428Y-98927752D01*
X78371428Y-98927752D02*
X78409524Y-98775371D01*
X78409524Y-98775371D02*
X78447619Y-98699180D01*
X78447619Y-98699180D02*
X78523809Y-98622990D01*
X78523809Y-98622990D02*
X78638095Y-98584895D01*
X78638095Y-98584895D02*
X78714286Y-98584895D01*
X78714286Y-98584895D02*
X78828571Y-98622990D01*
X78828571Y-98622990D02*
X78866667Y-98661085D01*
X79552381Y-98851561D02*
X79552381Y-99384895D01*
X79361905Y-98546800D02*
X79171428Y-99118228D01*
X79171428Y-99118228D02*
X79666667Y-99118228D01*
X126392704Y-101225332D02*
X126430800Y-101263428D01*
X126430800Y-101263428D02*
X126468895Y-101377713D01*
X126468895Y-101377713D02*
X126468895Y-101453904D01*
X126468895Y-101453904D02*
X126430800Y-101568190D01*
X126430800Y-101568190D02*
X126354609Y-101644380D01*
X126354609Y-101644380D02*
X126278419Y-101682475D01*
X126278419Y-101682475D02*
X126126038Y-101720571D01*
X126126038Y-101720571D02*
X126011752Y-101720571D01*
X126011752Y-101720571D02*
X125859371Y-101682475D01*
X125859371Y-101682475D02*
X125783180Y-101644380D01*
X125783180Y-101644380D02*
X125706990Y-101568190D01*
X125706990Y-101568190D02*
X125668895Y-101453904D01*
X125668895Y-101453904D02*
X125668895Y-101377713D01*
X125668895Y-101377713D02*
X125706990Y-101263428D01*
X125706990Y-101263428D02*
X125745085Y-101225332D01*
X126468895Y-100463428D02*
X126468895Y-100920571D01*
X126468895Y-100691999D02*
X125668895Y-100691999D01*
X125668895Y-100691999D02*
X125783180Y-100768190D01*
X125783180Y-100768190D02*
X125859371Y-100844380D01*
X125859371Y-100844380D02*
X125897466Y-100920571D01*
X117595714Y-89776296D02*
X117329047Y-89395343D01*
X117138571Y-89776296D02*
X117138571Y-88976296D01*
X117138571Y-88976296D02*
X117443333Y-88976296D01*
X117443333Y-88976296D02*
X117519523Y-89014391D01*
X117519523Y-89014391D02*
X117557618Y-89052486D01*
X117557618Y-89052486D02*
X117595714Y-89128677D01*
X117595714Y-89128677D02*
X117595714Y-89242962D01*
X117595714Y-89242962D02*
X117557618Y-89319153D01*
X117557618Y-89319153D02*
X117519523Y-89357248D01*
X117519523Y-89357248D02*
X117443333Y-89395343D01*
X117443333Y-89395343D02*
X117138571Y-89395343D01*
X117900475Y-89052486D02*
X117938571Y-89014391D01*
X117938571Y-89014391D02*
X118014761Y-88976296D01*
X118014761Y-88976296D02*
X118205237Y-88976296D01*
X118205237Y-88976296D02*
X118281428Y-89014391D01*
X118281428Y-89014391D02*
X118319523Y-89052486D01*
X118319523Y-89052486D02*
X118357618Y-89128677D01*
X118357618Y-89128677D02*
X118357618Y-89204867D01*
X118357618Y-89204867D02*
X118319523Y-89319153D01*
X118319523Y-89319153D02*
X117862380Y-89776296D01*
X117862380Y-89776296D02*
X118357618Y-89776296D01*
X119081428Y-88976296D02*
X118700476Y-88976296D01*
X118700476Y-88976296D02*
X118662380Y-89357248D01*
X118662380Y-89357248D02*
X118700476Y-89319153D01*
X118700476Y-89319153D02*
X118776666Y-89281058D01*
X118776666Y-89281058D02*
X118967142Y-89281058D01*
X118967142Y-89281058D02*
X119043333Y-89319153D01*
X119043333Y-89319153D02*
X119081428Y-89357248D01*
X119081428Y-89357248D02*
X119119523Y-89433439D01*
X119119523Y-89433439D02*
X119119523Y-89623915D01*
X119119523Y-89623915D02*
X119081428Y-89700105D01*
X119081428Y-89700105D02*
X119043333Y-89738201D01*
X119043333Y-89738201D02*
X118967142Y-89776296D01*
X118967142Y-89776296D02*
X118776666Y-89776296D01*
X118776666Y-89776296D02*
X118700476Y-89738201D01*
X118700476Y-89738201D02*
X118662380Y-89700105D01*
X115713104Y-99942714D02*
X116094057Y-99676047D01*
X115713104Y-99485571D02*
X116513104Y-99485571D01*
X116513104Y-99485571D02*
X116513104Y-99790333D01*
X116513104Y-99790333D02*
X116475009Y-99866523D01*
X116475009Y-99866523D02*
X116436914Y-99904618D01*
X116436914Y-99904618D02*
X116360723Y-99942714D01*
X116360723Y-99942714D02*
X116246438Y-99942714D01*
X116246438Y-99942714D02*
X116170247Y-99904618D01*
X116170247Y-99904618D02*
X116132152Y-99866523D01*
X116132152Y-99866523D02*
X116094057Y-99790333D01*
X116094057Y-99790333D02*
X116094057Y-99485571D01*
X116436914Y-100247475D02*
X116475009Y-100285571D01*
X116475009Y-100285571D02*
X116513104Y-100361761D01*
X116513104Y-100361761D02*
X116513104Y-100552237D01*
X116513104Y-100552237D02*
X116475009Y-100628428D01*
X116475009Y-100628428D02*
X116436914Y-100666523D01*
X116436914Y-100666523D02*
X116360723Y-100704618D01*
X116360723Y-100704618D02*
X116284533Y-100704618D01*
X116284533Y-100704618D02*
X116170247Y-100666523D01*
X116170247Y-100666523D02*
X115713104Y-100209380D01*
X115713104Y-100209380D02*
X115713104Y-100704618D01*
X116513104Y-101199857D02*
X116513104Y-101276047D01*
X116513104Y-101276047D02*
X116475009Y-101352238D01*
X116475009Y-101352238D02*
X116436914Y-101390333D01*
X116436914Y-101390333D02*
X116360723Y-101428428D01*
X116360723Y-101428428D02*
X116208342Y-101466523D01*
X116208342Y-101466523D02*
X116017866Y-101466523D01*
X116017866Y-101466523D02*
X115865485Y-101428428D01*
X115865485Y-101428428D02*
X115789295Y-101390333D01*
X115789295Y-101390333D02*
X115751200Y-101352238D01*
X115751200Y-101352238D02*
X115713104Y-101276047D01*
X115713104Y-101276047D02*
X115713104Y-101199857D01*
X115713104Y-101199857D02*
X115751200Y-101123666D01*
X115751200Y-101123666D02*
X115789295Y-101085571D01*
X115789295Y-101085571D02*
X115865485Y-101047476D01*
X115865485Y-101047476D02*
X116017866Y-101009380D01*
X116017866Y-101009380D02*
X116208342Y-101009380D01*
X116208342Y-101009380D02*
X116360723Y-101047476D01*
X116360723Y-101047476D02*
X116436914Y-101085571D01*
X116436914Y-101085571D02*
X116475009Y-101123666D01*
X116475009Y-101123666D02*
X116513104Y-101199857D01*
X105303333Y-76464895D02*
X105303333Y-77036323D01*
X105303333Y-77036323D02*
X105265238Y-77150609D01*
X105265238Y-77150609D02*
X105189047Y-77226800D01*
X105189047Y-77226800D02*
X105074762Y-77264895D01*
X105074762Y-77264895D02*
X104998571Y-77264895D01*
X106103333Y-77264895D02*
X105646190Y-77264895D01*
X105874762Y-77264895D02*
X105874762Y-76464895D01*
X105874762Y-76464895D02*
X105798571Y-76579180D01*
X105798571Y-76579180D02*
X105722381Y-76655371D01*
X105722381Y-76655371D02*
X105646190Y-76693466D01*
X112980951Y-67245104D02*
X112714284Y-66445104D01*
X112714284Y-66445104D02*
X112447618Y-67245104D01*
X112371428Y-66368914D02*
X111761904Y-66368914D01*
X111571427Y-66445104D02*
X111571427Y-67245104D01*
X111190475Y-66445104D02*
X111190475Y-67245104D01*
X111190475Y-67245104D02*
X110733332Y-66445104D01*
X110733332Y-66445104D02*
X110733332Y-67245104D01*
X99544895Y-121584285D02*
X99163942Y-121850952D01*
X99544895Y-122041428D02*
X98744895Y-122041428D01*
X98744895Y-122041428D02*
X98744895Y-121736666D01*
X98744895Y-121736666D02*
X98782990Y-121660476D01*
X98782990Y-121660476D02*
X98821085Y-121622381D01*
X98821085Y-121622381D02*
X98897276Y-121584285D01*
X98897276Y-121584285D02*
X99011561Y-121584285D01*
X99011561Y-121584285D02*
X99087752Y-121622381D01*
X99087752Y-121622381D02*
X99125847Y-121660476D01*
X99125847Y-121660476D02*
X99163942Y-121736666D01*
X99163942Y-121736666D02*
X99163942Y-122041428D01*
X99544895Y-120822381D02*
X99544895Y-121279524D01*
X99544895Y-121050952D02*
X98744895Y-121050952D01*
X98744895Y-121050952D02*
X98859180Y-121127143D01*
X98859180Y-121127143D02*
X98935371Y-121203333D01*
X98935371Y-121203333D02*
X98973466Y-121279524D01*
X99544895Y-120060476D02*
X99544895Y-120517619D01*
X99544895Y-120289047D02*
X98744895Y-120289047D01*
X98744895Y-120289047D02*
X98859180Y-120365238D01*
X98859180Y-120365238D02*
X98935371Y-120441428D01*
X98935371Y-120441428D02*
X98973466Y-120517619D01*
X127553809Y-81116085D02*
X127477619Y-81077990D01*
X127477619Y-81077990D02*
X127401428Y-81001800D01*
X127401428Y-81001800D02*
X127287142Y-80887514D01*
X127287142Y-80887514D02*
X127210952Y-80849419D01*
X127210952Y-80849419D02*
X127134761Y-80849419D01*
X127172857Y-81039895D02*
X127096666Y-81001800D01*
X127096666Y-81001800D02*
X127020476Y-80925609D01*
X127020476Y-80925609D02*
X126982380Y-80773228D01*
X126982380Y-80773228D02*
X126982380Y-80506561D01*
X126982380Y-80506561D02*
X127020476Y-80354180D01*
X127020476Y-80354180D02*
X127096666Y-80277990D01*
X127096666Y-80277990D02*
X127172857Y-80239895D01*
X127172857Y-80239895D02*
X127325238Y-80239895D01*
X127325238Y-80239895D02*
X127401428Y-80277990D01*
X127401428Y-80277990D02*
X127477619Y-80354180D01*
X127477619Y-80354180D02*
X127515714Y-80506561D01*
X127515714Y-80506561D02*
X127515714Y-80773228D01*
X127515714Y-80773228D02*
X127477619Y-80925609D01*
X127477619Y-80925609D02*
X127401428Y-81001800D01*
X127401428Y-81001800D02*
X127325238Y-81039895D01*
X127325238Y-81039895D02*
X127172857Y-81039895D01*
X127782380Y-80239895D02*
X128277618Y-80239895D01*
X128277618Y-80239895D02*
X128010952Y-80544657D01*
X128010952Y-80544657D02*
X128125237Y-80544657D01*
X128125237Y-80544657D02*
X128201428Y-80582752D01*
X128201428Y-80582752D02*
X128239523Y-80620847D01*
X128239523Y-80620847D02*
X128277618Y-80697038D01*
X128277618Y-80697038D02*
X128277618Y-80887514D01*
X128277618Y-80887514D02*
X128239523Y-80963704D01*
X128239523Y-80963704D02*
X128201428Y-81001800D01*
X128201428Y-81001800D02*
X128125237Y-81039895D01*
X128125237Y-81039895D02*
X127896666Y-81039895D01*
X127896666Y-81039895D02*
X127820475Y-81001800D01*
X127820475Y-81001800D02*
X127782380Y-80963704D01*
X126110152Y-87849571D02*
X126110152Y-88116237D01*
X125691104Y-88230523D02*
X125691104Y-87849571D01*
X125691104Y-87849571D02*
X126491104Y-87849571D01*
X126491104Y-87849571D02*
X126491104Y-88230523D01*
X126110152Y-85157142D02*
X126072057Y-85271428D01*
X126072057Y-85271428D02*
X126033961Y-85309523D01*
X126033961Y-85309523D02*
X125957771Y-85347619D01*
X125957771Y-85347619D02*
X125843485Y-85347619D01*
X125843485Y-85347619D02*
X125767295Y-85309523D01*
X125767295Y-85309523D02*
X125729200Y-85271428D01*
X125729200Y-85271428D02*
X125691104Y-85195238D01*
X125691104Y-85195238D02*
X125691104Y-84890476D01*
X125691104Y-84890476D02*
X126491104Y-84890476D01*
X126491104Y-84890476D02*
X126491104Y-85157142D01*
X126491104Y-85157142D02*
X126453009Y-85233333D01*
X126453009Y-85233333D02*
X126414914Y-85271428D01*
X126414914Y-85271428D02*
X126338723Y-85309523D01*
X126338723Y-85309523D02*
X126262533Y-85309523D01*
X126262533Y-85309523D02*
X126186342Y-85271428D01*
X126186342Y-85271428D02*
X126148247Y-85233333D01*
X126148247Y-85233333D02*
X126110152Y-85157142D01*
X126110152Y-85157142D02*
X126110152Y-84890476D01*
X125767295Y-82426619D02*
X125729200Y-82388523D01*
X125729200Y-82388523D02*
X125691104Y-82274238D01*
X125691104Y-82274238D02*
X125691104Y-82198047D01*
X125691104Y-82198047D02*
X125729200Y-82083761D01*
X125729200Y-82083761D02*
X125805390Y-82007571D01*
X125805390Y-82007571D02*
X125881580Y-81969476D01*
X125881580Y-81969476D02*
X126033961Y-81931380D01*
X126033961Y-81931380D02*
X126148247Y-81931380D01*
X126148247Y-81931380D02*
X126300628Y-81969476D01*
X126300628Y-81969476D02*
X126376819Y-82007571D01*
X126376819Y-82007571D02*
X126453009Y-82083761D01*
X126453009Y-82083761D02*
X126491104Y-82198047D01*
X126491104Y-82198047D02*
X126491104Y-82274238D01*
X126491104Y-82274238D02*
X126453009Y-82388523D01*
X126453009Y-82388523D02*
X126414914Y-82426619D01*
X126343333Y-75474895D02*
X126343333Y-76046323D01*
X126343333Y-76046323D02*
X126305238Y-76160609D01*
X126305238Y-76160609D02*
X126229047Y-76236800D01*
X126229047Y-76236800D02*
X126114762Y-76274895D01*
X126114762Y-76274895D02*
X126038571Y-76274895D01*
X126648095Y-75474895D02*
X127143333Y-75474895D01*
X127143333Y-75474895D02*
X126876667Y-75779657D01*
X126876667Y-75779657D02*
X126990952Y-75779657D01*
X126990952Y-75779657D02*
X127067143Y-75817752D01*
X127067143Y-75817752D02*
X127105238Y-75855847D01*
X127105238Y-75855847D02*
X127143333Y-75932038D01*
X127143333Y-75932038D02*
X127143333Y-76122514D01*
X127143333Y-76122514D02*
X127105238Y-76198704D01*
X127105238Y-76198704D02*
X127067143Y-76236800D01*
X127067143Y-76236800D02*
X126990952Y-76274895D01*
X126990952Y-76274895D02*
X126762381Y-76274895D01*
X126762381Y-76274895D02*
X126686190Y-76236800D01*
X126686190Y-76236800D02*
X126648095Y-76198704D01*
X128101666Y-67245104D02*
X128482618Y-67245104D01*
X128482618Y-67245104D02*
X128520714Y-66864152D01*
X128520714Y-66864152D02*
X128482618Y-66902247D01*
X128482618Y-66902247D02*
X128406428Y-66940342D01*
X128406428Y-66940342D02*
X128215952Y-66940342D01*
X128215952Y-66940342D02*
X128139761Y-66902247D01*
X128139761Y-66902247D02*
X128101666Y-66864152D01*
X128101666Y-66864152D02*
X128063571Y-66787961D01*
X128063571Y-66787961D02*
X128063571Y-66597485D01*
X128063571Y-66597485D02*
X128101666Y-66521295D01*
X128101666Y-66521295D02*
X128139761Y-66483200D01*
X128139761Y-66483200D02*
X128215952Y-66445104D01*
X128215952Y-66445104D02*
X128406428Y-66445104D01*
X128406428Y-66445104D02*
X128482618Y-66483200D01*
X128482618Y-66483200D02*
X128520714Y-66521295D01*
X127834999Y-67245104D02*
X127568332Y-66445104D01*
X127568332Y-66445104D02*
X127301666Y-67245104D01*
X127225476Y-66368914D02*
X126615952Y-66368914D01*
X126425475Y-66445104D02*
X126425475Y-67245104D01*
X126044523Y-66445104D02*
X126044523Y-67245104D01*
X126044523Y-67245104D02*
X125587380Y-66445104D01*
X125587380Y-66445104D02*
X125587380Y-67245104D01*
X134294895Y-102034285D02*
X133913942Y-102300952D01*
X134294895Y-102491428D02*
X133494895Y-102491428D01*
X133494895Y-102491428D02*
X133494895Y-102186666D01*
X133494895Y-102186666D02*
X133532990Y-102110476D01*
X133532990Y-102110476D02*
X133571085Y-102072381D01*
X133571085Y-102072381D02*
X133647276Y-102034285D01*
X133647276Y-102034285D02*
X133761561Y-102034285D01*
X133761561Y-102034285D02*
X133837752Y-102072381D01*
X133837752Y-102072381D02*
X133875847Y-102110476D01*
X133875847Y-102110476D02*
X133913942Y-102186666D01*
X133913942Y-102186666D02*
X133913942Y-102491428D01*
X133571085Y-101729524D02*
X133532990Y-101691428D01*
X133532990Y-101691428D02*
X133494895Y-101615238D01*
X133494895Y-101615238D02*
X133494895Y-101424762D01*
X133494895Y-101424762D02*
X133532990Y-101348571D01*
X133532990Y-101348571D02*
X133571085Y-101310476D01*
X133571085Y-101310476D02*
X133647276Y-101272381D01*
X133647276Y-101272381D02*
X133723466Y-101272381D01*
X133723466Y-101272381D02*
X133837752Y-101310476D01*
X133837752Y-101310476D02*
X134294895Y-101767619D01*
X134294895Y-101767619D02*
X134294895Y-101272381D01*
X133494895Y-101005714D02*
X133494895Y-100510476D01*
X133494895Y-100510476D02*
X133799657Y-100777142D01*
X133799657Y-100777142D02*
X133799657Y-100662857D01*
X133799657Y-100662857D02*
X133837752Y-100586666D01*
X133837752Y-100586666D02*
X133875847Y-100548571D01*
X133875847Y-100548571D02*
X133952038Y-100510476D01*
X133952038Y-100510476D02*
X134142514Y-100510476D01*
X134142514Y-100510476D02*
X134218704Y-100548571D01*
X134218704Y-100548571D02*
X134256800Y-100586666D01*
X134256800Y-100586666D02*
X134294895Y-100662857D01*
X134294895Y-100662857D02*
X134294895Y-100891428D01*
X134294895Y-100891428D02*
X134256800Y-100967619D01*
X134256800Y-100967619D02*
X134218704Y-101005714D01*
X87038704Y-113853332D02*
X87076800Y-113891428D01*
X87076800Y-113891428D02*
X87114895Y-114005713D01*
X87114895Y-114005713D02*
X87114895Y-114081904D01*
X87114895Y-114081904D02*
X87076800Y-114196190D01*
X87076800Y-114196190D02*
X87000609Y-114272380D01*
X87000609Y-114272380D02*
X86924419Y-114310475D01*
X86924419Y-114310475D02*
X86772038Y-114348571D01*
X86772038Y-114348571D02*
X86657752Y-114348571D01*
X86657752Y-114348571D02*
X86505371Y-114310475D01*
X86505371Y-114310475D02*
X86429180Y-114272380D01*
X86429180Y-114272380D02*
X86352990Y-114196190D01*
X86352990Y-114196190D02*
X86314895Y-114081904D01*
X86314895Y-114081904D02*
X86314895Y-114005713D01*
X86314895Y-114005713D02*
X86352990Y-113891428D01*
X86352990Y-113891428D02*
X86391085Y-113853332D01*
X87114895Y-113472380D02*
X87114895Y-113319999D01*
X87114895Y-113319999D02*
X87076800Y-113243809D01*
X87076800Y-113243809D02*
X87038704Y-113205713D01*
X87038704Y-113205713D02*
X86924419Y-113129523D01*
X86924419Y-113129523D02*
X86772038Y-113091428D01*
X86772038Y-113091428D02*
X86467276Y-113091428D01*
X86467276Y-113091428D02*
X86391085Y-113129523D01*
X86391085Y-113129523D02*
X86352990Y-113167618D01*
X86352990Y-113167618D02*
X86314895Y-113243809D01*
X86314895Y-113243809D02*
X86314895Y-113396190D01*
X86314895Y-113396190D02*
X86352990Y-113472380D01*
X86352990Y-113472380D02*
X86391085Y-113510475D01*
X86391085Y-113510475D02*
X86467276Y-113548571D01*
X86467276Y-113548571D02*
X86657752Y-113548571D01*
X86657752Y-113548571D02*
X86733942Y-113510475D01*
X86733942Y-113510475D02*
X86772038Y-113472380D01*
X86772038Y-113472380D02*
X86810133Y-113396190D01*
X86810133Y-113396190D02*
X86810133Y-113243809D01*
X86810133Y-113243809D02*
X86772038Y-113167618D01*
X86772038Y-113167618D02*
X86733942Y-113129523D01*
X86733942Y-113129523D02*
X86657752Y-113091428D01*
X91905714Y-129604895D02*
X91639047Y-129223942D01*
X91448571Y-129604895D02*
X91448571Y-128804895D01*
X91448571Y-128804895D02*
X91753333Y-128804895D01*
X91753333Y-128804895D02*
X91829523Y-128842990D01*
X91829523Y-128842990D02*
X91867618Y-128881085D01*
X91867618Y-128881085D02*
X91905714Y-128957276D01*
X91905714Y-128957276D02*
X91905714Y-129071561D01*
X91905714Y-129071561D02*
X91867618Y-129147752D01*
X91867618Y-129147752D02*
X91829523Y-129185847D01*
X91829523Y-129185847D02*
X91753333Y-129223942D01*
X91753333Y-129223942D02*
X91448571Y-129223942D01*
X92667618Y-129604895D02*
X92210475Y-129604895D01*
X92439047Y-129604895D02*
X92439047Y-128804895D01*
X92439047Y-128804895D02*
X92362856Y-128919180D01*
X92362856Y-128919180D02*
X92286666Y-128995371D01*
X92286666Y-128995371D02*
X92210475Y-129033466D01*
X93124761Y-129147752D02*
X93048571Y-129109657D01*
X93048571Y-129109657D02*
X93010476Y-129071561D01*
X93010476Y-129071561D02*
X92972380Y-128995371D01*
X92972380Y-128995371D02*
X92972380Y-128957276D01*
X92972380Y-128957276D02*
X93010476Y-128881085D01*
X93010476Y-128881085D02*
X93048571Y-128842990D01*
X93048571Y-128842990D02*
X93124761Y-128804895D01*
X93124761Y-128804895D02*
X93277142Y-128804895D01*
X93277142Y-128804895D02*
X93353333Y-128842990D01*
X93353333Y-128842990D02*
X93391428Y-128881085D01*
X93391428Y-128881085D02*
X93429523Y-128957276D01*
X93429523Y-128957276D02*
X93429523Y-128995371D01*
X93429523Y-128995371D02*
X93391428Y-129071561D01*
X93391428Y-129071561D02*
X93353333Y-129109657D01*
X93353333Y-129109657D02*
X93277142Y-129147752D01*
X93277142Y-129147752D02*
X93124761Y-129147752D01*
X93124761Y-129147752D02*
X93048571Y-129185847D01*
X93048571Y-129185847D02*
X93010476Y-129223942D01*
X93010476Y-129223942D02*
X92972380Y-129300133D01*
X92972380Y-129300133D02*
X92972380Y-129452514D01*
X92972380Y-129452514D02*
X93010476Y-129528704D01*
X93010476Y-129528704D02*
X93048571Y-129566800D01*
X93048571Y-129566800D02*
X93124761Y-129604895D01*
X93124761Y-129604895D02*
X93277142Y-129604895D01*
X93277142Y-129604895D02*
X93353333Y-129566800D01*
X93353333Y-129566800D02*
X93391428Y-129528704D01*
X93391428Y-129528704D02*
X93429523Y-129452514D01*
X93429523Y-129452514D02*
X93429523Y-129300133D01*
X93429523Y-129300133D02*
X93391428Y-129223942D01*
X93391428Y-129223942D02*
X93353333Y-129185847D01*
X93353333Y-129185847D02*
X93277142Y-129147752D01*
X91314895Y-103853332D02*
X90933942Y-104119999D01*
X91314895Y-104310475D02*
X90514895Y-104310475D01*
X90514895Y-104310475D02*
X90514895Y-104005713D01*
X90514895Y-104005713D02*
X90552990Y-103929523D01*
X90552990Y-103929523D02*
X90591085Y-103891428D01*
X90591085Y-103891428D02*
X90667276Y-103853332D01*
X90667276Y-103853332D02*
X90781561Y-103853332D01*
X90781561Y-103853332D02*
X90857752Y-103891428D01*
X90857752Y-103891428D02*
X90895847Y-103929523D01*
X90895847Y-103929523D02*
X90933942Y-104005713D01*
X90933942Y-104005713D02*
X90933942Y-104310475D01*
X90781561Y-103167618D02*
X91314895Y-103167618D01*
X90476800Y-103358094D02*
X91048228Y-103548571D01*
X91048228Y-103548571D02*
X91048228Y-103053332D01*
X91291667Y-125204895D02*
X91025000Y-124823942D01*
X90834524Y-125204895D02*
X90834524Y-124404895D01*
X90834524Y-124404895D02*
X91139286Y-124404895D01*
X91139286Y-124404895D02*
X91215476Y-124442990D01*
X91215476Y-124442990D02*
X91253571Y-124481085D01*
X91253571Y-124481085D02*
X91291667Y-124557276D01*
X91291667Y-124557276D02*
X91291667Y-124671561D01*
X91291667Y-124671561D02*
X91253571Y-124747752D01*
X91253571Y-124747752D02*
X91215476Y-124785847D01*
X91215476Y-124785847D02*
X91139286Y-124823942D01*
X91139286Y-124823942D02*
X90834524Y-124823942D01*
X91977381Y-124404895D02*
X91825000Y-124404895D01*
X91825000Y-124404895D02*
X91748809Y-124442990D01*
X91748809Y-124442990D02*
X91710714Y-124481085D01*
X91710714Y-124481085D02*
X91634524Y-124595371D01*
X91634524Y-124595371D02*
X91596428Y-124747752D01*
X91596428Y-124747752D02*
X91596428Y-125052514D01*
X91596428Y-125052514D02*
X91634524Y-125128704D01*
X91634524Y-125128704D02*
X91672619Y-125166800D01*
X91672619Y-125166800D02*
X91748809Y-125204895D01*
X91748809Y-125204895D02*
X91901190Y-125204895D01*
X91901190Y-125204895D02*
X91977381Y-125166800D01*
X91977381Y-125166800D02*
X92015476Y-125128704D01*
X92015476Y-125128704D02*
X92053571Y-125052514D01*
X92053571Y-125052514D02*
X92053571Y-124862038D01*
X92053571Y-124862038D02*
X92015476Y-124785847D01*
X92015476Y-124785847D02*
X91977381Y-124747752D01*
X91977381Y-124747752D02*
X91901190Y-124709657D01*
X91901190Y-124709657D02*
X91748809Y-124709657D01*
X91748809Y-124709657D02*
X91672619Y-124747752D01*
X91672619Y-124747752D02*
X91634524Y-124785847D01*
X91634524Y-124785847D02*
X91596428Y-124862038D01*
X128675714Y-115468704D02*
X128637618Y-115506800D01*
X128637618Y-115506800D02*
X128523333Y-115544895D01*
X128523333Y-115544895D02*
X128447142Y-115544895D01*
X128447142Y-115544895D02*
X128332856Y-115506800D01*
X128332856Y-115506800D02*
X128256666Y-115430609D01*
X128256666Y-115430609D02*
X128218571Y-115354419D01*
X128218571Y-115354419D02*
X128180475Y-115202038D01*
X128180475Y-115202038D02*
X128180475Y-115087752D01*
X128180475Y-115087752D02*
X128218571Y-114935371D01*
X128218571Y-114935371D02*
X128256666Y-114859180D01*
X128256666Y-114859180D02*
X128332856Y-114782990D01*
X128332856Y-114782990D02*
X128447142Y-114744895D01*
X128447142Y-114744895D02*
X128523333Y-114744895D01*
X128523333Y-114744895D02*
X128637618Y-114782990D01*
X128637618Y-114782990D02*
X128675714Y-114821085D01*
X129437618Y-115544895D02*
X128980475Y-115544895D01*
X129209047Y-115544895D02*
X129209047Y-114744895D01*
X129209047Y-114744895D02*
X129132856Y-114859180D01*
X129132856Y-114859180D02*
X129056666Y-114935371D01*
X129056666Y-114935371D02*
X128980475Y-114973466D01*
X129704285Y-114744895D02*
X130199523Y-114744895D01*
X130199523Y-114744895D02*
X129932857Y-115049657D01*
X129932857Y-115049657D02*
X130047142Y-115049657D01*
X130047142Y-115049657D02*
X130123333Y-115087752D01*
X130123333Y-115087752D02*
X130161428Y-115125847D01*
X130161428Y-115125847D02*
X130199523Y-115202038D01*
X130199523Y-115202038D02*
X130199523Y-115392514D01*
X130199523Y-115392514D02*
X130161428Y-115468704D01*
X130161428Y-115468704D02*
X130123333Y-115506800D01*
X130123333Y-115506800D02*
X130047142Y-115544895D01*
X130047142Y-115544895D02*
X129818571Y-115544895D01*
X129818571Y-115544895D02*
X129742380Y-115506800D01*
X129742380Y-115506800D02*
X129704285Y-115468704D01*
X118837024Y-135074895D02*
X118837024Y-134274895D01*
X118837024Y-134655847D02*
X119294167Y-134655847D01*
X119294167Y-135074895D02*
X119294167Y-134274895D01*
X119637023Y-135036800D02*
X119751309Y-135074895D01*
X119751309Y-135074895D02*
X119941785Y-135074895D01*
X119941785Y-135074895D02*
X120017976Y-135036800D01*
X120017976Y-135036800D02*
X120056071Y-134998704D01*
X120056071Y-134998704D02*
X120094166Y-134922514D01*
X120094166Y-134922514D02*
X120094166Y-134846323D01*
X120094166Y-134846323D02*
X120056071Y-134770133D01*
X120056071Y-134770133D02*
X120017976Y-134732038D01*
X120017976Y-134732038D02*
X119941785Y-134693942D01*
X119941785Y-134693942D02*
X119789404Y-134655847D01*
X119789404Y-134655847D02*
X119713214Y-134617752D01*
X119713214Y-134617752D02*
X119675119Y-134579657D01*
X119675119Y-134579657D02*
X119637023Y-134503466D01*
X119637023Y-134503466D02*
X119637023Y-134427276D01*
X119637023Y-134427276D02*
X119675119Y-134351085D01*
X119675119Y-134351085D02*
X119713214Y-134312990D01*
X119713214Y-134312990D02*
X119789404Y-134274895D01*
X119789404Y-134274895D02*
X119979881Y-134274895D01*
X119979881Y-134274895D02*
X120094166Y-134312990D01*
X120856071Y-135074895D02*
X120398928Y-135074895D01*
X120627500Y-135074895D02*
X120627500Y-134274895D01*
X120627500Y-134274895D02*
X120551309Y-134389180D01*
X120551309Y-134389180D02*
X120475119Y-134465371D01*
X120475119Y-134465371D02*
X120398928Y-134503466D01*
X84465476Y-142959895D02*
X84465476Y-142159895D01*
X84465476Y-142540847D02*
X84922619Y-142540847D01*
X84922619Y-142959895D02*
X84922619Y-142159895D01*
X85227380Y-142159895D02*
X85722618Y-142159895D01*
X85722618Y-142159895D02*
X85455952Y-142464657D01*
X85455952Y-142464657D02*
X85570237Y-142464657D01*
X85570237Y-142464657D02*
X85646428Y-142502752D01*
X85646428Y-142502752D02*
X85684523Y-142540847D01*
X85684523Y-142540847D02*
X85722618Y-142617038D01*
X85722618Y-142617038D02*
X85722618Y-142807514D01*
X85722618Y-142807514D02*
X85684523Y-142883704D01*
X85684523Y-142883704D02*
X85646428Y-142921800D01*
X85646428Y-142921800D02*
X85570237Y-142959895D01*
X85570237Y-142959895D02*
X85341666Y-142959895D01*
X85341666Y-142959895D02*
X85265475Y-142921800D01*
X85265475Y-142921800D02*
X85227380Y-142883704D01*
X138390476Y-139184895D02*
X138390476Y-138384895D01*
X138390476Y-138765847D02*
X138847619Y-138765847D01*
X138847619Y-139184895D02*
X138847619Y-138384895D01*
X139571428Y-138651561D02*
X139571428Y-139184895D01*
X139380952Y-138346800D02*
X139190475Y-138918228D01*
X139190475Y-138918228D02*
X139685714Y-138918228D01*
X134416809Y-109280085D02*
X134340619Y-109241990D01*
X134340619Y-109241990D02*
X134264428Y-109165800D01*
X134264428Y-109165800D02*
X134150142Y-109051514D01*
X134150142Y-109051514D02*
X134073952Y-109013419D01*
X134073952Y-109013419D02*
X133997761Y-109013419D01*
X134035857Y-109203895D02*
X133959666Y-109165800D01*
X133959666Y-109165800D02*
X133883476Y-109089609D01*
X133883476Y-109089609D02*
X133845380Y-108937228D01*
X133845380Y-108937228D02*
X133845380Y-108670561D01*
X133845380Y-108670561D02*
X133883476Y-108518180D01*
X133883476Y-108518180D02*
X133959666Y-108441990D01*
X133959666Y-108441990D02*
X134035857Y-108403895D01*
X134035857Y-108403895D02*
X134188238Y-108403895D01*
X134188238Y-108403895D02*
X134264428Y-108441990D01*
X134264428Y-108441990D02*
X134340619Y-108518180D01*
X134340619Y-108518180D02*
X134378714Y-108670561D01*
X134378714Y-108670561D02*
X134378714Y-108937228D01*
X134378714Y-108937228D02*
X134340619Y-109089609D01*
X134340619Y-109089609D02*
X134264428Y-109165800D01*
X134264428Y-109165800D02*
X134188238Y-109203895D01*
X134188238Y-109203895D02*
X134035857Y-109203895D01*
X135140618Y-109203895D02*
X134683475Y-109203895D01*
X134912047Y-109203895D02*
X134912047Y-108403895D01*
X134912047Y-108403895D02*
X134835856Y-108518180D01*
X134835856Y-108518180D02*
X134759666Y-108594371D01*
X134759666Y-108594371D02*
X134683475Y-108632466D01*
X128822428Y-110798152D02*
X128555762Y-110798152D01*
X128441476Y-110379104D02*
X128822428Y-110379104D01*
X128822428Y-110379104D02*
X128822428Y-111179104D01*
X128822428Y-111179104D02*
X128441476Y-111179104D01*
X131514857Y-110798152D02*
X131400571Y-110760057D01*
X131400571Y-110760057D02*
X131362476Y-110721961D01*
X131362476Y-110721961D02*
X131324380Y-110645771D01*
X131324380Y-110645771D02*
X131324380Y-110531485D01*
X131324380Y-110531485D02*
X131362476Y-110455295D01*
X131362476Y-110455295D02*
X131400571Y-110417200D01*
X131400571Y-110417200D02*
X131476761Y-110379104D01*
X131476761Y-110379104D02*
X131781523Y-110379104D01*
X131781523Y-110379104D02*
X131781523Y-111179104D01*
X131781523Y-111179104D02*
X131514857Y-111179104D01*
X131514857Y-111179104D02*
X131438666Y-111141009D01*
X131438666Y-111141009D02*
X131400571Y-111102914D01*
X131400571Y-111102914D02*
X131362476Y-111026723D01*
X131362476Y-111026723D02*
X131362476Y-110950533D01*
X131362476Y-110950533D02*
X131400571Y-110874342D01*
X131400571Y-110874342D02*
X131438666Y-110836247D01*
X131438666Y-110836247D02*
X131514857Y-110798152D01*
X131514857Y-110798152D02*
X131781523Y-110798152D01*
X134245380Y-110455295D02*
X134283476Y-110417200D01*
X134283476Y-110417200D02*
X134397761Y-110379104D01*
X134397761Y-110379104D02*
X134473952Y-110379104D01*
X134473952Y-110379104D02*
X134588238Y-110417200D01*
X134588238Y-110417200D02*
X134664428Y-110493390D01*
X134664428Y-110493390D02*
X134702523Y-110569580D01*
X134702523Y-110569580D02*
X134740619Y-110721961D01*
X134740619Y-110721961D02*
X134740619Y-110836247D01*
X134740619Y-110836247D02*
X134702523Y-110988628D01*
X134702523Y-110988628D02*
X134664428Y-111064819D01*
X134664428Y-111064819D02*
X134588238Y-111141009D01*
X134588238Y-111141009D02*
X134473952Y-111179104D01*
X134473952Y-111179104D02*
X134397761Y-111179104D01*
X134397761Y-111179104D02*
X134283476Y-111141009D01*
X134283476Y-111141009D02*
X134245380Y-111102914D01*
X126780475Y-129990104D02*
X126780475Y-130790104D01*
X126780475Y-130790104D02*
X126589999Y-130790104D01*
X126589999Y-130790104D02*
X126475713Y-130752009D01*
X126475713Y-130752009D02*
X126399523Y-130675819D01*
X126399523Y-130675819D02*
X126361428Y-130599628D01*
X126361428Y-130599628D02*
X126323332Y-130447247D01*
X126323332Y-130447247D02*
X126323332Y-130332961D01*
X126323332Y-130332961D02*
X126361428Y-130180580D01*
X126361428Y-130180580D02*
X126399523Y-130104390D01*
X126399523Y-130104390D02*
X126475713Y-130028200D01*
X126475713Y-130028200D02*
X126589999Y-129990104D01*
X126589999Y-129990104D02*
X126780475Y-129990104D01*
X126018571Y-130713914D02*
X125980475Y-130752009D01*
X125980475Y-130752009D02*
X125904285Y-130790104D01*
X125904285Y-130790104D02*
X125713809Y-130790104D01*
X125713809Y-130790104D02*
X125637618Y-130752009D01*
X125637618Y-130752009D02*
X125599523Y-130713914D01*
X125599523Y-130713914D02*
X125561428Y-130637723D01*
X125561428Y-130637723D02*
X125561428Y-130561533D01*
X125561428Y-130561533D02*
X125599523Y-130447247D01*
X125599523Y-130447247D02*
X126056666Y-129990104D01*
X126056666Y-129990104D02*
X125561428Y-129990104D01*
X119108704Y-117344285D02*
X119146800Y-117382381D01*
X119146800Y-117382381D02*
X119184895Y-117496666D01*
X119184895Y-117496666D02*
X119184895Y-117572857D01*
X119184895Y-117572857D02*
X119146800Y-117687143D01*
X119146800Y-117687143D02*
X119070609Y-117763333D01*
X119070609Y-117763333D02*
X118994419Y-117801428D01*
X118994419Y-117801428D02*
X118842038Y-117839524D01*
X118842038Y-117839524D02*
X118727752Y-117839524D01*
X118727752Y-117839524D02*
X118575371Y-117801428D01*
X118575371Y-117801428D02*
X118499180Y-117763333D01*
X118499180Y-117763333D02*
X118422990Y-117687143D01*
X118422990Y-117687143D02*
X118384895Y-117572857D01*
X118384895Y-117572857D02*
X118384895Y-117496666D01*
X118384895Y-117496666D02*
X118422990Y-117382381D01*
X118422990Y-117382381D02*
X118461085Y-117344285D01*
X119184895Y-116582381D02*
X119184895Y-117039524D01*
X119184895Y-116810952D02*
X118384895Y-116810952D01*
X118384895Y-116810952D02*
X118499180Y-116887143D01*
X118499180Y-116887143D02*
X118575371Y-116963333D01*
X118575371Y-116963333D02*
X118613466Y-117039524D01*
X118384895Y-115858571D02*
X118384895Y-116239523D01*
X118384895Y-116239523D02*
X118765847Y-116277619D01*
X118765847Y-116277619D02*
X118727752Y-116239523D01*
X118727752Y-116239523D02*
X118689657Y-116163333D01*
X118689657Y-116163333D02*
X118689657Y-115972857D01*
X118689657Y-115972857D02*
X118727752Y-115896666D01*
X118727752Y-115896666D02*
X118765847Y-115858571D01*
X118765847Y-115858571D02*
X118842038Y-115820476D01*
X118842038Y-115820476D02*
X119032514Y-115820476D01*
X119032514Y-115820476D02*
X119108704Y-115858571D01*
X119108704Y-115858571D02*
X119146800Y-115896666D01*
X119146800Y-115896666D02*
X119184895Y-115972857D01*
X119184895Y-115972857D02*
X119184895Y-116163333D01*
X119184895Y-116163333D02*
X119146800Y-116239523D01*
X119146800Y-116239523D02*
X119108704Y-116277619D01*
X99157024Y-135074895D02*
X99157024Y-134274895D01*
X99157024Y-134655847D02*
X99614167Y-134655847D01*
X99614167Y-135074895D02*
X99614167Y-134274895D01*
X99957023Y-135036800D02*
X100071309Y-135074895D01*
X100071309Y-135074895D02*
X100261785Y-135074895D01*
X100261785Y-135074895D02*
X100337976Y-135036800D01*
X100337976Y-135036800D02*
X100376071Y-134998704D01*
X100376071Y-134998704D02*
X100414166Y-134922514D01*
X100414166Y-134922514D02*
X100414166Y-134846323D01*
X100414166Y-134846323D02*
X100376071Y-134770133D01*
X100376071Y-134770133D02*
X100337976Y-134732038D01*
X100337976Y-134732038D02*
X100261785Y-134693942D01*
X100261785Y-134693942D02*
X100109404Y-134655847D01*
X100109404Y-134655847D02*
X100033214Y-134617752D01*
X100033214Y-134617752D02*
X99995119Y-134579657D01*
X99995119Y-134579657D02*
X99957023Y-134503466D01*
X99957023Y-134503466D02*
X99957023Y-134427276D01*
X99957023Y-134427276D02*
X99995119Y-134351085D01*
X99995119Y-134351085D02*
X100033214Y-134312990D01*
X100033214Y-134312990D02*
X100109404Y-134274895D01*
X100109404Y-134274895D02*
X100299881Y-134274895D01*
X100299881Y-134274895D02*
X100414166Y-134312990D01*
X100718928Y-134351085D02*
X100757024Y-134312990D01*
X100757024Y-134312990D02*
X100833214Y-134274895D01*
X100833214Y-134274895D02*
X101023690Y-134274895D01*
X101023690Y-134274895D02*
X101099881Y-134312990D01*
X101099881Y-134312990D02*
X101137976Y-134351085D01*
X101137976Y-134351085D02*
X101176071Y-134427276D01*
X101176071Y-134427276D02*
X101176071Y-134503466D01*
X101176071Y-134503466D02*
X101137976Y-134617752D01*
X101137976Y-134617752D02*
X100680833Y-135074895D01*
X100680833Y-135074895D02*
X101176071Y-135074895D01*
X125409524Y-132494895D02*
X125409524Y-131694895D01*
X125409524Y-131694895D02*
X125600000Y-131694895D01*
X125600000Y-131694895D02*
X125714286Y-131732990D01*
X125714286Y-131732990D02*
X125790476Y-131809180D01*
X125790476Y-131809180D02*
X125828571Y-131885371D01*
X125828571Y-131885371D02*
X125866667Y-132037752D01*
X125866667Y-132037752D02*
X125866667Y-132152038D01*
X125866667Y-132152038D02*
X125828571Y-132304419D01*
X125828571Y-132304419D02*
X125790476Y-132380609D01*
X125790476Y-132380609D02*
X125714286Y-132456800D01*
X125714286Y-132456800D02*
X125600000Y-132494895D01*
X125600000Y-132494895D02*
X125409524Y-132494895D01*
X126590476Y-131694895D02*
X126209524Y-131694895D01*
X126209524Y-131694895D02*
X126171428Y-132075847D01*
X126171428Y-132075847D02*
X126209524Y-132037752D01*
X126209524Y-132037752D02*
X126285714Y-131999657D01*
X126285714Y-131999657D02*
X126476190Y-131999657D01*
X126476190Y-131999657D02*
X126552381Y-132037752D01*
X126552381Y-132037752D02*
X126590476Y-132075847D01*
X126590476Y-132075847D02*
X126628571Y-132152038D01*
X126628571Y-132152038D02*
X126628571Y-132342514D01*
X126628571Y-132342514D02*
X126590476Y-132418704D01*
X126590476Y-132418704D02*
X126552381Y-132456800D01*
X126552381Y-132456800D02*
X126476190Y-132494895D01*
X126476190Y-132494895D02*
X126285714Y-132494895D01*
X126285714Y-132494895D02*
X126209524Y-132456800D01*
X126209524Y-132456800D02*
X126171428Y-132418704D01*
X121890476Y-133594895D02*
X121890476Y-132794895D01*
X122347619Y-133594895D02*
X122004761Y-133137752D01*
X122347619Y-132794895D02*
X121890476Y-133252038D01*
X110321085Y-135396190D02*
X110282990Y-135472380D01*
X110282990Y-135472380D02*
X110206800Y-135548571D01*
X110206800Y-135548571D02*
X110092514Y-135662857D01*
X110092514Y-135662857D02*
X110054419Y-135739047D01*
X110054419Y-135739047D02*
X110054419Y-135815238D01*
X110244895Y-135777142D02*
X110206800Y-135853333D01*
X110206800Y-135853333D02*
X110130609Y-135929523D01*
X110130609Y-135929523D02*
X109978228Y-135967619D01*
X109978228Y-135967619D02*
X109711561Y-135967619D01*
X109711561Y-135967619D02*
X109559180Y-135929523D01*
X109559180Y-135929523D02*
X109482990Y-135853333D01*
X109482990Y-135853333D02*
X109444895Y-135777142D01*
X109444895Y-135777142D02*
X109444895Y-135624761D01*
X109444895Y-135624761D02*
X109482990Y-135548571D01*
X109482990Y-135548571D02*
X109559180Y-135472380D01*
X109559180Y-135472380D02*
X109711561Y-135434285D01*
X109711561Y-135434285D02*
X109978228Y-135434285D01*
X109978228Y-135434285D02*
X110130609Y-135472380D01*
X110130609Y-135472380D02*
X110206800Y-135548571D01*
X110206800Y-135548571D02*
X110244895Y-135624761D01*
X110244895Y-135624761D02*
X110244895Y-135777142D01*
X109521085Y-135129524D02*
X109482990Y-135091428D01*
X109482990Y-135091428D02*
X109444895Y-135015238D01*
X109444895Y-135015238D02*
X109444895Y-134824762D01*
X109444895Y-134824762D02*
X109482990Y-134748571D01*
X109482990Y-134748571D02*
X109521085Y-134710476D01*
X109521085Y-134710476D02*
X109597276Y-134672381D01*
X109597276Y-134672381D02*
X109673466Y-134672381D01*
X109673466Y-134672381D02*
X109787752Y-134710476D01*
X109787752Y-134710476D02*
X110244895Y-135167619D01*
X110244895Y-135167619D02*
X110244895Y-134672381D01*
X107756323Y-129210476D02*
X107756323Y-128829523D01*
X107984895Y-129286666D02*
X107184895Y-129019999D01*
X107184895Y-129019999D02*
X107984895Y-128753333D01*
X108024895Y-132639523D02*
X107224895Y-132639523D01*
X108024895Y-132182380D02*
X107567752Y-132525238D01*
X107224895Y-132182380D02*
X107682038Y-132639523D01*
X107222990Y-125730476D02*
X107184895Y-125806666D01*
X107184895Y-125806666D02*
X107184895Y-125920952D01*
X107184895Y-125920952D02*
X107222990Y-126035238D01*
X107222990Y-126035238D02*
X107299180Y-126111428D01*
X107299180Y-126111428D02*
X107375371Y-126149523D01*
X107375371Y-126149523D02*
X107527752Y-126187619D01*
X107527752Y-126187619D02*
X107642038Y-126187619D01*
X107642038Y-126187619D02*
X107794419Y-126149523D01*
X107794419Y-126149523D02*
X107870609Y-126111428D01*
X107870609Y-126111428D02*
X107946800Y-126035238D01*
X107946800Y-126035238D02*
X107984895Y-125920952D01*
X107984895Y-125920952D02*
X107984895Y-125844761D01*
X107984895Y-125844761D02*
X107946800Y-125730476D01*
X107946800Y-125730476D02*
X107908704Y-125692380D01*
X107908704Y-125692380D02*
X107642038Y-125692380D01*
X107642038Y-125692380D02*
X107642038Y-125844761D01*
X84653333Y-139045847D02*
X84386667Y-139045847D01*
X84386667Y-139464895D02*
X84386667Y-138664895D01*
X84386667Y-138664895D02*
X84767619Y-138664895D01*
X85491428Y-139464895D02*
X85034285Y-139464895D01*
X85262857Y-139464895D02*
X85262857Y-138664895D01*
X85262857Y-138664895D02*
X85186666Y-138779180D01*
X85186666Y-138779180D02*
X85110476Y-138855371D01*
X85110476Y-138855371D02*
X85034285Y-138893466D01*
X78291652Y-131952380D02*
X78291652Y-131685714D01*
X77872604Y-131685714D02*
X78672604Y-131685714D01*
X78672604Y-131685714D02*
X78672604Y-132066666D01*
X78672604Y-132371428D02*
X78024985Y-132371428D01*
X78024985Y-132371428D02*
X77948795Y-132409523D01*
X77948795Y-132409523D02*
X77910700Y-132447618D01*
X77910700Y-132447618D02*
X77872604Y-132523809D01*
X77872604Y-132523809D02*
X77872604Y-132676190D01*
X77872604Y-132676190D02*
X77910700Y-132752380D01*
X77910700Y-132752380D02*
X77948795Y-132790475D01*
X77948795Y-132790475D02*
X78024985Y-132828571D01*
X78024985Y-132828571D02*
X78672604Y-132828571D01*
X77910700Y-133171427D02*
X77872604Y-133285713D01*
X77872604Y-133285713D02*
X77872604Y-133476189D01*
X77872604Y-133476189D02*
X77910700Y-133552380D01*
X77910700Y-133552380D02*
X77948795Y-133590475D01*
X77948795Y-133590475D02*
X78024985Y-133628570D01*
X78024985Y-133628570D02*
X78101176Y-133628570D01*
X78101176Y-133628570D02*
X78177366Y-133590475D01*
X78177366Y-133590475D02*
X78215461Y-133552380D01*
X78215461Y-133552380D02*
X78253557Y-133476189D01*
X78253557Y-133476189D02*
X78291652Y-133323808D01*
X78291652Y-133323808D02*
X78329747Y-133247618D01*
X78329747Y-133247618D02*
X78367842Y-133209523D01*
X78367842Y-133209523D02*
X78444033Y-133171427D01*
X78444033Y-133171427D02*
X78520223Y-133171427D01*
X78520223Y-133171427D02*
X78596414Y-133209523D01*
X78596414Y-133209523D02*
X78634509Y-133247618D01*
X78634509Y-133247618D02*
X78672604Y-133323808D01*
X78672604Y-133323808D02*
X78672604Y-133514285D01*
X78672604Y-133514285D02*
X78634509Y-133628570D01*
X78291652Y-133971428D02*
X78291652Y-134238094D01*
X77872604Y-134352380D02*
X77872604Y-133971428D01*
X77872604Y-133971428D02*
X78672604Y-133971428D01*
X78672604Y-133971428D02*
X78672604Y-134352380D01*
X113023714Y-98027895D02*
X112757047Y-97646942D01*
X112566571Y-98027895D02*
X112566571Y-97227895D01*
X112566571Y-97227895D02*
X112871333Y-97227895D01*
X112871333Y-97227895D02*
X112947523Y-97265990D01*
X112947523Y-97265990D02*
X112985618Y-97304085D01*
X112985618Y-97304085D02*
X113023714Y-97380276D01*
X113023714Y-97380276D02*
X113023714Y-97494561D01*
X113023714Y-97494561D02*
X112985618Y-97570752D01*
X112985618Y-97570752D02*
X112947523Y-97608847D01*
X112947523Y-97608847D02*
X112871333Y-97646942D01*
X112871333Y-97646942D02*
X112566571Y-97646942D01*
X113328475Y-97304085D02*
X113366571Y-97265990D01*
X113366571Y-97265990D02*
X113442761Y-97227895D01*
X113442761Y-97227895D02*
X113633237Y-97227895D01*
X113633237Y-97227895D02*
X113709428Y-97265990D01*
X113709428Y-97265990D02*
X113747523Y-97304085D01*
X113747523Y-97304085D02*
X113785618Y-97380276D01*
X113785618Y-97380276D02*
X113785618Y-97456466D01*
X113785618Y-97456466D02*
X113747523Y-97570752D01*
X113747523Y-97570752D02*
X113290380Y-98027895D01*
X113290380Y-98027895D02*
X113785618Y-98027895D01*
X114471333Y-97227895D02*
X114318952Y-97227895D01*
X114318952Y-97227895D02*
X114242761Y-97265990D01*
X114242761Y-97265990D02*
X114204666Y-97304085D01*
X114204666Y-97304085D02*
X114128476Y-97418371D01*
X114128476Y-97418371D02*
X114090380Y-97570752D01*
X114090380Y-97570752D02*
X114090380Y-97875514D01*
X114090380Y-97875514D02*
X114128476Y-97951704D01*
X114128476Y-97951704D02*
X114166571Y-97989800D01*
X114166571Y-97989800D02*
X114242761Y-98027895D01*
X114242761Y-98027895D02*
X114395142Y-98027895D01*
X114395142Y-98027895D02*
X114471333Y-97989800D01*
X114471333Y-97989800D02*
X114509428Y-97951704D01*
X114509428Y-97951704D02*
X114547523Y-97875514D01*
X114547523Y-97875514D02*
X114547523Y-97685038D01*
X114547523Y-97685038D02*
X114509428Y-97608847D01*
X114509428Y-97608847D02*
X114471333Y-97570752D01*
X114471333Y-97570752D02*
X114395142Y-97532657D01*
X114395142Y-97532657D02*
X114242761Y-97532657D01*
X114242761Y-97532657D02*
X114166571Y-97570752D01*
X114166571Y-97570752D02*
X114128476Y-97608847D01*
X114128476Y-97608847D02*
X114090380Y-97685038D01*
X119751309Y-136916085D02*
X119675119Y-136877990D01*
X119675119Y-136877990D02*
X119598928Y-136801800D01*
X119598928Y-136801800D02*
X119484642Y-136687514D01*
X119484642Y-136687514D02*
X119408452Y-136649419D01*
X119408452Y-136649419D02*
X119332261Y-136649419D01*
X119370357Y-136839895D02*
X119294166Y-136801800D01*
X119294166Y-136801800D02*
X119217976Y-136725609D01*
X119217976Y-136725609D02*
X119179880Y-136573228D01*
X119179880Y-136573228D02*
X119179880Y-136306561D01*
X119179880Y-136306561D02*
X119217976Y-136154180D01*
X119217976Y-136154180D02*
X119294166Y-136077990D01*
X119294166Y-136077990D02*
X119370357Y-136039895D01*
X119370357Y-136039895D02*
X119522738Y-136039895D01*
X119522738Y-136039895D02*
X119598928Y-136077990D01*
X119598928Y-136077990D02*
X119675119Y-136154180D01*
X119675119Y-136154180D02*
X119713214Y-136306561D01*
X119713214Y-136306561D02*
X119713214Y-136573228D01*
X119713214Y-136573228D02*
X119675119Y-136725609D01*
X119675119Y-136725609D02*
X119598928Y-136801800D01*
X119598928Y-136801800D02*
X119522738Y-136839895D01*
X119522738Y-136839895D02*
X119370357Y-136839895D01*
X120398928Y-136039895D02*
X120246547Y-136039895D01*
X120246547Y-136039895D02*
X120170356Y-136077990D01*
X120170356Y-136077990D02*
X120132261Y-136116085D01*
X120132261Y-136116085D02*
X120056071Y-136230371D01*
X120056071Y-136230371D02*
X120017975Y-136382752D01*
X120017975Y-136382752D02*
X120017975Y-136687514D01*
X120017975Y-136687514D02*
X120056071Y-136763704D01*
X120056071Y-136763704D02*
X120094166Y-136801800D01*
X120094166Y-136801800D02*
X120170356Y-136839895D01*
X120170356Y-136839895D02*
X120322737Y-136839895D01*
X120322737Y-136839895D02*
X120398928Y-136801800D01*
X120398928Y-136801800D02*
X120437023Y-136763704D01*
X120437023Y-136763704D02*
X120475118Y-136687514D01*
X120475118Y-136687514D02*
X120475118Y-136497038D01*
X120475118Y-136497038D02*
X120437023Y-136420847D01*
X120437023Y-136420847D02*
X120398928Y-136382752D01*
X120398928Y-136382752D02*
X120322737Y-136344657D01*
X120322737Y-136344657D02*
X120170356Y-136344657D01*
X120170356Y-136344657D02*
X120094166Y-136382752D01*
X120094166Y-136382752D02*
X120056071Y-136420847D01*
X120056071Y-136420847D02*
X120017975Y-136497038D01*
X122138928Y-143294300D02*
X122253214Y-143332395D01*
X122253214Y-143332395D02*
X122443690Y-143332395D01*
X122443690Y-143332395D02*
X122519881Y-143294300D01*
X122519881Y-143294300D02*
X122557976Y-143256204D01*
X122557976Y-143256204D02*
X122596071Y-143180014D01*
X122596071Y-143180014D02*
X122596071Y-143103823D01*
X122596071Y-143103823D02*
X122557976Y-143027633D01*
X122557976Y-143027633D02*
X122519881Y-142989538D01*
X122519881Y-142989538D02*
X122443690Y-142951442D01*
X122443690Y-142951442D02*
X122291309Y-142913347D01*
X122291309Y-142913347D02*
X122215119Y-142875252D01*
X122215119Y-142875252D02*
X122177024Y-142837157D01*
X122177024Y-142837157D02*
X122138928Y-142760966D01*
X122138928Y-142760966D02*
X122138928Y-142684776D01*
X122138928Y-142684776D02*
X122177024Y-142608585D01*
X122177024Y-142608585D02*
X122215119Y-142570490D01*
X122215119Y-142570490D02*
X122291309Y-142532395D01*
X122291309Y-142532395D02*
X122481786Y-142532395D01*
X122481786Y-142532395D02*
X122596071Y-142570490D01*
X119617976Y-143332395D02*
X119617976Y-142532395D01*
X119617976Y-142532395D02*
X119808452Y-142532395D01*
X119808452Y-142532395D02*
X119922738Y-142570490D01*
X119922738Y-142570490D02*
X119998928Y-142646680D01*
X119998928Y-142646680D02*
X120037023Y-142722871D01*
X120037023Y-142722871D02*
X120075119Y-142875252D01*
X120075119Y-142875252D02*
X120075119Y-142989538D01*
X120075119Y-142989538D02*
X120037023Y-143141919D01*
X120037023Y-143141919D02*
X119998928Y-143218109D01*
X119998928Y-143218109D02*
X119922738Y-143294300D01*
X119922738Y-143294300D02*
X119808452Y-143332395D01*
X119808452Y-143332395D02*
X119617976Y-143332395D01*
X117497023Y-142570490D02*
X117420833Y-142532395D01*
X117420833Y-142532395D02*
X117306547Y-142532395D01*
X117306547Y-142532395D02*
X117192261Y-142570490D01*
X117192261Y-142570490D02*
X117116071Y-142646680D01*
X117116071Y-142646680D02*
X117077976Y-142722871D01*
X117077976Y-142722871D02*
X117039880Y-142875252D01*
X117039880Y-142875252D02*
X117039880Y-142989538D01*
X117039880Y-142989538D02*
X117077976Y-143141919D01*
X117077976Y-143141919D02*
X117116071Y-143218109D01*
X117116071Y-143218109D02*
X117192261Y-143294300D01*
X117192261Y-143294300D02*
X117306547Y-143332395D01*
X117306547Y-143332395D02*
X117382738Y-143332395D01*
X117382738Y-143332395D02*
X117497023Y-143294300D01*
X117497023Y-143294300D02*
X117535119Y-143256204D01*
X117535119Y-143256204D02*
X117535119Y-142989538D01*
X117535119Y-142989538D02*
X117382738Y-142989538D01*
D11*
%TO.C,D4*%
X94860000Y-114140000D02*
X94860000Y-115160000D01*
X94860000Y-121620000D02*
X94860000Y-120600000D01*
X96330000Y-115940000D02*
X93390000Y-115940000D01*
X96330000Y-116060000D02*
X93390000Y-116060000D01*
X96330000Y-116180000D02*
X93390000Y-116180000D01*
X96330000Y-115160000D02*
X93390000Y-115160000D01*
X93390000Y-120600000D01*
X96330000Y-120600000D01*
X96330000Y-115160000D01*
%TO.C,Q4*%
X126200000Y-94150000D02*
X126200000Y-90550000D01*
X121750000Y-92350000D02*
G75*
G02*
X123251193Y-89993600I2600000J0D01*
G01*
X123251193Y-94706400D02*
G75*
G02*
X121750000Y-92350000I1098807J2356400D01*
G01*
X125472795Y-90025816D02*
G75*
G02*
X126200000Y-90550000I-1122795J-2324184D01*
G01*
X126200000Y-94150000D02*
G75*
G02*
X125472795Y-94674184I-1850000J1800000D01*
G01*
%TO.C,C3*%
X98210000Y-73837323D02*
X94533000Y-73837323D01*
X98210000Y-73877323D02*
X94543000Y-73877323D01*
X98210000Y-73917323D02*
X94554000Y-73917323D01*
X98210000Y-73957323D02*
X94565000Y-73957323D01*
X98210000Y-73997323D02*
X94577000Y-73997323D01*
X98210000Y-74037323D02*
X94589000Y-74037323D01*
X98210000Y-74077323D02*
X94601000Y-74077323D01*
X98210000Y-74117323D02*
X94613000Y-74117323D01*
X98210000Y-74157323D02*
X94626000Y-74157323D01*
X98210000Y-74197323D02*
X94640000Y-74197323D01*
X98210000Y-74237323D02*
X94653000Y-74237323D01*
X98210000Y-74277323D02*
X94668000Y-74277323D01*
X98210000Y-74317323D02*
X94682000Y-74317323D01*
X98210000Y-74357323D02*
X94697000Y-74357323D01*
X98210000Y-74397323D02*
X94712000Y-74397323D01*
X98210000Y-74437323D02*
X94728000Y-74437323D01*
X98210000Y-74477323D02*
X94744000Y-74477323D01*
X98210000Y-74517323D02*
X94760000Y-74517323D01*
X98210000Y-74557323D02*
X94777000Y-74557323D01*
X98210000Y-74597323D02*
X94794000Y-74597323D01*
X98210000Y-74637323D02*
X94812000Y-74637323D01*
X98210000Y-74677323D02*
X94830000Y-74677323D01*
X98210000Y-74717323D02*
X94848000Y-74717323D01*
X98210000Y-74757323D02*
X94867000Y-74757323D01*
X98210000Y-74797323D02*
X94886000Y-74797323D01*
X98210000Y-74837323D02*
X94906000Y-74837323D01*
X98210000Y-74877323D02*
X94926000Y-74877323D01*
X98210000Y-74917323D02*
X94946000Y-74917323D01*
X98210000Y-74957323D02*
X94967000Y-74957323D01*
X98210000Y-74997323D02*
X94989000Y-74997323D01*
X98210000Y-75037323D02*
X95011000Y-75037323D01*
X98210000Y-75077323D02*
X95033000Y-75077323D01*
X98210000Y-75117323D02*
X95056000Y-75117323D01*
X98210000Y-75157323D02*
X95079000Y-75157323D01*
X98210000Y-75197323D02*
X95103000Y-75197323D01*
X98210000Y-75237323D02*
X95127000Y-75237323D01*
X98210000Y-75277323D02*
X95152000Y-75277323D01*
X98210000Y-75317323D02*
X95178000Y-75317323D01*
X98210000Y-75357323D02*
X95203000Y-75357323D01*
X98210000Y-75397323D02*
X95230000Y-75397323D01*
X98210000Y-75437323D02*
X95257000Y-75437323D01*
X98210000Y-75477323D02*
X95284000Y-75477323D01*
X98210000Y-75517323D02*
X95312000Y-75517323D01*
X98210000Y-75557323D02*
X95341000Y-75557323D01*
X98210000Y-75597323D02*
X95370000Y-75597323D01*
X98210000Y-75637323D02*
X95400000Y-75637323D01*
X98210000Y-75677323D02*
X95430000Y-75677323D01*
X98210000Y-75717323D02*
X95462000Y-75717323D01*
X98210000Y-75757323D02*
X95493000Y-75757323D01*
X98210000Y-75797323D02*
X95526000Y-75797323D01*
X98210000Y-75837323D02*
X95559000Y-75837323D01*
X98210000Y-75877323D02*
X95592000Y-75877323D01*
X98210000Y-75917323D02*
X95627000Y-75917323D01*
X98210000Y-75957323D02*
X95662000Y-75957323D01*
X98210000Y-75997323D02*
X95698000Y-75997323D01*
X98210000Y-76037323D02*
X95734000Y-76037323D01*
X98210000Y-76077323D02*
X95772000Y-76077323D01*
X98210000Y-76117323D02*
X95810000Y-76117323D01*
X98210000Y-76157323D02*
X95849000Y-76157323D01*
X98210000Y-76197323D02*
X95889000Y-76197323D01*
X98210000Y-76237323D02*
X95930000Y-76237323D01*
X98210000Y-76277323D02*
X95972000Y-76277323D01*
X100049000Y-77637323D02*
X98851000Y-77637323D01*
X100312000Y-77597323D02*
X98588000Y-77597323D01*
X100512000Y-77557323D02*
X98388000Y-77557323D01*
X100680000Y-77517323D02*
X98220000Y-77517323D01*
X100827000Y-77477323D02*
X98073000Y-77477323D01*
X100959000Y-77437323D02*
X97941000Y-77437323D01*
X101080000Y-77397323D02*
X97820000Y-77397323D01*
X101192000Y-77357323D02*
X97708000Y-77357323D01*
X101296000Y-77317323D02*
X97604000Y-77317323D01*
X101394000Y-77277323D02*
X97506000Y-77277323D01*
X101487000Y-77237323D02*
X97413000Y-77237323D01*
X101574000Y-77197323D02*
X97326000Y-77197323D01*
X101658000Y-77157323D02*
X97242000Y-77157323D01*
X101738000Y-77117323D02*
X97162000Y-77117323D01*
X101815000Y-77077323D02*
X97085000Y-77077323D01*
X101889000Y-77037323D02*
X97011000Y-77037323D01*
X101960000Y-76997323D02*
X96940000Y-76997323D01*
X102028000Y-76957323D02*
X96872000Y-76957323D01*
X102094000Y-76917323D02*
X96806000Y-76917323D01*
X102158000Y-76877323D02*
X96742000Y-76877323D01*
X102220000Y-76837323D02*
X96680000Y-76837323D01*
X102280000Y-76797323D02*
X96620000Y-76797323D01*
X102325000Y-67077677D02*
X102325000Y-68077677D01*
X102338000Y-76757323D02*
X96562000Y-76757323D01*
X102395000Y-76717323D02*
X96505000Y-76717323D01*
X102450000Y-76677323D02*
X96450000Y-76677323D01*
X102503000Y-76637323D02*
X96397000Y-76637323D01*
X102555000Y-76597323D02*
X96345000Y-76597323D01*
X102606000Y-76557323D02*
X96294000Y-76557323D01*
X102655000Y-76517323D02*
X96245000Y-76517323D01*
X102704000Y-76477323D02*
X96196000Y-76477323D01*
X102751000Y-76437323D02*
X96149000Y-76437323D01*
X102797000Y-76397323D02*
X96103000Y-76397323D01*
X102825000Y-67577677D02*
X101825000Y-67577677D01*
X102841000Y-76357323D02*
X96059000Y-76357323D01*
X102885000Y-76317323D02*
X96015000Y-76317323D01*
X102928000Y-76277323D02*
X100690000Y-76277323D01*
X102970000Y-76237323D02*
X100690000Y-76237323D01*
X103011000Y-76197323D02*
X100690000Y-76197323D01*
X103051000Y-76157323D02*
X100690000Y-76157323D01*
X103090000Y-76117323D02*
X100690000Y-76117323D01*
X103128000Y-76077323D02*
X100690000Y-76077323D01*
X103166000Y-76037323D02*
X100690000Y-76037323D01*
X103202000Y-75997323D02*
X100690000Y-75997323D01*
X103238000Y-75957323D02*
X100690000Y-75957323D01*
X103273000Y-75917323D02*
X100690000Y-75917323D01*
X103308000Y-75877323D02*
X100690000Y-75877323D01*
X103341000Y-75837323D02*
X100690000Y-75837323D01*
X103374000Y-75797323D02*
X100690000Y-75797323D01*
X103407000Y-75757323D02*
X100690000Y-75757323D01*
X103438000Y-75717323D02*
X100690000Y-75717323D01*
X103470000Y-75677323D02*
X100690000Y-75677323D01*
X103500000Y-75637323D02*
X100690000Y-75637323D01*
X103530000Y-75597323D02*
X100690000Y-75597323D01*
X103559000Y-75557323D02*
X100690000Y-75557323D01*
X103588000Y-75517323D02*
X100690000Y-75517323D01*
X103616000Y-75477323D02*
X100690000Y-75477323D01*
X103643000Y-75437323D02*
X100690000Y-75437323D01*
X103670000Y-75397323D02*
X100690000Y-75397323D01*
X103697000Y-75357323D02*
X100690000Y-75357323D01*
X103722000Y-75317323D02*
X100690000Y-75317323D01*
X103748000Y-75277323D02*
X100690000Y-75277323D01*
X103773000Y-75237323D02*
X100690000Y-75237323D01*
X103797000Y-75197323D02*
X100690000Y-75197323D01*
X103821000Y-75157323D02*
X100690000Y-75157323D01*
X103844000Y-75117323D02*
X100690000Y-75117323D01*
X103867000Y-75077323D02*
X100690000Y-75077323D01*
X103889000Y-75037323D02*
X100690000Y-75037323D01*
X103911000Y-74997323D02*
X100690000Y-74997323D01*
X103933000Y-74957323D02*
X100690000Y-74957323D01*
X103954000Y-74917323D02*
X100690000Y-74917323D01*
X103974000Y-74877323D02*
X100690000Y-74877323D01*
X103994000Y-74837323D02*
X100690000Y-74837323D01*
X104014000Y-74797323D02*
X100690000Y-74797323D01*
X104033000Y-74757323D02*
X100690000Y-74757323D01*
X104052000Y-74717323D02*
X100690000Y-74717323D01*
X104070000Y-74677323D02*
X100690000Y-74677323D01*
X104088000Y-74637323D02*
X100690000Y-74637323D01*
X104106000Y-74597323D02*
X100690000Y-74597323D01*
X104123000Y-74557323D02*
X100690000Y-74557323D01*
X104140000Y-74517323D02*
X100690000Y-74517323D01*
X104156000Y-74477323D02*
X100690000Y-74477323D01*
X104172000Y-74437323D02*
X100690000Y-74437323D01*
X104188000Y-74397323D02*
X100690000Y-74397323D01*
X104203000Y-74357323D02*
X100690000Y-74357323D01*
X104218000Y-74317323D02*
X100690000Y-74317323D01*
X104232000Y-74277323D02*
X100690000Y-74277323D01*
X104247000Y-74237323D02*
X100690000Y-74237323D01*
X104260000Y-74197323D02*
X100690000Y-74197323D01*
X104274000Y-74157323D02*
X100690000Y-74157323D01*
X104287000Y-74117323D02*
X100690000Y-74117323D01*
X104299000Y-74077323D02*
X100690000Y-74077323D01*
X104311000Y-74037323D02*
X100690000Y-74037323D01*
X104323000Y-73997323D02*
X100690000Y-73997323D01*
X104335000Y-73957323D02*
X100690000Y-73957323D01*
X104346000Y-73917323D02*
X100690000Y-73917323D01*
X104357000Y-73877323D02*
X100690000Y-73877323D01*
X104367000Y-73837323D02*
X100690000Y-73837323D01*
X104378000Y-73797323D02*
X94522000Y-73797323D01*
X104387000Y-73757323D02*
X94513000Y-73757323D01*
X104397000Y-73717323D02*
X94503000Y-73717323D01*
X104406000Y-73677323D02*
X94494000Y-73677323D01*
X104415000Y-73637323D02*
X94485000Y-73637323D01*
X104423000Y-73597323D02*
X94477000Y-73597323D01*
X104431000Y-73557323D02*
X94469000Y-73557323D01*
X104439000Y-73517323D02*
X94461000Y-73517323D01*
X104447000Y-73477323D02*
X94453000Y-73477323D01*
X104454000Y-73437323D02*
X94446000Y-73437323D01*
X104461000Y-73397323D02*
X94439000Y-73397323D01*
X104467000Y-73357323D02*
X94433000Y-73357323D01*
X104473000Y-73317323D02*
X94427000Y-73317323D01*
X104479000Y-73277323D02*
X94421000Y-73277323D01*
X104485000Y-73237323D02*
X94415000Y-73237323D01*
X104490000Y-73197323D02*
X94410000Y-73197323D01*
X104495000Y-73157323D02*
X94405000Y-73157323D01*
X104499000Y-73117323D02*
X94401000Y-73117323D01*
X104504000Y-73077323D02*
X94396000Y-73077323D01*
X104507000Y-73037323D02*
X94393000Y-73037323D01*
X104511000Y-72997323D02*
X94389000Y-72997323D01*
X104514000Y-72957323D02*
X94386000Y-72957323D01*
X104517000Y-72917323D02*
X94383000Y-72917323D01*
X104520000Y-72877323D02*
X94380000Y-72877323D01*
X104522000Y-72837323D02*
X94378000Y-72837323D01*
X104524000Y-72797323D02*
X94376000Y-72797323D01*
X104526000Y-72757323D02*
X94374000Y-72757323D01*
X104527000Y-72717323D02*
X94373000Y-72717323D01*
X104529000Y-72637323D02*
X94371000Y-72637323D01*
X104529000Y-72677323D02*
X94371000Y-72677323D01*
X104530000Y-72557323D02*
X94370000Y-72557323D01*
X104530000Y-72597323D02*
X94370000Y-72597323D01*
X104570000Y-72557323D02*
G75*
G02*
X94330000Y-72557323I-5120000J0D01*
G01*
X94330000Y-72557323D02*
G75*
G02*
X104570000Y-72557323I5120000J0D01*
G01*
%TO.C,R19*%
X96060000Y-125970000D02*
X96830000Y-125970000D01*
X104140000Y-125970000D02*
X103370000Y-125970000D01*
X96830000Y-124600000D02*
X103370000Y-124600000D01*
X103370000Y-127340000D01*
X96830000Y-127340000D01*
X96830000Y-124600000D01*
%TO.C,C11*%
X96800000Y-112680000D02*
X97137000Y-112680000D01*
X96800000Y-117920000D02*
X96800000Y-112680000D01*
X97137000Y-117920000D02*
X96800000Y-117920000D01*
X99203000Y-112680000D02*
X99540000Y-112680000D01*
X99540000Y-112680000D02*
X99540000Y-117920000D01*
X99540000Y-117920000D02*
X99203000Y-117920000D01*
%TO.C,C10*%
X79680000Y-109205000D02*
X84920000Y-109205000D01*
X79680000Y-109542000D02*
X79680000Y-109205000D01*
X79680000Y-111945000D02*
X79680000Y-111608000D01*
X84920000Y-109205000D02*
X84920000Y-109542000D01*
X84920000Y-111608000D02*
X84920000Y-111945000D01*
X84920000Y-111945000D02*
X79680000Y-111945000D01*
%TO.C,R14*%
X131750000Y-92930000D02*
X131750000Y-93700000D01*
X131750000Y-101010000D02*
X131750000Y-100240000D01*
X133120000Y-93700000D02*
X130380000Y-93700000D01*
X130380000Y-100240000D01*
X133120000Y-100240000D01*
X133120000Y-93700000D01*
D12*
%TO.C,PS1*%
X115450000Y-109310000D02*
X115450000Y-115310000D01*
X115450000Y-115310000D02*
X126950000Y-115310000D01*
X126950000Y-109310000D02*
X115450000Y-109310000D01*
X126950000Y-115310000D02*
X126950000Y-109310000D01*
D13*
X114910000Y-114015000D02*
G75*
G02*
X114710000Y-114015000I-100000J0D01*
G01*
X114710000Y-114015000D02*
G75*
G02*
X114910000Y-114015000I100000J0D01*
G01*
D11*
%TO.C,R7*%
X106370000Y-106935000D02*
X107140000Y-106935000D01*
X114450000Y-106935000D02*
X113680000Y-106935000D01*
X107140000Y-105565000D02*
X113680000Y-105565000D01*
X113680000Y-108305000D01*
X107140000Y-108305000D01*
X107140000Y-105565000D01*
%TO.C,R5*%
X94180000Y-92620000D02*
X94180000Y-93390000D01*
X94180000Y-100700000D02*
X94180000Y-99930000D01*
X92810000Y-99930000D02*
X95550000Y-99930000D01*
X95550000Y-93390000D01*
X92810000Y-93390000D01*
X92810000Y-99930000D01*
%TO.C,R12*%
X123120000Y-78480000D02*
X123120000Y-79250000D01*
X123120000Y-86560000D02*
X123120000Y-85790000D01*
X124490000Y-79250000D02*
X121750000Y-79250000D01*
X121750000Y-85790000D01*
X124490000Y-85790000D01*
X124490000Y-79250000D01*
%TO.C,R9*%
X114650000Y-128930000D02*
X115420000Y-128930000D01*
X122730000Y-128930000D02*
X121960000Y-128930000D01*
X121960000Y-130300000D02*
X115420000Y-130300000D01*
X115420000Y-127560000D01*
X121960000Y-127560000D01*
X121960000Y-130300000D01*
%TO.C,R8*%
X106370000Y-103810000D02*
X107140000Y-103810000D01*
X114450000Y-103810000D02*
X113680000Y-103810000D01*
X107140000Y-102440000D02*
X113680000Y-102440000D01*
X113680000Y-105180000D01*
X107140000Y-105180000D01*
X107140000Y-102440000D01*
%TO.C,C8*%
X79680000Y-115355000D02*
X84920000Y-115355000D01*
X79680000Y-115692000D02*
X79680000Y-115355000D01*
X79680000Y-118095000D02*
X79680000Y-117758000D01*
X84920000Y-115355000D02*
X84920000Y-115692000D01*
X84920000Y-117758000D02*
X84920000Y-118095000D01*
X84920000Y-118095000D02*
X79680000Y-118095000D01*
%TO.C,J2*%
X136680000Y-118000000D02*
X136680000Y-125720000D01*
X136680000Y-125720000D02*
X140700000Y-125720000D01*
X137180000Y-118500000D02*
X138390000Y-118500000D01*
X137180000Y-125220000D02*
X137180000Y-118500000D01*
X138390000Y-118500000D02*
X138390000Y-118000000D01*
X138390000Y-125220000D02*
X137180000Y-125220000D01*
X138390000Y-125720000D02*
X138390000Y-125220000D01*
X138500000Y-126020000D02*
X141000000Y-126020000D01*
X139200000Y-118000000D02*
X139200000Y-119000000D01*
X139200000Y-119000000D02*
X140700000Y-119000000D01*
X139200000Y-124720000D02*
X140700000Y-124720000D01*
X139200000Y-125720000D02*
X139200000Y-124720000D01*
X140700000Y-118000000D02*
X136680000Y-118000000D01*
X140700000Y-125720000D02*
X140700000Y-118000000D01*
X141000000Y-126020000D02*
X141000000Y-123520000D01*
%TO.C,U1*%
X120882000Y-101545000D02*
X124482000Y-101545000D01*
X120843522Y-101533478D02*
G75*
G02*
X122682000Y-97094999I1838478J1838478D01*
G01*
X122682000Y-97095000D02*
G75*
G02*
X124520478Y-101533478I0J-2600000D01*
G01*
%TO.C,C7*%
X79680000Y-118455000D02*
X84920000Y-118455000D01*
X79680000Y-118792000D02*
X79680000Y-118455000D01*
X79680000Y-121195000D02*
X79680000Y-120858000D01*
X84920000Y-118455000D02*
X84920000Y-118792000D01*
X84920000Y-120858000D02*
X84920000Y-121195000D01*
X84920000Y-121195000D02*
X79680000Y-121195000D01*
%TO.C,R10*%
X128651000Y-92930000D02*
X128651000Y-93700000D01*
X128651000Y-101010000D02*
X128651000Y-100240000D01*
X127281000Y-100240000D02*
X130021000Y-100240000D01*
X130021000Y-93700000D01*
X127281000Y-93700000D01*
X127281000Y-100240000D01*
%TO.C,R1*%
X122452000Y-107061000D02*
X123222000Y-107061000D01*
X130532000Y-107061000D02*
X129762000Y-107061000D01*
X123222000Y-105691000D02*
X129762000Y-105691000D01*
X129762000Y-108431000D01*
X123222000Y-108431000D01*
X123222000Y-105691000D01*
%TO.C,R13*%
X131810000Y-78480000D02*
X131810000Y-79250000D01*
X131810000Y-86560000D02*
X131810000Y-85790000D01*
X133180000Y-79250000D02*
X130440000Y-79250000D01*
X130440000Y-85790000D01*
X133180000Y-85790000D01*
X133180000Y-79250000D01*
%TO.C,J6*%
X136680000Y-108800000D02*
X136680000Y-116520000D01*
X136680000Y-116520000D02*
X140700000Y-116520000D01*
X137180000Y-109300000D02*
X138390000Y-109300000D01*
X137180000Y-116020000D02*
X137180000Y-109300000D01*
X138390000Y-109300000D02*
X138390000Y-108800000D01*
X138390000Y-116020000D02*
X137180000Y-116020000D01*
X138390000Y-116520000D02*
X138390000Y-116020000D01*
X138500000Y-116820000D02*
X141000000Y-116820000D01*
X139200000Y-108800000D02*
X139200000Y-109800000D01*
X139200000Y-109800000D02*
X140700000Y-109800000D01*
X139200000Y-115520000D02*
X140700000Y-115520000D01*
X139200000Y-116520000D02*
X139200000Y-115520000D01*
X140700000Y-108800000D02*
X136680000Y-108800000D01*
X140700000Y-116520000D02*
X140700000Y-108800000D01*
X141000000Y-116820000D02*
X141000000Y-114320000D01*
%TO.C,R16*%
X108620000Y-80510000D02*
X109390000Y-80510000D01*
X116700000Y-80510000D02*
X115930000Y-80510000D01*
X109390000Y-79140000D02*
X115930000Y-79140000D01*
X115930000Y-81880000D01*
X109390000Y-81880000D01*
X109390000Y-79140000D01*
%TO.C,C5*%
X88670000Y-92225000D02*
G75*
G02*
X78430000Y-92225000I-5120000J0D01*
G01*
X78430000Y-92225000D02*
G75*
G02*
X88670000Y-92225000I5120000J0D01*
G01*
%TO.C,R15*%
X96030000Y-80510000D02*
X96800000Y-80510000D01*
X104110000Y-80510000D02*
X103340000Y-80510000D01*
X96800000Y-79140000D02*
X103340000Y-79140000D01*
X103340000Y-81880000D01*
X96800000Y-81880000D01*
X96800000Y-79140000D01*
%TO.C,R22*%
X139590000Y-97510000D02*
X139590000Y-98280000D01*
X139590000Y-105590000D02*
X139590000Y-104820000D01*
X138220000Y-104820000D02*
X140960000Y-104820000D01*
X140960000Y-98280000D01*
X138220000Y-98280000D01*
X138220000Y-104820000D01*
%TO.C,U3*%
X103920000Y-115735000D02*
X103920000Y-121035000D01*
X103920000Y-121035000D02*
X114200000Y-121035000D01*
X114200000Y-115735000D02*
X103920000Y-115735000D01*
X114200000Y-117385000D02*
X114200000Y-115735000D01*
X114200000Y-121035000D02*
X114200000Y-119385000D01*
X114200000Y-119385000D02*
G75*
G02*
X114200000Y-117385000I0J1000000D01*
G01*
%TO.C,J4*%
X131097500Y-127500000D02*
X140337500Y-127500000D01*
X131097500Y-137740000D02*
X131097500Y-127500000D01*
X138717500Y-137740000D02*
X138717500Y-127500000D01*
X139817500Y-137740000D02*
X139817500Y-127500000D01*
X140337500Y-127500000D02*
X140337500Y-134820000D01*
X140337500Y-135420000D02*
X140337500Y-137740000D01*
X140337500Y-137740000D02*
X131097500Y-137740000D01*
X140947500Y-135560000D02*
X140337500Y-135120000D01*
X140947500Y-134680000D01*
X140947500Y-135560000D01*
G36*
X140947500Y-135560000D02*
G01*
X140337500Y-135120000D01*
X140947500Y-134680000D01*
X140947500Y-135560000D01*
G37*
%TO.C,R24*%
X133604000Y-116610000D02*
X133604000Y-117380000D01*
X133604000Y-124690000D02*
X133604000Y-123920000D01*
X134974000Y-117380000D02*
X132234000Y-117380000D01*
X132234000Y-123920000D01*
X134974000Y-123920000D01*
X134974000Y-117380000D01*
%TO.C,Q5*%
X101870000Y-82260000D02*
X98270000Y-82260000D01*
X97745816Y-82987205D02*
G75*
G02*
X98270000Y-82260000I2324184J-1122795D01*
G01*
X100070000Y-86710000D02*
G75*
G02*
X97713600Y-85208807I0J2600000D01*
G01*
X101870000Y-82260000D02*
G75*
G02*
X102394184Y-82987205I-1800000J-1850000D01*
G01*
X102426400Y-85208807D02*
G75*
G02*
X100070000Y-86710000I-2356400J1098807D01*
G01*
%TO.C,C6*%
X79680000Y-121605000D02*
X84920000Y-121605000D01*
X79680000Y-121942000D02*
X79680000Y-121605000D01*
X79680000Y-124345000D02*
X79680000Y-124008000D01*
X84920000Y-121605000D02*
X84920000Y-121942000D01*
X84920000Y-124008000D02*
X84920000Y-124345000D01*
X84920000Y-124345000D02*
X79680000Y-124345000D01*
%TO.C,C2*%
X108760000Y-99195000D02*
X114000000Y-99195000D01*
X108760000Y-99532000D02*
X108760000Y-99195000D01*
X108760000Y-101935000D02*
X108760000Y-101598000D01*
X114000000Y-99195000D02*
X114000000Y-99532000D01*
X114000000Y-101598000D02*
X114000000Y-101935000D01*
X114000000Y-101935000D02*
X108760000Y-101935000D01*
%TO.C,R3*%
X93610000Y-88790000D02*
X94380000Y-88790000D01*
X101690000Y-88790000D02*
X100920000Y-88790000D01*
X94380000Y-87420000D02*
X100920000Y-87420000D01*
X100920000Y-90160000D01*
X94380000Y-90160000D01*
X94380000Y-87420000D01*
%TO.C,R21*%
X114650000Y-125740000D02*
X115420000Y-125740000D01*
X122730000Y-125740000D02*
X121960000Y-125740000D01*
X115420000Y-124370000D02*
X121960000Y-124370000D01*
X121960000Y-127110000D01*
X115420000Y-127110000D01*
X115420000Y-124370000D01*
%TO.C,J5*%
X134730000Y-74340000D02*
X134730000Y-94460000D01*
X134730000Y-94460000D02*
X140700000Y-94460000D01*
X135490000Y-75100000D02*
X135490000Y-84400000D01*
X135490000Y-93700000D02*
X135490000Y-84400000D01*
X138440000Y-74350000D02*
X138440000Y-75100000D01*
X138440000Y-75100000D02*
X135490000Y-75100000D01*
X138440000Y-93700000D02*
X135490000Y-93700000D01*
X138440000Y-94450000D02*
X138440000Y-93700000D01*
X139940000Y-74350000D02*
X139940000Y-76150000D01*
X139940000Y-76150000D02*
X140690000Y-76150000D01*
X139940000Y-77650000D02*
X139940000Y-91150000D01*
X139940000Y-91150000D02*
X140690000Y-91150000D01*
X139940000Y-92650000D02*
X139940000Y-94450000D01*
X139940000Y-94450000D02*
X140690000Y-94450000D01*
X140690000Y-74350000D02*
X139940000Y-74350000D01*
X140690000Y-76150000D02*
X140690000Y-74350000D01*
X140690000Y-77650000D02*
X139940000Y-77650000D01*
X140690000Y-91150000D02*
X140690000Y-77650000D01*
X140690000Y-92650000D02*
X139940000Y-92650000D01*
X140690000Y-94450000D02*
X140690000Y-92650000D01*
X140700000Y-74340000D02*
X134730000Y-74340000D01*
X140700000Y-94460000D02*
X140700000Y-74340000D01*
X140990000Y-74050000D02*
X139740000Y-74050000D01*
X140990000Y-75300000D02*
X140990000Y-74050000D01*
%TO.C,C14*%
X118810000Y-120895113D02*
X123970000Y-120895113D01*
X118810000Y-120935113D02*
X123970000Y-120935113D01*
X118811000Y-120855113D02*
X123969000Y-120855113D01*
X118813000Y-120815113D02*
X123967000Y-120815113D01*
X118815000Y-120775113D02*
X123965000Y-120775113D01*
X118818000Y-120735113D02*
X123962000Y-120735113D01*
X118821000Y-120695113D02*
X120350000Y-120695113D01*
X118825000Y-120655113D02*
X120350000Y-120655113D01*
X118830000Y-120615113D02*
X120350000Y-120615113D01*
X118835000Y-120575113D02*
X120350000Y-120575113D01*
X118841000Y-120535113D02*
X120350000Y-120535113D01*
X118847000Y-120495113D02*
X120350000Y-120495113D01*
X118854000Y-120455113D02*
X120350000Y-120455113D01*
X118862000Y-120415113D02*
X120350000Y-120415113D01*
X118871000Y-120375113D02*
X120350000Y-120375113D01*
X118880000Y-120335113D02*
X120350000Y-120335113D01*
X118889000Y-120295113D02*
X120350000Y-120295113D01*
X118900000Y-120255113D02*
X120350000Y-120255113D01*
X118911000Y-120215113D02*
X120350000Y-120215113D01*
X118923000Y-120175113D02*
X120350000Y-120175113D01*
X118935000Y-120135113D02*
X120350000Y-120135113D01*
X118948000Y-120095113D02*
X120350000Y-120095113D01*
X118962000Y-120055113D02*
X120350000Y-120055113D01*
X118977000Y-120015113D02*
X120350000Y-120015113D01*
X118992000Y-119975113D02*
X120350000Y-119975113D01*
X119008000Y-119935113D02*
X120350000Y-119935113D01*
X119025000Y-119895113D02*
X120350000Y-119895113D01*
X119043000Y-119855113D02*
X120350000Y-119855113D01*
X119061000Y-119815113D02*
X120350000Y-119815113D01*
X119081000Y-119775113D02*
X120350000Y-119775113D01*
X119101000Y-119735113D02*
X120350000Y-119735113D01*
X119122000Y-119695113D02*
X120350000Y-119695113D01*
X119144000Y-119655113D02*
X120350000Y-119655113D01*
X119167000Y-119615113D02*
X120350000Y-119615113D01*
X119191000Y-119575113D02*
X120350000Y-119575113D01*
X119215000Y-119535113D02*
X120350000Y-119535113D01*
X119241000Y-119495113D02*
X120350000Y-119495113D01*
X119268000Y-119455113D02*
X120350000Y-119455113D01*
X119296000Y-119415113D02*
X120350000Y-119415113D01*
X119325000Y-119375113D02*
X120350000Y-119375113D01*
X119355000Y-119335113D02*
X120350000Y-119335113D01*
X119387000Y-119295113D02*
X120350000Y-119295113D01*
X119420000Y-119255113D02*
X120350000Y-119255113D01*
X119454000Y-119215113D02*
X120350000Y-119215113D01*
X119489000Y-119175113D02*
X120350000Y-119175113D01*
X119526000Y-119135113D02*
X120350000Y-119135113D01*
X119565000Y-119095113D02*
X120350000Y-119095113D01*
X119605000Y-119055113D02*
X120350000Y-119055113D01*
X119647000Y-119015113D02*
X120350000Y-119015113D01*
X119665000Y-123489888D02*
X120165000Y-123489888D01*
X119691000Y-118975113D02*
X120350000Y-118975113D01*
X119738000Y-118935113D02*
X120350000Y-118935113D01*
X119786000Y-118895113D02*
X120350000Y-118895113D01*
X119837000Y-118855113D02*
X120350000Y-118855113D01*
X119891000Y-118815113D02*
X120350000Y-118815113D01*
X119915000Y-123739888D02*
X119915000Y-123239888D01*
X119947000Y-118775113D02*
X120350000Y-118775113D01*
X120007000Y-118735113D02*
X120350000Y-118735113D01*
X120071000Y-118695113D02*
X120350000Y-118695113D01*
X120139000Y-118655113D02*
X120350000Y-118655113D01*
X120213000Y-118615113D02*
X122567000Y-118615113D01*
X120292000Y-118575113D02*
X122488000Y-118575113D01*
X120379000Y-118535113D02*
X122401000Y-118535113D01*
X120476000Y-118495113D02*
X122304000Y-118495113D01*
X120585000Y-118455113D02*
X122195000Y-118455113D01*
X120713000Y-118415113D02*
X122067000Y-118415113D01*
X120873000Y-118375113D02*
X121907000Y-118375113D01*
X121107000Y-118335113D02*
X121673000Y-118335113D01*
X122430000Y-118655113D02*
X122641000Y-118655113D01*
X122430000Y-118695113D02*
X122709000Y-118695113D01*
X122430000Y-118735113D02*
X122773000Y-118735113D01*
X122430000Y-118775113D02*
X122833000Y-118775113D01*
X122430000Y-118815113D02*
X122889000Y-118815113D01*
X122430000Y-118855113D02*
X122943000Y-118855113D01*
X122430000Y-118895113D02*
X122994000Y-118895113D01*
X122430000Y-118935113D02*
X123042000Y-118935113D01*
X122430000Y-118975113D02*
X123089000Y-118975113D01*
X122430000Y-119015113D02*
X123133000Y-119015113D01*
X122430000Y-119055113D02*
X123175000Y-119055113D01*
X122430000Y-119095113D02*
X123215000Y-119095113D01*
X122430000Y-119135113D02*
X123254000Y-119135113D01*
X122430000Y-119175113D02*
X123291000Y-119175113D01*
X122430000Y-119215113D02*
X123326000Y-119215113D01*
X122430000Y-119255113D02*
X123360000Y-119255113D01*
X122430000Y-119295113D02*
X123393000Y-119295113D01*
X122430000Y-119335113D02*
X123425000Y-119335113D01*
X122430000Y-119375113D02*
X123455000Y-119375113D01*
X122430000Y-119415113D02*
X123484000Y-119415113D01*
X122430000Y-119455113D02*
X123512000Y-119455113D01*
X122430000Y-119495113D02*
X123539000Y-119495113D01*
X122430000Y-119535113D02*
X123565000Y-119535113D01*
X122430000Y-119575113D02*
X123589000Y-119575113D01*
X122430000Y-119615113D02*
X123613000Y-119615113D01*
X122430000Y-119655113D02*
X123636000Y-119655113D01*
X122430000Y-119695113D02*
X123658000Y-119695113D01*
X122430000Y-119735113D02*
X123679000Y-119735113D01*
X122430000Y-119775113D02*
X123699000Y-119775113D01*
X122430000Y-119815113D02*
X123719000Y-119815113D01*
X122430000Y-119855113D02*
X123737000Y-119855113D01*
X122430000Y-119895113D02*
X123755000Y-119895113D01*
X122430000Y-119935113D02*
X123772000Y-119935113D01*
X122430000Y-119975113D02*
X123788000Y-119975113D01*
X122430000Y-120015113D02*
X123803000Y-120015113D01*
X122430000Y-120055113D02*
X123818000Y-120055113D01*
X122430000Y-120095113D02*
X123832000Y-120095113D01*
X122430000Y-120135113D02*
X123845000Y-120135113D01*
X122430000Y-120175113D02*
X123857000Y-120175113D01*
X122430000Y-120215113D02*
X123869000Y-120215113D01*
X122430000Y-120255113D02*
X123880000Y-120255113D01*
X122430000Y-120295113D02*
X123891000Y-120295113D01*
X122430000Y-120335113D02*
X123900000Y-120335113D01*
X122430000Y-120375113D02*
X123909000Y-120375113D01*
X122430000Y-120415113D02*
X123918000Y-120415113D01*
X122430000Y-120455113D02*
X123926000Y-120455113D01*
X122430000Y-120495113D02*
X123933000Y-120495113D01*
X122430000Y-120535113D02*
X123939000Y-120535113D01*
X122430000Y-120575113D02*
X123945000Y-120575113D01*
X122430000Y-120615113D02*
X123950000Y-120615113D01*
X122430000Y-120655113D02*
X123955000Y-120655113D01*
X122430000Y-120695113D02*
X123959000Y-120695113D01*
X124010000Y-120935113D02*
G75*
G02*
X118770000Y-120935113I-2620000J0D01*
G01*
X118770000Y-120935113D02*
G75*
G02*
X124010000Y-120935113I2620000J0D01*
G01*
%TO.C,R2*%
X106045000Y-88790000D02*
X106815000Y-88790000D01*
X114125000Y-88790000D02*
X113355000Y-88790000D01*
X106815000Y-87420000D02*
X113355000Y-87420000D01*
X113355000Y-90160000D01*
X106815000Y-90160000D01*
X106815000Y-87420000D01*
%TO.C,D3*%
X96350000Y-132440000D02*
X97370000Y-132440000D01*
X101790000Y-133910000D02*
X101790000Y-130970000D01*
X101910000Y-133910000D02*
X101910000Y-130970000D01*
X102030000Y-133910000D02*
X102030000Y-130970000D01*
X103830000Y-132440000D02*
X102810000Y-132440000D01*
X102810000Y-133910000D02*
X97370000Y-133910000D01*
X97370000Y-130970000D01*
X102810000Y-130970000D01*
X102810000Y-133910000D01*
%TO.C,L1*%
X79725000Y-73900000D02*
X92325000Y-73900000D01*
X79725000Y-76900000D02*
X79725000Y-73900000D01*
X79725000Y-86500000D02*
X79725000Y-83500000D01*
X92325000Y-73900000D02*
X92325000Y-76900000D01*
X92325000Y-83500000D02*
X92325000Y-86500000D01*
X92325000Y-86500000D02*
X79725000Y-86500000D01*
%TO.C,R17*%
X108620000Y-83810000D02*
X109390000Y-83810000D01*
X116700000Y-83810000D02*
X115930000Y-83810000D01*
X115930000Y-85180000D02*
X109390000Y-85180000D01*
X109390000Y-82440000D01*
X115930000Y-82440000D01*
X115930000Y-85180000D01*
%TO.C,Q8*%
X95027500Y-137475000D02*
X95027500Y-142116000D01*
X95027500Y-137475000D02*
X105267500Y-137475000D01*
X95027500Y-138985000D02*
X105267500Y-138985000D01*
X95027500Y-142116000D02*
X105267500Y-142116000D01*
X98297500Y-137475000D02*
X98297500Y-138985000D01*
X101998500Y-137475000D02*
X101998500Y-138985000D01*
X105267500Y-137475000D02*
X105267500Y-142116000D01*
%TO.C,U2*%
X96320000Y-91660000D02*
X96320000Y-101940000D01*
X96320000Y-101940000D02*
X106720000Y-101940000D01*
X96380000Y-94150000D02*
X96380000Y-99450000D01*
X96380000Y-99450000D02*
X106660000Y-99450000D01*
X106660000Y-94150000D02*
X96380000Y-94150000D01*
X106660000Y-95800000D02*
X106660000Y-94150000D01*
X106660000Y-99450000D02*
X106660000Y-97800000D01*
X106720000Y-91660000D02*
X96320000Y-91660000D01*
X106720000Y-101940000D02*
X106720000Y-91660000D01*
X106660000Y-97800000D02*
G75*
G02*
X106660000Y-95800000I0J1000000D01*
G01*
X106015000Y-94895000D02*
G75*
G02*
X105915000Y-94895000I-50000J0D01*
G01*
X105915000Y-94895000D02*
G75*
G02*
X106015000Y-94895000I50000J0D01*
G01*
X106090000Y-94895000D02*
G75*
G02*
X105840000Y-94895000I-125000J0D01*
G01*
X105840000Y-94895000D02*
G75*
G02*
X106090000Y-94895000I125000J0D01*
G01*
X106165000Y-94895000D02*
G75*
G02*
X105765000Y-94895000I-200000J0D01*
G01*
X105765000Y-94895000D02*
G75*
G02*
X106165000Y-94895000I200000J0D01*
G01*
%TO.C,C4*%
X88670000Y-103375000D02*
G75*
G02*
X78430000Y-103375000I-5120000J0D01*
G01*
X78430000Y-103375000D02*
G75*
G02*
X88670000Y-103375000I5120000J0D01*
G01*
%TO.C,C1*%
X120864000Y-102135000D02*
X126104000Y-102135000D01*
X120864000Y-102472000D02*
X120864000Y-102135000D01*
X120864000Y-104875000D02*
X120864000Y-104538000D01*
X126104000Y-102135000D02*
X126104000Y-102472000D01*
X126104000Y-104538000D02*
X126104000Y-104875000D01*
X126104000Y-104875000D02*
X120864000Y-104875000D01*
%TO.C,R25*%
X109498000Y-91962000D02*
X110268000Y-91962000D01*
X117578000Y-91962000D02*
X116808000Y-91962000D01*
X110268000Y-90592000D02*
X116808000Y-90592000D01*
X116808000Y-93332000D01*
X110268000Y-93332000D01*
X110268000Y-90592000D01*
%TO.C,R20*%
X118237000Y-98830000D02*
X118237000Y-99600000D01*
X118237000Y-106910000D02*
X118237000Y-106140000D01*
X116867000Y-106140000D02*
X119607000Y-106140000D01*
X119607000Y-99600000D01*
X116867000Y-99600000D01*
X116867000Y-106140000D01*
%TO.C,J1*%
X106680000Y-68730000D02*
X114000000Y-68730000D01*
X106680000Y-77970000D02*
X106680000Y-68730000D01*
X114600000Y-68730000D02*
X116920000Y-68730000D01*
X116920000Y-68730000D02*
X116920000Y-77970000D01*
X116920000Y-69250000D02*
X106680000Y-69250000D01*
X116920000Y-70350000D02*
X106680000Y-70350000D01*
X116920000Y-77970000D02*
X106680000Y-77970000D01*
X114300000Y-68730000D02*
X113860000Y-68120000D01*
X114740000Y-68120000D01*
X114300000Y-68730000D01*
G36*
X114300000Y-68730000D02*
G01*
X113860000Y-68120000D01*
X114740000Y-68120000D01*
X114300000Y-68730000D01*
G37*
%TO.C,R11*%
X101380000Y-113840000D02*
X101380000Y-114610000D01*
X101380000Y-121920000D02*
X101380000Y-121150000D01*
X102750000Y-114610000D02*
X100010000Y-114610000D01*
X100010000Y-121150000D01*
X102750000Y-121150000D01*
X102750000Y-114610000D01*
%TO.C,Q3*%
X129430000Y-86900000D02*
X129430000Y-83300000D01*
X124980000Y-85100000D02*
G75*
G02*
X126481193Y-82743600I2600000J0D01*
G01*
X126481193Y-87456400D02*
G75*
G02*
X124980000Y-85100000I1098807J2356400D01*
G01*
X128702795Y-82775816D02*
G75*
G02*
X129430000Y-83300000I-1122795J-2324184D01*
G01*
X129430000Y-86900000D02*
G75*
G02*
X128702795Y-87424184I-1850000J1800000D01*
G01*
%TO.C,J3*%
X122510000Y-67985000D02*
X122510000Y-69235000D01*
X122800000Y-68275000D02*
X122800000Y-74245000D01*
X122800000Y-74245000D02*
X130420000Y-74245000D01*
X122810000Y-68285000D02*
X122810000Y-69035000D01*
X122810000Y-69035000D02*
X124610000Y-69035000D01*
X122810000Y-70535000D02*
X123560000Y-70535000D01*
X123560000Y-70535000D02*
X123560000Y-73485000D01*
X123560000Y-73485000D02*
X126610000Y-73485000D01*
X123760000Y-67985000D02*
X122510000Y-67985000D01*
X124610000Y-68285000D02*
X122810000Y-68285000D01*
X124610000Y-69035000D02*
X124610000Y-68285000D01*
X126110000Y-68285000D02*
X126110000Y-69035000D01*
X126110000Y-69035000D02*
X127110000Y-69035000D01*
X127110000Y-68285000D02*
X126110000Y-68285000D01*
X127110000Y-69035000D02*
X127110000Y-68285000D01*
X128610000Y-68285000D02*
X128610000Y-69035000D01*
X128610000Y-69035000D02*
X130410000Y-69035000D01*
X129660000Y-70535000D02*
X129660000Y-73485000D01*
X129660000Y-73485000D02*
X126610000Y-73485000D01*
X130410000Y-68285000D02*
X128610000Y-68285000D01*
X130410000Y-69035000D02*
X130410000Y-68285000D01*
X130410000Y-70535000D02*
X129660000Y-70535000D01*
X130420000Y-68275000D02*
X122800000Y-68275000D01*
X130420000Y-74245000D02*
X130420000Y-68275000D01*
%TO.C,R23*%
X136170000Y-97510000D02*
X136170000Y-98280000D01*
X136170000Y-105590000D02*
X136170000Y-104820000D01*
X134800000Y-104820000D02*
X137540000Y-104820000D01*
X137540000Y-98280000D01*
X134800000Y-98280000D01*
X134800000Y-104820000D01*
%TO.C,C9*%
X79680000Y-112285000D02*
X84920000Y-112285000D01*
X79680000Y-112622000D02*
X79680000Y-112285000D01*
X79680000Y-115025000D02*
X79680000Y-114688000D01*
X84920000Y-112285000D02*
X84920000Y-112622000D01*
X84920000Y-114688000D02*
X84920000Y-115025000D01*
X84920000Y-115025000D02*
X79680000Y-115025000D01*
%TO.C,R18*%
X96060000Y-129160000D02*
X96830000Y-129160000D01*
X104140000Y-129160000D02*
X103370000Y-129160000D01*
X103370000Y-130530000D02*
X96830000Y-130530000D01*
X96830000Y-127790000D01*
X103370000Y-127790000D01*
X103370000Y-130530000D01*
%TO.C,R4*%
X90950000Y-92600000D02*
X90950000Y-93370000D01*
X90950000Y-100680000D02*
X90950000Y-99910000D01*
X89580000Y-99910000D02*
X92320000Y-99910000D01*
X92320000Y-93370000D01*
X89580000Y-93370000D01*
X89580000Y-99910000D01*
%TO.C,R6*%
X91400000Y-113850000D02*
X91400000Y-114620000D01*
X91400000Y-121930000D02*
X91400000Y-121160000D01*
X92770000Y-114620000D02*
X90030000Y-114620000D01*
X90030000Y-121160000D01*
X92770000Y-121160000D01*
X92770000Y-114620000D01*
%TO.C,C13*%
X124840000Y-115990000D02*
X130080000Y-115990000D01*
X124840000Y-116327000D02*
X124840000Y-115990000D01*
X124840000Y-118730000D02*
X124840000Y-118393000D01*
X130080000Y-115990000D02*
X130080000Y-116327000D01*
X130080000Y-118393000D02*
X130080000Y-118730000D01*
X130080000Y-118730000D02*
X124840000Y-118730000D01*
D10*
%TO.C,HS1*%
X112327500Y-135210000D02*
X127327500Y-135210000D01*
X112327500Y-145210000D02*
X112327500Y-135210000D01*
X114327500Y-137210000D02*
X114327500Y-145210000D01*
X114327500Y-145210000D02*
X112327500Y-145210000D01*
X125327500Y-137210000D02*
X114327500Y-137210000D01*
X125327500Y-145210000D02*
X125327500Y-137210000D01*
X127327500Y-135210000D02*
X127327500Y-145210000D01*
X127327500Y-145210000D02*
X125327500Y-145210000D01*
D11*
%TO.C,Q1*%
X129772000Y-114118000D02*
X133372000Y-114118000D01*
X129215600Y-111169193D02*
G75*
G02*
X131572000Y-109668000I2356400J-1098807D01*
G01*
X129772000Y-114118000D02*
G75*
G02*
X129247816Y-113390795I1800000J1850000D01*
G01*
X131572000Y-109668000D02*
G75*
G02*
X133928400Y-111169193I0J-2600000D01*
G01*
X133896184Y-113390795D02*
G75*
G02*
X133372000Y-114118000I-2324184J1122795D01*
G01*
%TO.C,D2*%
X125540000Y-119360000D02*
X130181000Y-119360000D01*
X125540000Y-122629000D02*
X127050000Y-122629000D01*
X125540000Y-126330000D02*
X127050000Y-126330000D01*
X125540000Y-129600000D02*
X125540000Y-119360000D01*
X125540000Y-129600000D02*
X130181000Y-129600000D01*
X127050000Y-129600000D02*
X127050000Y-119360000D01*
X127794000Y-123718000D02*
X128810000Y-125242000D01*
X128810000Y-123718000D02*
X128810000Y-123337000D01*
X128810000Y-125242000D02*
X127794000Y-125242000D01*
X128810000Y-125242000D02*
X129826000Y-123718000D01*
X128810000Y-125242000D02*
X129826000Y-125242000D01*
X128810000Y-125623000D02*
X128810000Y-125242000D01*
X129826000Y-123718000D02*
X127794000Y-123718000D01*
X130181000Y-129600000D02*
X130181000Y-119360000D01*
D10*
X128810000Y-125220000D02*
X127810000Y-123720000D01*
X129810000Y-123720000D01*
X128810000Y-125220000D01*
G36*
X128810000Y-125220000D02*
G01*
X127810000Y-123720000D01*
X129810000Y-123720000D01*
X128810000Y-125220000D01*
G37*
D11*
%TO.C,C15*%
X115100000Y-117070000D02*
X115437000Y-117070000D01*
X115100000Y-122310000D02*
X115100000Y-117070000D01*
X115437000Y-122310000D02*
X115100000Y-122310000D01*
X117503000Y-117070000D02*
X117840000Y-117070000D01*
X117840000Y-117070000D02*
X117840000Y-122310000D01*
X117840000Y-122310000D02*
X117503000Y-122310000D01*
D10*
%TO.C,HS2*%
X92647500Y-135210000D02*
X107647500Y-135210000D01*
X92647500Y-145210000D02*
X92647500Y-135210000D01*
X94647500Y-137210000D02*
X94647500Y-145210000D01*
X94647500Y-145210000D02*
X92647500Y-145210000D01*
X105647500Y-137210000D02*
X94647500Y-137210000D01*
X105647500Y-145210000D02*
X105647500Y-137210000D01*
X107647500Y-135210000D02*
X107647500Y-145210000D01*
X107647500Y-145210000D02*
X105647500Y-145210000D01*
D11*
%TO.C,D5*%
X114950000Y-132130000D02*
X115970000Y-132130000D01*
X120390000Y-133600000D02*
X120390000Y-130660000D01*
X120510000Y-133600000D02*
X120510000Y-130660000D01*
X120630000Y-133600000D02*
X120630000Y-130660000D01*
X122430000Y-132130000D02*
X121410000Y-132130000D01*
X121410000Y-133600000D02*
X115970000Y-133600000D01*
X115970000Y-130660000D01*
X121410000Y-130660000D01*
X121410000Y-133600000D01*
%TO.C,Q2*%
X106840000Y-123810000D02*
X111481000Y-123810000D01*
X106840000Y-127079000D02*
X108350000Y-127079000D01*
X106840000Y-130780000D02*
X108350000Y-130780000D01*
X106840000Y-134050000D02*
X106840000Y-123810000D01*
X106840000Y-134050000D02*
X111481000Y-134050000D01*
X108350000Y-134050000D02*
X108350000Y-123810000D01*
X111481000Y-134050000D02*
X111481000Y-123810000D01*
%TO.C,F1*%
X79742500Y-127500000D02*
X88982500Y-127500000D01*
X79742500Y-129820000D02*
X79742500Y-127500000D01*
X79742500Y-137740000D02*
X79742500Y-130420000D01*
X80262500Y-127500000D02*
X80262500Y-137740000D01*
X81362500Y-127500000D02*
X81362500Y-137740000D01*
X88982500Y-127500000D02*
X88982500Y-137740000D01*
X88982500Y-137740000D02*
X79742500Y-137740000D01*
X79742500Y-130120000D02*
X79132500Y-130560000D01*
X79132500Y-129680000D01*
X79742500Y-130120000D01*
G36*
X79742500Y-130120000D02*
G01*
X79132500Y-130560000D01*
X79132500Y-129680000D01*
X79742500Y-130120000D01*
G37*
%TO.C,R26*%
X109498000Y-95123000D02*
X110268000Y-95123000D01*
X117578000Y-95123000D02*
X116808000Y-95123000D01*
X110268000Y-93753000D02*
X116808000Y-93753000D01*
X116808000Y-96493000D01*
X110268000Y-96493000D01*
X110268000Y-93753000D01*
%TO.C,Q6*%
X114707500Y-137475000D02*
X114707500Y-142116000D01*
X114707500Y-137475000D02*
X124947500Y-137475000D01*
X114707500Y-138985000D02*
X124947500Y-138985000D01*
X114707500Y-142116000D02*
X124947500Y-142116000D01*
X117977500Y-137475000D02*
X117977500Y-138985000D01*
X121678500Y-137475000D02*
X121678500Y-138985000D01*
X124947500Y-137475000D02*
X124947500Y-142116000D01*
%TD*%
M02*
