%TF.GenerationSoftware,KiCad,Pcbnew,9.0.4*%
%TF.CreationDate,2025-09-07T14:44:28+03:00*%
%TF.ProjectId,Protection,50726f74-6563-4746-996f-6e2e6b696361,1.0*%
%TF.SameCoordinates,Original*%
%TF.FileFunction,Legend,Bot*%
%TF.FilePolarity,Positive*%
%FSLAX46Y46*%
G04 Gerber Fmt 4.6, Leading zero omitted, Abs format (unit mm)*
G04 Created by KiCad (PCBNEW 9.0.4) date 2025-09-07 14:44:28*
%MOMM*%
%LPD*%
G01*
G04 APERTURE LIST*
%ADD10C,0.100000*%
%ADD11C,0.120000*%
G04 APERTURE END LIST*
D10*
X130605104Y-137175475D02*
X131405104Y-137175475D01*
X131405104Y-137175475D02*
X131405104Y-136984999D01*
X131405104Y-136984999D02*
X131367009Y-136870713D01*
X131367009Y-136870713D02*
X131290819Y-136794523D01*
X131290819Y-136794523D02*
X131214628Y-136756428D01*
X131214628Y-136756428D02*
X131062247Y-136718332D01*
X131062247Y-136718332D02*
X130947961Y-136718332D01*
X130947961Y-136718332D02*
X130795580Y-136756428D01*
X130795580Y-136756428D02*
X130719390Y-136794523D01*
X130719390Y-136794523D02*
X130643200Y-136870713D01*
X130643200Y-136870713D02*
X130605104Y-136984999D01*
X130605104Y-136984999D02*
X130605104Y-137175475D01*
X130605104Y-135956428D02*
X130605104Y-136413571D01*
X130605104Y-136184999D02*
X131405104Y-136184999D01*
X131405104Y-136184999D02*
X131290819Y-136261190D01*
X131290819Y-136261190D02*
X131214628Y-136337380D01*
X131214628Y-136337380D02*
X131176533Y-136413571D01*
X117480475Y-137584895D02*
X117480475Y-136784895D01*
X117480475Y-136784895D02*
X117289999Y-136784895D01*
X117289999Y-136784895D02*
X117175713Y-136822990D01*
X117175713Y-136822990D02*
X117099523Y-136899180D01*
X117099523Y-136899180D02*
X117061428Y-136975371D01*
X117061428Y-136975371D02*
X117023332Y-137127752D01*
X117023332Y-137127752D02*
X117023332Y-137242038D01*
X117023332Y-137242038D02*
X117061428Y-137394419D01*
X117061428Y-137394419D02*
X117099523Y-137470609D01*
X117099523Y-137470609D02*
X117175713Y-137546800D01*
X117175713Y-137546800D02*
X117289999Y-137584895D01*
X117289999Y-137584895D02*
X117480475Y-137584895D01*
X116756666Y-136784895D02*
X116223332Y-136784895D01*
X116223332Y-136784895D02*
X116566190Y-137584895D01*
X97920475Y-137684895D02*
X97920475Y-136884895D01*
X97920475Y-136884895D02*
X97729999Y-136884895D01*
X97729999Y-136884895D02*
X97615713Y-136922990D01*
X97615713Y-136922990D02*
X97539523Y-136999180D01*
X97539523Y-136999180D02*
X97501428Y-137075371D01*
X97501428Y-137075371D02*
X97463332Y-137227752D01*
X97463332Y-137227752D02*
X97463332Y-137342038D01*
X97463332Y-137342038D02*
X97501428Y-137494419D01*
X97501428Y-137494419D02*
X97539523Y-137570609D01*
X97539523Y-137570609D02*
X97615713Y-137646800D01*
X97615713Y-137646800D02*
X97729999Y-137684895D01*
X97729999Y-137684895D02*
X97920475Y-137684895D01*
X96777618Y-136884895D02*
X96929999Y-136884895D01*
X96929999Y-136884895D02*
X97006190Y-136922990D01*
X97006190Y-136922990D02*
X97044285Y-136961085D01*
X97044285Y-136961085D02*
X97120475Y-137075371D01*
X97120475Y-137075371D02*
X97158571Y-137227752D01*
X97158571Y-137227752D02*
X97158571Y-137532514D01*
X97158571Y-137532514D02*
X97120475Y-137608704D01*
X97120475Y-137608704D02*
X97082380Y-137646800D01*
X97082380Y-137646800D02*
X97006190Y-137684895D01*
X97006190Y-137684895D02*
X96853809Y-137684895D01*
X96853809Y-137684895D02*
X96777618Y-137646800D01*
X96777618Y-137646800D02*
X96739523Y-137608704D01*
X96739523Y-137608704D02*
X96701428Y-137532514D01*
X96701428Y-137532514D02*
X96701428Y-137342038D01*
X96701428Y-137342038D02*
X96739523Y-137265847D01*
X96739523Y-137265847D02*
X96777618Y-137227752D01*
X96777618Y-137227752D02*
X96853809Y-137189657D01*
X96853809Y-137189657D02*
X97006190Y-137189657D01*
X97006190Y-137189657D02*
X97082380Y-137227752D01*
X97082380Y-137227752D02*
X97120475Y-137265847D01*
X97120475Y-137265847D02*
X97158571Y-137342038D01*
X118834285Y-110368704D02*
X118872381Y-110406800D01*
X118872381Y-110406800D02*
X118986666Y-110444895D01*
X118986666Y-110444895D02*
X119062857Y-110444895D01*
X119062857Y-110444895D02*
X119177143Y-110406800D01*
X119177143Y-110406800D02*
X119253333Y-110330609D01*
X119253333Y-110330609D02*
X119291428Y-110254419D01*
X119291428Y-110254419D02*
X119329524Y-110102038D01*
X119329524Y-110102038D02*
X119329524Y-109987752D01*
X119329524Y-109987752D02*
X119291428Y-109835371D01*
X119291428Y-109835371D02*
X119253333Y-109759180D01*
X119253333Y-109759180D02*
X119177143Y-109682990D01*
X119177143Y-109682990D02*
X119062857Y-109644895D01*
X119062857Y-109644895D02*
X118986666Y-109644895D01*
X118986666Y-109644895D02*
X118872381Y-109682990D01*
X118872381Y-109682990D02*
X118834285Y-109721085D01*
X118072381Y-110444895D02*
X118529524Y-110444895D01*
X118300952Y-110444895D02*
X118300952Y-109644895D01*
X118300952Y-109644895D02*
X118377143Y-109759180D01*
X118377143Y-109759180D02*
X118453333Y-109835371D01*
X118453333Y-109835371D02*
X118529524Y-109873466D01*
X117767619Y-109721085D02*
X117729523Y-109682990D01*
X117729523Y-109682990D02*
X117653333Y-109644895D01*
X117653333Y-109644895D02*
X117462857Y-109644895D01*
X117462857Y-109644895D02*
X117386666Y-109682990D01*
X117386666Y-109682990D02*
X117348571Y-109721085D01*
X117348571Y-109721085D02*
X117310476Y-109797276D01*
X117310476Y-109797276D02*
X117310476Y-109873466D01*
X117310476Y-109873466D02*
X117348571Y-109987752D01*
X117348571Y-109987752D02*
X117805714Y-110444895D01*
X117805714Y-110444895D02*
X117310476Y-110444895D01*
D11*
%TO.C,D1*%
X129170000Y-128610000D02*
X132770000Y-128610000D01*
X129170000Y-135810000D02*
X129170000Y-128610000D01*
X132770000Y-128610000D02*
X132770000Y-135810000D01*
X132770000Y-135810000D02*
X129170000Y-135810000D01*
D10*
X129170000Y-131010000D02*
X128770000Y-131010000D01*
X128770000Y-129910000D01*
X129170000Y-129910000D01*
X129170000Y-131010000D01*
G36*
X129170000Y-131010000D02*
G01*
X128770000Y-131010000D01*
X128770000Y-129910000D01*
X129170000Y-129910000D01*
X129170000Y-131010000D01*
G37*
X133170000Y-131010000D02*
X132770000Y-131010000D01*
X132770000Y-129910000D01*
X133170000Y-129910000D01*
X133170000Y-131010000D01*
G36*
X133170000Y-131010000D02*
G01*
X132770000Y-131010000D01*
X132770000Y-129910000D01*
X133170000Y-129910000D01*
X133170000Y-131010000D01*
G37*
D11*
%TO.C,D7*%
X118220000Y-135310000D02*
X125420000Y-135310000D01*
X118220000Y-138910000D02*
X118220000Y-135310000D01*
X125420000Y-135310000D02*
X125420000Y-138910000D01*
X125420000Y-138910000D02*
X118220000Y-138910000D01*
D10*
X120620000Y-135310000D02*
X119520000Y-135310000D01*
X119520000Y-134910000D01*
X120620000Y-134910000D01*
X120620000Y-135310000D01*
G36*
X120620000Y-135310000D02*
G01*
X119520000Y-135310000D01*
X119520000Y-134910000D01*
X120620000Y-134910000D01*
X120620000Y-135310000D01*
G37*
X120620000Y-139310000D02*
X119520000Y-139310000D01*
X119520000Y-138910000D01*
X120620000Y-138910000D01*
X120620000Y-139310000D01*
G36*
X120620000Y-139310000D02*
G01*
X119520000Y-139310000D01*
X119520000Y-138910000D01*
X120620000Y-138910000D01*
X120620000Y-139310000D01*
G37*
D11*
%TO.C,D6*%
X98520000Y-135310000D02*
X105720000Y-135310000D01*
X98520000Y-138910000D02*
X98520000Y-135310000D01*
X105720000Y-135310000D02*
X105720000Y-138910000D01*
X105720000Y-138910000D02*
X98520000Y-138910000D01*
D10*
X100920000Y-135310000D02*
X99820000Y-135310000D01*
X99820000Y-134910000D01*
X100920000Y-134910000D01*
X100920000Y-135310000D01*
G36*
X100920000Y-135310000D02*
G01*
X99820000Y-135310000D01*
X99820000Y-134910000D01*
X100920000Y-134910000D01*
X100920000Y-135310000D01*
G37*
X100920000Y-139310000D02*
X99820000Y-139310000D01*
X99820000Y-138910000D01*
X100920000Y-138910000D01*
X100920000Y-139310000D01*
G36*
X100920000Y-139310000D02*
G01*
X99820000Y-139310000D01*
X99820000Y-138910000D01*
X100920000Y-138910000D01*
X100920000Y-139310000D01*
G37*
D11*
%TO.C,C12*%
X119031252Y-111020000D02*
X117608748Y-111020000D01*
X119031252Y-112840000D02*
X117608748Y-112840000D01*
%TD*%
M02*
