%TF.GenerationSoftware,KiCad,Pcbnew,9.0.3*%
%TF.CreationDate,2025-08-27T16:52:30+03:00*%
%TF.ProjectId,Protection,50726f74-6563-4746-996f-6e2e6b696361,1.0*%
%TF.SameCoordinates,Original*%
%TF.FileFunction,AssemblyDrawing,Bot*%
%FSLAX46Y46*%
G04 Gerber Fmt 4.6, Leading zero omitted, Abs format (unit mm)*
G04 Created by KiCad (PCBNEW 9.0.3) date 2025-08-27 16:52:30*
%MOMM*%
%LPD*%
G01*
G04 APERTURE LIST*
%ADD10C,0.100000*%
%ADD11C,0.150000*%
%ADD12C,0.120000*%
G04 APERTURE END LIST*
D10*
X130605104Y-133200475D02*
X131405104Y-133200475D01*
X131405104Y-133200475D02*
X131405104Y-133009999D01*
X131405104Y-133009999D02*
X131367009Y-132895713D01*
X131367009Y-132895713D02*
X131290819Y-132819523D01*
X131290819Y-132819523D02*
X131214628Y-132781428D01*
X131214628Y-132781428D02*
X131062247Y-132743332D01*
X131062247Y-132743332D02*
X130947961Y-132743332D01*
X130947961Y-132743332D02*
X130795580Y-132781428D01*
X130795580Y-132781428D02*
X130719390Y-132819523D01*
X130719390Y-132819523D02*
X130643200Y-132895713D01*
X130643200Y-132895713D02*
X130605104Y-133009999D01*
X130605104Y-133009999D02*
X130605104Y-133200475D01*
X130605104Y-131981428D02*
X130605104Y-132438571D01*
X130605104Y-132209999D02*
X131405104Y-132209999D01*
X131405104Y-132209999D02*
X131290819Y-132286190D01*
X131290819Y-132286190D02*
X131214628Y-132362380D01*
X131214628Y-132362380D02*
X131176533Y-132438571D01*
X122810475Y-137474895D02*
X122810475Y-136674895D01*
X122810475Y-136674895D02*
X122619999Y-136674895D01*
X122619999Y-136674895D02*
X122505713Y-136712990D01*
X122505713Y-136712990D02*
X122429523Y-136789180D01*
X122429523Y-136789180D02*
X122391428Y-136865371D01*
X122391428Y-136865371D02*
X122353332Y-137017752D01*
X122353332Y-137017752D02*
X122353332Y-137132038D01*
X122353332Y-137132038D02*
X122391428Y-137284419D01*
X122391428Y-137284419D02*
X122429523Y-137360609D01*
X122429523Y-137360609D02*
X122505713Y-137436800D01*
X122505713Y-137436800D02*
X122619999Y-137474895D01*
X122619999Y-137474895D02*
X122810475Y-137474895D01*
X122086666Y-136674895D02*
X121553332Y-136674895D01*
X121553332Y-136674895D02*
X121896190Y-137474895D01*
X103110475Y-137474895D02*
X103110475Y-136674895D01*
X103110475Y-136674895D02*
X102919999Y-136674895D01*
X102919999Y-136674895D02*
X102805713Y-136712990D01*
X102805713Y-136712990D02*
X102729523Y-136789180D01*
X102729523Y-136789180D02*
X102691428Y-136865371D01*
X102691428Y-136865371D02*
X102653332Y-137017752D01*
X102653332Y-137017752D02*
X102653332Y-137132038D01*
X102653332Y-137132038D02*
X102691428Y-137284419D01*
X102691428Y-137284419D02*
X102729523Y-137360609D01*
X102729523Y-137360609D02*
X102805713Y-137436800D01*
X102805713Y-137436800D02*
X102919999Y-137474895D01*
X102919999Y-137474895D02*
X103110475Y-137474895D01*
X101967618Y-136674895D02*
X102119999Y-136674895D01*
X102119999Y-136674895D02*
X102196190Y-136712990D01*
X102196190Y-136712990D02*
X102234285Y-136751085D01*
X102234285Y-136751085D02*
X102310475Y-136865371D01*
X102310475Y-136865371D02*
X102348571Y-137017752D01*
X102348571Y-137017752D02*
X102348571Y-137322514D01*
X102348571Y-137322514D02*
X102310475Y-137398704D01*
X102310475Y-137398704D02*
X102272380Y-137436800D01*
X102272380Y-137436800D02*
X102196190Y-137474895D01*
X102196190Y-137474895D02*
X102043809Y-137474895D01*
X102043809Y-137474895D02*
X101967618Y-137436800D01*
X101967618Y-137436800D02*
X101929523Y-137398704D01*
X101929523Y-137398704D02*
X101891428Y-137322514D01*
X101891428Y-137322514D02*
X101891428Y-137132038D01*
X101891428Y-137132038D02*
X101929523Y-137055847D01*
X101929523Y-137055847D02*
X101967618Y-137017752D01*
X101967618Y-137017752D02*
X102043809Y-136979657D01*
X102043809Y-136979657D02*
X102196190Y-136979657D01*
X102196190Y-136979657D02*
X102272380Y-137017752D01*
X102272380Y-137017752D02*
X102310475Y-137055847D01*
X102310475Y-137055847D02*
X102348571Y-137132038D01*
D11*
X119058095Y-113568152D02*
X119058095Y-114234819D01*
X119296190Y-113187200D02*
X119534285Y-113901485D01*
X119534285Y-113901485D02*
X118915238Y-113901485D01*
X118105714Y-113568152D02*
X118105714Y-114234819D01*
X118534285Y-113568152D02*
X118534285Y-114091961D01*
X118534285Y-114091961D02*
X118486666Y-114187200D01*
X118486666Y-114187200D02*
X118391428Y-114234819D01*
X118391428Y-114234819D02*
X118248571Y-114234819D01*
X118248571Y-114234819D02*
X118153333Y-114187200D01*
X118153333Y-114187200D02*
X118105714Y-114139580D01*
X117724761Y-113234819D02*
X117058095Y-113234819D01*
X117058095Y-113234819D02*
X117486666Y-114234819D01*
D12*
X118834285Y-112217664D02*
X118872381Y-112255760D01*
X118872381Y-112255760D02*
X118986666Y-112293855D01*
X118986666Y-112293855D02*
X119062857Y-112293855D01*
X119062857Y-112293855D02*
X119177143Y-112255760D01*
X119177143Y-112255760D02*
X119253333Y-112179569D01*
X119253333Y-112179569D02*
X119291428Y-112103379D01*
X119291428Y-112103379D02*
X119329524Y-111950998D01*
X119329524Y-111950998D02*
X119329524Y-111836712D01*
X119329524Y-111836712D02*
X119291428Y-111684331D01*
X119291428Y-111684331D02*
X119253333Y-111608140D01*
X119253333Y-111608140D02*
X119177143Y-111531950D01*
X119177143Y-111531950D02*
X119062857Y-111493855D01*
X119062857Y-111493855D02*
X118986666Y-111493855D01*
X118986666Y-111493855D02*
X118872381Y-111531950D01*
X118872381Y-111531950D02*
X118834285Y-111570045D01*
X118072381Y-112293855D02*
X118529524Y-112293855D01*
X118300952Y-112293855D02*
X118300952Y-111493855D01*
X118300952Y-111493855D02*
X118377143Y-111608140D01*
X118377143Y-111608140D02*
X118453333Y-111684331D01*
X118453333Y-111684331D02*
X118529524Y-111722426D01*
X117767619Y-111570045D02*
X117729523Y-111531950D01*
X117729523Y-111531950D02*
X117653333Y-111493855D01*
X117653333Y-111493855D02*
X117462857Y-111493855D01*
X117462857Y-111493855D02*
X117386666Y-111531950D01*
X117386666Y-111531950D02*
X117348571Y-111570045D01*
X117348571Y-111570045D02*
X117310476Y-111646236D01*
X117310476Y-111646236D02*
X117310476Y-111722426D01*
X117310476Y-111722426D02*
X117348571Y-111836712D01*
X117348571Y-111836712D02*
X117805714Y-112293855D01*
X117805714Y-112293855D02*
X117310476Y-112293855D01*
D10*
%TO.C,D1*%
X129470000Y-134510000D02*
X129470000Y-129910000D01*
X129470000Y-134510000D02*
X132470000Y-134510000D01*
X132470000Y-129910000D02*
X129470000Y-129910000D01*
X132470000Y-134510000D02*
X132470000Y-129910000D01*
X129470000Y-130310000D02*
X132470000Y-130310000D01*
X132470000Y-130810000D01*
X129470000Y-130810000D01*
X129470000Y-130310000D01*
G36*
X129470000Y-130310000D02*
G01*
X132470000Y-130310000D01*
X132470000Y-130810000D01*
X129470000Y-130810000D01*
X129470000Y-130310000D01*
G37*
%TO.C,D7*%
X119520000Y-135610000D02*
X119520000Y-138610000D01*
X124120000Y-135610000D02*
X119520000Y-135610000D01*
X124120000Y-138610000D02*
X119520000Y-138610000D01*
X124120000Y-138610000D02*
X124120000Y-135610000D01*
X119920000Y-138610000D02*
X120420000Y-138610000D01*
X120420000Y-135610000D01*
X119920000Y-135610000D01*
X119920000Y-138610000D01*
G36*
X119920000Y-138610000D02*
G01*
X120420000Y-138610000D01*
X120420000Y-135610000D01*
X119920000Y-135610000D01*
X119920000Y-138610000D01*
G37*
%TO.C,D6*%
X99820000Y-135610000D02*
X99820000Y-138610000D01*
X104420000Y-135610000D02*
X99820000Y-135610000D01*
X104420000Y-138610000D02*
X99820000Y-138610000D01*
X104420000Y-138610000D02*
X104420000Y-135610000D01*
X100220000Y-138610000D02*
X100720000Y-138610000D01*
X100720000Y-135610000D01*
X100220000Y-135610000D01*
X100220000Y-138610000D01*
G36*
X100220000Y-138610000D02*
G01*
X100720000Y-138610000D01*
X100720000Y-135610000D01*
X100220000Y-135610000D01*
X100220000Y-138610000D01*
G37*
%TO.C,C12*%
X116720000Y-111130000D02*
X116720000Y-112730000D01*
X116720000Y-112730000D02*
X119920000Y-112730000D01*
X119920000Y-111130000D02*
X116720000Y-111130000D01*
X119920000Y-112730000D02*
X119920000Y-111130000D01*
%TD*%
M02*
