%TF.GenerationSoftware,KiCad,Pcbnew,9.0.4*%
%TF.CreationDate,2025-09-07T14:44:28+03:00*%
%TF.ProjectId,Protection,50726f74-6563-4746-996f-6e2e6b696361,1.0*%
%TF.SameCoordinates,Original*%
%TF.FileFunction,AssemblyDrawing,Bot*%
%FSLAX46Y46*%
G04 Gerber Fmt 4.6, Leading zero omitted, Abs format (unit mm)*
G04 Created by KiCad (PCBNEW 9.0.4) date 2025-09-07 14:44:28*
%MOMM*%
%LPD*%
G01*
G04 APERTURE LIST*
%ADD10C,0.100000*%
G04 APERTURE END LIST*
D10*
X130605104Y-133200475D02*
X131405104Y-133200475D01*
X131405104Y-133200475D02*
X131405104Y-133009999D01*
X131405104Y-133009999D02*
X131367009Y-132895713D01*
X131367009Y-132895713D02*
X131290819Y-132819523D01*
X131290819Y-132819523D02*
X131214628Y-132781428D01*
X131214628Y-132781428D02*
X131062247Y-132743332D01*
X131062247Y-132743332D02*
X130947961Y-132743332D01*
X130947961Y-132743332D02*
X130795580Y-132781428D01*
X130795580Y-132781428D02*
X130719390Y-132819523D01*
X130719390Y-132819523D02*
X130643200Y-132895713D01*
X130643200Y-132895713D02*
X130605104Y-133009999D01*
X130605104Y-133009999D02*
X130605104Y-133200475D01*
X130605104Y-131981428D02*
X130605104Y-132438571D01*
X130605104Y-132209999D02*
X131405104Y-132209999D01*
X131405104Y-132209999D02*
X131290819Y-132286190D01*
X131290819Y-132286190D02*
X131214628Y-132362380D01*
X131214628Y-132362380D02*
X131176533Y-132438571D01*
X122810475Y-137474895D02*
X122810475Y-136674895D01*
X122810475Y-136674895D02*
X122619999Y-136674895D01*
X122619999Y-136674895D02*
X122505713Y-136712990D01*
X122505713Y-136712990D02*
X122429523Y-136789180D01*
X122429523Y-136789180D02*
X122391428Y-136865371D01*
X122391428Y-136865371D02*
X122353332Y-137017752D01*
X122353332Y-137017752D02*
X122353332Y-137132038D01*
X122353332Y-137132038D02*
X122391428Y-137284419D01*
X122391428Y-137284419D02*
X122429523Y-137360609D01*
X122429523Y-137360609D02*
X122505713Y-137436800D01*
X122505713Y-137436800D02*
X122619999Y-137474895D01*
X122619999Y-137474895D02*
X122810475Y-137474895D01*
X122086666Y-136674895D02*
X121553332Y-136674895D01*
X121553332Y-136674895D02*
X121896190Y-137474895D01*
X103110475Y-137474895D02*
X103110475Y-136674895D01*
X103110475Y-136674895D02*
X102919999Y-136674895D01*
X102919999Y-136674895D02*
X102805713Y-136712990D01*
X102805713Y-136712990D02*
X102729523Y-136789180D01*
X102729523Y-136789180D02*
X102691428Y-136865371D01*
X102691428Y-136865371D02*
X102653332Y-137017752D01*
X102653332Y-137017752D02*
X102653332Y-137132038D01*
X102653332Y-137132038D02*
X102691428Y-137284419D01*
X102691428Y-137284419D02*
X102729523Y-137360609D01*
X102729523Y-137360609D02*
X102805713Y-137436800D01*
X102805713Y-137436800D02*
X102919999Y-137474895D01*
X102919999Y-137474895D02*
X103110475Y-137474895D01*
X101967618Y-136674895D02*
X102119999Y-136674895D01*
X102119999Y-136674895D02*
X102196190Y-136712990D01*
X102196190Y-136712990D02*
X102234285Y-136751085D01*
X102234285Y-136751085D02*
X102310475Y-136865371D01*
X102310475Y-136865371D02*
X102348571Y-137017752D01*
X102348571Y-137017752D02*
X102348571Y-137322514D01*
X102348571Y-137322514D02*
X102310475Y-137398704D01*
X102310475Y-137398704D02*
X102272380Y-137436800D01*
X102272380Y-137436800D02*
X102196190Y-137474895D01*
X102196190Y-137474895D02*
X102043809Y-137474895D01*
X102043809Y-137474895D02*
X101967618Y-137436800D01*
X101967618Y-137436800D02*
X101929523Y-137398704D01*
X101929523Y-137398704D02*
X101891428Y-137322514D01*
X101891428Y-137322514D02*
X101891428Y-137132038D01*
X101891428Y-137132038D02*
X101929523Y-137055847D01*
X101929523Y-137055847D02*
X101967618Y-137017752D01*
X101967618Y-137017752D02*
X102043809Y-136979657D01*
X102043809Y-136979657D02*
X102196190Y-136979657D01*
X102196190Y-136979657D02*
X102272380Y-137017752D01*
X102272380Y-137017752D02*
X102310475Y-137055847D01*
X102310475Y-137055847D02*
X102348571Y-137132038D01*
X118910476Y-113611561D02*
X118910476Y-114144895D01*
X119100952Y-113306800D02*
X119291429Y-113878228D01*
X119291429Y-113878228D02*
X118796190Y-113878228D01*
X118148571Y-113611561D02*
X118148571Y-114144895D01*
X118491428Y-113611561D02*
X118491428Y-114030609D01*
X118491428Y-114030609D02*
X118453333Y-114106800D01*
X118453333Y-114106800D02*
X118377143Y-114144895D01*
X118377143Y-114144895D02*
X118262857Y-114144895D01*
X118262857Y-114144895D02*
X118186666Y-114106800D01*
X118186666Y-114106800D02*
X118148571Y-114068704D01*
X117843809Y-113344895D02*
X117310475Y-113344895D01*
X117310475Y-113344895D02*
X117653333Y-114144895D01*
X118834285Y-112218704D02*
X118872381Y-112256800D01*
X118872381Y-112256800D02*
X118986666Y-112294895D01*
X118986666Y-112294895D02*
X119062857Y-112294895D01*
X119062857Y-112294895D02*
X119177143Y-112256800D01*
X119177143Y-112256800D02*
X119253333Y-112180609D01*
X119253333Y-112180609D02*
X119291428Y-112104419D01*
X119291428Y-112104419D02*
X119329524Y-111952038D01*
X119329524Y-111952038D02*
X119329524Y-111837752D01*
X119329524Y-111837752D02*
X119291428Y-111685371D01*
X119291428Y-111685371D02*
X119253333Y-111609180D01*
X119253333Y-111609180D02*
X119177143Y-111532990D01*
X119177143Y-111532990D02*
X119062857Y-111494895D01*
X119062857Y-111494895D02*
X118986666Y-111494895D01*
X118986666Y-111494895D02*
X118872381Y-111532990D01*
X118872381Y-111532990D02*
X118834285Y-111571085D01*
X118072381Y-112294895D02*
X118529524Y-112294895D01*
X118300952Y-112294895D02*
X118300952Y-111494895D01*
X118300952Y-111494895D02*
X118377143Y-111609180D01*
X118377143Y-111609180D02*
X118453333Y-111685371D01*
X118453333Y-111685371D02*
X118529524Y-111723466D01*
X117767619Y-111571085D02*
X117729523Y-111532990D01*
X117729523Y-111532990D02*
X117653333Y-111494895D01*
X117653333Y-111494895D02*
X117462857Y-111494895D01*
X117462857Y-111494895D02*
X117386666Y-111532990D01*
X117386666Y-111532990D02*
X117348571Y-111571085D01*
X117348571Y-111571085D02*
X117310476Y-111647276D01*
X117310476Y-111647276D02*
X117310476Y-111723466D01*
X117310476Y-111723466D02*
X117348571Y-111837752D01*
X117348571Y-111837752D02*
X117805714Y-112294895D01*
X117805714Y-112294895D02*
X117310476Y-112294895D01*
%TO.C,D1*%
X129470000Y-134510000D02*
X129470000Y-129910000D01*
X129470000Y-134510000D02*
X132470000Y-134510000D01*
X132470000Y-129910000D02*
X129470000Y-129910000D01*
X132470000Y-134510000D02*
X132470000Y-129910000D01*
X129470000Y-130310000D02*
X132470000Y-130310000D01*
X132470000Y-130810000D01*
X129470000Y-130810000D01*
X129470000Y-130310000D01*
G36*
X129470000Y-130310000D02*
G01*
X132470000Y-130310000D01*
X132470000Y-130810000D01*
X129470000Y-130810000D01*
X129470000Y-130310000D01*
G37*
%TO.C,D7*%
X119520000Y-135610000D02*
X119520000Y-138610000D01*
X124120000Y-135610000D02*
X119520000Y-135610000D01*
X124120000Y-138610000D02*
X119520000Y-138610000D01*
X124120000Y-138610000D02*
X124120000Y-135610000D01*
X119920000Y-138610000D02*
X120420000Y-138610000D01*
X120420000Y-135610000D01*
X119920000Y-135610000D01*
X119920000Y-138610000D01*
G36*
X119920000Y-138610000D02*
G01*
X120420000Y-138610000D01*
X120420000Y-135610000D01*
X119920000Y-135610000D01*
X119920000Y-138610000D01*
G37*
%TO.C,D6*%
X99820000Y-135610000D02*
X99820000Y-138610000D01*
X104420000Y-135610000D02*
X99820000Y-135610000D01*
X104420000Y-138610000D02*
X99820000Y-138610000D01*
X104420000Y-138610000D02*
X104420000Y-135610000D01*
X100220000Y-138610000D02*
X100720000Y-138610000D01*
X100720000Y-135610000D01*
X100220000Y-135610000D01*
X100220000Y-138610000D01*
G36*
X100220000Y-138610000D02*
G01*
X100720000Y-138610000D01*
X100720000Y-135610000D01*
X100220000Y-135610000D01*
X100220000Y-138610000D01*
G37*
%TO.C,C12*%
X116720000Y-111130000D02*
X116720000Y-112730000D01*
X116720000Y-112730000D02*
X119920000Y-112730000D01*
X119920000Y-111130000D02*
X116720000Y-111130000D01*
X119920000Y-112730000D02*
X119920000Y-111130000D01*
%TD*%
M02*
