%TF.GenerationSoftware,KiCad,Pcbnew,9.0.3*%
%TF.CreationDate,2025-08-27T16:52:30+03:00*%
%TF.ProjectId,Protection,50726f74-6563-4746-996f-6e2e6b696361,1.0*%
%TF.SameCoordinates,Original*%
%TF.FileFunction,Soldermask,Top*%
%TF.FilePolarity,Negative*%
%FSLAX46Y46*%
G04 Gerber Fmt 4.6, Leading zero omitted, Abs format (unit mm)*
G04 Created by KiCad (PCBNEW 9.0.3) date 2025-08-27 16:52:30*
%MOMM*%
%LPD*%
G01*
G04 APERTURE LIST*
G04 Aperture macros list*
%AMRoundRect*
0 Rectangle with rounded corners*
0 $1 Rounding radius*
0 $2 $3 $4 $5 $6 $7 $8 $9 X,Y pos of 4 corners*
0 Add a 4 corners polygon primitive as box body*
4,1,4,$2,$3,$4,$5,$6,$7,$8,$9,$2,$3,0*
0 Add four circle primitives for the rounded corners*
1,1,$1+$1,$2,$3*
1,1,$1+$1,$4,$5*
1,1,$1+$1,$6,$7*
1,1,$1+$1,$8,$9*
0 Add four rect primitives between the rounded corners*
20,1,$1+$1,$2,$3,$4,$5,0*
20,1,$1+$1,$4,$5,$6,$7,0*
20,1,$1+$1,$6,$7,$8,$9,0*
20,1,$1+$1,$8,$9,$2,$3,0*%
G04 Aperture macros list end*
%ADD10RoundRect,0.249999X-0.850001X0.850001X-0.850001X-0.850001X0.850001X-0.850001X0.850001X0.850001X0*%
%ADD11C,2.200000*%
%ADD12R,1.500000X1.500000*%
%ADD13C,1.500000*%
%ADD14RoundRect,0.250000X-0.750000X0.750000X-0.750000X-0.750000X0.750000X-0.750000X0.750000X0.750000X0*%
%ADD15C,2.000000*%
%ADD16C,1.600000*%
%ADD17C,3.200000*%
%ADD18RoundRect,0.102000X-0.669000X-0.669000X0.669000X-0.669000X0.669000X0.669000X-0.669000X0.669000X0*%
%ADD19C,1.542000*%
%ADD20RoundRect,0.250000X0.750000X-0.600000X0.750000X0.600000X-0.750000X0.600000X-0.750000X-0.600000X0*%
%ADD21O,2.000000X1.700000*%
%ADD22R,1.500000X1.050000*%
%ADD23O,1.500000X1.050000*%
%ADD24RoundRect,0.250000X-0.550000X0.550000X-0.550000X-0.550000X0.550000X-0.550000X0.550000X0.550000X0*%
%ADD25RoundRect,0.250000X1.050000X-1.050000X1.050000X1.050000X-1.050000X1.050000X-1.050000X-1.050000X0*%
%ADD26C,2.600000*%
%ADD27RoundRect,0.250000X-0.725000X0.600000X-0.725000X-0.600000X0.725000X-0.600000X0.725000X0.600000X0*%
%ADD28O,1.950000X1.700000*%
%ADD29RoundRect,0.250000X0.550000X-0.550000X0.550000X0.550000X-0.550000X0.550000X-0.550000X-0.550000X0*%
%ADD30RoundRect,0.249999X0.850001X0.850001X-0.850001X0.850001X-0.850001X-0.850001X0.850001X-0.850001X0*%
%ADD31R,2.900000X5.400000*%
%ADD32R,1.905000X2.000000*%
%ADD33O,1.905000X2.000000*%
%ADD34R,1.600000X1.600000*%
%ADD35O,1.600000X1.600000*%
%ADD36RoundRect,0.250000X1.050000X1.050000X-1.050000X1.050000X-1.050000X-1.050000X1.050000X-1.050000X0*%
%ADD37RoundRect,0.250000X-0.600000X-0.750000X0.600000X-0.750000X0.600000X0.750000X-0.600000X0.750000X0*%
%ADD38O,1.700000X2.000000*%
%ADD39R,2.000000X2.000000*%
%ADD40O,2.000000X2.000000*%
%ADD41R,2.000000X1.905000*%
%ADD42O,2.000000X1.905000*%
%ADD43RoundRect,0.250000X-1.050000X1.050000X-1.050000X-1.050000X1.050000X-1.050000X1.050000X1.050000X0*%
G04 APERTURE END LIST*
D10*
%TO.C,D4*%
X94860000Y-112800000D03*
D11*
X94860000Y-122960000D03*
%TD*%
D12*
%TO.C,Q4*%
X124350000Y-94890000D03*
D13*
X124350000Y-92350000D03*
X124350000Y-89810000D03*
%TD*%
D14*
%TO.C,C3*%
X99450000Y-70057323D03*
D15*
X99450000Y-75057323D03*
%TD*%
D16*
%TO.C,R19*%
X95020000Y-125970000D03*
X105180000Y-125970000D03*
%TD*%
%TO.C,C11*%
X98170000Y-112800000D03*
X98170000Y-117800000D03*
%TD*%
%TO.C,C10*%
X84800000Y-110575000D03*
X79800000Y-110575000D03*
%TD*%
%TO.C,R14*%
X131750000Y-102050000D03*
X131750000Y-91890000D03*
%TD*%
D17*
%TO.C,H2*%
X139000000Y-69825000D03*
%TD*%
D18*
%TO.C,PS1*%
X117350000Y-114060000D03*
D19*
X119890000Y-114060000D03*
X122430000Y-114060000D03*
X124970000Y-114060000D03*
%TD*%
D16*
%TO.C,R7*%
X105330000Y-106935000D03*
X115490000Y-106935000D03*
%TD*%
%TO.C,R5*%
X94180000Y-101740000D03*
X94180000Y-91580000D03*
%TD*%
%TO.C,R12*%
X123120000Y-77440000D03*
X123120000Y-87600000D03*
%TD*%
D17*
%TO.C,H1*%
X80975000Y-69825000D03*
%TD*%
D16*
%TO.C,R9*%
X123770000Y-128930000D03*
X113610000Y-128930000D03*
%TD*%
%TO.C,R8*%
X105330000Y-103810000D03*
X115490000Y-103810000D03*
%TD*%
%TO.C,C8*%
X84800000Y-116725000D03*
X79800000Y-116725000D03*
%TD*%
D20*
%TO.C,J2*%
X138390000Y-123110000D03*
D21*
X138390000Y-120610000D03*
%TD*%
D22*
%TO.C,U1*%
X116145000Y-96845000D03*
D23*
X116145000Y-98115000D03*
X116145000Y-99385000D03*
%TD*%
D16*
%TO.C,C7*%
X84800000Y-119825000D03*
X79800000Y-119825000D03*
%TD*%
%TO.C,R10*%
X128150000Y-102050000D03*
X128150000Y-91890000D03*
%TD*%
%TO.C,R1*%
X108425000Y-92865000D03*
X118585000Y-92865000D03*
%TD*%
%TO.C,R13*%
X131810000Y-77440000D03*
X131810000Y-87600000D03*
%TD*%
D20*
%TO.C,J6*%
X138390000Y-113910000D03*
D21*
X138390000Y-111410000D03*
%TD*%
D16*
%TO.C,R16*%
X107580000Y-80510000D03*
X117740000Y-80510000D03*
%TD*%
%TO.C,C5*%
X81050000Y-92225000D03*
X86050000Y-92225000D03*
%TD*%
%TO.C,R15*%
X94990000Y-80510000D03*
X105150000Y-80510000D03*
%TD*%
%TO.C,R22*%
X139590000Y-106630000D03*
X139590000Y-96470000D03*
%TD*%
D24*
%TO.C,U3*%
X112870000Y-114575000D03*
D16*
X110330000Y-114575000D03*
X107790000Y-114575000D03*
X105250000Y-114575000D03*
X105250000Y-122195000D03*
X107790000Y-122195000D03*
X110330000Y-122195000D03*
X112870000Y-122195000D03*
%TD*%
D25*
%TO.C,J4*%
X135217500Y-135120000D03*
D26*
X135217500Y-130120000D03*
%TD*%
D16*
%TO.C,R24*%
X134310000Y-114920000D03*
X134310000Y-125080000D03*
%TD*%
D12*
%TO.C,Q5*%
X102610000Y-84110000D03*
D13*
X100070000Y-84110000D03*
X97530000Y-84110000D03*
%TD*%
D16*
%TO.C,C6*%
X84800000Y-122975000D03*
X79800000Y-122975000D03*
%TD*%
%TO.C,C2*%
X108880000Y-100565000D03*
X108880000Y-95565000D03*
%TD*%
%TO.C,R3*%
X92570000Y-88790000D03*
X102730000Y-88790000D03*
%TD*%
%TO.C,R21*%
X113610000Y-125740000D03*
X123770000Y-125740000D03*
%TD*%
D27*
%TO.C,J5*%
X138240000Y-76900000D03*
D28*
X138240000Y-79400000D03*
X138240000Y-81900000D03*
X138240000Y-84400000D03*
X138240000Y-86900000D03*
X138240000Y-89400000D03*
X138240000Y-91900000D03*
%TD*%
D29*
%TO.C,C14*%
X121390000Y-122185113D03*
D16*
X121390000Y-119685113D03*
%TD*%
%TO.C,R2*%
X105005000Y-88790000D03*
X115165000Y-88790000D03*
%TD*%
D30*
%TO.C,D3*%
X105170000Y-132440000D03*
D11*
X95010000Y-132440000D03*
%TD*%
D31*
%TO.C,L1*%
X90975000Y-80200000D03*
X81075000Y-80200000D03*
%TD*%
D16*
%TO.C,R17*%
X117740000Y-83810000D03*
X107580000Y-83810000D03*
%TD*%
D32*
%TO.C,Q8*%
X97607500Y-140745000D03*
D33*
X100147500Y-140745000D03*
X102687500Y-140745000D03*
%TD*%
D34*
%TO.C,U2*%
X105330000Y-92990000D03*
D35*
X102790000Y-92990000D03*
X100250000Y-92990000D03*
X97710000Y-92990000D03*
X97710000Y-100610000D03*
X100250000Y-100610000D03*
X102790000Y-100610000D03*
X105330000Y-100610000D03*
%TD*%
D16*
%TO.C,C4*%
X81050000Y-103375000D03*
X86050000Y-103375000D03*
%TD*%
%TO.C,C1*%
X112180000Y-100565000D03*
X112180000Y-95565000D03*
%TD*%
%TO.C,R20*%
X120890000Y-107470000D03*
X120890000Y-97310000D03*
%TD*%
D36*
%TO.C,J1*%
X114300000Y-73850000D03*
D26*
X109300000Y-73850000D03*
%TD*%
D16*
%TO.C,R11*%
X101380000Y-112800000D03*
X101380000Y-122960000D03*
%TD*%
D12*
%TO.C,Q3*%
X127580000Y-87640000D03*
D13*
X127580000Y-85100000D03*
X127580000Y-82560000D03*
%TD*%
D37*
%TO.C,J3*%
X125360000Y-70735000D03*
D38*
X127860000Y-70735000D03*
%TD*%
D16*
%TO.C,R23*%
X136170000Y-106630000D03*
X136170000Y-96470000D03*
%TD*%
%TO.C,C9*%
X84800000Y-113655000D03*
X79800000Y-113655000D03*
%TD*%
%TO.C,R18*%
X105180000Y-129160000D03*
X95020000Y-129160000D03*
%TD*%
%TO.C,R4*%
X90950000Y-101720000D03*
X90950000Y-91560000D03*
%TD*%
%TO.C,R6*%
X91400000Y-112810000D03*
X91400000Y-122970000D03*
%TD*%
%TO.C,C13*%
X124960000Y-117360000D03*
X129960000Y-117360000D03*
%TD*%
D17*
%TO.C,H3*%
X80975000Y-142570000D03*
%TD*%
%TO.C,H4*%
X139000000Y-142570000D03*
%TD*%
D12*
%TO.C,Q1*%
X129260000Y-111520000D03*
D13*
X131800000Y-111520000D03*
X134340000Y-111520000D03*
%TD*%
D39*
%TO.C,D2*%
X128810000Y-127020000D03*
D40*
X128810000Y-121940000D03*
%TD*%
D16*
%TO.C,C15*%
X116470000Y-122190000D03*
X116470000Y-117190000D03*
%TD*%
D30*
%TO.C,D5*%
X123770000Y-132130000D03*
D11*
X113610000Y-132130000D03*
%TD*%
D41*
%TO.C,Q2*%
X110110000Y-131470000D03*
D42*
X110110000Y-128930000D03*
X110110000Y-126390000D03*
%TD*%
D43*
%TO.C,F1*%
X84862500Y-130120000D03*
D26*
X84862500Y-135120000D03*
%TD*%
D32*
%TO.C,Q6*%
X117287500Y-140745000D03*
D33*
X119827500Y-140745000D03*
X122367500Y-140745000D03*
%TD*%
M02*
