<?xml version="1.0" standalone="no"?>
<!DOCTYPE svg PUBLIC "-//W3C//DTD SVG 1.1//EN" "http://www.w3.org/Graphics/SVG/1.1/DTD/svg11.dtd">
<svg width="340mm" height="100mm" viewBox="0 0 340 100" xmlns="http://www.w3.org/2000/svg" version="1.1">
<title>OpenSCAD Model</title>
<path d="
M 205,100 L 215,100 L 215,95 L 225,95 L 225,100 L 235,100
 L 235,95 L 245,95 L 245,100 L 255,100 L 255,95 L 265,95
 L 265,100 L 275,100 L 275,95 L 285,95 L 285,100 L 295,100
 L 295,95 L 305,95 L 305,100 L 315,100 L 315,95 L 325,95
 L 325,100 L 340,100 L 340,85 L 335,85 L 335,75 L 340,75
 L 340,65 L 335,65 L 335,55 L 340,55 L 340,45 L 335,45
 L 335,35 L 340,35 L 340,25 L 335,25 L 335,15 L 340,15
 L 340,-0 L 325,-0 L 325,5.00005 L 315,5.00005 L 315,-0 L 305,-0
 L 305,5.00005 L 295,5.00005 L 295,-0 L 285,-0 L 285,5.00005 L 275,5.00005
 L 275,-0 L 265,-0 L 265,5.00005 L 255,5.00005 L 255,-0 L 245,-0
 L 245,5.00005 L 235,5.00005 L 235,-0 L 225,-0 L 225,5.00005 L 215,5.00005
 L 215,-0 L 205,-0 L 205,5.00005 L 195,5.00005 L 195,-0 L 185,-0
 L 185,5.00005 L 175,5.00005 L 175,-0 L 165,-0 L 165,5.00005 L 155,5.00005
 L 155,-0 L 145,-0 L 145,5.00005 L 135,5.00005 L 135,-0 L 125,-0
 L 125,5.00005 L 115,5.00005 L 115,-0 L 105,-0 L 105,5.00005 L 95,5.00005
 L 95,-0 L 85,-0 L 85,5.00005 L 75,5.00005 L 75,-0 L 65,-0
 L 65,5.00005 L 55,5.00005 L 55,-0 L 45,-0 L 45,5.00005 L 35,5.00005
 L 35,-0 L 25,-0 L 25,5.00005 L 15,5.00005 L 15,-0 L 0,-0
 L 0,15 L 5.00005,15 L 5.00005,25 L 0,25 L 0,35 L 5.00005,35
 L 5.00005,45 L 0,45 L 0,55 L 5.00005,55 L 5.00005,65 L 0,65
 L 0,75 L 5.00005,75 L 5.00005,85 L 0,85 L 0,100 L 15,100
 L 15,95 L 25,95 L 25,100 L 35,100 L 35,95 L 45,95
 L 45,100 L 55,100 L 55,95 L 65,95 L 65,100 L 75,100
 L 75,95 L 85,95 L 85,100 L 95,100 L 95,95 L 105,95
 L 105,100 L 115,100 L 115,95 L 125,95 L 125,100 L 135,100
 L 135,95 L 145,95 L 145,100 L 155,100 L 155,95 L 165,95
 L 165,100 L 175,100 L 175,95 L 185,95 L 185,100 L 195,100
 L 195,95 L 205,95 z
M 141.773,22.4671 L 141.153,22.3689 L 140.546,22.2063 L 139.96,21.9813 L 139.4,21.6962 L 138.873,21.3541
 L 138.385,20.9589 L 137.941,20.5148 L 137.546,20.0267 L 137.204,19.5 L 136.919,18.9404 L 136.694,18.3541
 L 136.531,17.7475 L 136.433,17.1272 L 136.4,16.5 L 136.433,15.8728 L 136.531,15.2525 L 136.694,14.6459
 L 136.919,14.0596 L 137.204,13.5 L 137.546,12.9733 L 137.941,12.4852 L 138.385,12.0411 L 138.873,11.6459
 L 139.4,11.3038 L 139.96,11.0187 L 140.546,10.7937 L 141.153,10.6311 L 141.773,10.5329 L 142.4,10.5
 L 143.027,10.5329 L 143.647,10.6311 L 144.254,10.7937 L 144.84,11.0187 L 145.4,11.3038 L 145.927,11.6459
 L 146.415,12.0411 L 146.859,12.4852 L 147.254,12.9733 L 147.596,13.5 L 147.881,14.0596 L 148.106,14.6459
 L 148.269,15.2525 L 148.367,15.8728 L 148.4,16.5 L 148.367,17.1272 L 148.269,17.7475 L 148.106,18.3541
 L 147.881,18.9404 L 147.596,19.5 L 147.254,20.0267 L 146.859,20.5148 L 146.415,20.9589 L 145.927,21.3541
 L 145.4,21.6962 L 144.84,21.9813 L 144.254,22.2063 L 143.647,22.3689 L 143.027,22.4671 L 142.4,22.5
 z
M 75.5728,22.4671 L 74.9525,22.3689 L 74.3459,22.2063 L 73.7596,21.9813 L 73.2,21.6962 L 72.6733,21.3541
 L 72.1852,20.9589 L 71.7411,20.5148 L 71.3459,20.0267 L 71.0038,19.5 L 70.7187,18.9404 L 70.4937,18.3541
 L 70.3311,17.7475 L 70.2329,17.1272 L 70.2,16.5 L 70.2329,15.8728 L 70.3311,15.2525 L 70.4937,14.6459
 L 70.7187,14.0596 L 71.0038,13.5 L 71.3459,12.9733 L 71.7411,12.4852 L 72.1852,12.0411 L 72.6733,11.6459
 L 73.2,11.3038 L 73.7596,11.0187 L 74.3459,10.7937 L 74.9525,10.6311 L 75.5728,10.5329 L 76.2,10.5
 L 76.8272,10.5329 L 77.4475,10.6311 L 78.0541,10.7937 L 78.6404,11.0187 L 79.2,11.3038 L 79.7267,11.6459
 L 80.2148,12.0411 L 80.6589,12.4852 L 81.0541,12.9733 L 81.3961,13.5 L 81.6813,14.0596 L 81.9063,14.6459
 L 82.0689,15.2525 L 82.1671,15.8728 L 82.2,16.5 L 82.1671,17.1272 L 82.0689,17.7475 L 81.9063,18.3541
 L 81.6813,18.9404 L 81.3961,19.5 L 81.0541,20.0267 L 80.6589,20.5148 L 80.2148,20.9589 L 79.7267,21.3541
 L 79.2,21.6962 L 78.6404,21.9813 L 78.0541,22.2063 L 77.4475,22.3689 L 76.8272,22.4671 L 76.2,22.5
 z
M 207.973,22.4671 L 207.353,22.3689 L 206.746,22.2063 L 206.16,21.9813 L 205.6,21.6962 L 205.073,21.3541
 L 204.585,20.9589 L 204.141,20.5148 L 203.746,20.0267 L 203.404,19.5 L 203.119,18.9404 L 202.894,18.3541
 L 202.731,17.7475 L 202.633,17.1272 L 202.6,16.5 L 202.633,15.8728 L 202.731,15.2525 L 202.894,14.6459
 L 203.119,14.0596 L 203.404,13.5 L 203.746,12.9733 L 204.141,12.4852 L 204.585,12.0411 L 205.073,11.6459
 L 205.6,11.3038 L 206.16,11.0187 L 206.746,10.7937 L 207.353,10.6311 L 207.973,10.5329 L 208.6,10.5
 L 209.227,10.5329 L 209.847,10.6311 L 210.454,10.7937 L 211.04,11.0187 L 211.6,11.3038 L 212.127,11.6459
 L 212.615,12.0411 L 213.059,12.4852 L 213.454,12.9733 L 213.796,13.5 L 214.081,14.0596 L 214.306,14.6459
 L 214.469,15.2525 L 214.567,15.8728 L 214.6,16.5 L 214.567,17.1272 L 214.469,17.7475 L 214.306,18.3541
 L 214.081,18.9404 L 213.796,19.5 L 213.454,20.0267 L 213.059,20.5148 L 212.615,20.9589 L 212.127,21.3541
 L 211.6,21.6962 L 211.04,21.9813 L 210.454,22.2063 L 209.847,22.3689 L 209.227,22.4671 L 208.6,22.5
 z
M 274.173,22.4671 L 273.553,22.3689 L 272.946,22.2063 L 272.36,21.9813 L 271.8,21.6962 L 271.273,21.3541
 L 270.785,20.9589 L 270.341,20.5148 L 269.946,20.0267 L 269.604,19.5 L 269.319,18.9404 L 269.094,18.3541
 L 268.931,17.7475 L 268.833,17.1272 L 268.8,16.5 L 268.833,15.8728 L 268.931,15.2525 L 269.094,14.6459
 L 269.319,14.0596 L 269.604,13.5 L 269.946,12.9733 L 270.341,12.4852 L 270.785,12.0411 L 271.273,11.6459
 L 271.8,11.3038 L 272.36,11.0187 L 272.946,10.7937 L 273.553,10.6311 L 274.173,10.5329 L 274.8,10.5
 L 275.427,10.5329 L 276.047,10.6311 L 276.654,10.7937 L 277.24,11.0187 L 277.8,11.3038 L 278.327,11.6459
 L 278.815,12.0411 L 279.259,12.4852 L 279.654,12.9733 L 279.996,13.5 L 280.281,14.0596 L 280.506,14.6459
 L 280.669,15.2525 L 280.767,15.8728 L 280.8,16.5 L 280.767,17.1272 L 280.669,17.7475 L 280.506,18.3541
 L 280.281,18.9404 L 279.996,19.5 L 279.654,20.0267 L 279.259,20.5148 L 278.815,20.9589 L 278.327,21.3541
 L 277.8,21.6962 L 277.24,21.9813 L 276.654,22.2063 L 276.047,22.3689 L 275.427,22.4671 L 274.8,22.5
 z
M 222.5,16.1 L 222.5,13.3 L 216.75,13.3 L 216.75,11.3 L 237.25,11.3 L 237.25,13.3
 L 231.5,13.3 L 231.5,16.1 z
M 12.8327,14.5912 L 12.6673,14.565 L 12.5056,14.5217 L 12.3492,14.4617 L 12.2,14.3856 L 12.0595,14.2944
 L 11.9294,14.189 L 11.811,14.0706 L 11.7056,13.9404 L 11.6143,13.8 L 11.5383,13.6508 L 11.4783,13.4944
 L 11.435,13.3327 L 11.4088,13.1672 L 11.4,13 L 11.4088,12.8327 L 11.435,12.6673 L 11.4783,12.5056
 L 11.5383,12.3492 L 11.6143,12.2 L 11.7056,12.0595 L 11.811,11.9294 L 11.9294,11.811 L 12.0595,11.7056
 L 12.2,11.6143 L 12.3492,11.5383 L 12.5056,11.4783 L 12.6673,11.435 L 12.8327,11.4088 L 13,11.4
 L 13.1672,11.4088 L 13.3327,11.435 L 13.4944,11.4783 L 13.6508,11.5383 L 13.8,11.6143 L 13.9404,11.7056
 L 14.0706,11.811 L 14.189,11.9294 L 14.2944,12.0595 L 14.3856,12.2 L 14.4617,12.3492 L 14.5217,12.5056
 L 14.565,12.6673 L 14.5912,12.8327 L 14.6,13 L 14.5912,13.1672 L 14.565,13.3327 L 14.5217,13.4944
 L 14.4617,13.6508 L 14.3856,13.8 L 14.2944,13.9404 L 14.189,14.0706 L 14.0706,14.189 L 13.9404,14.2944
 L 13.8,14.3856 L 13.6508,14.4617 L 13.4944,14.5217 L 13.3327,14.565 L 13.1672,14.5912 L 13,14.6
 z
M 326.833,14.5912 L 326.667,14.565 L 326.506,14.5217 L 326.349,14.4617 L 326.2,14.3856 L 326.06,14.2944
 L 325.929,14.189 L 325.811,14.0706 L 325.706,13.9404 L 325.614,13.8 L 325.538,13.6508 L 325.478,13.4944
 L 325.435,13.3327 L 325.409,13.1672 L 325.4,13 L 325.409,12.8327 L 325.435,12.6673 L 325.478,12.5056
 L 325.538,12.3492 L 325.614,12.2 L 325.706,12.0595 L 325.811,11.9294 L 325.929,11.811 L 326.06,11.7056
 L 326.2,11.6143 L 326.349,11.5383 L 326.506,11.4783 L 326.667,11.435 L 326.833,11.4088 L 327,11.4
 L 327.167,11.4088 L 327.333,11.435 L 327.494,11.4783 L 327.651,11.5383 L 327.8,11.6143 L 327.94,11.7056
 L 328.071,11.811 L 328.189,11.9294 L 328.294,12.0595 L 328.386,12.2 L 328.462,12.3492 L 328.522,12.5056
 L 328.565,12.6673 L 328.591,12.8327 L 328.6,13 L 328.591,13.1672 L 328.565,13.3327 L 328.522,13.4944
 L 328.462,13.6508 L 328.386,13.8 L 328.294,13.9404 L 328.189,14.0706 L 328.071,14.189 L 327.94,14.2944
 L 327.8,14.3856 L 327.651,14.4617 L 327.494,14.5217 L 327.333,14.565 L 327.167,14.5912 L 327,14.6
 z
M 286.75,20.25 L 286.75,11.75 L 319.25,11.75 L 319.25,20.25 z
M 96.1661,16.5912 L 96.0007,16.565 L 95.8389,16.5217 L 95.6826,16.4617 L 95.5333,16.3856 L 95.3929,16.2944
 L 95.2627,16.189 L 95.1443,16.0706 L 95.0389,15.9404 L 94.9477,15.8 L 94.8717,15.6508 L 94.8116,15.4944
 L 94.7683,15.3327 L 94.7421,15.1672 L 94.7333,15 L 94.7421,14.8327 L 94.7683,14.6673 L 94.8116,14.5056
 L 94.8717,14.3492 L 94.9477,14.2 L 95.0389,14.0595 L 95.1443,13.9294 L 95.2627,13.811 L 95.3929,13.7056
 L 95.5333,13.6143 L 95.6826,13.5383 L 95.8389,13.4783 L 96.0007,13.435 L 96.1661,13.4088 L 96.3333,13.4
 L 96.5006,13.4088 L 96.666,13.435 L 96.8278,13.4783 L 96.9841,13.5383 L 97.1333,13.6143 L 97.2738,13.7056
 L 97.4039,13.811 L 97.5224,13.9294 L 97.6278,14.0595 L 97.719,14.2 L 97.795,14.3492 L 97.855,14.5056
 L 97.8984,14.6673 L 97.9246,14.8327 L 97.9333,15 L 97.9246,15.1672 L 97.8984,15.3327 L 97.855,15.4944
 L 97.795,15.6508 L 97.719,15.8 L 97.6278,15.9404 L 97.5224,16.0706 L 97.4039,16.189 L 97.2738,16.2944
 L 97.1333,16.3856 L 96.9841,16.4617 L 96.8278,16.5217 L 96.666,16.565 L 96.5006,16.5912 L 96.3333,16.6
 z
M 258.499,16.5912 L 258.334,16.565 L 258.172,16.5217 L 258.016,16.4617 L 257.867,16.3856 L 257.726,16.2944
 L 257.596,16.189 L 257.478,16.0706 L 257.372,15.9404 L 257.281,15.8 L 257.205,15.6508 L 257.145,15.4944
 L 257.102,15.3327 L 257.075,15.1672 L 257.067,15 L 257.075,14.8327 L 257.102,14.6673 L 257.145,14.5056
 L 257.205,14.3492 L 257.281,14.2 L 257.372,14.0595 L 257.478,13.9294 L 257.596,13.811 L 257.726,13.7056
 L 257.867,13.6143 L 258.016,13.5383 L 258.172,13.4783 L 258.334,13.435 L 258.499,13.4088 L 258.667,13.4
 L 258.834,13.4088 L 258.999,13.435 L 259.161,13.4783 L 259.317,13.5383 L 259.467,13.6143 L 259.607,13.7056
 L 259.737,13.811 L 259.856,13.9294 L 259.961,14.0595 L 260.052,14.2 L 260.128,14.3492 L 260.188,14.5056
 L 260.232,14.6673 L 260.258,14.8327 L 260.267,15 L 260.258,15.1672 L 260.232,15.3327 L 260.188,15.4944
 L 260.128,15.6508 L 260.052,15.8 L 259.961,15.9404 L 259.856,16.0706 L 259.737,16.189 L 259.607,16.2944
 L 259.467,16.3856 L 259.317,16.4617 L 259.161,16.5217 L 258.999,16.565 L 258.834,16.5912 L 258.667,16.6
 z
M 111.762,32.5666 L 111.132,32.4667 L 110.515,32.3014 L 109.919,32.0726 L 109.35,31.7827 L 108.814,31.435
 L 108.318,31.0332 L 107.867,30.5817 L 107.465,30.0855 L 107.117,29.55 L 106.827,28.9811 L 106.599,28.385
 L 106.433,27.7682 L 106.333,27.1376 L 106.3,26.5 L 106.333,25.8624 L 106.433,25.2317 L 106.599,24.615
 L 106.827,24.0189 L 107.117,23.45 L 107.465,22.9145 L 107.867,22.4183 L 108.318,21.9668 L 108.814,21.565
 L 109.35,21.2172 L 109.919,20.9274 L 110.515,20.6985 L 111.132,20.5333 L 111.762,20.4334 L 112.4,20.4
 L 113.038,20.4334 L 113.668,20.5333 L 114.285,20.6985 L 114.881,20.9274 L 115.45,21.2172 L 115.985,21.565
 L 116.482,21.9668 L 116.933,22.4183 L 117.335,22.9145 L 117.683,23.45 L 117.973,24.0189 L 118.201,24.615
 L 118.367,25.2317 L 118.467,25.8624 L 118.5,26.5 L 118.467,27.1376 L 118.367,27.7682 L 118.201,28.385
 L 117.973,28.9811 L 117.683,29.55 L 117.335,30.0855 L 116.933,30.5817 L 116.482,31.0332 L 115.985,31.435
 L 115.45,31.7827 L 114.881,32.0726 L 114.285,32.3014 L 113.668,32.4667 L 113.038,32.5666 L 112.4,32.6
 z
M 244.162,32.5666 L 243.532,32.4667 L 242.915,32.3014 L 242.319,32.0726 L 241.75,31.7827 L 241.215,31.435
 L 240.718,31.0332 L 240.267,30.5817 L 239.865,30.0855 L 239.517,29.55 L 239.227,28.9811 L 238.999,28.385
 L 238.833,27.7682 L 238.733,27.1376 L 238.7,26.5 L 238.733,25.8624 L 238.833,25.2317 L 238.999,24.615
 L 239.227,24.0189 L 239.517,23.45 L 239.865,22.9145 L 240.267,22.4183 L 240.718,21.9668 L 241.215,21.565
 L 241.75,21.2172 L 242.319,20.9274 L 242.915,20.6985 L 243.532,20.5333 L 244.162,20.4334 L 244.8,20.4
 L 245.438,20.4334 L 246.068,20.5333 L 246.685,20.6985 L 247.281,20.9274 L 247.85,21.2172 L 248.385,21.565
 L 248.882,21.9668 L 249.333,22.4183 L 249.735,22.9145 L 250.083,23.45 L 250.373,24.0189 L 250.601,24.615
 L 250.767,25.2317 L 250.867,25.8624 L 250.9,26.5 L 250.867,27.1376 L 250.767,27.7682 L 250.601,28.385
 L 250.373,28.9811 L 250.083,29.55 L 249.735,30.0855 L 249.333,30.5817 L 248.882,31.0332 L 248.385,31.435
 L 247.85,31.7827 L 247.281,32.0726 L 246.685,32.3014 L 246.068,32.4667 L 245.438,32.5666 L 244.8,32.6
 z
M 45.5624,32.5666 L 44.9317,32.4667 L 44.315,32.3014 L 43.7189,32.0726 L 43.15,31.7827 L 42.6145,31.435
 L 42.1183,31.0332 L 41.6668,30.5817 L 41.265,30.0855 L 40.9172,29.55 L 40.6274,28.9811 L 40.3985,28.385
 L 40.2333,27.7682 L 40.1334,27.1376 L 40.1,26.5 L 40.1334,25.8624 L 40.2333,25.2317 L 40.3985,24.615
 L 40.6274,24.0189 L 40.9172,23.45 L 41.265,22.9145 L 41.6668,22.4183 L 42.1183,21.9668 L 42.6145,21.565
 L 43.15,21.2172 L 43.7189,20.9274 L 44.315,20.6985 L 44.9317,20.5333 L 45.5624,20.4334 L 46.2,20.4
 L 46.8376,20.4334 L 47.4683,20.5333 L 48.085,20.6985 L 48.6811,20.9274 L 49.25,21.2172 L 49.7855,21.565
 L 50.2817,21.9668 L 50.7332,22.4183 L 51.135,22.9145 L 51.4827,23.45 L 51.7726,24.0189 L 52.0014,24.615
 L 52.1667,25.2317 L 52.2666,25.8624 L 52.3,26.5 L 52.2666,27.1376 L 52.1667,27.7682 L 52.0014,28.385
 L 51.7726,28.9811 L 51.4827,29.55 L 51.135,30.0855 L 50.7332,30.5817 L 50.2817,31.0332 L 49.7855,31.435
 L 49.25,31.7827 L 48.6811,32.0726 L 48.085,32.3014 L 47.4683,32.4667 L 46.8376,32.5666 L 46.2,32.6
 z
M 177.962,32.5666 L 177.332,32.4667 L 176.715,32.3014 L 176.119,32.0726 L 175.55,31.7827 L 175.015,31.435
 L 174.518,31.0332 L 174.067,30.5817 L 173.665,30.0855 L 173.317,29.55 L 173.027,28.9811 L 172.799,28.385
 L 172.633,27.7682 L 172.533,27.1376 L 172.5,26.5 L 172.533,25.8624 L 172.633,25.2317 L 172.799,24.615
 L 173.027,24.0189 L 173.317,23.45 L 173.665,22.9145 L 174.067,22.4183 L 174.518,21.9668 L 175.015,21.565
 L 175.55,21.2172 L 176.119,20.9274 L 176.715,20.6985 L 177.332,20.5333 L 177.962,20.4334 L 178.6,20.4
 L 179.238,20.4334 L 179.868,20.5333 L 180.485,20.6985 L 181.081,20.9274 L 181.65,21.2172 L 182.185,21.565
 L 182.682,21.9668 L 183.133,22.4183 L 183.535,22.9145 L 183.883,23.45 L 184.173,24.0189 L 184.401,24.615
 L 184.567,25.2317 L 184.667,25.8624 L 184.7,26.5 L 184.667,27.1376 L 184.567,27.7682 L 184.401,28.385
 L 184.173,28.9811 L 183.883,29.55 L 183.535,30.0855 L 183.133,30.5817 L 182.682,31.0332 L 182.185,31.435
 L 181.65,31.7827 L 181.081,32.0726 L 180.485,32.3014 L 179.868,32.4667 L 179.238,32.5666 L 178.6,32.6
 z
M 220.182,37.4781 L 219.768,37.4126 L 219.364,37.3042 L 218.973,37.1542 L 218.6,36.9641 L 218.249,36.7361
 L 217.923,36.4726 L 217.627,36.1765 L 217.364,35.8511 L 217.136,35.5 L 216.946,35.1269 L 216.796,34.7361
 L 216.687,34.3316 L 216.622,33.9181 L 216.6,33.5 L 216.622,33.0819 L 216.687,32.6684 L 216.796,32.2639
 L 216.946,31.873 L 217.136,31.5 L 217.364,31.1488 L 217.627,30.8235 L 217.923,30.5274 L 218.249,30.2639
 L 218.6,30.0359 L 218.973,29.8458 L 219.364,29.6958 L 219.768,29.5874 L 220.182,29.5219 L 220.6,29.5
 L 221.018,29.5219 L 221.432,29.5874 L 221.836,29.6958 L 222.227,29.8458 L 222.6,30.0359 L 222.951,30.2639
 L 223.277,30.5274 L 223.573,30.8235 L 223.836,31.1488 L 224.064,31.5 L 224.254,31.873 L 224.404,32.2639
 L 224.513,32.6684 L 224.578,33.0819 L 224.6,33.5 L 224.578,33.9181 L 224.513,34.3316 L 224.404,34.7361
 L 224.254,35.1269 L 224.064,35.5 L 223.836,35.8511 L 223.573,36.1765 L 223.277,36.4726 L 222.951,36.7361
 L 222.6,36.9641 L 222.227,37.1542 L 221.836,37.3042 L 221.432,37.4126 L 221.018,37.4781 L 220.6,37.5
 z
M 153.982,37.4781 L 153.568,37.4126 L 153.164,37.3042 L 152.773,37.1542 L 152.4,36.9641 L 152.049,36.7361
 L 151.723,36.4726 L 151.427,36.1765 L 151.164,35.8511 L 150.936,35.5 L 150.746,35.1269 L 150.596,34.7361
 L 150.487,34.3316 L 150.422,33.9181 L 150.4,33.5 L 150.422,33.0819 L 150.487,32.6684 L 150.596,32.2639
 L 150.746,31.873 L 150.936,31.5 L 151.164,31.1488 L 151.427,30.8235 L 151.723,30.5274 L 152.049,30.2639
 L 152.4,30.0359 L 152.773,29.8458 L 153.164,29.6958 L 153.568,29.5874 L 153.982,29.5219 L 154.4,29.5
 L 154.818,29.5219 L 155.232,29.5874 L 155.636,29.6958 L 156.027,29.8458 L 156.4,30.0359 L 156.751,30.2639
 L 157.077,30.5274 L 157.373,30.8235 L 157.636,31.1488 L 157.864,31.5 L 158.054,31.873 L 158.204,32.2639
 L 158.313,32.6684 L 158.378,33.0819 L 158.4,33.5 L 158.378,33.9181 L 158.313,34.3316 L 158.204,34.7361
 L 158.054,35.1269 L 157.864,35.5 L 157.636,35.8511 L 157.373,36.1765 L 157.077,36.4726 L 156.751,36.7361
 L 156.4,36.9641 L 156.027,37.1542 L 155.636,37.3042 L 155.232,37.4126 L 154.818,37.4781 L 154.4,37.5
 z
M 129.982,37.4781 L 129.568,37.4126 L 129.164,37.3042 L 128.773,37.1542 L 128.4,36.9641 L 128.049,36.7361
 L 127.723,36.4726 L 127.427,36.1765 L 127.164,35.8511 L 126.936,35.5 L 126.746,35.1269 L 126.596,34.7361
 L 126.487,34.3316 L 126.422,33.9181 L 126.4,33.5 L 126.422,33.0819 L 126.487,32.6684 L 126.596,32.2639
 L 126.746,31.873 L 126.936,31.5 L 127.164,31.1488 L 127.427,30.8235 L 127.723,30.5274 L 128.049,30.2639
 L 128.4,30.0359 L 128.773,29.8458 L 129.164,29.6958 L 129.568,29.5874 L 129.982,29.5219 L 130.4,29.5
 L 130.818,29.5219 L 131.232,29.5874 L 131.636,29.6958 L 132.027,29.8458 L 132.4,30.0359 L 132.751,30.2639
 L 133.077,30.5274 L 133.373,30.8235 L 133.636,31.1488 L 133.864,31.5 L 134.054,31.873 L 134.204,32.2639
 L 134.313,32.6684 L 134.378,33.0819 L 134.4,33.5 L 134.378,33.9181 L 134.313,34.3316 L 134.204,34.7361
 L 134.054,35.1269 L 133.864,35.5 L 133.636,35.8511 L 133.373,36.1765 L 133.077,36.4726 L 132.751,36.7361
 L 132.4,36.9641 L 132.027,37.1542 L 131.636,37.3042 L 131.232,37.4126 L 130.818,37.4781 L 130.4,37.5
 z
M 262.382,37.4781 L 261.968,37.4126 L 261.564,37.3042 L 261.173,37.1542 L 260.8,36.9641 L 260.449,36.7361
 L 260.123,36.4726 L 259.827,36.1765 L 259.564,35.8511 L 259.336,35.5 L 259.146,35.1269 L 258.996,34.7361
 L 258.887,34.3316 L 258.822,33.9181 L 258.8,33.5 L 258.822,33.0819 L 258.887,32.6684 L 258.996,32.2639
 L 259.146,31.873 L 259.336,31.5 L 259.564,31.1488 L 259.827,30.8235 L 260.123,30.5274 L 260.449,30.2639
 L 260.8,30.0359 L 261.173,29.8458 L 261.564,29.6958 L 261.968,29.5874 L 262.382,29.5219 L 262.8,29.5
 L 263.218,29.5219 L 263.632,29.5874 L 264.036,29.6958 L 264.427,29.8458 L 264.8,30.0359 L 265.151,30.2639
 L 265.477,30.5274 L 265.773,30.8235 L 266.036,31.1488 L 266.264,31.5 L 266.454,31.873 L 266.604,32.2639
 L 266.713,32.6684 L 266.778,33.0819 L 266.8,33.5 L 266.778,33.9181 L 266.713,34.3316 L 266.604,34.7361
 L 266.454,35.1269 L 266.264,35.5 L 266.036,35.8511 L 265.773,36.1765 L 265.477,36.4726 L 265.151,36.7361
 L 264.8,36.9641 L 264.427,37.1542 L 264.036,37.3042 L 263.632,37.4126 L 263.218,37.4781 L 262.8,37.5
 z
M 196.182,37.4781 L 195.768,37.4126 L 195.364,37.3042 L 194.973,37.1542 L 194.6,36.9641 L 194.249,36.7361
 L 193.923,36.4726 L 193.627,36.1765 L 193.364,35.8511 L 193.136,35.5 L 192.946,35.1269 L 192.796,34.7361
 L 192.687,34.3316 L 192.622,33.9181 L 192.6,33.5 L 192.622,33.0819 L 192.687,32.6684 L 192.796,32.2639
 L 192.946,31.873 L 193.136,31.5 L 193.364,31.1488 L 193.627,30.8235 L 193.923,30.5274 L 194.249,30.2639
 L 194.6,30.0359 L 194.973,29.8458 L 195.364,29.6958 L 195.768,29.5874 L 196.182,29.5219 L 196.6,29.5
 L 197.018,29.5219 L 197.432,29.5874 L 197.836,29.6958 L 198.227,29.8458 L 198.6,30.0359 L 198.951,30.2639
 L 199.277,30.5274 L 199.573,30.8235 L 199.836,31.1488 L 200.064,31.5 L 200.254,31.873 L 200.404,32.2639
 L 200.513,32.6684 L 200.578,33.0819 L 200.6,33.5 L 200.578,33.9181 L 200.513,34.3316 L 200.404,34.7361
 L 200.254,35.1269 L 200.064,35.5 L 199.836,35.8511 L 199.573,36.1765 L 199.277,36.4726 L 198.951,36.7361
 L 198.6,36.9641 L 198.227,37.1542 L 197.836,37.3042 L 197.432,37.4126 L 197.018,37.4781 L 196.6,37.5
 z
M 286.382,37.4781 L 285.968,37.4126 L 285.564,37.3042 L 285.173,37.1542 L 284.8,36.9641 L 284.449,36.7361
 L 284.123,36.4726 L 283.827,36.1765 L 283.564,35.8511 L 283.336,35.5 L 283.146,35.1269 L 282.996,34.7361
 L 282.887,34.3316 L 282.822,33.9181 L 282.8,33.5 L 282.822,33.0819 L 282.887,32.6684 L 282.996,32.2639
 L 283.146,31.873 L 283.336,31.5 L 283.564,31.1488 L 283.827,30.8235 L 284.123,30.5274 L 284.449,30.2639
 L 284.8,30.0359 L 285.173,29.8458 L 285.564,29.6958 L 285.968,29.5874 L 286.382,29.5219 L 286.8,29.5
 L 287.218,29.5219 L 287.632,29.5874 L 288.036,29.6958 L 288.427,29.8458 L 288.8,30.0359 L 289.151,30.2639
 L 289.477,30.5274 L 289.773,30.8235 L 290.036,31.1488 L 290.264,31.5 L 290.454,31.873 L 290.604,32.2639
 L 290.713,32.6684 L 290.778,33.0819 L 290.8,33.5 L 290.778,33.9181 L 290.713,34.3316 L 290.604,34.7361
 L 290.454,35.1269 L 290.264,35.5 L 290.036,35.8511 L 289.773,36.1765 L 289.477,36.4726 L 289.151,36.7361
 L 288.8,36.9641 L 288.427,37.1542 L 288.036,37.3042 L 287.632,37.4126 L 287.218,37.4781 L 286.8,37.5
 z
M 84.5458,31.873 L 84.7359,31.5 L 84.9639,31.1488 L 85.2274,30.8235 L 85.5235,30.5274 L 85.8489,30.2639
 L 86.2,30.0359 L 86.573,29.8458 L 86.9639,29.6958 L 87.3683,29.5874 L 87.7819,29.5219 L 88.2,29.5
 L 88.6181,29.5219 L 89.0316,29.5874 L 89.4361,29.6958 L 89.827,29.8458 L 90.2,30.0359 L 90.5511,30.2639
 L 90.8765,30.5274 L 91.1726,30.8235 L 91.4361,31.1488 L 91.6641,31.5 L 91.8542,31.873 L 92.0042,32.2639
 L 92.1126,32.6684 L 92.1781,33.0819 L 92.2,33.5 L 92.1781,33.9181 L 92.1126,34.3316 L 92.0042,34.7361
 L 91.8542,35.1269 L 91.6641,35.5 L 91.4361,35.8511 L 91.1726,36.1765 L 90.8765,36.4726 L 90.5511,36.7361
 L 90.2,36.9641 L 89.827,37.1542 L 89.4361,37.3042 L 89.0316,37.4126 L 88.6181,37.4781 L 88.2,37.5
 L 87.7819,37.4781 L 87.3683,37.4126 L 86.9639,37.3042 L 86.573,37.1542 L 86.2,36.9641 L 85.8489,36.7361
 L 85.5235,36.4726 L 85.2274,36.1765 L 84.9639,35.8511 L 84.7359,35.5 L 84.5458,35.1269 L 84.3958,34.7361
 L 84.2874,34.3316 L 84.2219,33.9181 L 84.2,33.5 L 84.2219,33.0819 L 84.2874,32.6684 L 84.3958,32.2639
 z
M 22.6774,39.8059 L 22.1604,39.7241 L 21.6549,39.5886 L 21.1663,39.4011 L 20.7,39.1635 L 20.2611,38.8784
 L 19.8543,38.5491 L 19.4843,38.179 L 19.1549,37.7722 L 18.8699,37.3333 L 18.6323,36.867 L 18.4447,36.3784
 L 18.3092,35.8729 L 18.2274,35.356 L 18.2,34.8333 L 18.2274,34.3107 L 18.3092,33.7938 L 18.4447,33.2882
 L 18.6323,32.7996 L 18.8699,32.3333 L 19.1549,31.8944 L 19.4843,31.4877 L 19.8543,31.1176 L 20.2611,30.7882
 L 20.7,30.5032 L 21.1663,30.2656 L 21.6549,30.078 L 22.1604,29.9426 L 22.6774,29.8607 L 23.2,29.8333
 L 23.7226,29.8607 L 24.2395,29.9426 L 24.7451,30.078 L 25.2337,30.2656 L 25.7,30.5032 L 26.1389,30.7882
 L 26.5456,31.1176 L 26.9157,31.4877 L 27.2451,31.8944 L 27.5301,32.3333 L 27.7677,32.7996 L 27.9553,33.2882
 L 28.0907,33.7938 L 28.1726,34.3107 L 28.2,34.8333 L 28.1726,35.356 L 28.0907,35.8729 L 27.9553,36.3784
 L 27.7677,36.867 L 27.5301,37.3333 L 27.2451,37.7722 L 26.9157,38.179 L 26.5456,38.5491 L 26.1389,38.8784
 L 25.7,39.1635 L 25.2337,39.4011 L 24.7451,39.5886 L 24.2395,39.7241 L 23.7226,39.8059 L 23.2,39.8333
 z
M 309,60 L 309,30 L 321,30 L 321,60 z
M 141.982,50.4781 L 141.568,50.4126 L 141.164,50.3042 L 140.773,50.1542 L 140.4,49.9641 L 140.049,49.7361
 L 139.723,49.4726 L 139.427,49.1765 L 139.164,48.8511 L 138.936,48.5 L 138.746,48.1269 L 138.596,47.7361
 L 138.487,47.3316 L 138.422,46.9181 L 138.4,46.5 L 138.422,46.0819 L 138.487,45.6684 L 138.596,45.2639
 L 138.746,44.873 L 138.936,44.5 L 139.164,44.1488 L 139.427,43.8235 L 139.723,43.5274 L 140.049,43.2639
 L 140.4,43.0359 L 140.773,42.8458 L 141.164,42.6958 L 141.568,42.5874 L 141.982,42.5219 L 142.4,42.5
 L 142.818,42.5219 L 143.232,42.5874 L 143.636,42.6958 L 144.027,42.8458 L 144.4,43.0359 L 144.751,43.2639
 L 145.077,43.5274 L 145.373,43.8235 L 145.636,44.1488 L 145.864,44.5 L 146.054,44.873 L 146.204,45.2639
 L 146.313,45.6684 L 146.378,46.0819 L 146.4,46.5 L 146.378,46.9181 L 146.313,47.3316 L 146.204,47.7361
 L 146.054,48.1269 L 145.864,48.5 L 145.636,48.8511 L 145.373,49.1765 L 145.077,49.4726 L 144.751,49.7361
 L 144.4,49.9641 L 144.027,50.1542 L 143.636,50.3042 L 143.232,50.4126 L 142.818,50.4781 L 142.4,50.5
 z
M 274.382,50.4781 L 273.968,50.4126 L 273.564,50.3042 L 273.173,50.1542 L 272.8,49.9641 L 272.449,49.7361
 L 272.123,49.4726 L 271.827,49.1765 L 271.564,48.8511 L 271.336,48.5 L 271.146,48.1269 L 270.996,47.7361
 L 270.887,47.3316 L 270.822,46.9181 L 270.8,46.5 L 270.822,46.0819 L 270.887,45.6684 L 270.996,45.2639
 L 271.146,44.873 L 271.336,44.5 L 271.564,44.1488 L 271.827,43.8235 L 272.123,43.5274 L 272.449,43.2639
 L 272.8,43.0359 L 273.173,42.8458 L 273.564,42.6958 L 273.968,42.5874 L 274.382,42.5219 L 274.8,42.5
 L 275.218,42.5219 L 275.632,42.5874 L 276.036,42.6958 L 276.427,42.8458 L 276.8,43.0359 L 277.151,43.2639
 L 277.477,43.5274 L 277.773,43.8235 L 278.036,44.1488 L 278.264,44.5 L 278.454,44.873 L 278.604,45.2639
 L 278.713,45.6684 L 278.778,46.0819 L 278.8,46.5 L 278.778,46.9181 L 278.713,47.3316 L 278.604,47.7361
 L 278.454,48.1269 L 278.264,48.5 L 278.036,48.8511 L 277.773,49.1765 L 277.477,49.4726 L 277.151,49.7361
 L 276.8,49.9641 L 276.427,50.1542 L 276.036,50.3042 L 275.632,50.4126 L 275.218,50.4781 L 274.8,50.5
 z
M 208.182,50.4781 L 207.768,50.4126 L 207.364,50.3042 L 206.973,50.1542 L 206.6,49.9641 L 206.249,49.7361
 L 205.923,49.4726 L 205.627,49.1765 L 205.364,48.8511 L 205.136,48.5 L 204.946,48.1269 L 204.796,47.7361
 L 204.687,47.3316 L 204.622,46.9181 L 204.6,46.5 L 204.622,46.0819 L 204.687,45.6684 L 204.796,45.2639
 L 204.946,44.873 L 205.136,44.5 L 205.364,44.1488 L 205.627,43.8235 L 205.923,43.5274 L 206.249,43.2639
 L 206.6,43.0359 L 206.973,42.8458 L 207.364,42.6958 L 207.768,42.5874 L 208.182,42.5219 L 208.6,42.5
 L 209.018,42.5219 L 209.432,42.5874 L 209.836,42.6958 L 210.227,42.8458 L 210.6,43.0359 L 210.951,43.2639
 L 211.277,43.5274 L 211.573,43.8235 L 211.836,44.1488 L 212.064,44.5 L 212.254,44.873 L 212.404,45.2639
 L 212.513,45.6684 L 212.578,46.0819 L 212.6,46.5 L 212.578,46.9181 L 212.513,47.3316 L 212.404,47.7361
 L 212.254,48.1269 L 212.064,48.5 L 211.836,48.8511 L 211.573,49.1765 L 211.277,49.4726 L 210.951,49.7361
 L 210.6,49.9641 L 210.227,50.1542 L 209.836,50.3042 L 209.432,50.4126 L 209.018,50.4781 L 208.6,50.5
 z
M 75.7819,50.4781 L 75.3683,50.4126 L 74.9639,50.3042 L 74.573,50.1542 L 74.2,49.9641 L 73.8489,49.7361
 L 73.5235,49.4726 L 73.2274,49.1765 L 72.9639,48.8511 L 72.7359,48.5 L 72.5458,48.1269 L 72.3958,47.7361
 L 72.2874,47.3316 L 72.2219,46.9181 L 72.2,46.5 L 72.2219,46.0819 L 72.2874,45.6684 L 72.3958,45.2639
 L 72.5458,44.873 L 72.7359,44.5 L 72.9639,44.1488 L 73.2274,43.8235 L 73.5235,43.5274 L 73.8489,43.2639
 L 74.2,43.0359 L 74.573,42.8458 L 74.9639,42.6958 L 75.3683,42.5874 L 75.7819,42.5219 L 76.2,42.5
 L 76.6181,42.5219 L 77.0316,42.5874 L 77.4361,42.6958 L 77.827,42.8458 L 78.2,43.0359 L 78.5511,43.2639
 L 78.8765,43.5274 L 79.1726,43.8235 L 79.4361,44.1488 L 79.6641,44.5 L 79.8542,44.873 L 80.0042,45.2639
 L 80.1126,45.6684 L 80.1781,46.0819 L 80.2,46.5 L 80.1781,46.9181 L 80.1126,47.3316 L 80.0042,47.7361
 L 79.8542,48.1269 L 79.6641,48.5 L 79.4361,48.8511 L 79.1726,49.1765 L 78.8765,49.4726 L 78.5511,49.7361
 L 78.2,49.9641 L 77.827,50.1542 L 77.4361,50.3042 L 77.0316,50.4126 L 76.6181,50.4781 L 76.2,50.5
 z
M 182.6,85 L 182.6,58 L 228.6,58 L 228.6,85 z
M 248.8,85 L 248.8,58 L 294.8,58 L 294.8,85 z
M 50.2,85 L 50.2,58 L 96.2,58 L 96.2,85 z
M 116.4,85 L 116.4,58 L 162.4,58 L 162.4,85 z
M 32.6774,69.8059 L 32.1604,69.7241 L 31.6549,69.5886 L 31.1663,69.4011 L 30.7,69.1635 L 30.2611,68.8784
 L 29.8543,68.5491 L 29.4843,68.179 L 29.1549,67.7723 L 28.8699,67.3333 L 28.6323,66.867 L 28.4447,66.3784
 L 28.3092,65.8729 L 28.2274,65.356 L 28.2,64.8333 L 28.2274,64.3107 L 28.3092,63.7938 L 28.4447,63.2882
 L 28.6323,62.7996 L 28.8699,62.3333 L 29.1549,61.8944 L 29.4843,61.4877 L 29.8543,61.1176 L 30.2611,60.7882
 L 30.7,60.5032 L 31.1663,60.2656 L 31.6549,60.078 L 32.1604,59.9426 L 32.6774,59.8607 L 33.2,59.8333
 L 33.7226,59.8607 L 34.2395,59.9426 L 34.7451,60.078 L 35.2337,60.2656 L 35.7,60.5032 L 36.1389,60.7882
 L 36.5457,61.1176 L 36.9157,61.4877 L 37.2451,61.8944 L 37.5301,62.3333 L 37.7677,62.7996 L 37.9553,63.2882
 L 38.0907,63.7938 L 38.1726,64.3107 L 38.2,64.8333 L 38.1726,65.356 L 38.0907,65.8729 L 37.9553,66.3784
 L 37.7677,66.867 L 37.5301,67.3333 L 37.2451,67.7723 L 36.9157,68.179 L 36.5457,68.5491 L 36.1389,68.8784
 L 35.7,69.1635 L 35.2337,69.4011 L 34.7451,69.5886 L 34.2395,69.7241 L 33.7226,69.8059 L 33.2,69.8333
 z
M 314.582,73.9781 L 314.168,73.9126 L 313.764,73.8042 L 313.373,73.6542 L 313,73.4641 L 312.649,73.2361
 L 312.323,72.9726 L 312.027,72.6765 L 311.764,72.3511 L 311.536,72 L 311.346,71.6269 L 311.196,71.2361
 L 311.087,70.8316 L 311.022,70.4181 L 311,70 L 311.022,69.5819 L 311.087,69.1684 L 311.196,68.7639
 L 311.346,68.373 L 311.536,68 L 311.764,67.6488 L 312.027,67.3235 L 312.323,67.0274 L 312.649,66.7639
 L 313,66.5359 L 313.373,66.3458 L 313.764,66.1958 L 314.168,66.0874 L 314.582,66.0219 L 315,66
 L 315.418,66.0219 L 315.832,66.0874 L 316.236,66.1958 L 316.627,66.3458 L 317,66.5359 L 317.351,66.7639
 L 317.677,67.0274 L 317.973,67.3235 L 318.236,67.6488 L 318.464,68 L 318.654,68.373 L 318.804,68.7639
 L 318.913,69.1684 L 318.978,69.5819 L 319,70 L 318.978,70.4181 L 318.913,70.8316 L 318.804,71.2361
 L 318.654,71.6269 L 318.464,72 L 318.236,72.3511 L 317.973,72.6765 L 317.677,72.9726 L 317.351,73.2361
 L 317,73.4641 L 316.627,73.6542 L 316.236,73.8042 L 315.832,73.9126 L 315.418,73.9781 L 315,74
 z
M 326.833,88.5912 L 326.667,88.565 L 326.506,88.5217 L 326.349,88.4617 L 326.2,88.3856 L 326.06,88.2944
 L 325.929,88.189 L 325.811,88.0706 L 325.706,87.9405 L 325.614,87.8 L 325.538,87.6508 L 325.478,87.4944
 L 325.435,87.3327 L 325.409,87.1672 L 325.4,87 L 325.409,86.8327 L 325.435,86.6673 L 325.478,86.5056
 L 325.538,86.3492 L 325.614,86.2 L 325.706,86.0595 L 325.811,85.9294 L 325.929,85.811 L 326.06,85.7056
 L 326.2,85.6143 L 326.349,85.5383 L 326.506,85.4783 L 326.667,85.435 L 326.833,85.4088 L 327,85.4
 L 327.167,85.4088 L 327.333,85.435 L 327.494,85.4783 L 327.651,85.5383 L 327.8,85.6143 L 327.94,85.7056
 L 328.071,85.811 L 328.189,85.9294 L 328.294,86.0595 L 328.386,86.2 L 328.462,86.3492 L 328.522,86.5056
 L 328.565,86.6673 L 328.591,86.8327 L 328.6,87 L 328.591,87.1672 L 328.565,87.3327 L 328.522,87.4944
 L 328.462,87.6508 L 328.386,87.8 L 328.294,87.9405 L 328.189,88.0706 L 328.071,88.189 L 327.94,88.2944
 L 327.8,88.3856 L 327.651,88.4617 L 327.494,88.5217 L 327.333,88.565 L 327.167,88.5912 L 327,88.6
 z
M 12.8327,88.5912 L 12.6673,88.565 L 12.5056,88.5217 L 12.3492,88.4617 L 12.2,88.3856 L 12.0595,88.2944
 L 11.9294,88.189 L 11.811,88.0706 L 11.7056,87.9405 L 11.6143,87.8 L 11.5383,87.6508 L 11.4783,87.4944
 L 11.435,87.3327 L 11.4088,87.1672 L 11.4,87 L 11.4088,86.8327 L 11.435,86.6673 L 11.4783,86.5056
 L 11.5383,86.3492 L 11.6143,86.2 L 11.7056,86.0595 L 11.811,85.9294 L 11.9294,85.811 L 12.0595,85.7056
 L 12.2,85.6143 L 12.3492,85.5383 L 12.5056,85.4783 L 12.6673,85.435 L 12.8327,85.4088 L 13,85.4
 L 13.1672,85.4088 L 13.3327,85.435 L 13.4944,85.4783 L 13.6508,85.5383 L 13.8,85.6143 L 13.9404,85.7056
 L 14.0706,85.811 L 14.189,85.9294 L 14.2944,86.0595 L 14.3856,86.2 L 14.4617,86.3492 L 14.5217,86.5056
 L 14.565,86.6673 L 14.5912,86.8327 L 14.6,87 L 14.5912,87.1672 L 14.565,87.3327 L 14.5217,87.4944
 L 14.4617,87.6508 L 14.3856,87.8 L 14.2944,87.9405 L 14.189,88.0706 L 14.0706,88.189 L 13.9404,88.2944
 L 13.8,88.3856 L 13.6508,88.4617 L 13.4944,88.5217 L 13.3327,88.565 L 13.1672,88.5912 L 13,88.6
 z
M 68.2,33.5 L 68.1781,33.9181 L 68.1126,34.3316 L 68.0042,34.7361 L 67.8542,35.1269 L 67.6641,35.5
 L 67.4361,35.8511 L 67.1726,36.1765 L 66.8765,36.4726 L 66.5511,36.7361 L 66.2,36.9641 L 65.827,37.1542
 L 65.4361,37.3042 L 65.0316,37.4126 L 64.6181,37.4781 L 64.2,37.5 L 63.7819,37.4781 L 63.3683,37.4126
 L 62.9639,37.3042 L 62.573,37.1542 L 62.2,36.9641 L 61.8488,36.7361 L 61.5235,36.4726 L 61.2274,36.1765
 L 60.9639,35.8511 L 60.7359,35.5 L 60.5458,35.1269 L 60.3958,34.7361 L 60.2874,34.3316 L 60.2219,33.9181
 L 60.2,33.5 L 60.2219,33.0819 L 60.2874,32.6684 L 60.3958,32.2639 L 60.5458,31.873 L 60.7359,31.5
 L 60.9639,31.1488 L 61.2274,30.8235 L 61.5235,30.5274 L 61.8488,30.2639 L 62.2,30.0359 L 62.573,29.8458
 L 62.9639,29.6958 L 63.3683,29.5874 L 63.7819,29.5219 L 64.2,29.5 L 64.6181,29.5219 L 65.0316,29.5874
 L 65.4361,29.6958 L 65.827,29.8458 L 66.2,30.0359 L 66.5511,30.2639 L 66.8765,30.5274 L 67.1726,30.8235
 L 67.4361,31.1488 L 67.6641,31.5 L 67.8542,31.873 L 68.0042,32.2639 L 68.1126,32.6684 L 68.1781,33.0819
 z
" stroke="black" fill="lightgray" stroke-width="0.5"/>
</svg>
