<?xml version="1.0" encoding="UTF-8" standalone="no"?>
<svg
   width="340mm"
   height="100mm"
   viewBox="0 -100 340 100"
   version="1.1"
   id="svg1"
   sodipodi:docname="front_front.svg"
   inkscape:version="1.4.2 (ebf0e940d0, 2025-05-08)"
   xmlns:inkscape="http://www.inkscape.org/namespaces/inkscape"
   xmlns:sodipodi="http://sodipodi.sourceforge.net/DTD/sodipodi-0.dtd"
   xmlns="http://www.w3.org/2000/svg"
   xmlns:svg="http://www.w3.org/2000/svg">
  <defs
     id="defs1" />
  <sodipodi:namedview
     id="namedview1"
     pagecolor="#ffffff"
     bordercolor="#000000"
     borderopacity="0.25"
     inkscape:showpageshadow="2"
     inkscape:pageopacity="0.0"
     inkscape:pagecheckerboard="0"
     inkscape:deskcolor="#d1d1d1"
     inkscape:document-units="mm"
     inkscape:zoom="1.4139645"
     inkscape:cx="996.48898"
     inkscape:cy="239.0442"
     inkscape:window-width="1920"
     inkscape:window-height="1128"
     inkscape:window-x="0"
     inkscape:window-y="0"
     inkscape:window-maximized="1"
     inkscape:current-layer="svg1" />
  <title
     id="title1">OpenSCAD Model</title>
  <path
     d="M 325,-5.00005 H 315 V 0 H 305 V -5.00005 H 295 V 0 H 285 V -5.00005 H 275 V 0 H 265 V -5.00005 H 255 V 0 H 245 V -5.00005 H 235 V 0 H 225 V -5.00005 H 215 V 0 H 205 V -5.00005 H 195 V 0 H 185 V -5.00005 H 175 V 0 H 165 V -5.00005 H 155 V 0 H 145 V -5.00005 H 135 V 0 H 125 V -5.00005 H 115 V 0 H 105 V -5.00005 H 95 V 0 H 85 V -5.00005 H 75 V 0 H 65 V -5.00005 H 55 V 0 H 45 V -5.00005 H 35 V 0 H 25 V -5.00005 H 15 V 0 H 0 V -15 H 5 V -25 H 0 V -35 H 5 V -45 H 0 V -55 H 5 V -65 H 0 V -75 H 5 V -85 H 0 v -15 h 15 v 5 h 10 v -5 h 10 v 5 h 10 v -5 h 10 v 5 h 10 v -5 h 10 v 5 h 10 v -5 h 10 v 5 h 10 v -5 h 10 v 5 h 10 v -5 h 10 v 5 h 10 v -5 h 10 v 5 h 10 v -5 h 10 v 5 h 10 v -5 h 10 v 5 h 10 v -5 h 10 v 5 h 10 v -5 h 10 v 5 h 10 v -5 h 10 v 5 h 10 v -5 h 10 v 5 h 10 v -5 h 10 v 5 h 10 v -5 h 10 v 5 h 10 v -5 h 15 v 15 h -5.00005 v 10 H 340 v 10 h -5.00005 v 10 H 340 v 10 h -5.00005 v 10 H 340 v 10 h -5.00005 v 10 H 340 V 0 h -15 z m 2.1673,-80.40875 0.1654,-0.0262 0.1617,-0.0433 0.1564,-0.06 0.1492,-0.076 0.1405,-0.0913 0.1301,-0.1054 0.1184,-0.1184 0.1054,-0.1301 0.0913,-0.1405 0.076,-0.1492 0.06,-0.1564 0.0433,-0.1617 0.0262,-0.1654 0.009,-0.1673 -0.009,-0.1672 -0.0262,-0.1655 -0.0433,-0.1617 -0.06,-0.1564 -0.076,-0.1492 -0.0913,-0.1405 -0.1054,-0.1301 -0.1184,-0.1184 -0.1301,-0.1054 -0.1405,-0.0912 -0.1492,-0.0761 -0.1564,-0.06 -0.1617,-0.0433 -0.1654,-0.0262 L 327,-88.6 l -0.1672,0.0088 -0.1655,0.0262 -0.1617,0.0433 -0.1564,0.06 -0.1492,0.0761 -0.1404,0.0912 -0.1302,0.1054 -0.1184,0.1184 -0.1054,0.1301 -0.0912,0.1405 -0.0761,0.1492 -0.06,0.1564 -0.0433,0.1617 -0.0262,0.1655 -0.009,0.1672 0.009,0.1673 0.0262,0.1654 0.0433,0.1617 0.06,0.1564 0.0761,0.1492 0.0912,0.1405 0.1054,0.1301 0.1184,0.1184 0.1302,0.1054 0.1404,0.0913 0.1492,0.076 0.1564,0.06 0.1617,0.0433 0.1655,0.0262 L 327,-85.4 Z m -314.0003,0 0.166,-0.0262 0.161,-0.0433 0.157,-0.06 0.149,-0.076 0.14,-0.0913 0.131,-0.1054 0.118,-0.1184 0.105,-0.1301 0.092,-0.1405 0.076,-0.1492 0.06,-0.1564 0.043,-0.1617 0.026,-0.1654 L 14.6,-87 l -0.009,-0.1672 -0.026,-0.1655 -0.043,-0.1617 -0.06,-0.1564 -0.076,-0.1492 -0.092,-0.1405 -0.105,-0.1301 -0.118,-0.1184 -0.131,-0.1054 -0.14,-0.0912 -0.149,-0.0761 -0.157,-0.06 -0.161,-0.0433 -0.166,-0.0262 L 13,-88.6 l -0.167,0.0088 -0.166,0.0262 -0.161,0.0433 -0.157,0.06 -0.149,0.0761 -0.14,0.0912 -0.131,0.1054 -0.118,0.1184 -0.105,0.1301 -0.092,0.1405 -0.076,0.1492 -0.06,0.1564 -0.043,0.1617 -0.026,0.1655 L 11.4,-87 l 0.009,0.1673 0.026,0.1654 0.043,0.1617 0.06,0.1564 0.076,0.1492 0.092,0.1405 0.105,0.1301 0.118,0.1184 0.131,0.1054 0.14,0.0913 0.149,0.076 0.157,0.06 0.161,0.0433 0.166,0.0262 L 13,-85.4 Z M 91.2,-58 v -27 h -46 v 27 z m 66.2,0 v -27 h -46 v 27 z m 66.2,0 v -27 h -46 v 27 z m 66.2,0 v -27 h -46 v 27 z m -264.382,-8.0219 0.414,-0.0655 0.404,-0.1084 0.391,-0.15 0.373,-0.1901 0.351,-0.228 0.326,-0.2635 0.296,-0.2961 0.263,-0.3253 0.228,-0.3512 0.19,-0.373 0.15,-0.3909 0.109,-0.4045 0.065,-0.4135 L 29,-70 l -0.022,-0.4181 -0.065,-0.4135 -0.109,-0.4045 -0.15,-0.3908 -0.19,-0.3731 -0.228,-0.3511 -0.263,-0.3254 -0.296,-0.2961 -0.326,-0.2635 -0.351,-0.228 -0.373,-0.1901 -0.391,-0.15 -0.404,-0.1084 -0.414,-0.0655 L 25,-74 l -0.418,0.0219 -0.414,0.0655 -0.404,0.1084 -0.391,0.15 -0.373,0.1901 -0.351,0.228 -0.326,0.2635 -0.296,0.2961 -0.263,0.3254 -0.228,0.3511 -0.19,0.3731 -0.15,0.3908 -0.109,0.4045 -0.065,0.4135 L 21,-70 l 0.022,0.4181 0.065,0.4135 0.109,0.4045 0.15,0.3909 0.19,0.373 0.228,0.3512 0.263,0.3253 0.296,0.2961 0.326,0.2635 0.351,0.228 0.373,0.1901 0.391,0.15 0.404,0.1084 0.414,0.0655 L 25,-66 Z m 281.9046,6.1612 0.517,-0.0819 0.5055,-0.1354 0.4886,-0.1876 0.4663,-0.2376 0.4389,-0.285 0.4068,-0.3294 0.37,-0.3701 0.3294,-0.4067 0.285,-0.4389 0.2376,-0.4663 0.1876,-0.4886 0.1355,-0.5056 0.0818,-0.5169 0.0274,-0.5226 -0.0274,-0.5227 -0.0818,-0.5169 -0.1355,-0.5055 -0.1876,-0.4886 -0.2376,-0.4663 -0.285,-0.439 -0.3294,-0.4067 -0.37,-0.3701 -0.4068,-0.3293 -0.4389,-0.2851 -0.4663,-0.2376 -0.4886,-0.1875 -0.5055,-0.1355 -0.517,-0.0818 -0.5226,-0.0274 -0.5226,0.0274 -0.5169,0.0818 -0.5056,0.1355 -0.4886,0.1875 -0.4663,0.2376 -0.4389,0.2851 -0.4068,0.3293 -0.37,0.3701 -0.3294,0.4067 -0.285,0.439 -0.2376,0.4663 -0.1876,0.4886 -0.1354,0.5055 -0.0819,0.5169 -0.0274,0.5227 0.0274,0.5226 0.0819,0.5169 0.1354,0.5056 0.1876,0.4886 0.2376,0.4663 0.285,0.4389 0.3294,0.4067 0.37,0.3701 0.4068,0.3294 0.4389,0.285 0.4663,0.2376 0.4886,0.1876 0.5056,0.1354 0.5169,0.0819 0.5226,0.0274 z M 31,-30 V -60 H 19 v 30 z m 167.018,-12.5219 0.414,-0.0655 0.404,-0.1084 0.391,-0.15 0.373,-0.1901 0.351,-0.228 0.326,-0.2635 0.296,-0.2961 0.263,-0.3253 0.228,-0.3512 0.19,-0.373 0.15,-0.3909 0.109,-0.4045 0.065,-0.4135 0.022,-0.4181 -0.022,-0.4181 -0.065,-0.4135 -0.109,-0.4045 -0.15,-0.3908 -0.19,-0.3731 -0.228,-0.3511 -0.263,-0.3254 -0.296,-0.2961 -0.326,-0.2635 -0.351,-0.228 -0.373,-0.1901 -0.391,-0.15 -0.404,-0.1084 -0.414,-0.0655 -0.418,-0.0219 -0.418,0.0219 -0.414,0.0655 -0.404,0.1084 -0.391,0.15 -0.373,0.1901 -0.351,0.228 -0.326,0.2635 -0.296,0.2961 -0.263,0.3254 -0.228,0.3511 -0.19,0.3731 -0.15,0.3908 -0.109,0.4045 -0.065,0.4135 -0.022,0.4181 0.022,0.4181 0.065,0.4135 0.109,0.4045 0.15,0.3909 0.19,0.373 0.228,0.3512 0.263,0.3253 0.296,0.2961 0.326,0.2635 0.351,0.228 0.373,0.1901 0.391,0.15 0.404,0.1084 0.414,0.0655 0.418,0.0219 z m -66.2,0 0.414,-0.0655 0.404,-0.1084 0.391,-0.15 0.373,-0.1901 0.351,-0.228 0.326,-0.2635 0.296,-0.2961 0.263,-0.3253 0.228,-0.3512 0.19,-0.373 0.15,-0.3909 0.109,-0.4045 0.065,-0.4135 0.022,-0.4181 -0.022,-0.4181 -0.065,-0.4135 -0.109,-0.4045 -0.15,-0.3908 -0.19,-0.3731 -0.228,-0.3511 -0.263,-0.3254 -0.296,-0.2961 -0.326,-0.2635 -0.351,-0.228 -0.373,-0.1901 -0.391,-0.15 -0.404,-0.1084 -0.414,-0.0655 -0.418,-0.0219 -0.418,0.0219 -0.414,0.0655 -0.404,0.1084 -0.391,0.15 -0.373,0.1901 -0.351,0.228 -0.326,0.2635 -0.296,0.2961 -0.263,0.3254 -0.228,0.3511 -0.19,0.3731 -0.15,0.3908 -0.109,0.4045 -0.065,0.4135 -0.022,0.4181 0.022,0.4181 0.065,0.4135 0.109,0.4045 0.15,0.3909 0.19,0.373 0.228,0.3512 0.263,0.3253 0.296,0.2961 0.326,0.2635 0.351,0.228 0.373,0.1901 0.391,0.15 0.404,0.1084 0.414,0.0655 0.418,0.0219 z m -66.2,0 0.414,-0.0655 0.404,-0.1084 0.391,-0.15 0.373,-0.1901 0.351,-0.228 0.326,-0.2635 0.296,-0.2961 0.263,-0.3253 0.228,-0.3512 0.19,-0.373 0.15,-0.3909 0.109,-0.4045 0.065,-0.4135 0.022,-0.4181 -0.022,-0.4181 -0.065,-0.4135 -0.109,-0.4045 -0.15,-0.3908 -0.19,-0.3731 -0.228,-0.3511 -0.263,-0.3254 -0.296,-0.2961 -0.326,-0.2635 -0.351,-0.228 -0.373,-0.1901 -0.391,-0.15 -0.404,-0.1084 -0.414,-0.0655 -0.418,-0.0219 -0.418,0.0219 -0.414,0.0655 -0.404,0.1084 -0.391,0.15 -0.373,0.1901 -0.351,0.228 -0.326,0.2635 -0.296,0.2961 -0.263,0.3254 -0.228,0.3511 -0.19,0.3731 -0.15,0.3908 -0.109,0.4045 -0.065,0.4135 -0.022,0.4181 0.022,0.4181 0.065,0.4135 0.109,0.4045 0.15,0.3909 0.19,0.373 0.228,0.3512 0.263,0.3253 0.296,0.2961 0.326,0.2635 0.351,0.228 0.373,0.1901 0.391,0.15 0.404,0.1084 0.414,0.0655 0.418,0.0219 z m 198.6001,0 0.4136,-0.0655 0.4044,-0.1084 0.3909,-0.15 0.373,-0.1901 0.3511,-0.228 0.3254,-0.2635 0.2961,-0.2961 0.2635,-0.3253 0.228,-0.3512 0.1901,-0.373 0.15,-0.3909 0.1084,-0.4045 0.0655,-0.4135 0.0219,-0.4181 -0.0219,-0.4181 -0.0655,-0.4135 -0.1084,-0.4045 -0.15,-0.3908 -0.1901,-0.3731 -0.228,-0.3511 -0.2635,-0.3254 -0.2961,-0.2961 -0.3254,-0.2635 -0.3511,-0.228 -0.373,-0.1901 -0.3909,-0.15 -0.4044,-0.1084 -0.4136,-0.0655 -0.4181,-0.0219 -0.4181,0.0219 -0.4135,0.0655 -0.4045,0.1084 -0.3909,0.15 -0.373,0.1901 -0.3511,0.228 -0.3254,0.2635 -0.2961,0.2961 -0.2635,0.3254 -0.228,0.3511 -0.1901,0.3731 -0.15,0.3908 -0.1084,0.4045 -0.0655,0.4135 -0.0219,0.4181 0.0219,0.4181 0.0655,0.4135 0.1084,0.4045 0.15,0.3909 0.1901,0.373 0.228,0.3512 0.2635,0.3253 0.2961,0.2961 0.3254,0.2635 0.3511,0.228 0.373,0.1901 0.3909,0.15 0.4045,0.1084 0.4135,0.0655 0.4181,0.0219 z m 53.1045,12.6612 0.517,-0.0819 0.5055,-0.1354 0.4886,-0.1876 0.4663,-0.2376 0.4389,-0.285 0.4068,-0.3294 0.37,-0.3701 0.3294,-0.4067 0.285,-0.4389 0.2376,-0.4663 0.1876,-0.4886 0.1355,-0.5056 0.0818,-0.5169 0.0274,-0.5226 -0.0274,-0.5227 -0.0818,-0.5169 -0.1355,-0.5055 -0.1876,-0.4886 -0.2376,-0.4663 -0.285,-0.4389 -0.3294,-0.4068 -0.37,-0.3701 -0.4068,-0.3293 -0.4389,-0.2851 -0.4663,-0.2376 -0.4886,-0.1875 -0.5055,-0.1355 -0.517,-0.0818 -0.5226,-0.0274 -0.5226,0.0274 -0.5169,0.0818 -0.5056,0.1355 -0.4886,0.1875 -0.4663,0.2376 -0.4389,0.2851 -0.4067,0.3293 -0.3701,0.3701 -0.3294,0.4068 -0.285,0.4389 -0.2376,0.4663 -0.1876,0.4886 -0.1354,0.5055 -0.0819,0.5169 -0.0274,0.5227 0.0274,0.5226 0.0819,0.5169 0.1354,0.5056 0.1876,0.4886 0.2376,0.4663 0.285,0.4389 0.3294,0.4067 0.3701,0.3701 0.4067,0.3294 0.4389,0.285 0.4663,0.2376 0.4886,0.1876 0.5056,0.1354 0.5169,0.0819 0.5226,0.0274 z m -131.3046,0.3388 0.414,-0.0655 0.404,-0.1084 0.391,-0.15 0.373,-0.1901 0.351,-0.228 0.326,-0.2635 0.296,-0.2961 0.263,-0.3253 0.228,-0.3512 0.19,-0.373 0.15,-0.3909 0.109,-0.4045 0.065,-0.4135 0.022,-0.4181 -0.022,-0.4181 -0.065,-0.4135 -0.109,-0.4045 -0.15,-0.3908 -0.19,-0.3731 -0.228,-0.3511 -0.263,-0.3254 -0.296,-0.2961 -0.326,-0.2635 -0.351,-0.228 -0.373,-0.1901 -0.391,-0.15 -0.404,-0.1084 -0.414,-0.0655 -0.418,-0.0219 -0.418,0.0219 -0.414,0.0655 -0.404,0.1084 -0.391,0.15 -0.373,0.1901 -0.351,0.228 -0.326,0.2635 -0.296,0.2961 -0.263,0.3254 -0.228,0.3511 -0.19,0.3731 -0.15,0.3908 -0.109,0.4045 -0.065,0.4135 -0.022,0.4181 0.022,0.4181 0.065,0.4135 0.109,0.4045 0.15,0.3909 0.19,0.373 0.228,0.3512 0.263,0.3253 0.296,0.2961 0.326,0.2635 0.351,0.228 0.373,0.1901 0.391,0.15 0.404,0.1084 0.414,0.0655 0.418,0.0219 z m -42.2,0 0.414,-0.0655 0.404,-0.1084 0.391,-0.15 0.373,-0.1901 0.351,-0.228 0.326,-0.2635 0.296,-0.2961 0.263,-0.3253 0.228,-0.3512 0.19,-0.373 0.15,-0.3909 0.109,-0.4045 0.065,-0.4135 0.022,-0.4181 -0.022,-0.4181 -0.065,-0.4135 -0.109,-0.4045 -0.15,-0.3908 -0.19,-0.3731 -0.228,-0.3511 -0.263,-0.3254 -0.296,-0.2961 -0.326,-0.2635 -0.351,-0.228 -0.373,-0.1901 -0.391,-0.15 -0.404,-0.1084 -0.414,-0.0655 -0.418,-0.0219 -0.418,0.0219 -0.414,0.0655 -0.404,0.1084 -0.391,0.15 -0.373,0.1901 -0.351,0.228 -0.326,0.2635 -0.296,0.2961 -0.263,0.3254 -0.228,0.3511 -0.19,0.3731 -0.15,0.3908 -0.109,0.4045 -0.065,0.4135 -0.022,0.4181 0.022,0.4181 0.065,0.4135 0.109,0.4045 0.15,0.3909 0.19,0.373 0.228,0.3512 0.263,0.3253 0.296,0.2961 0.326,0.2635 0.351,0.228 0.373,0.1901 0.391,0.15 0.404,0.1084 0.414,0.0655 0.418,0.0219 z m -66.2,0 0.414,-0.0655 0.404,-0.1084 0.391,-0.15 0.373,-0.1901 0.351,-0.228 0.326,-0.2635 0.296,-0.2961 0.263,-0.3253 0.228,-0.3512 0.19,-0.373 0.15,-0.3909 0.109,-0.4045 0.065,-0.4135 0.022,-0.4181 -0.022,-0.4181 -0.065,-0.4135 -0.109,-0.4045 -0.15,-0.3908 -0.19,-0.3731 -0.228,-0.3511 -0.263,-0.3254 -0.296,-0.2961 -0.326,-0.2635 -0.351,-0.228 -0.373,-0.1901 -0.391,-0.15 -0.404,-0.1084 -0.414,-0.0655 -0.418,-0.0219 -0.418,0.0219 -0.414,0.0655 -0.404,0.1084 -0.391,0.15 -0.373,0.1901 -0.351,0.228 -0.326,0.2635 -0.296,0.2961 -0.263,0.3254 -0.228,0.3511 -0.19,0.3731 -0.15,0.3908 -0.109,0.4045 -0.065,0.4135 -0.022,0.4181 0.022,0.4181 0.065,0.4135 0.109,0.4045 0.15,0.3909 0.19,0.373 0.228,0.3512 0.263,0.3253 0.296,0.2961 0.326,0.2635 0.351,0.228 0.373,0.1901 0.391,0.15 0.404,0.1084 0.414,0.0655 0.418,0.0219 z m 132.4,0 0.414,-0.0655 0.404,-0.1084 0.391,-0.15 0.373,-0.1901 0.351,-0.228 0.326,-0.2635 0.296,-0.2961 0.263,-0.3253 0.228,-0.3512 0.19,-0.373 0.15,-0.3909 0.109,-0.4045 0.065,-0.4135 0.022,-0.4181 -0.022,-0.4181 -0.065,-0.4135 -0.109,-0.4045 -0.15,-0.3908 -0.19,-0.3731 -0.228,-0.3511 -0.263,-0.3254 -0.296,-0.2961 -0.326,-0.2635 -0.351,-0.228 -0.373,-0.1901 -0.391,-0.15 -0.404,-0.1084 -0.414,-0.0655 -0.418,-0.0219 -0.418,0.0219 -0.414,0.0655 -0.404,0.1084 -0.391,0.15 -0.373,0.1901 -0.351,0.228 -0.326,0.2635 -0.296,0.2961 -0.263,0.3254 -0.228,0.3511 -0.19,0.3731 -0.15,0.3908 -0.109,0.4045 -0.065,0.4135 -0.022,0.4181 0.022,0.4181 0.065,0.4135 0.109,0.4045 0.15,0.3909 0.19,0.373 0.228,0.3512 0.263,0.3253 0.296,0.2961 0.326,0.2635 0.351,0.228 0.373,0.1901 0.391,0.15 0.404,0.1084 0.414,0.0655 0.418,0.0219 z m 42.6137,-7.8907 -0.4136,-0.0655 -0.4181,-0.0219 -0.4181,0.0219 -0.4135,0.0655 -0.4045,0.1084 -0.3909,0.15 -0.373,0.1901 -0.3511,0.228 -0.3254,0.2635 -0.2961,0.2961 -0.2635,0.3254 -0.228,0.3511 -0.1901,0.3731 -0.15,0.3908 -0.1084,0.4045 -0.0655,0.4135 -0.0219,0.4181 0.0219,0.4181 0.0655,0.4135 0.1084,0.4045 0.15,0.3909 0.1901,0.373 0.228,0.3512 0.2635,0.3253 0.2961,0.2961 0.3254,0.2635 0.3511,0.228 0.373,0.1901 0.3909,0.15 0.4045,0.1084 0.4135,0.0655 0.4181,0.0219 0.4181,-0.0219 0.4136,-0.0655 0.4044,-0.1084 0.3909,-0.15 0.373,-0.1901 0.3511,-0.228 0.3254,-0.2635 0.2961,-0.2961 0.2635,-0.3253 0.228,-0.3512 0.1901,-0.373 0.15,-0.3909 0.1084,-0.4045 0.0655,-0.4135 0.0219,-0.4181 -0.0219,-0.4181 -0.0655,-0.4135 -0.1084,-0.4045 -0.15,-0.3908 -0.1901,-0.3731 -0.228,-0.3511 -0.2635,-0.3254 -0.2961,-0.2961 -0.3254,-0.2635 -0.3511,-0.228 -0.373,-0.1901 -0.3909,-0.15 z m -132.8137,7.8907 0.414,-0.0655 0.404,-0.1084 0.391,-0.15 0.373,-0.1901 0.351,-0.228 0.326,-0.2635 0.296,-0.2961 0.263,-0.3253 0.228,-0.3512 0.19,-0.373 0.15,-0.3909 0.109,-0.4045 0.065,-0.4135 0.022,-0.4181 -0.022,-0.4181 -0.065,-0.4135 -0.109,-0.4045 -0.15,-0.3908 -0.19,-0.3731 -0.228,-0.3511 -0.263,-0.3254 -0.296,-0.2961 -0.326,-0.2635 -0.351,-0.228 -0.373,-0.1901 -0.391,-0.15 -0.404,-0.1084 -0.414,-0.0655 -0.418,-0.0219 -0.418,0.0219 -0.414,0.0655 -0.404,0.1084 -0.391,0.15 -0.373,0.1901 -0.351,0.228 -0.326,0.2635 -0.296,0.2961 -0.263,0.3254 -0.228,0.3511 -0.19,0.3731 -0.15,0.3908 -0.109,0.4045 -0.065,0.4135 -0.022,0.4181 0.022,0.4181 0.065,0.4135 0.109,0.4045 0.15,0.3909 0.19,0.373 0.228,0.3512 0.263,0.3253 0.296,0.2961 0.326,0.2635 0.351,0.228 0.373,0.1901 0.391,0.15 0.404,0.1084 0.414,0.0655 0.418,0.0219 z m -66.2,0 0.414,-0.0655 0.404,-0.1084 0.391,-0.15 0.373,-0.1901 0.351,-0.228 0.326,-0.2635 0.296,-0.2961 0.263,-0.3253 0.228,-0.3512 0.19,-0.373 0.15,-0.3909 0.109,-0.4045 0.065,-0.4135 0.022,-0.4181 -0.022,-0.4181 -0.065,-0.4135 -0.109,-0.4045 -0.15,-0.3908 -0.19,-0.3731 -0.228,-0.3511 -0.263,-0.3254 -0.296,-0.2961 -0.326,-0.2635 -0.351,-0.228 -0.373,-0.1901 -0.391,-0.15 -0.404,-0.1084 -0.414,-0.0655 -0.418,-0.0219 -0.418,0.0219 -0.414,0.0655 -0.404,0.1084 -0.391,0.15 -0.373,0.1901 -0.351,0.228 -0.326,0.2635 -0.296,0.2961 -0.263,0.3254 -0.228,0.3511 -0.19,0.3731 -0.15,0.3908 -0.109,0.4045 -0.065,0.4135 -0.022,0.4181 0.022,0.4181 0.065,0.4135 0.109,0.4045 0.15,0.3909 0.19,0.373 0.228,0.3512 0.263,0.3253 0.296,0.2961 0.326,0.2635 0.351,0.228 0.373,0.1901 0.391,0.15 0.404,0.1084 0.414,0.0655 0.418,0.0219 z m 174.62,9.0885 0.63,-0.0999 0.617,-0.1652 0.596,-0.2289 0.569,-0.2898 0.536,-0.3478 0.496,-0.4018 0.451,-0.4515 0.402,-0.4962 0.348,-0.5355 0.29,-0.5689 0.228,-0.5961 0.166,-0.6167 0.1,-0.6307 0.033,-0.6376 -0.033,-0.6376 -0.1,-0.6306 -0.166,-0.6168 -0.228,-0.5961 -0.29,-0.5689 -0.348,-0.5355 -0.402,-0.4962 -0.451,-0.4515 -0.496,-0.4018 -0.536,-0.3477 -0.569,-0.2899 -0.596,-0.2288 -0.617,-0.1653 -0.63,-0.0999 -0.638,-0.0334 -0.638,0.0334 -0.63,0.0999 -0.617,0.1653 -0.596,0.2288 -0.569,0.2899 -0.535,0.3477 -0.497,0.4018 -0.451,0.4515 -0.402,0.4962 -0.348,0.5355 -0.29,0.5689 -0.228,0.5961 -0.166,0.6168 -0.1,0.6306 -0.033,0.6376 0.033,0.6376 0.1,0.6307 0.166,0.6167 0.228,0.5961 0.29,0.5689 0.348,0.5355 0.402,0.4962 0.451,0.4515 0.497,0.4018 0.535,0.3478 0.569,0.2898 0.596,0.2289 0.617,0.1652 0.63,0.0999 0.638,0.0334 z m -132.4,0 0.63,-0.0999 0.617,-0.1652 0.596,-0.2289 0.569,-0.2898 0.535,-0.3478 0.497,-0.4018 0.451,-0.4515 0.402,-0.4962 0.348,-0.5355 0.29,-0.5689 0.228,-0.5961 0.166,-0.6167 0.1,-0.6307 0.033,-0.6376 -0.033,-0.6376 -0.1,-0.6306 -0.166,-0.6168 -0.228,-0.5961 -0.29,-0.5689 -0.348,-0.5355 -0.402,-0.4962 -0.451,-0.4515 -0.497,-0.4018 -0.535,-0.3477 -0.569,-0.2899 -0.596,-0.2288 -0.617,-0.1653 -0.63,-0.0999 -0.638,-0.0334 -0.638,0.0334 -0.63,0.0999 -0.617,0.1653 -0.596,0.2288 -0.569,0.2899 -0.535,0.3477 -0.497,0.4018 -0.451,0.4515 -0.402,0.4962 -0.348,0.5355 -0.29,0.5689 -0.228,0.5961 -0.166,0.6168 -0.1,0.6306 -0.033,0.6376 0.033,0.6376 0.1,0.6307 0.166,0.6167 0.228,0.5961 0.29,0.5689 0.348,0.5355 0.402,0.4962 0.451,0.4515 0.497,0.4018 0.535,0.3478 0.569,0.2898 0.596,0.2289 0.617,0.1652 0.63,0.0999 0.638,0.0334 z m 198.5996,0 0.6307,-0.0999 0.6167,-0.1652 0.5961,-0.2289 0.5689,-0.2898 0.5355,-0.3478 0.4962,-0.4018 0.4515,-0.4515 0.4018,-0.4962 0.3478,-0.5355 0.2898,-0.5689 0.2289,-0.5961 0.1652,-0.6167 0.0999,-0.6307 0.0334,-0.6376 -0.0334,-0.6376 -0.0999,-0.6306 -0.1652,-0.6168 -0.2289,-0.5961 -0.2898,-0.5689 -0.3478,-0.5355 -0.4018,-0.4962 -0.4515,-0.4515 -0.4962,-0.4018 -0.5355,-0.3477 -0.5689,-0.2899 -0.5961,-0.2288 -0.6167,-0.1653 -0.6307,-0.0999 -0.6376,-0.0334 -0.6376,0.0334 -0.6307,0.0999 -0.6167,0.1653 -0.5961,0.2288 -0.5689,0.2899 -0.5355,0.3477 -0.4962,0.4018 -0.4515,0.4515 -0.4018,0.4962 -0.3477,0.5355 -0.2899,0.5689 -0.2288,0.5961 -0.1653,0.6168 -0.0999,0.6306 -0.0334,0.6376 0.0334,0.6376 0.0999,0.6307 0.1653,0.6167 0.2288,0.5961 0.2899,0.5689 0.3477,0.5355 0.4018,0.4962 0.4515,0.4515 0.4962,0.4018 0.5355,0.3478 0.5689,0.2898 0.5961,0.2289 0.6167,0.1652 0.6307,0.0999 0.6376,0.0334 z m -132.3996,0 0.63,-0.0999 0.617,-0.1652 0.596,-0.2289 0.569,-0.2898 0.535,-0.3478 0.497,-0.4018 0.451,-0.4515 0.402,-0.4962 0.348,-0.5355 0.29,-0.5689 0.228,-0.5961 0.166,-0.6167 0.1,-0.6307 0.033,-0.6376 -0.033,-0.6376 -0.1,-0.6306 -0.166,-0.6168 -0.228,-0.5961 -0.29,-0.5689 -0.348,-0.5355 -0.402,-0.4962 -0.451,-0.4515 -0.497,-0.4018 -0.535,-0.3477 -0.569,-0.2899 -0.596,-0.2288 -0.617,-0.1653 -0.63,-0.0999 -0.638,-0.0334 -0.638,0.0334 -0.63,0.0999 -0.617,0.1653 -0.596,0.2288 -0.569,0.2899 -0.535,0.3477 -0.497,0.4018 -0.451,0.4515 -0.402,0.4962 -0.348,0.5355 -0.29,0.5689 -0.228,0.5961 -0.166,0.6168 -0.1,0.6306 -0.033,0.6376 0.033,0.6376 0.1,0.6307 0.166,0.6167 0.228,0.5961 0.29,0.5689 0.348,0.5355 0.402,0.4962 0.451,0.4515 0.497,0.4018 0.535,0.3478 0.569,0.2898 0.596,0.2289 0.617,0.1652 0.63,0.0999 0.638,0.0334 z m 36.189,9.9005 0.62,-0.0982 0.607,-0.1626 0.586,-0.225 0.56,-0.2851 0.527,-0.3421 0.488,-0.3952 0.444,-0.4441 0.395,-0.4881 0.342,-0.5267 0.285,-0.5596 0.225,-0.5863 0.163,-0.6066 0.098,-0.6203 0.033,-0.6272 -0.033,-0.6272 -0.098,-0.6203 -0.163,-0.6066 -0.225,-0.5863 -0.285,-0.5596 -0.342,-0.5267 -0.395,-0.4881 -0.444,-0.4441 -0.488,-0.3952 -0.527,-0.3421 -0.56,-0.2851 -0.586,-0.225 -0.607,-0.1626 -0.62,-0.0982 -0.627,-0.0329 -0.627,0.0329 -0.62,0.0982 -0.607,0.1626 -0.586,0.225 -0.56,0.2851 -0.527,0.3421 -0.488,0.3952 -0.444,0.4441 -0.395,0.4881 -0.342,0.5267 -0.285,0.5596 -0.225,0.5863 -0.163,0.6066 -0.098,0.6203 -0.033,0.6272 0.033,0.6272 0.098,0.6203 0.163,0.6066 0.225,0.5863 0.285,0.5596 0.342,0.5267 0.395,0.4881 0.444,0.4441 0.488,0.3952 0.527,0.3421 0.56,0.2851 0.586,0.225 0.607,0.1626 0.62,0.0982 0.627,0.0329 z m -66.2,0 0.62,-0.0982 0.607,-0.1626 0.586,-0.225 0.56,-0.2851 0.527,-0.3421 0.488,-0.3952 0.444,-0.4441 0.395,-0.4881 0.342,-0.5267 0.285,-0.5596 0.225,-0.5863 0.163,-0.6066 0.098,-0.6203 0.033,-0.6272 -0.033,-0.6272 -0.098,-0.6203 -0.163,-0.6066 -0.225,-0.5863 -0.285,-0.5596 -0.342,-0.5267 -0.395,-0.4881 -0.444,-0.4441 -0.488,-0.3952 -0.527,-0.3421 -0.56,-0.2851 -0.586,-0.225 -0.607,-0.1626 -0.62,-0.0982 -0.627,-0.0329 -0.627,0.0329 -0.62,0.0982 -0.607,0.1626 -0.586,0.225 -0.56,0.2851 -0.527,0.3421 -0.488,0.3952 -0.444,0.4441 -0.395,0.4881 -0.342,0.5267 -0.285,0.5596 -0.225,0.5863 -0.163,0.6066 -0.098,0.6203 -0.033,0.6272 0.033,0.6272 0.098,0.6203 0.163,0.6066 0.225,0.5863 0.285,0.5596 0.342,0.5267 0.395,0.4881 0.444,0.4441 0.488,0.3952 0.527,0.3421 0.56,0.2851 0.586,0.225 0.607,0.1626 0.62,0.0982 0.627,0.0329 z m -66.2,0 0.62,-0.0982 0.607,-0.1626 0.586,-0.225 0.56,-0.2851 0.527,-0.3421 0.488,-0.3952 0.444,-0.4441 0.395,-0.4881 0.342,-0.5267 0.285,-0.5596 0.225,-0.5863 0.163,-0.6066 0.098,-0.6203 0.033,-0.6272 -0.033,-0.6272 -0.098,-0.6203 -0.163,-0.6066 -0.225,-0.5863 -0.285,-0.5596 -0.342,-0.5267 -0.395,-0.4881 -0.444,-0.4441 -0.488,-0.3952 -0.527,-0.3421 -0.56,-0.2851 -0.586,-0.225 -0.607,-0.1626 -0.62,-0.0982 -0.627,-0.0329 -0.627,0.0329 -0.62,0.0982 -0.607,0.1626 -0.586,0.225 -0.56,0.2851 -0.527,0.3421 -0.488,0.3952 -0.444,0.4441 -0.395,0.4881 -0.342,0.5267 -0.285,0.5596 -0.225,0.5863 -0.163,0.6066 -0.098,0.6203 -0.033,0.6272 0.033,0.6272 0.098,0.6203 0.163,0.6066 0.225,0.5863 0.285,0.5596 0.342,0.5267 0.395,0.4881 0.444,0.4441 0.488,0.3952 0.527,0.3421 0.56,0.2851 0.586,0.225 0.607,0.1626 0.62,0.0982 0.627,0.0329 z m 198.6002,0 0.6203,-0.0982 0.6066,-0.1626 0.5863,-0.225 0.5596,-0.2851 0.5267,-0.3421 0.4881,-0.3952 0.4441,-0.4441 0.3952,-0.4881 0.3421,-0.5267 0.2851,-0.5596 0.225,-0.5863 0.1626,-0.6066 0.0982,-0.6203 0.0329,-0.6272 -0.0329,-0.6272 -0.0982,-0.6203 -0.1626,-0.6066 -0.225,-0.5863 -0.2851,-0.5596 -0.3421,-0.5267 -0.3952,-0.4881 -0.4441,-0.4441 -0.4881,-0.3952 -0.5267,-0.3421 -0.5596,-0.2851 -0.5863,-0.225 -0.6066,-0.1626 -0.6203,-0.0982 -0.6272,-0.0329 -0.6272,0.0329 -0.6203,0.0982 -0.6066,0.1626 -0.5863,0.225 -0.5596,0.2851 -0.5267,0.3421 -0.4881,0.3952 -0.4441,0.4441 -0.3952,0.4881 -0.342,0.5267 -0.2852,0.5596 -0.225,0.5863 -0.1626,0.6066 -0.0982,0.6203 -0.0329,0.6272 0.0329,0.6272 0.0982,0.6203 0.1626,0.6066 0.225,0.5863 0.2852,0.5596 0.342,0.5267 0.3952,0.4881 0.4441,0.4441 0.4881,0.3952 0.5267,0.3421 0.5596,0.2851 0.5863,0.225 0.6066,0.1626 0.6203,0.0982 L 263.8,-10.5 Z M 53.25,-11.75 v -8.5 h -32.5 v 8.5 z m 28.251,-1.6588 0.165,-0.0262 0.162,-0.0433 0.156,-0.06 0.149,-0.076 0.141,-0.0913 0.13,-0.1054 0.118,-0.1184 0.106,-0.1301 0.091,-0.1405 0.076,-0.1492 0.06,-0.1564 0.043,-0.1617 0.027,-0.1654 0.008,-0.1673 -0.008,-0.1672 -0.027,-0.1655 -0.043,-0.1617 -0.06,-0.1564 -0.076,-0.1492 -0.091,-0.1404 -0.106,-0.1302 -0.118,-0.1184 -0.13,-0.1054 -0.141,-0.0912 -0.149,-0.0761 -0.156,-0.06 -0.162,-0.0433 -0.165,-0.0262 -0.168,-0.0088 -0.167,0.0088 -0.165,0.0262 -0.162,0.0433 -0.156,0.06 -0.15,0.0761 -0.14,0.0912 -0.13,0.1054 -0.119,0.1184 -0.105,0.1302 -0.091,0.1404 -0.076,0.1492 -0.06,0.1564 -0.044,0.1617 -0.026,0.1655 -0.009,0.1672 0.009,0.1673 0.026,0.1654 0.044,0.1617 0.06,0.1564 0.076,0.1492 0.091,0.1405 0.105,0.1301 0.119,0.1184 0.13,0.1054 0.14,0.0913 0.15,0.076 0.156,0.06 0.162,0.0433 0.165,0.0262 0.167,0.0088 z m 162.3329,0 0.1654,-0.0262 0.1618,-0.0433 0.1563,-0.06 0.1493,-0.076 0.1404,-0.0913 0.1302,-0.1054 0.1184,-0.1184 0.1054,-0.1301 0.0912,-0.1405 0.076,-0.1492 0.0601,-0.1564 0.0433,-0.1617 0.0262,-0.1654 0.009,-0.1673 -0.009,-0.1672 -0.0262,-0.1655 -0.0433,-0.1617 -0.0601,-0.1564 -0.076,-0.1492 -0.0912,-0.1404 -0.1054,-0.1302 -0.1184,-0.1184 -0.1302,-0.1054 -0.1404,-0.0912 -0.1493,-0.0761 -0.1563,-0.06 -0.1618,-0.0433 -0.1654,-0.0262 -0.1672,-0.0088 -0.1673,0.0088 -0.1654,0.0262 -0.1618,0.0433 -0.1563,0.06 -0.1492,0.0761 -0.1405,0.0912 -0.1301,0.1054 -0.1185,0.1184 -0.1054,0.1302 -0.0912,0.1404 -0.076,0.1492 -0.06,0.1564 -0.0434,0.1617 -0.0262,0.1655 -0.009,0.1672 0.009,0.1673 0.0262,0.1654 0.0434,0.1617 0.06,0.1564 0.076,0.1492 0.0912,0.1405 0.1054,0.1301 0.1185,0.1184 0.1301,0.1054 0.1405,0.0913 0.1492,0.076 0.1563,0.06 0.1618,0.0433 0.1654,0.0262 0.1673,0.0088 z M 123.25,-11.3 v -2 h -5.75 v -2.8 h -9 v 2.8 h -5.75 v 2 z m -110.083,-0.1088 0.166,-0.0262 0.161,-0.0433 0.157,-0.06 0.149,-0.076 0.14,-0.0913 0.131,-0.1054 0.118,-0.1184 0.105,-0.1301 0.092,-0.1405 0.076,-0.1492 0.06,-0.1564 0.043,-0.1617 0.026,-0.1654 L 14.6,-13 l -0.009,-0.1672 -0.026,-0.1655 -0.043,-0.1617 -0.06,-0.1564 -0.076,-0.1492 -0.092,-0.1404 -0.105,-0.1302 -0.118,-0.1184 -0.131,-0.1054 -0.14,-0.0912 -0.149,-0.0761 -0.157,-0.06 -0.161,-0.0433 -0.166,-0.0262 L 13,-14.6 l -0.167,0.0088 -0.166,0.0262 -0.161,0.0433 -0.157,0.06 -0.149,0.0761 -0.14,0.0912 -0.131,0.1054 -0.118,0.1184 -0.105,0.1302 -0.092,0.1404 -0.076,0.1492 -0.06,0.1564 -0.043,0.1617 -0.026,0.1655 L 11.4,-13 l 0.009,0.1673 0.026,0.1654 0.043,0.1617 0.06,0.1564 0.076,0.1492 0.092,0.1405 0.105,0.1301 0.118,0.1184 0.131,0.1054 0.14,0.0913 0.149,0.076 0.157,0.06 0.161,0.0433 0.166,0.0262 L 13,-11.4 Z m 314.0003,0 0.1654,-0.0262 0.1617,-0.0433 0.1564,-0.06 0.1492,-0.076 0.1405,-0.0913 0.1301,-0.1054 0.1184,-0.1184 0.1054,-0.1301 0.0913,-0.1405 0.076,-0.1492 0.06,-0.1564 0.0433,-0.1617 0.0262,-0.1654 0.009,-0.1673 -0.009,-0.1672 -0.0262,-0.1655 -0.0433,-0.1617 -0.06,-0.1564 -0.076,-0.1492 -0.0913,-0.1404 -0.1054,-0.1302 -0.1184,-0.1184 -0.1301,-0.1054 -0.1405,-0.0912 -0.1492,-0.0761 -0.1564,-0.06 -0.1617,-0.0433 -0.1654,-0.0262 L 327,-14.6 l -0.1672,0.0088 -0.1655,0.0262 -0.1617,0.0433 -0.1564,0.06 -0.1492,0.0761 -0.1404,0.0912 -0.1302,0.1054 -0.1184,0.1184 -0.1054,0.1302 -0.0912,0.1404 -0.0761,0.1492 -0.06,0.1564 -0.0433,0.1617 -0.0262,0.1655 -0.009,0.1672 0.009,0.1673 0.0262,0.1654 0.0433,0.1617 0.06,0.1564 0.0761,0.1492 0.0912,0.1405 0.1054,0.1301 0.1184,0.1184 0.1302,0.1054 0.1404,0.0913 0.1492,0.076 0.1564,0.06 0.1617,0.0433 0.1655,0.0262 L 327,-11.4 Z m -53.7184,-25.3273 -0.3254,0.2635 -0.2961,0.2961 -0.2635,0.3254 -0.228,0.3511 -0.1901,0.3731 -0.15,0.3908 -0.1084,0.4045 -0.0655,0.4135 -0.0219,0.4181 0.0219,0.4181 0.0655,0.4135 0.1084,0.4045 0.15,0.3909 0.1901,0.373 0.228,0.3512 0.2635,0.3253 0.2961,0.2961 0.3254,0.2635 0.3511,0.228 0.373,0.1901 0.3909,0.15 0.4045,0.1084 0.4135,0.0655 0.4181,0.0219 0.4181,-0.0219 0.4136,-0.0655 0.4044,-0.1084 0.3909,-0.15 0.373,-0.1901 0.3512,-0.228 0.3253,-0.2635 0.2961,-0.2961 0.2635,-0.3253 0.228,-0.3512 0.1901,-0.373 0.15,-0.3909 0.1084,-0.4045 0.0655,-0.4135 0.0219,-0.4181 -0.0219,-0.4181 -0.0655,-0.4135 -0.1084,-0.4045 -0.15,-0.3908 -0.1901,-0.3731 -0.228,-0.3511 -0.2635,-0.3254 -0.2961,-0.2961 -0.3253,-0.2635 -0.3512,-0.228 -0.373,-0.1901 -0.3909,-0.15 -0.4044,-0.1084 -0.4136,-0.0655 -0.4181,-0.0219 -0.4181,0.0219 -0.4135,0.0655 -0.4045,0.1084 -0.3909,0.15 -0.373,0.1901 z"
     stroke="#000000"
     fill="#d3d3d3"
     stroke-width="0.5"
     id="path1" />
</svg>
