M48
; DRILL file {KiCad 9.0.3} date 2025-08-27T16:44:28+0300
; FORMAT={-:-/ absolute / metric / decimal}
; #@! TF.CreationDate,2025-08-27T16:44:28+03:00
; #@! TF.GenerationSoftware,Kicad,Pcbnew,9.0.3
; #@! TF.FileFunction,MixedPlating,1,2
FMAT,2
METRIC
; #@! TA.AperFunction,Plated,PTH,ViaDrill
T1C0.400
; #@! TA.AperFunction,Plated,PTH,ComponentDrill
T2C0.800
; #@! TA.AperFunction,Plated,PTH,ComponentDrill
T3C0.950
; #@! TA.AperFunction,Plated,PTH,ComponentDrill
T4C1.000
; #@! TA.AperFunction,Plated,PTH,ComponentDrill
T5C1.100
; #@! TA.AperFunction,Plated,PTH,ComponentDrill
T6C1.300
; #@! TA.AperFunction,NonPlated,NPTH,ComponentDrill
T7C3.200
%
G90
G05
T1
X86.345Y-46.132
X86.41Y-48.253
X86.549Y-97.611
X86.778Y-52.859
X86.822Y-110.202
X86.88Y-38.947
X86.917Y-43.654
X87.042Y-55.583
X87.054Y-114.363
X87.575Y-117.128
X87.798Y-107.664
X87.867Y-41.128
X87.982Y-119.708
X88.137Y-123.115
X88.794Y-113.345
X88.902Y-115.512
X89.075Y-53.375
X89.267Y-110.113
X89.869Y-91.808
X90.34Y-76.25
X90.572Y-65.528
X90.625Y-57.825
X90.687Y-86.382
X91.374Y-38.935
X91.53Y-68.99
X91.61Y-130.44
X91.863Y-45.345
X92.279Y-50.095
X92.49Y-72.876
X92.728Y-66.905
X92.92Y-79.08
X93.053Y-56.164
X93.061Y-58.684
X93.454Y-37.623
X93.662Y-43.472
X93.775Y-33.894
X94.012Y-65.245
X94.647Y-70.37
X94.734Y-60.973
X94.889Y-107.639
X94.908Y-120.559
X94.91Y-88.0
X95.037Y-54.833
X95.224Y-47.544
X95.242Y-57.626
X95.406Y-44.743
X95.58Y-75.54
X95.827Y-49.69
X96.206Y-38.193
X96.857Y-33.599
X97.042Y-101.245
X97.207Y-118.86
X97.313Y-47.779
X97.318Y-56.412
X97.431Y-122.103
X97.54Y-43.547
X98.004Y-35.693
X98.03Y-77.12
X98.221Y-124.286
X98.25Y-81.56
X98.343Y-37.724
X98.596Y-45.835
X98.96Y-114.49
X99.324Y-70.249
X99.677Y-53.534
X99.777Y-60.808
X99.814Y-65.584
X99.934Y-33.053
X99.941Y-121.216
X100.077Y-67.888
X100.15Y-89.7
X100.161Y-118.959
X100.163Y-38.631
X100.219Y-123.223
X100.323Y-35.449
X100.42Y-74.96
X101.06Y-80.03
X101.08Y-77.85
X101.129Y-101.269
X101.228Y-44.264
X101.763Y-70.371
X101.839Y-66.805
X101.899Y-121.76
X102.009Y-36.675
X102.034Y-58.207
X102.1Y-77.6
X102.1Y-80.2
X102.466Y-61.229
X102.482Y-107.725
X102.49Y-124.192
X102.784Y-116.469
X103.0Y-89.41
X103.214Y-128.987
X103.767Y-118.827
X103.847Y-59.333
X104.217Y-67.507
X104.238Y-126.643
X104.42Y-37.655
X104.496Y-49.159
X104.621Y-62.911
X104.979Y-122.513
X105.04Y-73.57
X105.092Y-100.87
X105.208Y-57.488
X105.28Y-128.65
X105.306Y-107.731
X105.89Y-66.22
X105.899Y-118.488
X106.07Y-55.37
X106.103Y-120.545
X106.192Y-61.214
X106.2Y-86.93
X106.269Y-68.299
X106.609Y-130.181
X107.176Y-82.816
X107.44Y-77.63
X107.656Y-54.003
X108.029Y-118.833
X108.289Y-101.573
X108.652Y-107.798
X108.941Y-37.147
X109.039Y-51.018
X109.783Y-124.172
X109.85Y-96.53
X109.904Y-129.013
X110.18Y-87.46
X110.234Y-119.031
X110.35Y-69.69
X110.49Y-89.61
X110.744Y-77.47
X110.75Y-80.47
X110.85Y-81.93
X111.177Y-50.848
X111.197Y-35.199
X111.414Y-37.626
X111.537Y-65.529
X112.02Y-76.56
X112.259Y-63.582
X112.474Y-61.103
X112.48Y-129.634
X112.73Y-92.55
X112.75Y-69.875
X112.767Y-108.229
X113.283Y-51.256
X113.31Y-81.45
X113.353Y-56.464
X113.414Y-37.027
X113.53Y-76.04
X113.56Y-85.06
X114.43Y-95.41
X114.45Y-128.135
X115.591Y-38.367
X115.677Y-125.804
X116.135Y-107.734
X116.256Y-129.077
X116.39Y-82.45
X116.4Y-80.25
X116.41Y-90.13
X116.751Y-123.975
X117.21Y-97.07
X117.927Y-127.247
X118.545Y-33.684
X118.88Y-80.34
X118.93Y-82.24
X119.041Y-37.605
X119.065Y-56.853
X119.08Y-68.92
X119.1Y-76.5
X119.482Y-129.603
X119.549Y-107.707
X119.854Y-35.411
X119.93Y-96.9
X120.265Y-42.816
X120.65Y-90.26
X121.379Y-121.864
X121.69Y-83.81
X121.876Y-128.701
X122.018Y-35.729
X122.07Y-81.18
X122.268Y-33.468
X122.925Y-80.2
X123.175Y-37.884
X123.416Y-129.998
X123.532Y-46.962
X123.75Y-63.62
X123.875Y-96.525
X123.878Y-61.191
X124.16Y-123.821
X124.26Y-53.087
X124.642Y-121.508
X124.85Y-69.64
X125.146Y-128.231
X125.858Y-37.725
X126.23Y-87.675
X126.474Y-125.906
X126.514Y-53.709
X126.679Y-129.859
X126.71Y-76.39
X126.725Y-93.76
X126.85Y-86.825
X126.88Y-81.31
X127.03Y-88.62
X127.489Y-121.788
X127.526Y-127.973
X127.642Y-115.953
X127.989Y-49.276
X127.997Y-123.865
X128.375Y-52.878
X128.969Y-125.662
X129.02Y-63.76
X129.062Y-36.037
X129.22Y-98.18
X129.22Y-106.93
X129.35Y-73.86
X129.54Y-78.33
X129.791Y-128.829
X129.84Y-38.125
X130.019Y-113.095
X130.124Y-54.119
X130.36Y-90.66
X130.603Y-122.543
X131.13Y-97.95
X131.134Y-48.441
X131.175Y-124.538
X131.637Y-35.734
X131.65Y-42.824
X131.932Y-38.393
X132.36Y-92.63
X132.777Y-122.445
X133.055Y-130.46
X133.3Y-90.79
X133.49Y-94.68
X133.65Y-88.63
X134.257Y-49.874
X134.696Y-110.866
X135.5Y-101.175
X135.613Y-113.515
X135.716Y-58.671
X135.879Y-47.807
X135.98Y-75.3
X136.11Y-109.449
X136.18Y-69.35
X136.242Y-51.164
X136.482Y-116.121
X137.269Y-123.071
X137.497Y-111.101
X137.555Y-33.043
X137.88Y-81.36
X138.049Y-126.763
X138.225Y-48.084
X138.525Y-97.1
X138.808Y-121.51
X138.869Y-59.291
X139.077Y-36.135
X139.21Y-86.74
X139.428Y-125.276
X139.474Y-113.966
X139.634Y-32.957
X140.1Y-49.995
X140.173Y-42.695
X140.37Y-78.89
X140.928Y-122.189
X141.332Y-58.675
X141.718Y-47.042
X141.809Y-124.06
X142.42Y-33.505
X142.597Y-98.067
X143.186Y-62.04
X143.218Y-94.559
X143.405Y-53.621
X143.469Y-59.527
X143.8Y-78.44
X144.115Y-114.006
X144.539Y-116.796
X144.602Y-97.16
X144.644Y-33.512
X144.785Y-122.863
X144.821Y-47.64
X145.582Y-94.609
X145.839Y-115.198
X145.952Y-98.677
X146.005Y-58.706
X146.68Y-96.358
X146.827Y-106.175
X146.96Y-79.89
X146.981Y-32.881
X147.114Y-123.322
X147.651Y-47.759
X147.671Y-42.443
X147.694Y-35.781
X147.948Y-126.137
X148.18Y-74.9
X148.38Y-62.767
X148.563Y-95.241
X148.641Y-107.407
X148.785Y-50.71
X148.81Y-57.678
X148.86Y-98.448
X149.43Y-72.61
X149.732Y-109.417
X149.738Y-120.27
X150.435Y-124.684
X150.633Y-90.388
X150.723Y-33.756
X150.81Y-98.924
X150.923Y-95.271
X151.024Y-122.75
X151.031Y-106.624
X151.709Y-72.099
X151.962Y-63.206
X152.073Y-109.382
X152.601Y-89.568
X152.74Y-93.596
X152.879Y-96.387
X152.902Y-84.722
X152.93Y-47.009
X153.047Y-117.918
X153.341Y-119.961
X153.486Y-122.163
X153.495Y-113.902
X153.589Y-124.376
X153.763Y-105.626
X153.823Y-62.14
X153.901Y-65.958
X153.939Y-41.98
X154.428Y-116.044
X154.625Y-86.273
X154.686Y-64.025
X154.735Y-91.33
X154.827Y-32.886
X154.831Y-94.909
X154.88Y-98.122
X155.205Y-109.115
X155.229Y-35.925
X155.582Y-123.906
X155.987Y-59.635
X156.07Y-118.044
X156.147Y-55.356
X156.322Y-67.999
X156.41Y-121.903
X156.42Y-88.409
X156.561Y-113.748
X156.654Y-61.765
X156.674Y-115.923
X156.907Y-125.726
X156.913Y-96.036
X156.924Y-52.593
X156.973Y-93.336
X157.082Y-85.344
X157.575Y-36.492
X157.592Y-106.585
X157.641Y-34.431
X157.874Y-123.291
X157.885Y-98.827
X158.092Y-64.452
X158.367Y-75.567
X158.437Y-67.83
X158.499Y-59.325
X158.502Y-55.822
X158.657Y-117.484
X158.74Y-109.416
X158.839Y-119.491
X158.944Y-79.558
X158.986Y-88.108
X159.532Y-114.098
X159.568Y-105.746
X159.625Y-83.6
X159.763Y-62.737
X159.882Y-124.72
X159.883Y-69.322
X159.89Y-40.45
X160.147Y-75.057
X160.182Y-66.009
X160.208Y-33.478
X160.582Y-59.28
X160.752Y-80.848
X161.016Y-57.072
X161.02Y-40.63
X161.309Y-55.088
X162.319Y-33.1
X162.738Y-113.676
X162.949Y-92.962
X163.311Y-45.281
X163.763Y-51.426
X163.98Y-125.213
X164.001Y-117.124
X164.4Y-95.193
X164.497Y-47.078
X164.498Y-36.191
X164.504Y-114.917
X164.539Y-33.558
X164.599Y-49.491
X164.644Y-66.556
X164.717Y-70.976
X166.563Y-125.888
X166.758Y-35.894
X167.303Y-32.999
X167.386Y-59.69
X168.244Y-81.889
X168.395Y-124.093
X168.932Y-44.046
X169.086Y-118.473
X169.409Y-115.925
X169.436Y-46.202
X169.711Y-83.768
X169.721Y-112.812
X169.937Y-53.927
X170.009Y-51.229
X170.015Y-80.947
X170.152Y-48.571
X170.627Y-42.685
X170.667Y-119.803
X170.689Y-32.859
X170.748Y-108.884
X170.749Y-75.949
X170.856Y-124.314
X171.041Y-64.899
X171.153Y-44.989
X171.32Y-38.152
X171.418Y-67.853
X171.531Y-114.199
X171.847Y-86.269
X171.925Y-83.717
X171.979Y-63.068
X172.037Y-110.865
X172.137Y-94.348
X172.14Y-72.499
X172.248Y-91.01
X172.417Y-56.043
X172.484Y-46.912
X172.484Y-88.377
X172.521Y-51.747
X172.648Y-70.321
X172.702Y-49.42
X172.84Y-43.622
X172.915Y-117.762
X173.15Y-34.564
X173.966Y-32.726
X174.308Y-126.444
X174.615Y-57.531
X174.741Y-36.785
X174.942Y-124.498
X175.733Y-79.501
X175.736Y-128.373
X175.79Y-33.879
X176.355Y-106.551
X176.36Y-125.932
X177.207Y-37.703
X177.598Y-99.901
X177.689Y-57.535
X177.848Y-124.29
X177.859Y-130.405
X178.008Y-63.412
X178.02Y-79.626
X178.278Y-34.533
X178.767Y-39.282
X178.78Y-125.92
X179.914Y-82.18
X179.964Y-123.995
X180.935Y-59.981
X181.184Y-38.223
X181.919Y-91.599
X182.102Y-51.059
X182.126Y-75.724
X182.127Y-48.137
X182.198Y-55.823
X182.248Y-86.615
X182.276Y-44.664
X182.348Y-81.971
X182.419Y-84.13
X182.431Y-42.036
X182.474Y-104.036
X182.513Y-117.008
X182.655Y-111.003
X182.688Y-95.501
X182.738Y-63.013
X182.787Y-69.722
X182.878Y-60.974
X182.936Y-120.244
X183.076Y-72.895
X183.13Y-65.341
X183.149Y-98.38
X183.204Y-77.87
X183.204Y-67.678
X183.293Y-39.315
X183.317Y-93.238
X183.327Y-46.373
X183.354Y-89.015
X183.384Y-54.184
X183.516Y-106.42
X183.591Y-108.694
X183.613Y-101.538
X183.679Y-113.964
X183.798Y-122.683
X184.124Y-50.188
X184.154Y-85.439
X184.171Y-58.308
T2
X88.075Y-76.55
X88.1Y-71.325
X89.4Y-79.52
X89.4Y-82.06
X89.4Y-84.6
X90.6Y-71.325
X93.075Y-76.55
X94.875Y-63.22
X94.875Y-73.38
X95.05Y-81.25
X95.08Y-84.9
X95.08Y-92.52
X95.887Y-99.345
X95.887Y-109.505
X97.62Y-84.9
X97.62Y-92.52
X97.62Y-96.52
X98.85Y-63.22
X98.85Y-73.38
X99.684Y-99.345
X99.684Y-109.505
X100.05Y-81.25
X100.16Y-84.9
X100.16Y-92.52
X101.775Y-46.722
X101.775Y-51.722
X102.108Y-63.246
X102.108Y-73.406
X102.7Y-84.9
X102.7Y-92.52
X102.975Y-33.105
X102.975Y-43.265
X103.481Y-99.345
X103.481Y-109.505
X105.24Y-84.9
X105.24Y-92.52
X105.25Y-71.22
X105.25Y-81.38
X107.278Y-99.345
X107.278Y-109.505
X107.78Y-84.9
X107.78Y-92.52
X107.78Y-96.52
X110.32Y-84.9
X110.32Y-92.52
X110.55Y-33.105
X110.55Y-40.725
X111.075Y-99.345
X111.075Y-109.505
X111.506Y-57.658
X111.506Y-67.818
X114.872Y-99.345
X114.872Y-109.505
X115.27Y-84.9
X115.27Y-92.52
X115.285Y-67.515
X115.285Y-75.135
X115.285Y-81.25
X115.3Y-63.7
X117.75Y-53.675
X117.75Y-58.675
X117.81Y-84.9
X117.81Y-92.52
X117.825Y-67.515
X117.825Y-75.135
X118.669Y-99.345
X118.669Y-109.505
X120.285Y-81.25
X120.3Y-63.7
X120.35Y-84.9
X120.35Y-92.52
X120.365Y-67.515
X120.365Y-75.135
X122.466Y-99.345
X122.466Y-109.505
X122.89Y-84.9
X122.89Y-92.52
X122.905Y-67.515
X122.905Y-75.135
X125.43Y-84.9
X125.43Y-92.52
X125.445Y-67.515
X125.445Y-75.135
X125.984Y-50.995
X125.984Y-61.155
X126.262Y-99.345
X126.262Y-109.505
X127.97Y-84.9
X127.97Y-92.52
X127.985Y-67.515
X127.985Y-75.135
X129.175Y-50.995
X129.175Y-61.155
X130.51Y-84.9
X130.51Y-92.52
X130.525Y-67.515
X130.525Y-75.135
X131.55Y-33.105
X131.55Y-40.725
X132.3Y-53.535
X132.3Y-61.155
X132.315Y-50.7
X134.495Y-42.05
X135.025Y-53.535
X135.025Y-61.155
X135.35Y-81.25
X135.47Y-84.9
X135.47Y-92.52
X137.75Y-53.535
X137.75Y-61.155
X138.01Y-84.9
X138.01Y-92.52
X140.35Y-81.25
X140.475Y-53.535
X140.475Y-61.155
X140.55Y-84.9
X140.55Y-92.52
X141.78Y-64.21
X141.78Y-74.37
X142.475Y-50.7
X143.09Y-84.9
X143.09Y-92.52
X143.764Y-80.01
X144.655Y-42.05
X145.3Y-50.67
X145.3Y-60.83
X145.63Y-64.21
X145.63Y-74.37
X145.63Y-84.9
X145.63Y-92.52
X148.17Y-84.9
X148.17Y-92.52
X148.56Y-59.885
X150.67Y-41.37
X150.71Y-84.9
X150.71Y-92.52
X151.1Y-59.885
X153.64Y-59.885
X153.924Y-80.01
X158.29Y-41.37
X161.075Y-87.715
X161.075Y-95.335
X161.075Y-108.99
X161.075Y-116.61
X164.375Y-42.4
X164.433Y-62.721
X164.442Y-84.692
X164.45Y-119.575
X166.915Y-45.475
X166.915Y-47.975
X166.915Y-50.475
X166.915Y-52.975
X166.915Y-55.525
X166.973Y-65.788
X166.973Y-68.288
X166.973Y-70.788
X166.973Y-73.288
X166.982Y-87.801
X166.982Y-90.301
X166.982Y-92.801
X166.982Y-95.301
X166.99Y-75.825
X166.99Y-109.125
X166.99Y-111.625
X166.99Y-114.125
X166.99Y-116.625
X174.535Y-42.4
X174.535Y-45.475
X174.535Y-47.975
X174.535Y-50.475
X174.535Y-52.975
X174.535Y-55.525
X174.593Y-62.721
X174.593Y-65.788
X174.593Y-68.288
X174.593Y-70.788
X174.593Y-73.288
X174.602Y-84.692
X174.602Y-87.801
X174.602Y-90.301
X174.602Y-92.801
X174.602Y-95.301
X174.61Y-75.825
X174.61Y-109.125
X174.61Y-111.625
X174.61Y-114.125
X174.61Y-116.625
X174.61Y-119.575
T3
X95.375Y-116.675
X95.375Y-126.75
X97.875Y-116.675
X97.875Y-126.75
X100.375Y-116.675
X100.375Y-126.75
X107.1Y-116.675
X107.1Y-126.75
X109.6Y-116.675
X109.6Y-126.75
X112.1Y-116.675
X112.1Y-126.75
X180.1Y-41.325
X180.1Y-43.825
X180.1Y-46.325
X180.1Y-48.825
X180.1Y-51.325
X180.1Y-53.825
X180.1Y-56.325
X180.1Y-106.65
X180.1Y-109.15
X180.1Y-111.65
X180.1Y-114.15
X180.1Y-116.65
X180.1Y-119.15
X180.1Y-121.65
X180.108Y-63.296
X180.108Y-65.796
X180.108Y-68.296
X180.108Y-70.796
X180.108Y-73.296
X180.108Y-75.796
X180.108Y-78.296
X180.117Y-85.292
X180.117Y-87.792
X180.117Y-90.292
X180.117Y-92.792
X180.117Y-95.292
X180.117Y-97.792
X180.117Y-100.292
T4
X89.4Y-101.075
X89.4Y-103.575
X106.925Y-35.26
X106.925Y-37.8
X115.25Y-36.0
X117.75Y-36.0
X120.975Y-116.675
X120.975Y-126.75
X123.475Y-116.675
X123.475Y-126.75
X124.375Y-36.0
X126.875Y-36.0
X130.15Y-116.675
X132.55Y-126.75
X132.65Y-116.675
X135.0Y-35.26
X135.0Y-37.8
X135.05Y-126.75
X139.325Y-116.675
X141.338Y-36.0
X141.761Y-126.75
X141.825Y-116.675
X143.838Y-36.0
X144.261Y-126.75
X148.5Y-116.675
X150.606Y-36.0
X150.65Y-49.425
X150.972Y-126.75
X151.0Y-116.675
X153.106Y-36.0
X153.472Y-126.75
X158.25Y-49.425
X159.875Y-36.0
X160.183Y-126.75
X162.375Y-36.0
X162.683Y-126.75
X169.144Y-36.0
X169.394Y-126.75
X171.4Y-101.075
X171.4Y-103.575
X171.644Y-36.0
X171.894Y-126.75
T5
X89.35Y-88.09
X89.35Y-95.71
X112.67Y-48.65
X115.21Y-48.65
X117.75Y-48.65
T6
X92.657Y-47.475
X92.657Y-52.475
T7
X88.375Y-34.9
X88.375Y-127.875
X181.85Y-34.9
X181.85Y-127.875
M30
