%TF.GenerationSoftware,KiCad,Pcbnew,9.0.3*%
%TF.CreationDate,2025-08-27T16:44:28+03:00*%
%TF.ProjectId,Controller,436f6e74-726f-46c6-9c65-722e6b696361,1.0*%
%TF.SameCoordinates,Original*%
%TF.FileFunction,Other,User*%
%FSLAX46Y46*%
G04 Gerber Fmt 4.6, Leading zero omitted, Abs format (unit mm)*
G04 Created by KiCad (PCBNEW 9.0.3) date 2025-08-27 16:44:28*
%MOMM*%
%LPD*%
G01*
G04 APERTURE LIST*
%ADD10C,0.050000*%
G04 APERTURE END LIST*
%TO.C,R8*%
D10*
X108778125Y-98295000D02*
X105778125Y-98295000D01*
X105778125Y-110555000D01*
X108778125Y-110555000D01*
X108778125Y-98295000D01*
%TO.C,R12*%
X131265000Y-49200000D02*
X143525000Y-49200000D01*
X143525000Y-52200000D01*
X131265000Y-52200000D01*
X131265000Y-49200000D01*
%TO.C,U2*%
X133880000Y-94040000D02*
X152290000Y-94040000D01*
X152290000Y-83380000D01*
X133880000Y-83380000D01*
X133880000Y-94040000D01*
%TO.C,J19*%
X86550000Y-98125000D02*
X86550000Y-106525000D01*
X86550000Y-106525000D02*
X93300000Y-106525000D01*
X93300000Y-98125000D02*
X86550000Y-98125000D01*
X93300000Y-106525000D02*
X93300000Y-98125000D01*
%TO.C,U5*%
X109960000Y-45250000D02*
X109960000Y-50160000D01*
X109960000Y-50160000D02*
X120460000Y-50160000D01*
X120460000Y-45250000D02*
X109960000Y-45250000D01*
X120460000Y-50160000D02*
X120460000Y-45250000D01*
%TO.C,J18*%
X129600000Y-122850000D02*
X129600000Y-129600000D01*
X129600000Y-129600000D02*
X138000000Y-129600000D01*
X138000000Y-122850000D02*
X129600000Y-122850000D01*
X138000000Y-129600000D02*
X138000000Y-122850000D01*
%TO.C,R3*%
X108830000Y-98020000D02*
X96570000Y-98020000D01*
X96570000Y-95020000D01*
X108830000Y-95020000D01*
X108830000Y-98020000D01*
%TO.C,D16*%
X165931667Y-86550666D02*
X165931667Y-89050666D01*
X165931667Y-89050666D02*
X175651667Y-89050666D01*
X175651667Y-86550666D02*
X165931667Y-86550666D01*
X175651667Y-89050666D02*
X175651667Y-86550666D01*
%TO.C,Q1*%
X147550000Y-57155000D02*
X147550000Y-61895000D01*
X147550000Y-57155000D02*
X154650000Y-57155000D01*
X154650000Y-61895000D02*
X147550000Y-61895000D01*
X154650000Y-61895000D02*
X154650000Y-57155000D01*
%TO.C,J15*%
X166443750Y-122850000D02*
X166443750Y-129600000D01*
X166443750Y-129600000D02*
X174843750Y-129600000D01*
X174843750Y-122850000D02*
X166443750Y-122850000D01*
X174843750Y-129600000D02*
X174843750Y-122850000D01*
%TO.C,R25*%
X96375000Y-62170000D02*
X93375000Y-62170000D01*
X93375000Y-74430000D01*
X96375000Y-74430000D01*
X96375000Y-62170000D01*
%TO.C,D11*%
X133775000Y-52485000D02*
X133775000Y-62205000D01*
X133775000Y-62205000D02*
X136275000Y-62205000D01*
X136275000Y-52485000D02*
X133775000Y-52485000D01*
X136275000Y-62205000D02*
X136275000Y-52485000D01*
%TO.C,J6*%
X176200000Y-103700000D02*
X176200000Y-124600000D01*
X176200000Y-124600000D02*
X182950000Y-124600000D01*
X182950000Y-103700000D02*
X176200000Y-103700000D01*
X182950000Y-124600000D02*
X182950000Y-103700000D01*
%TO.C,R19*%
X142714000Y-78510000D02*
X154974000Y-78510000D01*
X154974000Y-81510000D01*
X142714000Y-81510000D01*
X142714000Y-78510000D01*
%TO.C,U4*%
X113695000Y-76655000D02*
X132105000Y-76655000D01*
X132105000Y-65995000D01*
X113695000Y-65995000D01*
X113695000Y-76655000D01*
%TO.C,R23*%
X120168750Y-98295000D02*
X117168750Y-98295000D01*
X117168750Y-110555000D01*
X120168750Y-110555000D01*
X120168750Y-98295000D01*
%TO.C,D17*%
X165940000Y-107875000D02*
X165940000Y-110375000D01*
X165940000Y-110375000D02*
X175660000Y-110375000D01*
X175660000Y-107875000D02*
X165940000Y-107875000D01*
X175660000Y-110375000D02*
X175660000Y-107875000D01*
%TO.C,D13*%
X136500000Y-52485000D02*
X136500000Y-62205000D01*
X136500000Y-62205000D02*
X139000000Y-62205000D01*
X139000000Y-52485000D02*
X136500000Y-52485000D01*
X139000000Y-62205000D02*
X139000000Y-52485000D01*
%TO.C,R2*%
X163383333Y-61221167D02*
X175643333Y-61221167D01*
X175643333Y-64221167D01*
X163383333Y-64221167D01*
X163383333Y-61221167D01*
%TO.C,R10*%
X104981250Y-98295000D02*
X101981250Y-98295000D01*
X101981250Y-110555000D01*
X104981250Y-110555000D01*
X104981250Y-98295000D01*
%TO.C,D23*%
X165940000Y-110375000D02*
X165940000Y-112875000D01*
X165940000Y-112875000D02*
X175660000Y-112875000D01*
X175660000Y-110375000D02*
X165940000Y-110375000D01*
X175660000Y-112875000D02*
X175660000Y-110375000D01*
%TO.C,D2*%
X165923333Y-64537834D02*
X165923333Y-67037834D01*
X165923333Y-67037834D02*
X175643333Y-67037834D01*
X175643333Y-64537834D02*
X165923333Y-64537834D01*
X175643333Y-67037834D02*
X175643333Y-64537834D01*
%TO.C,J4*%
X136375000Y-112775000D02*
X136375000Y-119525000D01*
X136375000Y-119525000D02*
X144775000Y-119525000D01*
X144775000Y-112775000D02*
X136375000Y-112775000D01*
X144775000Y-119525000D02*
X144775000Y-112775000D01*
%TO.C,R22*%
X97387500Y-98295000D02*
X94387500Y-98295000D01*
X94387500Y-110555000D01*
X97387500Y-110555000D01*
X97387500Y-98295000D01*
%TO.C,D29*%
X159825000Y-86665000D02*
X159825000Y-96385000D01*
X159825000Y-96385000D02*
X162325000Y-96385000D01*
X162325000Y-86665000D02*
X159825000Y-86665000D01*
X162325000Y-96385000D02*
X162325000Y-86665000D01*
%TO.C,Q2*%
X87390000Y-85610000D02*
X87390000Y-78510000D01*
X87390000Y-85610000D02*
X92130000Y-85610000D01*
X92130000Y-78510000D02*
X87390000Y-78510000D01*
X92130000Y-78510000D02*
X92130000Y-85610000D01*
%TO.C,R6*%
X100608000Y-74456000D02*
X103608000Y-74456000D01*
X103608000Y-62196000D01*
X100608000Y-62196000D01*
X100608000Y-74456000D01*
%TO.C,J2*%
X176208333Y-60346167D02*
X176208333Y-81246167D01*
X176208333Y-81246167D02*
X182958333Y-81246167D01*
X182958333Y-60346167D02*
X176208333Y-60346167D01*
X182958333Y-81246167D02*
X182958333Y-60346167D01*
%TO.C,R18*%
X143280000Y-63160000D02*
X140280000Y-63160000D01*
X140280000Y-75420000D01*
X143280000Y-75420000D01*
X143280000Y-63160000D01*
%TO.C,D4*%
X165865000Y-51725000D02*
X165865000Y-54225000D01*
X165865000Y-54225000D02*
X175585000Y-54225000D01*
X175585000Y-51725000D02*
X165865000Y-51725000D01*
X175585000Y-54225000D02*
X175585000Y-51725000D01*
%TO.C,D10*%
X92425000Y-112775000D02*
X92425000Y-119525000D01*
X92425000Y-119525000D02*
X103325000Y-119525000D01*
X103325000Y-112775000D02*
X92425000Y-112775000D01*
X103325000Y-119525000D02*
X103325000Y-112775000D01*
%TO.C,D22*%
X165931667Y-89050666D02*
X165931667Y-91550666D01*
X165931667Y-91550666D02*
X175651667Y-91550666D01*
X175651667Y-89050666D02*
X165931667Y-89050666D01*
X175651667Y-91550666D02*
X175651667Y-89050666D01*
%TO.C,J7*%
X87157500Y-44475000D02*
X87157500Y-55475000D01*
X87157500Y-55475000D02*
X97157500Y-55475000D01*
X97157500Y-44475000D02*
X87157500Y-44475000D01*
X97157500Y-55475000D02*
X97157500Y-44475000D01*
%TO.C,D21*%
X165940000Y-115375000D02*
X165940000Y-117875000D01*
X165940000Y-117875000D02*
X175660000Y-117875000D01*
X175660000Y-115375000D02*
X165940000Y-115375000D01*
X175660000Y-117875000D02*
X175660000Y-115375000D01*
%TO.C,R16*%
X163400000Y-118075000D02*
X175660000Y-118075000D01*
X175660000Y-121075000D01*
X163400000Y-121075000D01*
X163400000Y-118075000D01*
%TO.C,U3*%
X113680000Y-94040000D02*
X132090000Y-94040000D01*
X132090000Y-83380000D01*
X113680000Y-83380000D01*
X113680000Y-94040000D01*
%TO.C,R21*%
X123965625Y-98295000D02*
X120965625Y-98295000D01*
X120965625Y-110555000D01*
X123965625Y-110555000D01*
X123965625Y-98295000D01*
%TO.C,R4*%
X106750000Y-70170000D02*
X103750000Y-70170000D01*
X103750000Y-82430000D01*
X106750000Y-82430000D01*
X106750000Y-70170000D01*
%TO.C,D27*%
X165940000Y-74575000D02*
X165940000Y-77075000D01*
X165940000Y-77075000D02*
X175660000Y-77075000D01*
X175660000Y-74575000D02*
X165940000Y-74575000D01*
X175660000Y-77075000D02*
X175660000Y-74575000D01*
%TO.C,R7*%
X116371875Y-98295000D02*
X113371875Y-98295000D01*
X113371875Y-110555000D01*
X116371875Y-110555000D01*
X116371875Y-98295000D01*
%TO.C,J10*%
X166193750Y-33150000D02*
X166193750Y-39900000D01*
X166193750Y-39900000D02*
X174593750Y-39900000D01*
X174593750Y-33150000D02*
X166193750Y-33150000D01*
X174593750Y-39900000D02*
X174593750Y-33150000D01*
%TO.C,R28*%
X145705000Y-43550000D02*
X133445000Y-43550000D01*
X133445000Y-40550000D01*
X145705000Y-40550000D01*
X145705000Y-43550000D01*
%TO.C,R27*%
X101475000Y-44315000D02*
X104475000Y-44315000D01*
X104475000Y-32055000D01*
X101475000Y-32055000D01*
X101475000Y-44315000D01*
%TO.C,H4*%
X184900000Y-127875000D02*
G75*
G02*
X178800000Y-127875000I-3050000J0D01*
G01*
X178800000Y-127875000D02*
G75*
G02*
X184900000Y-127875000I3050000J0D01*
G01*
%TO.C,D8*%
X165923333Y-67037834D02*
X165923333Y-69537834D01*
X165923333Y-69537834D02*
X175643333Y-69537834D01*
X175643333Y-67037834D02*
X165923333Y-67037834D01*
X175643333Y-69537834D02*
X175643333Y-67037834D01*
%TO.C,J11*%
X156925000Y-33150000D02*
X156925000Y-39900000D01*
X156925000Y-39900000D02*
X165325000Y-39900000D01*
X165325000Y-33150000D02*
X156925000Y-33150000D01*
X165325000Y-39900000D02*
X165325000Y-33150000D01*
%TO.C,J21*%
X112300000Y-33150000D02*
X112300000Y-39900000D01*
X112300000Y-39900000D02*
X120700000Y-39900000D01*
X120700000Y-33150000D02*
X112300000Y-33150000D01*
X120700000Y-39900000D02*
X120700000Y-33150000D01*
%TO.C,D20*%
X165940000Y-112875000D02*
X165940000Y-115375000D01*
X165940000Y-115375000D02*
X175660000Y-115375000D01*
X175660000Y-112875000D02*
X165940000Y-112875000D01*
X175660000Y-115375000D02*
X175660000Y-112875000D01*
%TO.C,JP2*%
X133230000Y-33480000D02*
X133230000Y-39570000D01*
X133230000Y-39570000D02*
X136770000Y-39570000D01*
X136770000Y-33480000D02*
X133230000Y-33480000D01*
X136770000Y-39570000D02*
X136770000Y-33480000D01*
%TO.C,C6*%
X121470000Y-56175000D02*
G75*
G02*
X114030000Y-56175000I-3720000J0D01*
G01*
X114030000Y-56175000D02*
G75*
G02*
X121470000Y-56175000I3720000J0D01*
G01*
%TO.C,D31*%
X130300000Y-32055000D02*
X130300000Y-41775000D01*
X130300000Y-41775000D02*
X132800000Y-41775000D01*
X132800000Y-32055000D02*
X130300000Y-32055000D01*
X132800000Y-41775000D02*
X132800000Y-32055000D01*
%TO.C,D15*%
X118025000Y-122850000D02*
X118025000Y-129600000D01*
X118025000Y-129600000D02*
X126425000Y-129600000D01*
X126425000Y-122850000D02*
X118025000Y-122850000D01*
X126425000Y-129600000D02*
X126425000Y-122850000D01*
%TO.C,D5*%
X165923333Y-69537834D02*
X165923333Y-72037834D01*
X165923333Y-72037834D02*
X175643333Y-72037834D01*
X175643333Y-69537834D02*
X165923333Y-69537834D01*
X175643333Y-72037834D02*
X175643333Y-69537834D01*
%TO.C,D7*%
X165865000Y-46725000D02*
X165865000Y-49225000D01*
X165865000Y-49225000D02*
X175585000Y-49225000D01*
X175585000Y-46725000D02*
X165865000Y-46725000D01*
X175585000Y-49225000D02*
X175585000Y-46725000D01*
%TO.C,J8*%
X118025000Y-112775000D02*
X118025000Y-119525000D01*
X118025000Y-119525000D02*
X126425000Y-119525000D01*
X126425000Y-112775000D02*
X118025000Y-112775000D01*
X126425000Y-119525000D02*
X126425000Y-112775000D01*
%TO.C,R5*%
X110006000Y-68868000D02*
X113006000Y-68868000D01*
X113006000Y-56608000D01*
X110006000Y-56608000D01*
X110006000Y-68868000D01*
%TO.C,D30*%
X87750000Y-86740000D02*
X87750000Y-97060000D01*
X87750000Y-97060000D02*
X90950000Y-97060000D01*
X90950000Y-86740000D02*
X87750000Y-86740000D01*
X90950000Y-97060000D02*
X90950000Y-86740000D01*
%TO.C,J16*%
X157232813Y-122850000D02*
X157232813Y-129600000D01*
X157232813Y-129600000D02*
X165632813Y-129600000D01*
X165632813Y-122850000D02*
X157232813Y-122850000D01*
X165632813Y-129600000D02*
X165632813Y-122850000D01*
%TO.C,D32*%
X109300000Y-32055000D02*
X109300000Y-41775000D01*
X109300000Y-41775000D02*
X111800000Y-41775000D01*
X111800000Y-32055000D02*
X109300000Y-32055000D01*
X111800000Y-41775000D02*
X111800000Y-32055000D01*
%TO.C,D25*%
X92425000Y-122850000D02*
X92425000Y-129600000D01*
X92425000Y-129600000D02*
X103325000Y-129600000D01*
X103325000Y-122850000D02*
X92425000Y-122850000D01*
X103325000Y-129600000D02*
X103325000Y-122850000D01*
%TO.C,U1*%
X93490000Y-94040000D02*
X111900000Y-94040000D01*
X111900000Y-83380000D01*
X93490000Y-83380000D01*
X93490000Y-94040000D01*
%TO.C,C8*%
X87025000Y-75050000D02*
X94125000Y-75050000D01*
X94125000Y-78050000D01*
X87025000Y-78050000D01*
X87025000Y-75050000D01*
%TO.C,D18*%
X165931667Y-91550666D02*
X165931667Y-94050666D01*
X165931667Y-94050666D02*
X175651667Y-94050666D01*
X175651667Y-91550666D02*
X165931667Y-91550666D01*
X175651667Y-94050666D02*
X175651667Y-91550666D01*
%TO.C,JP1*%
X105155000Y-33480000D02*
X105155000Y-39570000D01*
X105155000Y-39570000D02*
X108695000Y-39570000D01*
X108695000Y-33480000D02*
X105155000Y-33480000D01*
X108695000Y-39570000D02*
X108695000Y-33480000D01*
%TO.C,H3*%
X184900000Y-34900000D02*
G75*
G02*
X178800000Y-34900000I-3050000J0D01*
G01*
X178800000Y-34900000D02*
G75*
G02*
X184900000Y-34900000I3050000J0D01*
G01*
%TO.C,R26*%
X100350000Y-62170000D02*
X97350000Y-62170000D01*
X97350000Y-74430000D01*
X100350000Y-74430000D01*
X100350000Y-62170000D01*
%TO.C,D24*%
X104150000Y-122850000D02*
X104150000Y-129600000D01*
X104150000Y-129600000D02*
X115050000Y-129600000D01*
X115050000Y-122850000D02*
X104150000Y-122850000D01*
X115050000Y-129600000D02*
X115050000Y-122850000D01*
%TO.C,J13*%
X138387500Y-33150000D02*
X138387500Y-39900000D01*
X138387500Y-39900000D02*
X146787500Y-39900000D01*
X146787500Y-33150000D02*
X138387500Y-33150000D01*
X146787500Y-39900000D02*
X146787500Y-33150000D01*
%TO.C,J3*%
X145550000Y-112775000D02*
X145550000Y-119525000D01*
X145550000Y-119525000D02*
X153950000Y-119525000D01*
X153950000Y-112775000D02*
X145550000Y-112775000D01*
X153950000Y-119525000D02*
X153950000Y-112775000D01*
%TO.C,D14*%
X131050000Y-52485000D02*
X131050000Y-62205000D01*
X131050000Y-62205000D02*
X133550000Y-62205000D01*
X133550000Y-52485000D02*
X131050000Y-52485000D01*
X133550000Y-62205000D02*
X133550000Y-52485000D01*
%TO.C,J17*%
X138810938Y-122850000D02*
X138810938Y-129600000D01*
X138810938Y-129600000D02*
X147210938Y-129600000D01*
X147210938Y-122850000D02*
X138810938Y-122850000D01*
X147210938Y-129600000D02*
X147210938Y-122850000D01*
%TO.C,R14*%
X127762500Y-98295000D02*
X124762500Y-98295000D01*
X124762500Y-110555000D01*
X127762500Y-110555000D01*
X127762500Y-98295000D01*
%TO.C,J5*%
X176216667Y-82342333D02*
X176216667Y-103242333D01*
X176216667Y-103242333D02*
X182966667Y-103242333D01*
X182966667Y-82342333D02*
X176216667Y-82342333D01*
X182966667Y-103242333D02*
X182966667Y-82342333D01*
%TO.C,C4*%
X114235000Y-79750000D02*
X121335000Y-79750000D01*
X121335000Y-82750000D01*
X114235000Y-82750000D01*
X114235000Y-79750000D01*
%TO.C,J14*%
X148021875Y-122850000D02*
X148021875Y-129600000D01*
X148021875Y-129600000D02*
X156421875Y-129600000D01*
X156421875Y-122850000D02*
X148021875Y-122850000D01*
X156421875Y-129600000D02*
X156421875Y-122850000D01*
%TO.C,R11*%
X130675000Y-49945000D02*
X127675000Y-49945000D01*
X127675000Y-62205000D01*
X130675000Y-62205000D01*
X130675000Y-49945000D01*
%TO.C,BZ1*%
X160700000Y-49425000D02*
G75*
G02*
X148200000Y-49425000I-6250000J0D01*
G01*
X148200000Y-49425000D02*
G75*
G02*
X160700000Y-49425000I6250000J0D01*
G01*
%TO.C,J1*%
X176200000Y-38375000D02*
X176200000Y-59275000D01*
X176200000Y-59275000D02*
X182950000Y-59275000D01*
X182950000Y-38375000D02*
X176200000Y-38375000D01*
X182950000Y-59275000D02*
X182950000Y-38375000D01*
%TO.C,R20*%
X124484000Y-62205000D02*
X127484000Y-62205000D01*
X127484000Y-49945000D01*
X124484000Y-49945000D01*
X124484000Y-62205000D01*
%TO.C,C3*%
X114250000Y-62200000D02*
X121350000Y-62200000D01*
X121350000Y-65200000D01*
X114250000Y-65200000D01*
X114250000Y-62200000D01*
%TO.C,R9*%
X112575000Y-98295000D02*
X109575000Y-98295000D01*
X109575000Y-110555000D01*
X112575000Y-110555000D01*
X112575000Y-98295000D01*
%TO.C,D26*%
X165865000Y-54275000D02*
X165865000Y-56775000D01*
X165865000Y-56775000D02*
X175585000Y-56775000D01*
X175585000Y-54275000D02*
X165865000Y-54275000D01*
X175585000Y-56775000D02*
X175585000Y-54275000D01*
%TO.C,C7*%
X92750000Y-71325000D02*
G75*
G02*
X85950000Y-71325000I-3400000J0D01*
G01*
X85950000Y-71325000D02*
G75*
G02*
X92750000Y-71325000I3400000J0D01*
G01*
%TO.C,J12*%
X147656250Y-33150000D02*
X147656250Y-39900000D01*
X147656250Y-39900000D02*
X156056250Y-39900000D01*
X156056250Y-33150000D02*
X147656250Y-33150000D01*
X156056250Y-39900000D02*
X156056250Y-33150000D01*
%TO.C,D6*%
X165923333Y-72037834D02*
X165923333Y-74537834D01*
X165923333Y-74537834D02*
X175643333Y-74537834D01*
X175643333Y-72037834D02*
X165923333Y-72037834D01*
X175643333Y-74537834D02*
X175643333Y-72037834D01*
%TO.C,C1*%
X94000000Y-79750000D02*
X101100000Y-79750000D01*
X101100000Y-82750000D01*
X94000000Y-82750000D01*
X94000000Y-79750000D01*
%TO.C,R1*%
X163325000Y-40900000D02*
X175585000Y-40900000D01*
X175585000Y-43900000D01*
X163325000Y-43900000D01*
X163325000Y-40900000D01*
%TO.C,C2*%
X134300000Y-79750000D02*
X141400000Y-79750000D01*
X141400000Y-82750000D01*
X134300000Y-82750000D01*
X134300000Y-79750000D01*
%TO.C,D33*%
X149620000Y-40120000D02*
X149620000Y-42620000D01*
X149620000Y-42620000D02*
X159340000Y-42620000D01*
X159340000Y-40120000D02*
X149620000Y-40120000D01*
X159340000Y-42620000D02*
X159340000Y-40120000D01*
%TO.C,D1*%
X165865000Y-44225000D02*
X165865000Y-46725000D01*
X165865000Y-46725000D02*
X175585000Y-46725000D01*
X175585000Y-44225000D02*
X165865000Y-44225000D01*
X175585000Y-46725000D02*
X175585000Y-44225000D01*
%TO.C,D9*%
X104150000Y-112775000D02*
X104150000Y-119525000D01*
X104150000Y-119525000D02*
X115050000Y-119525000D01*
X115050000Y-112775000D02*
X104150000Y-112775000D01*
X115050000Y-119525000D02*
X115050000Y-112775000D01*
%TO.C,C5*%
X105495000Y-49222349D02*
G75*
G02*
X98055000Y-49222349I-3720000J0D01*
G01*
X98055000Y-49222349D02*
G75*
G02*
X105495000Y-49222349I3720000J0D01*
G01*
%TO.C,D28*%
X159825000Y-107940000D02*
X159825000Y-117660000D01*
X159825000Y-117660000D02*
X162325000Y-117660000D01*
X162325000Y-107940000D02*
X159825000Y-107940000D01*
X162325000Y-117660000D02*
X162325000Y-107940000D01*
%TO.C,D19*%
X165931667Y-94050666D02*
X165931667Y-96550666D01*
X165931667Y-96550666D02*
X175651667Y-96550666D01*
X175651667Y-94050666D02*
X165931667Y-94050666D01*
X175651667Y-96550666D02*
X175651667Y-94050666D01*
%TO.C,R24*%
X101184375Y-98295000D02*
X98184375Y-98295000D01*
X98184375Y-110555000D01*
X101184375Y-110555000D01*
X101184375Y-98295000D01*
%TO.C,H1*%
X91425000Y-127875000D02*
G75*
G02*
X85325000Y-127875000I-3050000J0D01*
G01*
X85325000Y-127875000D02*
G75*
G02*
X91425000Y-127875000I3050000J0D01*
G01*
%TO.C,D3*%
X165865000Y-49225000D02*
X165865000Y-51725000D01*
X165865000Y-51725000D02*
X175585000Y-51725000D01*
X175585000Y-49225000D02*
X165865000Y-49225000D01*
X175585000Y-51725000D02*
X175585000Y-49225000D01*
%TO.C,D12*%
X139225000Y-52485000D02*
X139225000Y-62205000D01*
X139225000Y-62205000D02*
X141725000Y-62205000D01*
X141725000Y-52485000D02*
X139225000Y-52485000D01*
X141725000Y-62205000D02*
X141725000Y-52485000D01*
%TO.C,R13*%
X146800000Y-49620000D02*
X143800000Y-49620000D01*
X143800000Y-61880000D01*
X146800000Y-61880000D01*
X146800000Y-49620000D01*
%TO.C,H2*%
X91425000Y-34900000D02*
G75*
G02*
X85325000Y-34900000I-3050000J0D01*
G01*
X85325000Y-34900000D02*
G75*
G02*
X91425000Y-34900000I3050000J0D01*
G01*
%TO.C,J22*%
X121425000Y-33150000D02*
X121425000Y-39900000D01*
X121425000Y-39900000D02*
X129825000Y-39900000D01*
X129825000Y-33150000D02*
X121425000Y-33150000D01*
X129825000Y-39900000D02*
X129825000Y-33150000D01*
%TO.C,J9*%
X127200000Y-112775000D02*
X127200000Y-119525000D01*
X127200000Y-119525000D02*
X135600000Y-119525000D01*
X135600000Y-112775000D02*
X127200000Y-112775000D01*
X135600000Y-119525000D02*
X135600000Y-112775000D01*
%TO.C,R15*%
X163391667Y-83192333D02*
X175651667Y-83192333D01*
X175651667Y-86192333D01*
X163391667Y-86192333D01*
X163391667Y-83192333D01*
%TO.C,R17*%
X147130000Y-63160000D02*
X144130000Y-63160000D01*
X144130000Y-75420000D01*
X147130000Y-75420000D01*
X147130000Y-63160000D01*
%TO.C,J20*%
X167500000Y-98125000D02*
X167500000Y-106525000D01*
X167500000Y-106525000D02*
X174250000Y-106525000D01*
X174250000Y-98125000D02*
X167500000Y-98125000D01*
X174250000Y-106525000D02*
X174250000Y-98125000D01*
%TD*%
M02*
